<?xml version="1.0" encoding="UTF-8" standalone="no"?>
<svg
   version="1.1"
   id="Layer_1"
   x="0px"
   y="0px"
   width="80"
   height="80"
   viewBox="0 0 500 500"
   enable-background="new 0 0 500 500"
   xml:space="preserve"
   sodipodi:docname="img.svg"
   inkscape:version="1.2.2 (732a01da63, 2022-12-09)"
   xmlns:inkscape="http://www.inkscape.org/namespaces/inkscape"
   xmlns:sodipodi="http://sodipodi.sourceforge.net/DTD/sodipodi-0.dtd"
   xmlns="http://www.w3.org/2000/svg"
   xmlns:svg="http://www.w3.org/2000/svg"><defs
   id="defs7" /><sodipodi:namedview
   id="namedview5"
   pagecolor="#505050"
   bordercolor="#eeeeee"
   borderopacity="1"
   inkscape:showpageshadow="0"
   inkscape:pageopacity="0"
   inkscape:pagecheckerboard="0"
   inkscape:deskcolor="#505050"
   showgrid="false"
   inkscape:zoom="6.6875"
   inkscape:cx="40.074766"
   inkscape:cy="52.037383"
   inkscape:window-width="1366"
   inkscape:window-height="715"
   inkscape:window-x="1358"
   inkscape:window-y="-8"
   inkscape:window-maximized="1"
   inkscape:current-layer="Layer_1" />
              <path
   fill="#fff"
   d="M 224.22 8.979 C 247.074 8.979 265.599 30.163 265.599 56.297 C 265.599 82.43 247.072 103.615 224.22 103.615 C 201.368 103.615 182.839 82.43 182.839 56.297 C 182.839 30.163 201.366 8.979 224.22 8.979 Z M 72.429 295.724 L 72.048 295.288 C 70.331 293.981 68.807 292.89 67.472 291.146 L 72.048 351.112 L 14.458 444.44 C 6.259 457.961 9.12 476.279 20.56 485.654 C 32.383 495.03 48.402 491.759 56.601 478.677 L 118.767 376.19 C 122.007 370.957 124.105 363.978 123.343 357.001 L 121.245 328 L 72.429 295.724 Z M 243.479 490.887 L 490.235 490.887 L 444.086 326.254 C 444.086 326.254 417.961 333.669 366.286 396.467 C 365.142 397.775 363.806 399.302 362.662 400.61 L 237.952 318.184 C 240.049 313.605 240.43 308.371 239.668 302.701 L 195.424 115.173 C 191.802 96.855 177.5 82.899 160.719 82.899 L 78.149 82.899 C 72.048 82.899 65.945 86.605 62.512 92.713 L 21.324 174.484 C 15.985 184.298 19.227 196.943 27.809 202.612 L 73.956 232.923 L 67.853 244.698 C 60.417 258.653 64.611 276.535 77.197 284.384 L 180.741 352.637 L 180.741 460.793 C 180.741 477.148 192.183 490.232 206.485 490.232 C 220.787 490.232 232.229 477.148 232.229 460.793 L 232.229 337.373 L 346.834 413.258 C 323.188 428.741 296.109 431.576 276.85 444.657 C 253.204 460.793 243.479 490.887 243.479 490.887 Z M 82.726 215.697 L 52.405 195.635 L 88.446 124.548 L 128.873 124.548 L 82.726 215.697 Z M 149.279 259.744 L 177.883 202.612 L 199.241 292.451 L 149.279 259.744 Z"
   style=""
   id="path2" />
          </svg>
