<?xml version="1.0" encoding="UTF-8"?>
<svg width="80" height="80" enable-background="new 0 0 500 500" version="1.1" viewBox="0 0 500 500" xml:space="preserve" xmlns="http://www.w3.org/2000/svg">
              <path d="m224.22 8.979c22.854 0 41.379 21.184 41.379 47.318 0 26.133-18.527 47.318-41.379 47.318s-41.381-21.185-41.381-47.318c0-26.134 18.527-47.318 41.381-47.318zm-151.79 286.74-0.381-0.436c-1.717-1.307-3.241-2.398-4.576-4.142l4.576 59.966-57.59 93.328c-8.199 13.521-5.338 31.839 6.102 41.214 11.823 9.376 27.842 6.105 36.041-6.977l62.166-102.49c3.24-5.233 5.338-12.212 4.576-19.189l-2.098-29.001-48.816-32.276zm171.05 195.16h246.76l-46.149-164.63s-26.125 7.415-77.8 70.213c-1.144 1.308-2.48 2.835-3.624 4.143l-124.71-82.426c2.097-4.579 2.478-9.813 1.716-15.483l-44.244-187.53c-3.622-18.318-17.924-32.274-34.705-32.274h-82.57c-6.101 0-12.204 3.706-15.637 9.814l-41.188 81.771c-5.339 9.814-2.097 22.459 6.485 28.128l46.147 30.311-6.103 11.775c-7.436 13.955-3.242 31.837 9.344 39.686l103.54 68.253v108.16c0 16.355 11.442 29.439 25.744 29.439s25.744-13.084 25.744-29.439v-123.42l114.6 75.885c-23.646 15.483-50.725 18.318-69.984 31.399-23.646 16.136-33.371 46.23-33.371 46.23zm-160.75-275.19-30.321-20.062 36.041-71.087h40.427l-46.147 91.149zm66.553 44.047 28.604-57.132 21.358 89.839-49.962-32.707z" fill="#fff" style=""/>
          </svg>
