<?xml version="1.0" encoding="UTF-8" standalone="no"?>
<!-- Created with Inkscape (http://www.inkscape.org/) -->

<svg
   width="600mm"
   height="250mm"
   version="1.1"
   viewBox="0 0 600 250"
   xml:space="preserve"
   id="svg348"
   sodipodi:docname="img.svg"
   inkscape:version="1.2.2 (732a01da63, 2022-12-09)"
   xmlns:inkscape="http://www.inkscape.org/namespaces/inkscape"
   xmlns:sodipodi="http://sodipodi.sourceforge.net/DTD/sodipodi-0.dtd"
   xmlns="http://www.w3.org/2000/svg"
   xmlns:svg="http://www.w3.org/2000/svg"><defs
     id="defs352" /><sodipodi:namedview
     id="namedview350"
     pagecolor="#505050"
     bordercolor="#eeeeee"
     borderopacity="1"
     inkscape:showpageshadow="0"
     inkscape:pageopacity="0"
     inkscape:pagecheckerboard="0"
     inkscape:deskcolor="#505050"
     inkscape:document-units="mm"
     showgrid="false"
     inkscape:zoom="0.53137153"
     inkscape:cx="1134.7992"
     inkscape:cy="472.36253"
     inkscape:window-width="1366"
     inkscape:window-height="715"
     inkscape:window-x="1358"
     inkscape:window-y="-8"
     inkscape:window-maximized="1"
     inkscape:current-layer="g346" /><g
     transform="matrix(.63748 0 0 .63748 .69809 -124.2)"
     id="g346"><g
       transform="translate(807.21 367.18)"
       id="g14"
       style="fill:#5c83be;fill-opacity:1">

		<g
   transform="translate(0 -76.819)"
   id="g4"
   style="fill:#5c83be;fill-opacity:1">
<path
   transform="translate(-12.092 -12.002)"
   d="m16.86 8a4 4 0 0 0-3.86-3h-7v3h-4v2h4v3h7a4 4 0 0 0 3.85-3 3.5044 3.5044 0 0 1-0.35 7h-14.5v2h14.5a5.5029 5.5029 0 0 0 0.36-11z"
   stroke-linecap="round"
   vector-effect="non-scaling-stroke"
   id="path2"
   style="fill:#5c83be;fill-opacity:1" />
</g>
		<g
   transform="translate(0 -26.449)"
   id="g8"
   style="fill:#5c83be;fill-opacity:1">
<path
   transform="translate(-12.092 -12.002)"
   d="m16.86 8a4 4 0 0 0-3.86-3h-7v3h-4v2h4v3h7a4 4 0 0 0 3.85-3 3.5044 3.5044 0 0 1-0.35 7h-14.5v2h14.5a5.5029 5.5029 0 0 0 0.36-11z"
   stroke-linecap="round"
   vector-effect="non-scaling-stroke"
   id="path6"
   style="fill:#5c83be;fill-opacity:1" />
</g>
		<g
   transform="translate(0 76.819)"
   id="g12"
   style="fill:#5c83be;fill-opacity:1">
<path
   transform="translate(-12.092 -12.002)"
   d="m16.86 8a4 4 0 0 0-3.86-3h-7v3h-4v2h4v3h7a4 4 0 0 0 3.85-3 3.5044 3.5044 0 0 1-0.35 7h-14.5v2h14.5a5.5029 5.5029 0 0 0 0.36-11z"
   stroke-linecap="round"
   vector-effect="non-scaling-stroke"
   id="path10"
   style="fill:#5c83be;fill-opacity:1" />
</g>

</g><g
       transform="matrix(.7703 0 0 .7703 303.43 478.35)"
       id="g18">
<path
   transform="translate(-147.05 -147.05)"
   d="m294.09 25.772c-0.766-7.566-6.988-13.222-14.756-13.222h-264c-8.284 0-15.333 6.216-15.333 14.5v158.33 6e-3 29.161c0 8.284 7.049 15 15.333 15h74.618l-4.416 22h-21.202c-8.284 0-15 6.716-15 15s6.716 15 15 15h132.5c5e-3 -1e-3 0.013-1e-3 0.02 0h32.48c8.284 0 15-6.716 15-15s-6.716-15-15-15h-20.203l-4.416-22h74.618c8.284 0 14.667-6.716 14.667-15v-187.5c1e-3 -0.518 0.141-0.777 0.09-1.278zm-30.089 16.778v128h-234v-128z"
   fill="#b7bfcb"
   stroke-linecap="round"
   vector-effect="non-scaling-stroke"
   id="path16" />
</g><g
       transform="matrix(1.0612 0 0 1.0612 668.18 443.47)"
       id="g64">

		<g
   transform="matrix(1.5975 0 0 .314 -1e-4 0)"
   id="g22">
<path
   transform="translate(-79 -79)"
   d="m154.68 2.5005h0.026l0.027-5.5e-4c0.412-0.00868 0.753 0.31859 0.762 0.73046v2.9e-4 0.03214l-1e-3 0.02603v151.4c0 0.449-0.364 0.814-0.814 0.814h-151.37c-0.4496 0-0.81409-0.365-0.81409-0.814v-151.37c0-0.45007 0.36465-0.81441 0.81409-0.81441z"
   fill="#fff"
   stroke="#b7bfcb"
   stroke-width="5"
   vector-effect="non-scaling-stroke"
   id="path20" />
</g>
		<g
   transform="translate(45.231)"
   id="g52">

		<g
   transform="matrix(0 .8377 -2.8084 0 58.988 -2e-4)"
   id="g26">
<path
   transform="translate(-16,-9)"
   d="m28 10h-24a1 1 0 0 1 0-2h24a1 1 0 0 1 0 2z"
   fill="#b7bfcb"
   stroke-linecap="round"
   id="path24" />
</g>
		<g
   transform="matrix(0 .8377 -2.8084 0 39.329 -2e-4)"
   id="g30">
<path
   transform="translate(-16,-16)"
   d="m28 17h-24a1 1 0 0 1 0-2h24a1 1 0 0 1 0 2z"
   fill="#b7bfcb"
   stroke-linecap="round"
   id="path28" />
</g>
		<g
   transform="matrix(0 .8377 -2.8084 0 19.67 -2e-4)"
   id="g34">
<path
   transform="translate(-16,-23)"
   d="m28 24h-24a1 1 0 0 1 0-2h24a1 1 0 0 1 0 2z"
   fill="#b7bfcb"
   stroke-linecap="round"
   id="path32" />
</g>
		<g
   transform="matrix(0 .8377 -2.8084 0 .0257 -2e-4)"
   id="g38">
<path
   transform="translate(-16,-9)"
   d="m28 10h-24a1 1 0 0 1 0-2h24a1 1 0 0 1 0 2z"
   fill="#b7bfcb"
   stroke-linecap="round"
   id="path36" />
</g>
		<g
   transform="matrix(0 .8377 -2.8084 0 -19.633 -2e-4)"
   id="g42">
<path
   transform="translate(-16,-16)"
   d="m28 17h-24a1 1 0 0 1 0-2h24a1 1 0 0 1 0 2z"
   fill="#b7bfcb"
   stroke-linecap="round"
   id="path40" />
</g>
		<g
   transform="matrix(0 .8377 -2.8084 0 -39.292 -2e-4)"
   id="g46">
<path
   transform="translate(-16,-23)"
   d="m28 24h-24a1 1 0 0 1 0-2h24a1 1 0 0 1 0 2z"
   fill="#b7bfcb"
   stroke-linecap="round"
   id="path44" />
</g>
		<g
   transform="matrix(0 .8377 -2.8084 0 -58.988 -2e-4)"
   id="g50">
<path
   transform="translate(-16,-16)"
   d="m28 17h-24a1 1 0 0 1 0-2h24a1 1 0 0 1 0 2z"
   fill="#b7bfcb"
   stroke-linecap="round"
   id="path48" />
</g>

</g>
		<g
   transform="translate(-95.861 -.0021)"
   id="g62">

		<g
   transform="matrix(.1467 0 0 .0869 -9.2218 9e-4)"
   id="g56">
<path
   transform="translate(-78.5 -78.5)"
   d="m78.5 0c-25.558 0-46.383 35.227-46.383 78.5 0 43.273 20.825 78.5 46.383 78.5 25.558 0 46.383-35.227 46.383-78.5 0-43.273-20.825-78.5-46.383-78.5z"
   fill="#09f"
   stroke-linecap="round"
   vector-effect="non-scaling-stroke"
   id="path54" />
</g>
		<g
   transform="matrix(.1467 0 0 .0869 9.2217 -.001)"
   id="g60">
<path
   transform="translate(-78.5 -78.5)"
   d="m78.5 0c-25.558 0-46.383 35.227-46.383 78.5 0 43.273 20.825 78.5 46.383 78.5 25.558 0 46.383-35.227 46.383-78.5 0-43.273-20.825-78.5-46.383-78.5z"
   fill="#b7bfcb"
   stroke-linecap="round"
   vector-effect="non-scaling-stroke"
   id="path58" />
</g>

</g>

</g><g
       transform="matrix(1.0612 0 0 1.0612 668.18 494.59)"
       id="g110">

		<g
   transform="matrix(1.5975 0 0 .314 -1e-4 0)"
   id="g68">
<path
   transform="translate(-79 -79)"
   d="m154.68 2.5005h0.026l0.027-5.5e-4c0.412-0.00868 0.753 0.31859 0.762 0.73046v2.9e-4 0.03214l-1e-3 0.02603v151.4c0 0.449-0.364 0.814-0.814 0.814h-151.37c-0.4496 0-0.81409-0.365-0.81409-0.814v-151.37c0-0.45007 0.36465-0.81441 0.81409-0.81441z"
   fill="#fff"
   stroke="#b7bfcb"
   stroke-width="5"
   vector-effect="non-scaling-stroke"
   id="path66" />
</g>
		<g
   transform="translate(45.231)"
   id="g98">

		<g
   transform="matrix(0 .8377 -2.8084 0 58.988 -2e-4)"
   id="g72">
<path
   transform="translate(-16,-9)"
   d="m28 10h-24a1 1 0 0 1 0-2h24a1 1 0 0 1 0 2z"
   fill="#b7bfcb"
   stroke-linecap="round"
   id="path70" />
</g>
		<g
   transform="matrix(0 .8377 -2.8084 0 39.329 -2e-4)"
   id="g76">
<path
   transform="translate(-16,-16)"
   d="m28 17h-24a1 1 0 0 1 0-2h24a1 1 0 0 1 0 2z"
   fill="#b7bfcb"
   stroke-linecap="round"
   id="path74" />
</g>
		<g
   transform="matrix(0 .8377 -2.8084 0 19.67 -2e-4)"
   id="g80">
<path
   transform="translate(-16,-23)"
   d="m28 24h-24a1 1 0 0 1 0-2h24a1 1 0 0 1 0 2z"
   fill="#b7bfcb"
   stroke-linecap="round"
   id="path78" />
</g>
		<g
   transform="matrix(0 .8377 -2.8084 0 .0257 -2e-4)"
   id="g84">
<path
   transform="translate(-16,-9)"
   d="m28 10h-24a1 1 0 0 1 0-2h24a1 1 0 0 1 0 2z"
   fill="#b7bfcb"
   stroke-linecap="round"
   id="path82" />
</g>
		<g
   transform="matrix(0 .8377 -2.8084 0 -19.633 -2e-4)"
   id="g88">
<path
   transform="translate(-16,-16)"
   d="m28 17h-24a1 1 0 0 1 0-2h24a1 1 0 0 1 0 2z"
   fill="#b7bfcb"
   stroke-linecap="round"
   id="path86" />
</g>
		<g
   transform="matrix(0 .8377 -2.8084 0 -39.292 -2e-4)"
   id="g92">
<path
   transform="translate(-16,-23)"
   d="m28 24h-24a1 1 0 0 1 0-2h24a1 1 0 0 1 0 2z"
   fill="#b7bfcb"
   stroke-linecap="round"
   id="path90" />
</g>
		<g
   transform="matrix(0 .8377 -2.8084 0 -58.988 -2e-4)"
   id="g96">
<path
   transform="translate(-16,-16)"
   d="m28 17h-24a1 1 0 0 1 0-2h24a1 1 0 0 1 0 2z"
   fill="#b7bfcb"
   stroke-linecap="round"
   id="path94" />
</g>

</g>
		<g
   transform="translate(-95.861 -.0021)"
   id="g108">

		<g
   transform="matrix(.1467 0 0 .0869 -9.2218 9e-4)"
   id="g102">
<path
   transform="translate(-78.5 -78.5)"
   d="m78.5 0c-25.558 0-46.383 35.227-46.383 78.5 0 43.273 20.825 78.5 46.383 78.5 25.558 0 46.383-35.227 46.383-78.5 0-43.273-20.825-78.5-46.383-78.5z"
   fill="#09f"
   stroke-linecap="round"
   vector-effect="non-scaling-stroke"
   id="path100" />
</g>
		<g
   transform="matrix(.1467 0 0 .0869 9.2217 -.001)"
   id="g106">
<path
   transform="translate(-78.5 -78.5)"
   d="m78.5 0c-25.558 0-46.383 35.227-46.383 78.5 0 43.273 20.825 78.5 46.383 78.5 25.558 0 46.383-35.227 46.383-78.5 0-43.273-20.825-78.5-46.383-78.5z"
   fill="#b7bfcb"
   stroke-linecap="round"
   vector-effect="non-scaling-stroke"
   id="path104" />
</g>

</g>

</g><g
       transform="matrix(.1567 0 0 .0353 461.01 274.95)"
       id="g114">
<path
   transform="translate(-512,-512)"
   d="m904 476h-784c-4.4 0-8 3.6-8 8v56c0 4.4 3.6 8 8 8h784c4.4 0 8-3.6 8-8v-56c0-4.4-3.6-8-8-8z"
   stroke-linecap="round"
   vector-effect="non-scaling-stroke"
   id="path112"
   style="fill:#5c83be;fill-opacity:1" />
</g><g
       transform="matrix(3.038 0 0 3.038 260.34 446.82)"
       id="g132">
<g
   vector-effect="non-scaling-stroke"
   id="g130">
		<g
   transform="translate(0,1)"
   id="g118">
<path
   transform="translate(-12,-12)"
   d="m22 12c0 5.523-4.477 10-10 10-5.5228 0-10-4.477-10-10 0-5.5228 4.4772-10 10-10 5.523 0 10 4.4772 10 10z"
   fill-opacity="0"
   stroke-linecap="round"
   id="path116" />
</g>
		
<path
   transform="translate(-12,-12)"
   d="m22 12c0 5.523-4.477 10-10 10-5.5228 0-10-4.477-10-10 0-5.5228 4.4772-10 10-10 5.523 0 10 4.4772 10 10z"
   fill="#5c83be"
   stroke-linecap="round"
   id="path120" />

		<g
   transform="translate(1e-4 .95)"
   id="g124">
<path
   transform="translate(-12 -1041.4)"
   d="m7.0503 1037.8 3.5357 3.6-3.5357 3.5 1.4142 1.4 3.5355-3.5 3.536 3.5 1.414-1.4-3.536-3.5 3.536-3.6-1.414-1.4-3.536 3.5-3.5355-3.5z"
   fill-opacity="0"
   stroke-linecap="round"
   id="path122" />
</g>
		<g
   transform="translate(1e-4 -.05)"
   id="g128">
<path
   transform="translate(-12 -1040.4)"
   d="m7.0503 1036.8 3.5357 3.6-3.5357 3.5 1.4142 1.4 3.5355-3.5 3.536 3.5 1.414-1.4-3.536-3.5 3.536-3.6-1.414-1.4-3.536 3.5-3.5355-3.5z"
   fill="#ecf0f1"
   stroke-linecap="round"
   id="path126" />
</g>
</g>
</g><g
       transform="matrix(2.9722 0 0 2.9722 357.72 268.86)"
       id="g136">
<path
   transform="translate(-12 -12.256)"
   d="m21.171 15.398-5.912-9.854c-0.776-1.293-1.963-2.033-3.259-2.033s-2.483 0.74-3.259 2.031l-5.912 9.856c-0.786 1.309-0.872 2.705-0.235 3.83 0.636 1.126 1.878 1.772 3.406 1.772h12c1.528 0 2.77-0.646 3.406-1.771 0.637-1.125 0.551-2.521-0.235-3.831zm-9.171 2.151c-0.854 0-1.55-0.695-1.55-1.549 0-0.855 0.695-1.551 1.55-1.551s1.55 0.696 1.55 1.551c0 0.854-0.696 1.549-1.55 1.549zm1.633-7.424c-0.011 0.031-1.401 3.468-1.401 3.468-0.038 0.094-0.13 0.156-0.231 0.156s-0.193-0.062-0.231-0.156l-1.391-3.438c-0.09-0.233-0.129-0.443-0.129-0.655 0-0.965 0.785-1.75 1.75-1.75s1.75 0.785 1.75 1.75c0 0.212-0.039 0.422-0.117 0.625z"
   fill="#5c83be"
   stroke-linecap="round"
   vector-effect="non-scaling-stroke"
   id="path134" />
</g><g
       transform="matrix(4.9564 0 0 4.7241 342.32 443.47)"
       id="g140">
<path
   transform="translate(-12,-12)"
   d="m5 8h14m-14 4h14m-14 4h6"
   fill="none"
   stroke="#5c83be"
   stroke-linecap="round"
   stroke-linejoin="round"
   stroke-width="5"
   vector-effect="non-scaling-stroke"
   id="path138" />
</g><g
       transform="matrix(0 .0782 -.0417 0 357.95 337.19)"
       id="g144"
       style="fill:#5c83be;fill-opacity:1">
<path
   transform="translate(-512,-512)"
   d="m904 476h-784c-4.4 0-8 3.6-8 8v56c0 4.4 3.6 8 8 8h784c4.4 0 8-3.6 8-8v-56c0-4.4-3.6-8-8-8z"
   stroke-linecap="round"
   vector-effect="non-scaling-stroke"
   id="path142"
   style="fill:#5c83be;fill-opacity:1" />
</g><g
       transform="matrix(1.0201 0 0 .1794 469.51 578.67)"
       id="g148">
<path
   transform="translate(-512,-512)"
   d="m904 476h-784c-4.4 0-8 3.6-8 8v56c0 4.4 3.6 8 8 8h784c4.4 0 8-3.6 8-8v-56c0-4.4-3.6-8-8-8z"
   fill="#b7bfcb"
   stroke-linecap="round"
   vector-effect="non-scaling-stroke"
   id="path146" />
</g><g
       transform="matrix(1.0612 0 0 1.0612 668.18 341.33)"
       id="g194">

		<g
   transform="matrix(1.5975 0 0 .314 -1e-4 0)"
   id="g152">
<path
   transform="translate(-79 -79)"
   d="m154.68 2.5005h0.026l0.027-5.5e-4c0.412-0.00868 0.753 0.31859 0.762 0.73046v2.9e-4 0.03214l-1e-3 0.02603v151.4c0 0.449-0.364 0.814-0.814 0.814h-151.37c-0.4496 0-0.81409-0.365-0.81409-0.814v-151.37c0-0.45007 0.36465-0.81441 0.81409-0.81441z"
   fill="#fff"
   stroke="#b7bfcb"
   stroke-width="5"
   vector-effect="non-scaling-stroke"
   id="path150" />
</g>
		<g
   transform="translate(45.231)"
   id="g182">

		<g
   transform="matrix(0 .8377 -2.8084 0 58.988 -2e-4)"
   id="g156">
<path
   transform="translate(-16,-9)"
   d="m28 10h-24a1 1 0 0 1 0-2h24a1 1 0 0 1 0 2z"
   fill="#b7bfcb"
   stroke-linecap="round"
   id="path154" />
</g>
		<g
   transform="matrix(0 .8377 -2.8084 0 39.329 -2e-4)"
   id="g160">
<path
   transform="translate(-16,-16)"
   d="m28 17h-24a1 1 0 0 1 0-2h24a1 1 0 0 1 0 2z"
   fill="#b7bfcb"
   stroke-linecap="round"
   id="path158" />
</g>
		<g
   transform="matrix(0 .8377 -2.8084 0 19.67 -2e-4)"
   id="g164">
<path
   transform="translate(-16,-23)"
   d="m28 24h-24a1 1 0 0 1 0-2h24a1 1 0 0 1 0 2z"
   fill="#b7bfcb"
   stroke-linecap="round"
   id="path162" />
</g>
		<g
   transform="matrix(0 .8377 -2.8084 0 .0257 -2e-4)"
   id="g168">
<path
   transform="translate(-16,-9)"
   d="m28 10h-24a1 1 0 0 1 0-2h24a1 1 0 0 1 0 2z"
   fill="#b7bfcb"
   stroke-linecap="round"
   id="path166" />
</g>
		<g
   transform="matrix(0 .8377 -2.8084 0 -19.633 -2e-4)"
   id="g172">
<path
   transform="translate(-16,-16)"
   d="m28 17h-24a1 1 0 0 1 0-2h24a1 1 0 0 1 0 2z"
   fill="#b7bfcb"
   stroke-linecap="round"
   id="path170" />
</g>
		<g
   transform="matrix(0 .8377 -2.8084 0 -39.292 -2e-4)"
   id="g176">
<path
   transform="translate(-16,-23)"
   d="m28 24h-24a1 1 0 0 1 0-2h24a1 1 0 0 1 0 2z"
   fill="#b7bfcb"
   stroke-linecap="round"
   id="path174" />
</g>
		<g
   transform="matrix(0 .8377 -2.8084 0 -58.988 -2e-4)"
   id="g180">
<path
   transform="translate(-16,-16)"
   d="m28 17h-24a1 1 0 0 1 0-2h24a1 1 0 0 1 0 2z"
   fill="#b7bfcb"
   stroke-linecap="round"
   id="path178" />
</g>

</g>
		<g
   transform="translate(-95.861 -.0021)"
   id="g192">

		<g
   transform="matrix(.1467 0 0 .0869 -9.2218 9e-4)"
   id="g186">
<path
   transform="translate(-78.5 -78.5)"
   d="m78.5 0c-25.558 0-46.383 35.227-46.383 78.5 0 43.273 20.825 78.5 46.383 78.5 25.558 0 46.383-35.227 46.383-78.5 0-43.273-20.825-78.5-46.383-78.5z"
   fill="#09f"
   stroke-linecap="round"
   vector-effect="non-scaling-stroke"
   id="path184" />
</g>
		<g
   transform="matrix(.1467 0 0 .0869 9.2217 -.001)"
   id="g190">
<path
   transform="translate(-78.5 -78.5)"
   d="m78.5 0c-25.558 0-46.383 35.227-46.383 78.5 0 43.273 20.825 78.5 46.383 78.5 25.558 0 46.383-35.227 46.383-78.5 0-43.273-20.825-78.5-46.383-78.5z"
   fill="#b7bfcb"
   stroke-linecap="round"
   vector-effect="non-scaling-stroke"
   id="path188" />
</g>

</g>

</g><g
       transform="translate(668.18 392.44)"
       id="g240">

		<g
   transform="matrix(1.6953 0 0 .3332 .0025 -.0013)"
   id="g198">
<path
   transform="translate(-79 -79)"
   d="m154.68 2.5005h0.026l0.027-5.5e-4c0.412-0.00868 0.753 0.31859 0.762 0.73046v2.9e-4 0.03214l-1e-3 0.02603v151.4c0 0.449-0.364 0.814-0.814 0.814h-151.37c-0.4496 0-0.81409-0.365-0.81409-0.814v-151.37c0-0.45007 0.36465-0.81441 0.81409-0.81441z"
   fill="#fff"
   stroke="#b7bfcb"
   stroke-width="5"
   vector-effect="non-scaling-stroke"
   id="path196" />
</g>
		<g
   transform="matrix(1.0612 0 0 1.0612 47.999 0)"
   id="g228">

		<g
   transform="matrix(0 .8377 -2.8084 0 58.988 -2e-4)"
   id="g202">
<path
   transform="translate(-16,-9)"
   d="m28 10h-24a1 1 0 0 1 0-2h24a1 1 0 0 1 0 2z"
   fill="#b7bfcb"
   stroke-linecap="round"
   id="path200" />
</g>
		<g
   transform="matrix(0 .8377 -2.8084 0 39.329 -2e-4)"
   id="g206">
<path
   transform="translate(-16,-16)"
   d="m28 17h-24a1 1 0 0 1 0-2h24a1 1 0 0 1 0 2z"
   fill="#b7bfcb"
   stroke-linecap="round"
   id="path204" />
</g>
		<g
   transform="matrix(0 .8377 -2.8084 0 19.67 -2e-4)"
   id="g210">
<path
   transform="translate(-16,-23)"
   d="m28 24h-24a1 1 0 0 1 0-2h24a1 1 0 0 1 0 2z"
   fill="#b7bfcb"
   stroke-linecap="round"
   id="path208" />
</g>
		<g
   transform="matrix(0 .8377 -2.8084 0 .0257 -2e-4)"
   id="g214">
<path
   transform="translate(-16,-9)"
   d="m28 10h-24a1 1 0 0 1 0-2h24a1 1 0 0 1 0 2z"
   fill="#b7bfcb"
   stroke-linecap="round"
   id="path212" />
</g>
		<g
   transform="matrix(0 .8377 -2.8084 0 -19.633 -2e-4)"
   id="g218">
<path
   transform="translate(-16,-16)"
   d="m28 17h-24a1 1 0 0 1 0-2h24a1 1 0 0 1 0 2z"
   fill="#b7bfcb"
   stroke-linecap="round"
   id="path216" />
</g>
		<g
   transform="matrix(0 .8377 -2.8084 0 -39.292 -2e-4)"
   id="g222">
<path
   transform="translate(-16,-23)"
   d="m28 24h-24a1 1 0 0 1 0-2h24a1 1 0 0 1 0 2z"
   fill="#b7bfcb"
   stroke-linecap="round"
   id="path220" />
</g>
		<g
   transform="matrix(0 .8377 -2.8084 0 -58.988 -2e-4)"
   id="g226">
<path
   transform="translate(-16,-16)"
   d="m28 17h-24a1 1 0 0 1 0-2h24a1 1 0 0 1 0 2z"
   fill="#b7bfcb"
   stroke-linecap="round"
   id="path224" />
</g>

</g>
		<g
   transform="translate(-101.73 -.0023)"
   id="g238">

		<g
   transform="matrix(.1557 0 0 .0922 -9.7851 -4e-4)"
   id="g232">
<path
   transform="translate(-78.5 -78.5)"
   d="m78.5 0c-25.558 0-46.383 35.227-46.383 78.5 0 43.273 20.825 78.5 46.383 78.5 25.558 0 46.383-35.227 46.383-78.5 0-43.273-20.825-78.5-46.383-78.5z"
   fill="#09f"
   stroke-linecap="round"
   vector-effect="non-scaling-stroke"
   id="path230" />
</g>
		<g
   transform="matrix(.1557 0 0 .0922 9.7872 -.0024)"
   id="g236">
<path
   transform="translate(-78.5 -78.5)"
   d="m78.5 0c-25.558 0-46.383 35.227-46.383 78.5 0 43.273 20.825 78.5 46.383 78.5 25.558 0 46.383-35.227 46.383-78.5 0-43.273-20.825-78.5-46.383-78.5z"
   fill="#f7931e"
   stroke-linecap="round"
   vector-effect="non-scaling-stroke"
   id="path234" />
</g>

</g>

</g><g
       transform="translate(668.18 545.71)"
       id="g286">

		<g
   transform="scale(1.6953 .3332)"
   id="g244">
<path
   transform="translate(-79 -79)"
   d="m154.68 2.5005h0.026l0.027-5.5e-4c0.412-0.00868 0.753 0.31859 0.762 0.73046v2.9e-4 0.03214l-1e-3 0.02603v151.4c0 0.449-0.364 0.814-0.814 0.814h-151.37c-0.4496 0-0.81409-0.365-0.81409-0.814v-151.37c0-0.45007 0.36465-0.81441 0.81409-0.81441z"
   fill="#fff"
   stroke="#b7bfcb"
   stroke-width="5"
   vector-effect="non-scaling-stroke"
   id="path242" />
</g>
		<g
   transform="translate(-101.73 -.001)"
   id="g254">

		<g
   transform="matrix(.1557 0 0 .0922 -9.7851 -4e-4)"
   id="g248">
<path
   transform="translate(-78.5 -78.5)"
   d="m78.5 0c-25.558 0-46.383 35.227-46.383 78.5 0 43.273 20.825 78.5 46.383 78.5 25.558 0 46.383-35.227 46.383-78.5 0-43.273-20.825-78.5-46.383-78.5z"
   fill="#09f"
   stroke-linecap="round"
   vector-effect="non-scaling-stroke"
   id="path246" />
</g>
		<g
   transform="matrix(.1557 0 0 .0922 9.7872 -.0024)"
   id="g252">
<path
   transform="translate(-78.5 -78.5)"
   d="m78.5 0c-25.558 0-46.383 35.227-46.383 78.5 0 43.273 20.825 78.5 46.383 78.5 25.558 0 46.383-35.227 46.383-78.5 0-43.273-20.825-78.5-46.383-78.5z"
   fill="#f33"
   stroke-linecap="round"
   vector-effect="non-scaling-stroke"
   id="path250" />
</g>

</g>
		<g
   transform="matrix(1.0612 0 0 1.0612 47.996 .0013)"
   id="g284">

		<g
   transform="matrix(0 .8377 -2.8084 0 58.988 -2e-4)"
   id="g258">
<path
   transform="translate(-16,-9)"
   d="m28 10h-24a1 1 0 0 1 0-2h24a1 1 0 0 1 0 2z"
   fill="#b7bfcb"
   stroke-linecap="round"
   id="path256" />
</g>
		<g
   transform="matrix(0 .8377 -2.8084 0 39.329 -2e-4)"
   id="g262">
<path
   transform="translate(-16,-16)"
   d="m28 17h-24a1 1 0 0 1 0-2h24a1 1 0 0 1 0 2z"
   fill="#b7bfcb"
   stroke-linecap="round"
   id="path260" />
</g>
		<g
   transform="matrix(0 .8377 -2.8084 0 19.67 -2e-4)"
   id="g266">
<path
   transform="translate(-16,-23)"
   d="m28 24h-24a1 1 0 0 1 0-2h24a1 1 0 0 1 0 2z"
   fill="#b7bfcb"
   stroke-linecap="round"
   id="path264" />
</g>
		<g
   transform="matrix(0 .8377 -2.8084 0 .0257 -2e-4)"
   id="g270">
<path
   transform="translate(-16,-9)"
   d="m28 10h-24a1 1 0 0 1 0-2h24a1 1 0 0 1 0 2z"
   fill="#b7bfcb"
   stroke-linecap="round"
   id="path268" />
</g>
		<g
   transform="matrix(0 .8377 -2.8084 0 -19.633 -2e-4)"
   id="g274">
<path
   transform="translate(-16,-16)"
   d="m28 17h-24a1 1 0 0 1 0-2h24a1 1 0 0 1 0 2z"
   fill="#b7bfcb"
   stroke-linecap="round"
   id="path272" />
</g>
		<g
   transform="matrix(0 .8377 -2.8084 0 -39.292 -2e-4)"
   id="g278">
<path
   transform="translate(-16,-23)"
   d="m28 24h-24a1 1 0 0 1 0-2h24a1 1 0 0 1 0 2z"
   fill="#b7bfcb"
   stroke-linecap="round"
   id="path276" />
</g>
		<g
   transform="matrix(0 .8377 -2.8084 0 -58.988 -2e-4)"
   id="g282">
<path
   transform="translate(-16,-16)"
   d="m28 17h-24a1 1 0 0 1 0-2h24a1 1 0 0 1 0 2z"
   fill="#b7bfcb"
   stroke-linecap="round"
   id="path280" />
</g>

</g>

</g><g
       transform="matrix(2.9625 0 0 2.9625 744.49 247.07)"
       id="g298">
<g
   vector-effect="non-scaling-stroke"
   id="g296">
		<g
   transform="translate(5e-4 .0017)"
   id="g290">
<path
   transform="translate(-24 -24.002)"
   d="m35.555 32.1a11.979 11.979 0 0 1-23.555-3.243 7.933 7.933 0 0 1 0.485-2.924c1.158-7.338 8.3-7.87 4.315-18.933 0 0 6.65 1.727 8 12.143 0 0 4.919-0.163 1.6-7.286a21.311 21.311 0 0 1 9.6 15.143 24.911 24.911 0 0 1-0.445 5.1z"
   fill="#ff6e6e"
   fill-rule="evenodd"
   stroke-linecap="round"
   stroke-width="0"
   id="path288" />
</g>
		<g
   transform="translate(-.5166 4.2205)"
   id="g294">
<path
   transform="translate(-23.483 -28.22)"
   d="m31 33.5a7.5 7.5 0 0 1-14.975 0.484l-0.025 0.016s-0.075-3.272 0-4c0.684-6.611 2.6-9.563 5-14 0.067-2.639-1.115 7.273 5 10a8.188 8.188 0 0 1 5 7.5z"
   fill="#0c0058"
   fill-rule="evenodd"
   stroke-linecap="round"
   stroke-width="0"
   id="path292" />
</g>
</g>
</g><g
       transform="translate(668.18 290.18)"
       id="g344">

		<g
   transform="matrix(1.6953 0 0 .3332 .0025 -.0013)"
   id="g302">
<path
   transform="translate(-79 -79)"
   d="m154.68 2.5005h0.026l0.027-5.5e-4c0.412-0.00868 0.753 0.31859 0.762 0.73046v2.9e-4 0.03214l-1e-3 0.02603v151.4c0 0.449-0.364 0.814-0.814 0.814h-151.37c-0.4496 0-0.81409-0.365-0.81409-0.814v-151.37c0-0.45007 0.36465-0.81441 0.81409-0.81441z"
   fill="#fff"
   stroke="#b7bfcb"
   stroke-width="5"
   vector-effect="non-scaling-stroke"
   id="path300" />
</g>
		<g
   transform="translate(-101.73 -.0023)"
   id="g312">

		<g
   transform="matrix(.1557 0 0 .0922 -9.7851 -4e-4)"
   id="g306">
<path
   transform="translate(-78.5 -78.5)"
   d="m78.5 0c-25.558 0-46.383 35.227-46.383 78.5 0 43.273 20.825 78.5 46.383 78.5 25.558 0 46.383-35.227 46.383-78.5 0-43.273-20.825-78.5-46.383-78.5z"
   fill="#b7bfcb"
   stroke-linecap="round"
   vector-effect="non-scaling-stroke"
   id="path304" />
</g>
		<g
   transform="matrix(.1557 0 0 .0922 9.7872 -.0024)"
   id="g310">
<path
   transform="translate(-78.5 -78.5)"
   d="m78.5 0c-25.558 0-46.383 35.227-46.383 78.5 0 43.273 20.825 78.5 46.383 78.5 25.558 0 46.383-35.227 46.383-78.5 0-43.273-20.825-78.5-46.383-78.5z"
   fill="#b7bfcb"
   stroke-linecap="round"
   vector-effect="non-scaling-stroke"
   id="path308" />
</g>

</g>
		<g
   transform="matrix(1.0612 0 0 1.0612 47.999 0)"
   id="g342">

		<g
   transform="matrix(0 .8377 -2.8084 0 58.988 -2e-4)"
   id="g316">
<path
   transform="translate(-16,-9)"
   d="m28 10h-24a1 1 0 0 1 0-2h24a1 1 0 0 1 0 2z"
   fill="#b7bfcb"
   stroke-linecap="round"
   id="path314" />
</g>
		<g
   transform="matrix(0 .8377 -2.8084 0 39.329 -2e-4)"
   id="g320">
<path
   transform="translate(-16,-16)"
   d="m28 17h-24a1 1 0 0 1 0-2h24a1 1 0 0 1 0 2z"
   fill="#b7bfcb"
   stroke-linecap="round"
   id="path318" />
</g>
		<g
   transform="matrix(0 .8377 -2.8084 0 19.67 -2e-4)"
   id="g324">
<path
   transform="translate(-16,-23)"
   d="m28 24h-24a1 1 0 0 1 0-2h24a1 1 0 0 1 0 2z"
   fill="#b7bfcb"
   stroke-linecap="round"
   id="path322" />
</g>
		<g
   transform="matrix(0 .8377 -2.8084 0 .0257 -2e-4)"
   id="g328">
<path
   transform="translate(-16,-9)"
   d="m28 10h-24a1 1 0 0 1 0-2h24a1 1 0 0 1 0 2z"
   fill="#b7bfcb"
   stroke-linecap="round"
   id="path326" />
</g>
		<g
   transform="matrix(0 .8377 -2.8084 0 -19.633 -2e-4)"
   id="g332">
<path
   transform="translate(-16,-16)"
   d="m28 17h-24a1 1 0 0 1 0-2h24a1 1 0 0 1 0 2z"
   fill="#b7bfcb"
   stroke-linecap="round"
   id="path330" />
</g>
		<g
   transform="matrix(0 .8377 -2.8084 0 -39.292 -2e-4)"
   id="g336">
<path
   transform="translate(-16,-23)"
   d="m28 24h-24a1 1 0 0 1 0-2h24a1 1 0 0 1 0 2z"
   fill="#b7bfcb"
   stroke-linecap="round"
   id="path334" />
</g>
		<g
   transform="matrix(0 .8377 -2.8084 0 -58.988 -2e-4)"
   id="g340">
<path
   transform="translate(-16,-16)"
   d="m28 17h-24a1 1 0 0 1 0-2h24a1 1 0 0 1 0 2z"
   fill="#b7bfcb"
   stroke-linecap="round"
   id="path338" />
</g>

</g>

</g></g></svg>
