<?xml version="1.0" encoding="UTF-8" standalone="no"?>
<!-- Created with Inkscape (http://www.inkscape.org/) -->

<svg
   width="600mm"
   height="250mm"
   viewBox="0 0 600 250"
   version="1.1"
   id="svg5"
   xml:space="preserve"
   sodipodi:docname="ok.svg"
   inkscape:version="1.2.2 (732a01da63, 2022-12-09)"
   xmlns:inkscape="http://www.inkscape.org/namespaces/inkscape"
   xmlns:sodipodi="http://sodipodi.sourceforge.net/DTD/sodipodi-0.dtd"
   xmlns="http://www.w3.org/2000/svg"
   xmlns:svg="http://www.w3.org/2000/svg"><sodipodi:namedview
     id="namedview7"
     pagecolor="#505050"
     bordercolor="#eeeeee"
     borderopacity="1"
     inkscape:showpageshadow="0"
     inkscape:pageopacity="0"
     inkscape:pagecheckerboard="0"
     inkscape:deskcolor="#505050"
     inkscape:document-units="mm"
     showgrid="false"
     inkscape:zoom="0.46604417"
     inkscape:cx="1280.9945"
     inkscape:cy="489.22402"
     inkscape:window-width="1366"
     inkscape:window-height="715"
     inkscape:window-x="-8"
     inkscape:window-y="-8"
     inkscape:window-maximized="1"
     inkscape:current-layer="layer1"
     showguides="false" /><defs
     id="defs2" /><g
     inkscape:label="Katman 1"
     inkscape:groupmode="layer"
     id="layer1"><g
       id="g5735"
       transform="matrix(0.63812494,0,0,0.63812494,0.65822601,-125.00755)"><g
         transform="translate(806.2142,369.1809)"
         id="249095">
<g
   id="g5238">
		<g
   transform="translate(0,-76.8191)"
   id="577178">
<path
   style="opacity:1;fill:#000000;fill-rule:nonzero;stroke:none;stroke-width:1;stroke-linecap:butt;stroke-linejoin:miter;stroke-miterlimit:4;stroke-dasharray:none;stroke-dashoffset:0"
   vector-effect="non-scaling-stroke"
   transform="translate(-12.0915,-12.0015)"
   d="M 16.86,8 A 4,4 0 0 0 13,5 H 6 V 8 H 2 v 2 h 4 v 3 h 7 a 4,4 0 0 0 3.85,-3 3.5043723,3.5043723 0 0 1 -0.35,7 H 2 v 2 H 16.5 A 5.5029447,5.5029447 0 0 0 16.86,8 Z"
   stroke-linecap="round"
   id="path5229" />
</g>
		<g
   transform="translate(0,-26.4491)"
   id="866861">
<path
   style="opacity:1;fill:#000000;fill-rule:nonzero;stroke:none;stroke-width:1;stroke-linecap:butt;stroke-linejoin:miter;stroke-miterlimit:4;stroke-dasharray:none;stroke-dashoffset:0"
   vector-effect="non-scaling-stroke"
   transform="translate(-12.0915,-12.0015)"
   d="M 16.86,8 A 4,4 0 0 0 13,5 H 6 V 8 H 2 v 2 h 4 v 3 h 7 a 4,4 0 0 0 3.85,-3 3.5043723,3.5043723 0 0 1 -0.35,7 H 2 v 2 H 16.5 A 5.5029447,5.5029447 0 0 0 16.86,8 Z"
   stroke-linecap="round"
   id="path5232" />
</g>
		<g
   transform="translate(0,76.8191)"
   id="314132">
<path
   style="opacity:1;fill:#000000;fill-rule:nonzero;stroke:none;stroke-width:1;stroke-linecap:butt;stroke-linejoin:miter;stroke-miterlimit:4;stroke-dasharray:none;stroke-dashoffset:0"
   vector-effect="non-scaling-stroke"
   transform="translate(-12.0915,-12.0015)"
   d="M 16.86,8 A 4,4 0 0 0 13,5 H 6 V 8 H 2 v 2 h 4 v 3 h 7 a 4,4 0 0 0 3.85,-3 3.5043723,3.5043723 0 0 1 -0.35,7 H 2 v 2 H 16.5 A 5.5029447,5.5029447 0 0 0 16.86,8 Z"
   stroke-linecap="round"
   id="path5235" />
</g>
</g>
</g><g
         transform="matrix(2.9789,0,0,2.9789,256.7496,448.7722)"
         id="329028">
<path
   style="opacity:1;fill:#5c83be;fill-rule:nonzero;stroke:none;stroke-width:0;stroke-linecap:butt;stroke-linejoin:miter;stroke-miterlimit:4;stroke-dasharray:none;stroke-dashoffset:0"
   vector-effect="non-scaling-stroke"
   transform="translate(-14.9969,-15.0227)"
   d="M 6,9.3 3.9,5.8 5.3,4.4 8.8,6.5 v 1.4 l 3.6,3.6 c 0,0.1 0,0.2 0,0.3 L 11.1,13 7.4,9.3 Z m 15,8.5 c -0.3,0 -0.5,0 -0.8,0 0,0 0,0 0,0 -0.7,0 -1.3,-0.1 -1.9,-0.2 l -2.1,2.4 4.7,5.3 c 1.1,1.2 3,1.3 4.1,0.1 1.2,-1.2 1.1,-3 -0.1,-4.1 z M 24.4,14 C 26,12.4 26.5,10 25.9,7.9 25.8,7.5 25.3,7.4 25.1,7.7 L 21.6,11.2 18.8,8.4 22.3,4.9 C 22.6,4.6 22.5,4.2 22.1,4.1 20,3.4 17.6,3.9 16,5.6 c -1.8,1.8 -2.2,4.6 -1.2,6.8 l -10,8.9 c -1.2,1.1 -1.3,3 -0.1,4.1 v 0 c 1.2,1.2 3,1.1 4.1,-0.1 l 8.9,-10 c 2.2,1 4.9,0.6 6.7,-1.3 z"
   stroke-linecap="round"
   id="path5241" />
</g><g
         transform="matrix(0.7703,0,0,0.7703,303.4279,478.3465)"
         id="755351">
<path
   style="opacity:1;fill:#b7bfcb;fill-rule:nonzero;stroke:none;stroke-width:0;stroke-linecap:butt;stroke-linejoin:miter;stroke-miterlimit:4;stroke-dasharray:none;stroke-dashoffset:0"
   vector-effect="non-scaling-stroke"
   transform="translate(-147.0501,-147.05)"
   d="M 294.089,25.772 C 293.323,18.206 287.101,12.55 279.333,12.55 h -264 C 7.049,12.55 0,18.766 0,27.05 v 158.333 c 0,0.002 0,0.004 0,0.006 v 29.161 c 0,8.284 7.049,15 15.333,15 h 74.618 l -4.416,22 H 64.333 c -8.284,0 -15,6.716 -15,15 0,8.284 6.716,15 15,15 h 33.5 99 c 0.005,-0.001 0.013,-0.001 0.02,0 h 32.48 c 8.284,0 15,-6.716 15,-15 0,-8.284 -6.716,-15 -15,-15 H 209.13 l -4.416,-22 h 74.618 c 8.284,0 14.667,-6.716 14.667,-15 V 27.05 c 10e-4,-0.518 0.141,-0.777 0.09,-1.278 z M 264,42.55 v 128 H 30 v -128 z"
   stroke-linecap="round"
   id="path5244" />
</g><g
         transform="matrix(1.0612,0,0,1.0612,668.1777,443.4665)"
         id="292938">
<g
   id="g5289">
		<g
   transform="matrix(1.5975,0,0,0.314,-1e-4,0)"
   id="592957">
<path
   style="opacity:1;fill:#ffffff;fill-rule:nonzero;stroke:#b7bfcb;stroke-width:5;stroke-linecap:butt;stroke-linejoin:miter;stroke-miterlimit:4;stroke-dasharray:none;stroke-dashoffset:0"
   vector-effect="non-scaling-stroke"
   transform="translate(-79,-78.9999)"
   d="m 154.685,2.50049 h 0.026 l 0.027,-5.5e-4 c 0.412,-0.00868 0.753,0.31859 0.762,0.73046 v 2.9e-4 c 0,0.01026 0,0.02107 0,0.03214 l -0.001,0.02603 V 3.3149 154.686 c 0,0.449 -0.364,0.814 -0.814,0.814 H 3.31409 C 2.86449,155.5 2.5,155.135 2.5,154.686 V 3.3149 C 2.5,2.86483 2.86465,2.50049 3.31409,2.50049 Z"
   stroke-linecap="round"
   id="path5247" />
</g>
		<g
   transform="translate(45.2306)"
   id="738205">
<g
   id="g5277">
		<g
   transform="matrix(0,0.8377,-2.8084,0,58.9877,-2e-4)"
   id="Layer_2">
<path
   style="opacity:1;fill:#b7bfcb;fill-rule:nonzero;stroke:none;stroke-width:0;stroke-linecap:butt;stroke-linejoin:miter;stroke-miterlimit:4;stroke-dasharray:none;stroke-dashoffset:0"
   transform="translate(-16,-9)"
   d="M 28,10 H 4 A 1,1 0 0 1 4,8 h 24 a 1,1 0 0 1 0,2 z"
   stroke-linecap="round"
   id="path5250" />
</g>
		<g
   transform="matrix(0,0.8377,-2.8084,0,39.3289,-2e-4)"
   id="g5255">
<path
   style="opacity:1;fill:#b7bfcb;fill-rule:nonzero;stroke:none;stroke-width:0;stroke-linecap:butt;stroke-linejoin:miter;stroke-miterlimit:4;stroke-dasharray:none;stroke-dashoffset:0"
   transform="translate(-16,-16)"
   d="M 28,17 H 4 a 1,1 0 0 1 0,-2 h 24 a 1,1 0 0 1 0,2 z"
   stroke-linecap="round"
   id="path5253" />
</g>
		<g
   transform="matrix(0,0.8377,-2.8084,0,19.6702,-2e-4)"
   id="g5259">
<path
   style="opacity:1;fill:#b7bfcb;fill-rule:nonzero;stroke:none;stroke-width:0;stroke-linecap:butt;stroke-linejoin:miter;stroke-miterlimit:4;stroke-dasharray:none;stroke-dashoffset:0"
   transform="translate(-16,-23)"
   d="M 28,24 H 4 a 1,1 0 0 1 0,-2 h 24 a 1,1 0 0 1 0,2 z"
   stroke-linecap="round"
   id="path5257" />
</g>
		<g
   transform="matrix(0,0.8377,-2.8084,0,0.0257,-2e-4)"
   id="g5263">
<path
   style="opacity:1;fill:#b7bfcb;fill-rule:nonzero;stroke:none;stroke-width:0;stroke-linecap:butt;stroke-linejoin:miter;stroke-miterlimit:4;stroke-dasharray:none;stroke-dashoffset:0"
   transform="translate(-16,-9)"
   d="M 28,10 H 4 A 1,1 0 0 1 4,8 h 24 a 1,1 0 0 1 0,2 z"
   stroke-linecap="round"
   id="path5261" />
</g>
		<g
   transform="matrix(0,0.8377,-2.8084,0,-19.6331,-2e-4)"
   id="g5267">
<path
   style="opacity:1;fill:#b7bfcb;fill-rule:nonzero;stroke:none;stroke-width:0;stroke-linecap:butt;stroke-linejoin:miter;stroke-miterlimit:4;stroke-dasharray:none;stroke-dashoffset:0"
   transform="translate(-16,-16)"
   d="M 28,17 H 4 a 1,1 0 0 1 0,-2 h 24 a 1,1 0 0 1 0,2 z"
   stroke-linecap="round"
   id="path5265" />
</g>
		<g
   transform="matrix(0,0.8377,-2.8084,0,-39.2917,-2e-4)"
   id="g5271">
<path
   style="opacity:1;fill:#b7bfcb;fill-rule:nonzero;stroke:none;stroke-width:0;stroke-linecap:butt;stroke-linejoin:miter;stroke-miterlimit:4;stroke-dasharray:none;stroke-dashoffset:0"
   transform="translate(-16,-23)"
   d="M 28,24 H 4 a 1,1 0 0 1 0,-2 h 24 a 1,1 0 0 1 0,2 z"
   stroke-linecap="round"
   id="path5269" />
</g>
		<g
   transform="matrix(0,0.8377,-2.8084,0,-58.9877,-2e-4)"
   id="g5275">
<path
   style="opacity:1;fill:#b7bfcb;fill-rule:nonzero;stroke:none;stroke-width:0;stroke-linecap:butt;stroke-linejoin:miter;stroke-miterlimit:4;stroke-dasharray:none;stroke-dashoffset:0"
   transform="translate(-16,-16)"
   d="M 28,17 H 4 a 1,1 0 0 1 0,-2 h 24 a 1,1 0 0 1 0,2 z"
   stroke-linecap="round"
   id="path5273" />
</g>
</g>
</g>
		<g
   transform="translate(-95.8611,-0.0021)"
   id="609143">
<g
   id="g5286">
		<g
   transform="matrix(0.1467,0,0,0.0869,-9.2218,9e-4)"
   id="61229">
<path
   style="opacity:1;fill:#0099ff;fill-rule:nonzero;stroke:none;stroke-width:0;stroke-linecap:butt;stroke-linejoin:miter;stroke-miterlimit:4;stroke-dasharray:none;stroke-dashoffset:0"
   vector-effect="non-scaling-stroke"
   transform="translate(-78.4998,-78.5)"
   d="M 78.5,0 C 52.9419,0 32.1166,35.2271 32.1166,78.5 c 0,43.273 20.8253,78.5 46.3834,78.5 25.558,0 46.383,-35.227 46.383,-78.5 C 124.883,35.2271 104.058,0 78.5,0 Z"
   stroke-linecap="round"
   id="path5280" />
</g>
		<g
   transform="matrix(0.1467,0,0,0.0869,9.2217,-0.001)"
   id="81755">
<path
   style="opacity:1;fill:#b7bfcb;fill-rule:nonzero;stroke:none;stroke-width:0;stroke-linecap:butt;stroke-linejoin:miter;stroke-miterlimit:4;stroke-dasharray:none;stroke-dashoffset:0"
   vector-effect="non-scaling-stroke"
   transform="translate(-78.4998,-78.5)"
   d="M 78.5,0 C 52.9419,0 32.1166,35.2271 32.1166,78.5 c 0,43.273 20.8253,78.5 46.3834,78.5 25.558,0 46.383,-35.227 46.383,-78.5 C 124.883,35.2271 104.058,0 78.5,0 Z"
   stroke-linecap="round"
   id="path5283" />
</g>
</g>
</g>
</g>
</g><g
         transform="matrix(1.0612,0,0,1.0612,668.1777,494.5908)"
         id="143982">
<g
   id="g5337">
		<g
   transform="matrix(1.5975,0,0,0.314,-1e-4,0)"
   id="762292">
<path
   style="opacity:1;fill:#ffffff;fill-rule:nonzero;stroke:#b7bfcb;stroke-width:5;stroke-linecap:butt;stroke-linejoin:miter;stroke-miterlimit:4;stroke-dasharray:none;stroke-dashoffset:0"
   vector-effect="non-scaling-stroke"
   transform="translate(-79,-78.9999)"
   d="m 154.685,2.50049 h 0.026 l 0.027,-5.5e-4 c 0.412,-0.00868 0.753,0.31859 0.762,0.73046 v 2.9e-4 c 0,0.01026 0,0.02107 0,0.03214 l -0.001,0.02603 V 3.3149 154.686 c 0,0.449 -0.364,0.814 -0.814,0.814 H 3.31409 C 2.86449,155.5 2.5,155.135 2.5,154.686 V 3.3149 C 2.5,2.86483 2.86465,2.50049 3.31409,2.50049 Z"
   stroke-linecap="round"
   id="path5292" />
</g>
		<g
   transform="translate(45.2306)"
   id="988884">
<g
   id="g5323">
		<g
   transform="matrix(0,0.8377,-2.8084,0,58.9877,-2e-4)"
   id="g5297">
<path
   style="opacity:1;fill:#b7bfcb;fill-rule:nonzero;stroke:none;stroke-width:0;stroke-linecap:butt;stroke-linejoin:miter;stroke-miterlimit:4;stroke-dasharray:none;stroke-dashoffset:0"
   transform="translate(-16,-9)"
   d="M 28,10 H 4 A 1,1 0 0 1 4,8 h 24 a 1,1 0 0 1 0,2 z"
   stroke-linecap="round"
   id="path5295" />
</g>
		<g
   transform="matrix(0,0.8377,-2.8084,0,39.3289,-2e-4)"
   id="g5301">
<path
   style="opacity:1;fill:#b7bfcb;fill-rule:nonzero;stroke:none;stroke-width:0;stroke-linecap:butt;stroke-linejoin:miter;stroke-miterlimit:4;stroke-dasharray:none;stroke-dashoffset:0"
   transform="translate(-16,-16)"
   d="M 28,17 H 4 a 1,1 0 0 1 0,-2 h 24 a 1,1 0 0 1 0,2 z"
   stroke-linecap="round"
   id="path5299" />
</g>
		<g
   transform="matrix(0,0.8377,-2.8084,0,19.6702,-2e-4)"
   id="g5305">
<path
   style="opacity:1;fill:#b7bfcb;fill-rule:nonzero;stroke:none;stroke-width:0;stroke-linecap:butt;stroke-linejoin:miter;stroke-miterlimit:4;stroke-dasharray:none;stroke-dashoffset:0"
   transform="translate(-16,-23)"
   d="M 28,24 H 4 a 1,1 0 0 1 0,-2 h 24 a 1,1 0 0 1 0,2 z"
   stroke-linecap="round"
   id="path5303" />
</g>
		<g
   transform="matrix(0,0.8377,-2.8084,0,0.0257,-2e-4)"
   id="g5309">
<path
   style="opacity:1;fill:#b7bfcb;fill-rule:nonzero;stroke:none;stroke-width:0;stroke-linecap:butt;stroke-linejoin:miter;stroke-miterlimit:4;stroke-dasharray:none;stroke-dashoffset:0"
   transform="translate(-16,-9)"
   d="M 28,10 H 4 A 1,1 0 0 1 4,8 h 24 a 1,1 0 0 1 0,2 z"
   stroke-linecap="round"
   id="path5307" />
</g>
		<g
   transform="matrix(0,0.8377,-2.8084,0,-19.6331,-2e-4)"
   id="g5313">
<path
   style="opacity:1;fill:#b7bfcb;fill-rule:nonzero;stroke:none;stroke-width:0;stroke-linecap:butt;stroke-linejoin:miter;stroke-miterlimit:4;stroke-dasharray:none;stroke-dashoffset:0"
   transform="translate(-16,-16)"
   d="M 28,17 H 4 a 1,1 0 0 1 0,-2 h 24 a 1,1 0 0 1 0,2 z"
   stroke-linecap="round"
   id="path5311" />
</g>
		<g
   transform="matrix(0,0.8377,-2.8084,0,-39.2917,-2e-4)"
   id="g5317">
<path
   style="opacity:1;fill:#b7bfcb;fill-rule:nonzero;stroke:none;stroke-width:0;stroke-linecap:butt;stroke-linejoin:miter;stroke-miterlimit:4;stroke-dasharray:none;stroke-dashoffset:0"
   transform="translate(-16,-23)"
   d="M 28,24 H 4 a 1,1 0 0 1 0,-2 h 24 a 1,1 0 0 1 0,2 z"
   stroke-linecap="round"
   id="path5315" />
</g>
		<g
   transform="matrix(0,0.8377,-2.8084,0,-58.9877,-2e-4)"
   id="g5321">
<path
   style="opacity:1;fill:#b7bfcb;fill-rule:nonzero;stroke:none;stroke-width:0;stroke-linecap:butt;stroke-linejoin:miter;stroke-miterlimit:4;stroke-dasharray:none;stroke-dashoffset:0"
   transform="translate(-16,-16)"
   d="M 28,17 H 4 a 1,1 0 0 1 0,-2 h 24 a 1,1 0 0 1 0,2 z"
   stroke-linecap="round"
   id="path5319" />
</g>
</g>
</g>
		<g
   transform="translate(-95.8611,-0.0021)"
   id="606177">
<g
   id="g5334">
		<g
   transform="matrix(0.1467,0,0,0.0869,-9.2218,9e-4)"
   id="g5328">
<path
   style="opacity:1;fill:#0099ff;fill-rule:nonzero;stroke:none;stroke-width:0;stroke-linecap:butt;stroke-linejoin:miter;stroke-miterlimit:4;stroke-dasharray:none;stroke-dashoffset:0"
   vector-effect="non-scaling-stroke"
   transform="translate(-78.4998,-78.5)"
   d="M 78.5,0 C 52.9419,0 32.1166,35.2271 32.1166,78.5 c 0,43.273 20.8253,78.5 46.3834,78.5 25.558,0 46.383,-35.227 46.383,-78.5 C 124.883,35.2271 104.058,0 78.5,0 Z"
   stroke-linecap="round"
   id="path5326" />
</g>
		<g
   transform="matrix(0.1467,0,0,0.0869,9.2217,-0.001)"
   id="g5332">
<path
   style="opacity:1;fill:#b7bfcb;fill-rule:nonzero;stroke:none;stroke-width:0;stroke-linecap:butt;stroke-linejoin:miter;stroke-miterlimit:4;stroke-dasharray:none;stroke-dashoffset:0"
   vector-effect="non-scaling-stroke"
   transform="translate(-78.4998,-78.5)"
   d="M 78.5,0 C 52.9419,0 32.1166,35.2271 32.1166,78.5 c 0,43.273 20.8253,78.5 46.3834,78.5 25.558,0 46.383,-35.227 46.383,-78.5 C 124.883,35.2271 104.058,0 78.5,0 Z"
   stroke-linecap="round"
   id="path5330" />
</g>
</g>
</g>
</g>
</g><g
         transform="matrix(0.1567,0,0,0.0353,461.0118,274.9486)"
         id="606872">
<path
   style="opacity:1;fill:#000000;fill-rule:nonzero;stroke:none;stroke-width:0;stroke-linecap:butt;stroke-linejoin:miter;stroke-miterlimit:4;stroke-dasharray:none;stroke-dashoffset:0"
   vector-effect="non-scaling-stroke"
   transform="translate(-512,-512)"
   d="M 904,476 H 120 c -4.4,0 -8,3.6 -8,8 v 56 c 0,4.4 3.6,8 8,8 h 784 c 4.4,0 8,-3.6 8,-8 v -56 c 0,-4.4 -3.6,-8 -8,-8 z"
   stroke-linecap="round"
   id="path5340" />
</g><g
         transform="matrix(2.9722,0,0,2.9722,357.7229,268.8592)"
         id="978546">
<path
   style="opacity:1;fill:#5c83be;fill-rule:nonzero;stroke:none;stroke-width:0;stroke-linecap:butt;stroke-linejoin:miter;stroke-miterlimit:4;stroke-dasharray:none;stroke-dashoffset:0"
   vector-effect="non-scaling-stroke"
   transform="translate(-12,-12.2555)"
   d="M 21.171,15.398 15.259,5.544 C 14.483,4.251 13.296,3.511 12,3.511 c -1.296,0 -2.483,0.74 -3.259,2.031 L 2.829,15.398 C 2.043,16.707 1.957,18.103 2.594,19.228 3.23,20.354 4.472,21 6,21 h 12 c 1.528,0 2.77,-0.646 3.406,-1.771 0.637,-1.125 0.551,-2.521 -0.235,-3.831 z M 12,17.549 c -0.854,0 -1.55,-0.695 -1.55,-1.549 0,-0.855 0.695,-1.551 1.55,-1.551 0.855,0 1.55,0.696 1.55,1.551 0,0.854 -0.696,1.549 -1.55,1.549 z m 1.633,-7.424 c -0.011,0.031 -1.401,3.468 -1.401,3.468 -0.038,0.094 -0.13,0.156 -0.231,0.156 -0.101,0 -0.193,-0.062 -0.231,-0.156 L 10.379,10.155 C 10.289,9.922 10.25,9.712 10.25,9.5 c 0,-0.965 0.785,-1.75 1.75,-1.75 0.965,0 1.75,0.785 1.75,1.75 0,0.212 -0.039,0.422 -0.117,0.625 z"
   stroke-linecap="round"
   id="path5343" />
</g><g
         transform="matrix(4.9564,0,0,4.7241,342.3214,443.4656)"
         id="430722">
<path
   style="opacity:1;fill:none;fill-rule:nonzero;stroke:#5c83be;stroke-width:5;stroke-linecap:round;stroke-linejoin:round;stroke-miterlimit:4;stroke-dasharray:none;stroke-dashoffset:0"
   vector-effect="non-scaling-stroke"
   transform="translate(-12,-12)"
   d="M 5,8 H 19 M 5,12 H 19 M 5,16 h 6"
   stroke-linecap="round"
   id="path5346" />
</g><g
         transform="matrix(0,0.0782,-0.0417,0,357.9462,337.1903)"
         id="272143">
<path
   style="opacity:1;fill:#000000;fill-rule:nonzero;stroke:none;stroke-width:0;stroke-linecap:butt;stroke-linejoin:miter;stroke-miterlimit:4;stroke-dasharray:none;stroke-dashoffset:0"
   vector-effect="non-scaling-stroke"
   transform="translate(-512,-512)"
   d="M 904,476 H 120 c -4.4,0 -8,3.6 -8,8 v 56 c 0,4.4 3.6,8 8,8 h 784 c 4.4,0 8,-3.6 8,-8 v -56 c 0,-4.4 -3.6,-8 -8,-8 z"
   stroke-linecap="round"
   id="path5349" />
</g><g
         transform="matrix(1.0201,0,0,0.1794,469.5105,578.6665)"
         id="859861">
<path
   style="opacity:1;fill:#b7bfcb;fill-rule:nonzero;stroke:none;stroke-width:0;stroke-linecap:butt;stroke-linejoin:miter;stroke-miterlimit:4;stroke-dasharray:none;stroke-dashoffset:0"
   vector-effect="non-scaling-stroke"
   transform="translate(-512,-512)"
   d="M 904,476 H 120 c -4.4,0 -8,3.6 -8,8 v 56 c 0,4.4 3.6,8 8,8 h 784 c 4.4,0 8,-3.6 8,-8 v -56 c 0,-4.4 -3.6,-8 -8,-8 z"
   stroke-linecap="round"
   id="path5352" />
</g><g
         transform="matrix(1.0612,0,0,1.0612,668.1777,341.3276)"
         id="115389">
<g
   id="g5400">
		<g
   transform="matrix(1.5975,0,0,0.314,-1e-4,0)"
   id="950572">
<path
   style="opacity:1;fill:#ffffff;fill-rule:nonzero;stroke:#b7bfcb;stroke-width:5;stroke-linecap:butt;stroke-linejoin:miter;stroke-miterlimit:4;stroke-dasharray:none;stroke-dashoffset:0"
   vector-effect="non-scaling-stroke"
   transform="translate(-79,-78.9999)"
   d="m 154.685,2.50049 h 0.026 l 0.027,-5.5e-4 c 0.412,-0.00868 0.753,0.31859 0.762,0.73046 v 2.9e-4 c 0,0.01026 0,0.02107 0,0.03214 l -0.001,0.02603 V 3.3149 154.686 c 0,0.449 -0.364,0.814 -0.814,0.814 H 3.31409 C 2.86449,155.5 2.5,155.135 2.5,154.686 V 3.3149 C 2.5,2.86483 2.86465,2.50049 3.31409,2.50049 Z"
   stroke-linecap="round"
   id="path5355" />
</g>
		<g
   transform="translate(45.2306)"
   id="331086">
<g
   id="g5386">
		<g
   transform="matrix(0,0.8377,-2.8084,0,58.9877,-2e-4)"
   id="g5360">
<path
   style="opacity:1;fill:#b7bfcb;fill-rule:nonzero;stroke:none;stroke-width:0;stroke-linecap:butt;stroke-linejoin:miter;stroke-miterlimit:4;stroke-dasharray:none;stroke-dashoffset:0"
   transform="translate(-16,-9)"
   d="M 28,10 H 4 A 1,1 0 0 1 4,8 h 24 a 1,1 0 0 1 0,2 z"
   stroke-linecap="round"
   id="path5358" />
</g>
		<g
   transform="matrix(0,0.8377,-2.8084,0,39.3289,-2e-4)"
   id="g5364">
<path
   style="opacity:1;fill:#b7bfcb;fill-rule:nonzero;stroke:none;stroke-width:0;stroke-linecap:butt;stroke-linejoin:miter;stroke-miterlimit:4;stroke-dasharray:none;stroke-dashoffset:0"
   transform="translate(-16,-16)"
   d="M 28,17 H 4 a 1,1 0 0 1 0,-2 h 24 a 1,1 0 0 1 0,2 z"
   stroke-linecap="round"
   id="path5362" />
</g>
		<g
   transform="matrix(0,0.8377,-2.8084,0,19.6702,-2e-4)"
   id="g5368">
<path
   style="opacity:1;fill:#b7bfcb;fill-rule:nonzero;stroke:none;stroke-width:0;stroke-linecap:butt;stroke-linejoin:miter;stroke-miterlimit:4;stroke-dasharray:none;stroke-dashoffset:0"
   transform="translate(-16,-23)"
   d="M 28,24 H 4 a 1,1 0 0 1 0,-2 h 24 a 1,1 0 0 1 0,2 z"
   stroke-linecap="round"
   id="path5366" />
</g>
		<g
   transform="matrix(0,0.8377,-2.8084,0,0.0257,-2e-4)"
   id="g5372">
<path
   style="opacity:1;fill:#b7bfcb;fill-rule:nonzero;stroke:none;stroke-width:0;stroke-linecap:butt;stroke-linejoin:miter;stroke-miterlimit:4;stroke-dasharray:none;stroke-dashoffset:0"
   transform="translate(-16,-9)"
   d="M 28,10 H 4 A 1,1 0 0 1 4,8 h 24 a 1,1 0 0 1 0,2 z"
   stroke-linecap="round"
   id="path5370" />
</g>
		<g
   transform="matrix(0,0.8377,-2.8084,0,-19.6331,-2e-4)"
   id="g5376">
<path
   style="opacity:1;fill:#b7bfcb;fill-rule:nonzero;stroke:none;stroke-width:0;stroke-linecap:butt;stroke-linejoin:miter;stroke-miterlimit:4;stroke-dasharray:none;stroke-dashoffset:0"
   transform="translate(-16,-16)"
   d="M 28,17 H 4 a 1,1 0 0 1 0,-2 h 24 a 1,1 0 0 1 0,2 z"
   stroke-linecap="round"
   id="path5374" />
</g>
		<g
   transform="matrix(0,0.8377,-2.8084,0,-39.2917,-2e-4)"
   id="g5380">
<path
   style="opacity:1;fill:#b7bfcb;fill-rule:nonzero;stroke:none;stroke-width:0;stroke-linecap:butt;stroke-linejoin:miter;stroke-miterlimit:4;stroke-dasharray:none;stroke-dashoffset:0"
   transform="translate(-16,-23)"
   d="M 28,24 H 4 a 1,1 0 0 1 0,-2 h 24 a 1,1 0 0 1 0,2 z"
   stroke-linecap="round"
   id="path5378" />
</g>
		<g
   transform="matrix(0,0.8377,-2.8084,0,-58.9877,-2e-4)"
   id="g5384">
<path
   style="opacity:1;fill:#b7bfcb;fill-rule:nonzero;stroke:none;stroke-width:0;stroke-linecap:butt;stroke-linejoin:miter;stroke-miterlimit:4;stroke-dasharray:none;stroke-dashoffset:0"
   transform="translate(-16,-16)"
   d="M 28,17 H 4 a 1,1 0 0 1 0,-2 h 24 a 1,1 0 0 1 0,2 z"
   stroke-linecap="round"
   id="path5382" />
</g>
</g>
</g>
		<g
   transform="translate(-95.8611,-0.0021)"
   id="315036">
<g
   id="g5397">
		<g
   transform="matrix(0.1467,0,0,0.0869,-9.2218,9e-4)"
   id="g5391">
<path
   style="opacity:1;fill:#0099ff;fill-rule:nonzero;stroke:none;stroke-width:0;stroke-linecap:butt;stroke-linejoin:miter;stroke-miterlimit:4;stroke-dasharray:none;stroke-dashoffset:0"
   vector-effect="non-scaling-stroke"
   transform="translate(-78.4998,-78.5)"
   d="M 78.5,0 C 52.9419,0 32.1166,35.2271 32.1166,78.5 c 0,43.273 20.8253,78.5 46.3834,78.5 25.558,0 46.383,-35.227 46.383,-78.5 C 124.883,35.2271 104.058,0 78.5,0 Z"
   stroke-linecap="round"
   id="path5389" />
</g>
		<g
   transform="matrix(0.1467,0,0,0.0869,9.2217,-0.001)"
   id="g5395">
<path
   style="opacity:1;fill:#b7bfcb;fill-rule:nonzero;stroke:none;stroke-width:0;stroke-linecap:butt;stroke-linejoin:miter;stroke-miterlimit:4;stroke-dasharray:none;stroke-dashoffset:0"
   vector-effect="non-scaling-stroke"
   transform="translate(-78.4998,-78.5)"
   d="M 78.5,0 C 52.9419,0 32.1166,35.2271 32.1166,78.5 c 0,43.273 20.8253,78.5 46.3834,78.5 25.558,0 46.383,-35.227 46.383,-78.5 C 124.883,35.2271 104.058,0 78.5,0 Z"
   stroke-linecap="round"
   id="path5393" />
</g>
</g>
</g>
</g>
</g><g
         transform="translate(668.1776,392.4421)"
         id="241950">
<g
   id="g5448">
		<g
   transform="matrix(1.6953,0,0,0.3332,0.0025,-0.0013)"
   id="625411">
<path
   style="opacity:1;fill:#ffffff;fill-rule:nonzero;stroke:#b7bfcb;stroke-width:5;stroke-linecap:butt;stroke-linejoin:miter;stroke-miterlimit:4;stroke-dasharray:none;stroke-dashoffset:0"
   vector-effect="non-scaling-stroke"
   transform="translate(-79,-78.9999)"
   d="m 154.685,2.50049 h 0.026 l 0.027,-5.5e-4 c 0.412,-0.00868 0.753,0.31859 0.762,0.73046 v 2.9e-4 c 0,0.01026 0,0.02107 0,0.03214 l -0.001,0.02603 V 3.3149 154.686 c 0,0.449 -0.364,0.814 -0.814,0.814 H 3.31409 C 2.86449,155.5 2.5,155.135 2.5,154.686 V 3.3149 C 2.5,2.86483 2.86465,2.50049 3.31409,2.50049 Z"
   stroke-linecap="round"
   id="path5403" />
</g>
		<g
   transform="matrix(1.0612,0,0,1.0612,47.9987,0)"
   id="578018">
<g
   id="g5434">
		<g
   transform="matrix(0,0.8377,-2.8084,0,58.9877,-2e-4)"
   id="g5408">
<path
   style="opacity:1;fill:#b7bfcb;fill-rule:nonzero;stroke:none;stroke-width:0;stroke-linecap:butt;stroke-linejoin:miter;stroke-miterlimit:4;stroke-dasharray:none;stroke-dashoffset:0"
   transform="translate(-16,-9)"
   d="M 28,10 H 4 A 1,1 0 0 1 4,8 h 24 a 1,1 0 0 1 0,2 z"
   stroke-linecap="round"
   id="path5406" />
</g>
		<g
   transform="matrix(0,0.8377,-2.8084,0,39.3289,-2e-4)"
   id="g5412">
<path
   style="opacity:1;fill:#b7bfcb;fill-rule:nonzero;stroke:none;stroke-width:0;stroke-linecap:butt;stroke-linejoin:miter;stroke-miterlimit:4;stroke-dasharray:none;stroke-dashoffset:0"
   transform="translate(-16,-16)"
   d="M 28,17 H 4 a 1,1 0 0 1 0,-2 h 24 a 1,1 0 0 1 0,2 z"
   stroke-linecap="round"
   id="path5410" />
</g>
		<g
   transform="matrix(0,0.8377,-2.8084,0,19.6702,-2e-4)"
   id="g5416">
<path
   style="opacity:1;fill:#b7bfcb;fill-rule:nonzero;stroke:none;stroke-width:0;stroke-linecap:butt;stroke-linejoin:miter;stroke-miterlimit:4;stroke-dasharray:none;stroke-dashoffset:0"
   transform="translate(-16,-23)"
   d="M 28,24 H 4 a 1,1 0 0 1 0,-2 h 24 a 1,1 0 0 1 0,2 z"
   stroke-linecap="round"
   id="path5414" />
</g>
		<g
   transform="matrix(0,0.8377,-2.8084,0,0.0257,-2e-4)"
   id="g5420">
<path
   style="opacity:1;fill:#b7bfcb;fill-rule:nonzero;stroke:none;stroke-width:0;stroke-linecap:butt;stroke-linejoin:miter;stroke-miterlimit:4;stroke-dasharray:none;stroke-dashoffset:0"
   transform="translate(-16,-9)"
   d="M 28,10 H 4 A 1,1 0 0 1 4,8 h 24 a 1,1 0 0 1 0,2 z"
   stroke-linecap="round"
   id="path5418" />
</g>
		<g
   transform="matrix(0,0.8377,-2.8084,0,-19.6331,-2e-4)"
   id="g5424">
<path
   style="opacity:1;fill:#b7bfcb;fill-rule:nonzero;stroke:none;stroke-width:0;stroke-linecap:butt;stroke-linejoin:miter;stroke-miterlimit:4;stroke-dasharray:none;stroke-dashoffset:0"
   transform="translate(-16,-16)"
   d="M 28,17 H 4 a 1,1 0 0 1 0,-2 h 24 a 1,1 0 0 1 0,2 z"
   stroke-linecap="round"
   id="path5422" />
</g>
		<g
   transform="matrix(0,0.8377,-2.8084,0,-39.2917,-2e-4)"
   id="g5428">
<path
   style="opacity:1;fill:#b7bfcb;fill-rule:nonzero;stroke:none;stroke-width:0;stroke-linecap:butt;stroke-linejoin:miter;stroke-miterlimit:4;stroke-dasharray:none;stroke-dashoffset:0"
   transform="translate(-16,-23)"
   d="M 28,24 H 4 a 1,1 0 0 1 0,-2 h 24 a 1,1 0 0 1 0,2 z"
   stroke-linecap="round"
   id="path5426" />
</g>
		<g
   transform="matrix(0,0.8377,-2.8084,0,-58.9877,-2e-4)"
   id="g5432">
<path
   style="opacity:1;fill:#b7bfcb;fill-rule:nonzero;stroke:none;stroke-width:0;stroke-linecap:butt;stroke-linejoin:miter;stroke-miterlimit:4;stroke-dasharray:none;stroke-dashoffset:0"
   transform="translate(-16,-16)"
   d="M 28,17 H 4 a 1,1 0 0 1 0,-2 h 24 a 1,1 0 0 1 0,2 z"
   stroke-linecap="round"
   id="path5430" />
</g>
</g>
</g>
		<g
   transform="translate(-101.7278,-0.0023)"
   id="783581">
<g
   id="g5445">
		<g
   transform="matrix(0.1557,0,0,0.0922,-9.7851,-4e-4)"
   id="g5439">
<path
   style="opacity:1;fill:#0099ff;fill-rule:nonzero;stroke:none;stroke-width:0;stroke-linecap:butt;stroke-linejoin:miter;stroke-miterlimit:4;stroke-dasharray:none;stroke-dashoffset:0"
   vector-effect="non-scaling-stroke"
   transform="translate(-78.4998,-78.5)"
   d="M 78.5,0 C 52.9419,0 32.1166,35.2271 32.1166,78.5 c 0,43.273 20.8253,78.5 46.3834,78.5 25.558,0 46.383,-35.227 46.383,-78.5 C 124.883,35.2271 104.058,0 78.5,0 Z"
   stroke-linecap="round"
   id="path5437" />
</g>
		<g
   transform="matrix(0.1557,0,0,0.0922,9.7872,-0.0024)"
   id="g5443">
<path
   style="opacity:1;fill:#f7931e;fill-rule:nonzero;stroke:none;stroke-width:0;stroke-linecap:butt;stroke-linejoin:miter;stroke-miterlimit:4;stroke-dasharray:none;stroke-dashoffset:0"
   vector-effect="non-scaling-stroke"
   transform="translate(-78.4998,-78.5)"
   d="M 78.5,0 C 52.9419,0 32.1166,35.2271 32.1166,78.5 c 0,43.273 20.8253,78.5 46.3834,78.5 25.558,0 46.383,-35.227 46.383,-78.5 C 124.883,35.2271 104.058,0 78.5,0 Z"
   stroke-linecap="round"
   id="path5441" />
</g>
</g>
</g>
</g>
</g><g
         transform="matrix(1.4623,0.607,-0.607,1.4623,808.1738,556.8969)"
         id="586637">
<path
   style="opacity:1;fill:#000000;fill-rule:nonzero;stroke:none;stroke-width:0;stroke-linecap:butt;stroke-linejoin:miter;stroke-miterlimit:4;stroke-dasharray:none;stroke-dashoffset:0"
   vector-effect="non-scaling-stroke"
   transform="translate(-7,-8)"
   d="M 6,0 A 0.5,0.5 0 0 1 6.5,0.5 V 3 h 3 V 0.5 a 0.5,0.5 0 0 1 1,0 V 3 h 1 A 0.5,0.5 0 0 1 12,3.5 v 3 A 3.5,3.5 0 0 1 8.5,10 c -0.002,0.434 -0.01,0.845 -0.04,1.22 -0.041,0.514 -0.126,1.003 -0.317,1.424 a 2.083,2.083 0 0 1 -0.97,1.028 C 6.725,13.9 6.169,14 5.5,14 4.502,14 3.89,14.33 3.526,14.718 A 1.922,1.922 0 0 0 3,16 H 2 C 2,15.384 2.232,14.633 2.797,14.032 3.374,13.42 4.261,13 5.5,13 c 0.581,0 0.962,-0.088 1.218,-0.219 0.241,-0.123 0.4,-0.3 0.514,-0.55 0.121,-0.266 0.193,-0.621 0.23,-1.09 C 7.489,10.801 7.497,10.423 7.499,10 A 3.5,3.5 0 0 1 4,6.5 v -3 A 0.5,0.5 0 0 1 4.5,3 h 1 V 0.5 A 0.5,0.5 0 0 1 6,0 Z M 5,4 V 6.5 A 2.5,2.5 0 0 0 7.5,9 h 1 A 2.5,2.5 0 0 0 11,6.5 V 4 Z"
   stroke-linecap="round"
   id="path5451" />
</g><g
         transform="translate(668.1801,545.708)"
         id="917341">
<g
   id="g5499">
		<g
   transform="scale(1.6953,0.3332)"
   id="602888">
<path
   style="opacity:1;fill:#ffffff;fill-rule:nonzero;stroke:#b7bfcb;stroke-width:5;stroke-linecap:butt;stroke-linejoin:miter;stroke-miterlimit:4;stroke-dasharray:none;stroke-dashoffset:0"
   vector-effect="non-scaling-stroke"
   transform="translate(-79,-78.9999)"
   d="m 154.685,2.50049 h 0.026 l 0.027,-5.5e-4 c 0.412,-0.00868 0.753,0.31859 0.762,0.73046 v 2.9e-4 c 0,0.01026 0,0.02107 0,0.03214 l -0.001,0.02603 V 3.3149 154.686 c 0,0.449 -0.364,0.814 -0.814,0.814 H 3.31409 C 2.86449,155.5 2.5,155.135 2.5,154.686 V 3.3149 C 2.5,2.86483 2.86465,2.50049 3.31409,2.50049 Z"
   stroke-linecap="round"
   id="path5454" />
</g>
		<g
   transform="translate(-101.7301,-0.001)"
   id="307802">
<g
   id="g5465">
		<g
   transform="matrix(0.1557,0,0,0.0922,-9.7851,-4e-4)"
   id="g5459">
<path
   style="opacity:1;fill:#0099ff;fill-rule:nonzero;stroke:none;stroke-width:0;stroke-linecap:butt;stroke-linejoin:miter;stroke-miterlimit:4;stroke-dasharray:none;stroke-dashoffset:0"
   vector-effect="non-scaling-stroke"
   transform="translate(-78.4998,-78.5)"
   d="M 78.5,0 C 52.9419,0 32.1166,35.2271 32.1166,78.5 c 0,43.273 20.8253,78.5 46.3834,78.5 25.558,0 46.383,-35.227 46.383,-78.5 C 124.883,35.2271 104.058,0 78.5,0 Z"
   stroke-linecap="round"
   id="path5457" />
</g>
		<g
   transform="matrix(0.1557,0,0,0.0922,9.7872,-0.0024)"
   id="g5463">
<path
   style="opacity:1;fill:#ff3333;fill-rule:nonzero;stroke:none;stroke-width:0;stroke-linecap:butt;stroke-linejoin:miter;stroke-miterlimit:4;stroke-dasharray:none;stroke-dashoffset:0"
   vector-effect="non-scaling-stroke"
   transform="translate(-78.4998,-78.5)"
   d="M 78.5,0 C 52.9419,0 32.1166,35.2271 32.1166,78.5 c 0,43.273 20.8253,78.5 46.3834,78.5 25.558,0 46.383,-35.227 46.383,-78.5 C 124.883,35.2271 104.058,0 78.5,0 Z"
   stroke-linecap="round"
   id="path5461" />
</g>
</g>
</g>
		<g
   transform="matrix(1.0612,0,0,1.0612,47.9963,0.0013)"
   id="388178">
<g
   id="g5496">
		<g
   transform="matrix(0,0.8377,-2.8084,0,58.9877,-2e-4)"
   id="g5470">
<path
   style="opacity:1;fill:#b7bfcb;fill-rule:nonzero;stroke:none;stroke-width:0;stroke-linecap:butt;stroke-linejoin:miter;stroke-miterlimit:4;stroke-dasharray:none;stroke-dashoffset:0"
   transform="translate(-16,-9)"
   d="M 28,10 H 4 A 1,1 0 0 1 4,8 h 24 a 1,1 0 0 1 0,2 z"
   stroke-linecap="round"
   id="path5468" />
</g>
		<g
   transform="matrix(0,0.8377,-2.8084,0,39.3289,-2e-4)"
   id="g5474">
<path
   style="opacity:1;fill:#b7bfcb;fill-rule:nonzero;stroke:none;stroke-width:0;stroke-linecap:butt;stroke-linejoin:miter;stroke-miterlimit:4;stroke-dasharray:none;stroke-dashoffset:0"
   transform="translate(-16,-16)"
   d="M 28,17 H 4 a 1,1 0 0 1 0,-2 h 24 a 1,1 0 0 1 0,2 z"
   stroke-linecap="round"
   id="path5472" />
</g>
		<g
   transform="matrix(0,0.8377,-2.8084,0,19.6702,-2e-4)"
   id="g5478">
<path
   style="opacity:1;fill:#b7bfcb;fill-rule:nonzero;stroke:none;stroke-width:0;stroke-linecap:butt;stroke-linejoin:miter;stroke-miterlimit:4;stroke-dasharray:none;stroke-dashoffset:0"
   transform="translate(-16,-23)"
   d="M 28,24 H 4 a 1,1 0 0 1 0,-2 h 24 a 1,1 0 0 1 0,2 z"
   stroke-linecap="round"
   id="path5476" />
</g>
		<g
   transform="matrix(0,0.8377,-2.8084,0,0.0257,-2e-4)"
   id="g5482">
<path
   style="opacity:1;fill:#b7bfcb;fill-rule:nonzero;stroke:none;stroke-width:0;stroke-linecap:butt;stroke-linejoin:miter;stroke-miterlimit:4;stroke-dasharray:none;stroke-dashoffset:0"
   transform="translate(-16,-9)"
   d="M 28,10 H 4 A 1,1 0 0 1 4,8 h 24 a 1,1 0 0 1 0,2 z"
   stroke-linecap="round"
   id="path5480" />
</g>
		<g
   transform="matrix(0,0.8377,-2.8084,0,-19.6331,-2e-4)"
   id="g5486">
<path
   style="opacity:1;fill:#b7bfcb;fill-rule:nonzero;stroke:none;stroke-width:0;stroke-linecap:butt;stroke-linejoin:miter;stroke-miterlimit:4;stroke-dasharray:none;stroke-dashoffset:0"
   transform="translate(-16,-16)"
   d="M 28,17 H 4 a 1,1 0 0 1 0,-2 h 24 a 1,1 0 0 1 0,2 z"
   stroke-linecap="round"
   id="path5484" />
</g>
		<g
   transform="matrix(0,0.8377,-2.8084,0,-39.2917,-2e-4)"
   id="g5490">
<path
   style="opacity:1;fill:#b7bfcb;fill-rule:nonzero;stroke:none;stroke-width:0;stroke-linecap:butt;stroke-linejoin:miter;stroke-miterlimit:4;stroke-dasharray:none;stroke-dashoffset:0"
   transform="translate(-16,-23)"
   d="M 28,24 H 4 a 1,1 0 0 1 0,-2 h 24 a 1,1 0 0 1 0,2 z"
   stroke-linecap="round"
   id="path5488" />
</g>
		<g
   transform="matrix(0,0.8377,-2.8084,0,-58.9877,-2e-4)"
   id="g5494">
<path
   style="opacity:1;fill:#b7bfcb;fill-rule:nonzero;stroke:none;stroke-width:0;stroke-linecap:butt;stroke-linejoin:miter;stroke-miterlimit:4;stroke-dasharray:none;stroke-dashoffset:0"
   transform="translate(-16,-16)"
   d="M 28,17 H 4 a 1,1 0 0 1 0,-2 h 24 a 1,1 0 0 1 0,2 z"
   stroke-linecap="round"
   id="path5492" />
</g>
</g>
</g>
</g>
</g><g
         transform="translate(668.1776,290.1796)"
         id="19426">
<g
   id="g5547">
		<g
   transform="matrix(1.6953,0,0,0.3332,0.0025,-0.0013)"
   id="606508">
<path
   style="opacity:1;fill:#ffffff;fill-rule:nonzero;stroke:#b7bfcb;stroke-width:5;stroke-linecap:butt;stroke-linejoin:miter;stroke-miterlimit:4;stroke-dasharray:none;stroke-dashoffset:0"
   vector-effect="non-scaling-stroke"
   transform="translate(-79,-78.9999)"
   d="m 154.685,2.50049 h 0.026 l 0.027,-5.5e-4 c 0.412,-0.00868 0.753,0.31859 0.762,0.73046 v 2.9e-4 c 0,0.01026 0,0.02107 0,0.03214 l -0.001,0.02603 V 3.3149 154.686 c 0,0.449 -0.364,0.814 -0.814,0.814 H 3.31409 C 2.86449,155.5 2.5,155.135 2.5,154.686 V 3.3149 C 2.5,2.86483 2.86465,2.50049 3.31409,2.50049 Z"
   stroke-linecap="round"
   id="path5502" />
</g>
		<g
   transform="translate(-101.7278,-0.0023)"
   id="905481">
<g
   id="g5513">
		<g
   transform="matrix(0.1557,0,0,0.0922,-9.7851,-4e-4)"
   id="g5507">
<path
   style="opacity:1;fill:#b7bfcb;fill-rule:nonzero;stroke:none;stroke-width:0;stroke-linecap:butt;stroke-linejoin:miter;stroke-miterlimit:4;stroke-dasharray:none;stroke-dashoffset:0"
   vector-effect="non-scaling-stroke"
   transform="translate(-78.4998,-78.5)"
   d="M 78.5,0 C 52.9419,0 32.1166,35.2271 32.1166,78.5 c 0,43.273 20.8253,78.5 46.3834,78.5 25.558,0 46.383,-35.227 46.383,-78.5 C 124.883,35.2271 104.058,0 78.5,0 Z"
   stroke-linecap="round"
   id="path5505" />
</g>
		<g
   transform="matrix(0.1557,0,0,0.0922,9.7872,-0.0024)"
   id="g5511">
<path
   style="opacity:1;fill:#b7bfcb;fill-rule:nonzero;stroke:none;stroke-width:0;stroke-linecap:butt;stroke-linejoin:miter;stroke-miterlimit:4;stroke-dasharray:none;stroke-dashoffset:0"
   vector-effect="non-scaling-stroke"
   transform="translate(-78.4998,-78.5)"
   d="M 78.5,0 C 52.9419,0 32.1166,35.2271 32.1166,78.5 c 0,43.273 20.8253,78.5 46.3834,78.5 25.558,0 46.383,-35.227 46.383,-78.5 C 124.883,35.2271 104.058,0 78.5,0 Z"
   stroke-linecap="round"
   id="path5509" />
</g>
</g>
</g>
		<g
   transform="matrix(1.0612,0,0,1.0612,47.9987,0)"
   id="942320">
<g
   id="g5544">
		<g
   transform="matrix(0,0.8377,-2.8084,0,58.9877,-2e-4)"
   id="g5518">
<path
   style="opacity:1;fill:#b7bfcb;fill-rule:nonzero;stroke:none;stroke-width:0;stroke-linecap:butt;stroke-linejoin:miter;stroke-miterlimit:4;stroke-dasharray:none;stroke-dashoffset:0"
   transform="translate(-16,-9)"
   d="M 28,10 H 4 A 1,1 0 0 1 4,8 h 24 a 1,1 0 0 1 0,2 z"
   stroke-linecap="round"
   id="path5516" />
</g>
		<g
   transform="matrix(0,0.8377,-2.8084,0,39.3289,-2e-4)"
   id="g5522">
<path
   style="opacity:1;fill:#b7bfcb;fill-rule:nonzero;stroke:none;stroke-width:0;stroke-linecap:butt;stroke-linejoin:miter;stroke-miterlimit:4;stroke-dasharray:none;stroke-dashoffset:0"
   transform="translate(-16,-16)"
   d="M 28,17 H 4 a 1,1 0 0 1 0,-2 h 24 a 1,1 0 0 1 0,2 z"
   stroke-linecap="round"
   id="path5520" />
</g>
		<g
   transform="matrix(0,0.8377,-2.8084,0,19.6702,-2e-4)"
   id="g5526">
<path
   style="opacity:1;fill:#b7bfcb;fill-rule:nonzero;stroke:none;stroke-width:0;stroke-linecap:butt;stroke-linejoin:miter;stroke-miterlimit:4;stroke-dasharray:none;stroke-dashoffset:0"
   transform="translate(-16,-23)"
   d="M 28,24 H 4 a 1,1 0 0 1 0,-2 h 24 a 1,1 0 0 1 0,2 z"
   stroke-linecap="round"
   id="path5524" />
</g>
		<g
   transform="matrix(0,0.8377,-2.8084,0,0.0257,-2e-4)"
   id="g5530">
<path
   style="opacity:1;fill:#b7bfcb;fill-rule:nonzero;stroke:none;stroke-width:0;stroke-linecap:butt;stroke-linejoin:miter;stroke-miterlimit:4;stroke-dasharray:none;stroke-dashoffset:0"
   transform="translate(-16,-9)"
   d="M 28,10 H 4 A 1,1 0 0 1 4,8 h 24 a 1,1 0 0 1 0,2 z"
   stroke-linecap="round"
   id="path5528" />
</g>
		<g
   transform="matrix(0,0.8377,-2.8084,0,-19.6331,-2e-4)"
   id="g5534">
<path
   style="opacity:1;fill:#b7bfcb;fill-rule:nonzero;stroke:none;stroke-width:0;stroke-linecap:butt;stroke-linejoin:miter;stroke-miterlimit:4;stroke-dasharray:none;stroke-dashoffset:0"
   transform="translate(-16,-16)"
   d="M 28,17 H 4 a 1,1 0 0 1 0,-2 h 24 a 1,1 0 0 1 0,2 z"
   stroke-linecap="round"
   id="path5532" />
</g>
		<g
   transform="matrix(0,0.8377,-2.8084,0,-39.2917,-2e-4)"
   id="g5538">
<path
   style="opacity:1;fill:#b7bfcb;fill-rule:nonzero;stroke:none;stroke-width:0;stroke-linecap:butt;stroke-linejoin:miter;stroke-miterlimit:4;stroke-dasharray:none;stroke-dashoffset:0"
   transform="translate(-16,-23)"
   d="M 28,24 H 4 a 1,1 0 0 1 0,-2 h 24 a 1,1 0 0 1 0,2 z"
   stroke-linecap="round"
   id="path5536" />
</g>
		<g
   transform="matrix(0,0.8377,-2.8084,0,-58.9877,-2e-4)"
   id="g5542">
<path
   style="opacity:1;fill:#b7bfcb;fill-rule:nonzero;stroke:none;stroke-width:0;stroke-linecap:butt;stroke-linejoin:miter;stroke-miterlimit:4;stroke-dasharray:none;stroke-dashoffset:0"
   transform="translate(-16,-16)"
   d="M 28,17 H 4 a 1,1 0 0 1 0,-2 h 24 a 1,1 0 0 1 0,2 z"
   stroke-linecap="round"
   id="path5540" />
</g>
</g>
</g>
</g>
</g></g></g></svg>
