<svg xmlns="http://www.w3.org/2000/svg" xmlns:xlink="http://www.w3.org/1999/xlink" version="1.1" width="940" height="788" viewBox="0 0 940 788" xml:space="preserve">
<desc>Created with Fabric.js 3.5.0</desc>
<defs>
</defs>
<rect x="0" y="0" width="100%" height="100%" fill="#ffffff"/>
<g transform="matrix(1 0 0 1 806.2142 369.1809)" id="249095">
<g style="">
		<g transform="matrix(1 0 0 1 0 -76.8191)" id="577178">
<path style="stroke: none; stroke-width: 1; stroke-dasharray: none; stroke-linecap: butt; stroke-dashoffset: 0; stroke-linejoin: miter; stroke-miterlimit: 4; is-custom-font: none; font-file-url: none; fill: rgb(0,0,0); fill-rule: nonzero; opacity: 1;" vector-effect="non-scaling-stroke" transform=" translate(-12.0915, -12.0015)" d="M 16.86 8 A 4 4 0 0 0 13 5 H 6 V 8 H 2 v 2 H 6 v 3 h 7 a 4 4 0 0 0 3.85 -3 a 3.49 3.49 0 0 1 -0.35 7 H 2 v 2 H 16.5 a 5.5 5.5 0 0 0 0.36 -11 Z" stroke-linecap="round"/>
</g>
		<g transform="matrix(1 0 0 1 0 -26.4491)" id="866861">
<path style="stroke: none; stroke-width: 1; stroke-dasharray: none; stroke-linecap: butt; stroke-dashoffset: 0; stroke-linejoin: miter; stroke-miterlimit: 4; is-custom-font: none; font-file-url: none; fill: rgb(0,0,0); fill-rule: nonzero; opacity: 1;" vector-effect="non-scaling-stroke" transform=" translate(-12.0915, -12.0015)" d="M 16.86 8 A 4 4 0 0 0 13 5 H 6 V 8 H 2 v 2 H 6 v 3 h 7 a 4 4 0 0 0 3.85 -3 a 3.49 3.49 0 0 1 -0.35 7 H 2 v 2 H 16.5 a 5.5 5.5 0 0 0 0.36 -11 Z" stroke-linecap="round"/>
</g>
		<g transform="matrix(1 0 0 1 0 76.8191)" id="314132">
<path style="stroke: none; stroke-width: 1; stroke-dasharray: none; stroke-linecap: butt; stroke-dashoffset: 0; stroke-linejoin: miter; stroke-miterlimit: 4; is-custom-font: none; font-file-url: none; fill: rgb(0,0,0); fill-rule: nonzero; opacity: 1;" vector-effect="non-scaling-stroke" transform=" translate(-12.0915, -12.0015)" d="M 16.86 8 A 4 4 0 0 0 13 5 H 6 V 8 H 2 v 2 H 6 v 3 h 7 a 4 4 0 0 0 3.85 -3 a 3.49 3.49 0 0 1 -0.35 7 H 2 v 2 H 16.5 a 5.5 5.5 0 0 0 0.36 -11 Z" stroke-linecap="round"/>
</g>
</g>
</g>
<g transform="matrix(2.9789 0 0 2.9789 256.7496 448.7722)" id="329028">
<path style="stroke: none; stroke-width: 0; stroke-dasharray: none; stroke-linecap: butt; stroke-dashoffset: 0; stroke-linejoin: miter; stroke-miterlimit: 4; is-custom-font: none; font-file-url: none; fill: rgb(92,131,190); fill-rule: nonzero; opacity: 1;" vector-effect="non-scaling-stroke" transform=" translate(-14.9969, -15.0227)" d="M 6 9.3 L 3.9 5.8 l 1.4 -1.4 l 3.5 2.1 v 1.4 l 3.6 3.6 c 0 0.1 0 0.2 0 0.3 L 11.1 13 L 7.4 9.3 H 6 z M 21 17.8 c -0.3 0 -0.5 0 -0.8 0 c 0 0 0 0 0 0 c -0.7 0 -1.3 -0.1 -1.9 -0.2 l -2.1 2.4 l 4.7 5.3 c 1.1 1.2 3 1.3 4.1 0.1 c 1.2 -1.2 1.1 -3 -0.1 -4.1 L 21 17.8 z M 24.4 14 c 1.6 -1.6 2.1 -4 1.5 -6.1 c -0.1 -0.4 -0.6 -0.5 -0.8 -0.2 l -3.5 3.5 l -2.8 -2.8 l 3.5 -3.5 c 0.3 -0.3 0.2 -0.7 -0.2 -0.8 C 20 3.4 17.6 3.9 16 5.6 c -1.8 1.8 -2.2 4.6 -1.2 6.8 l -10 8.9 c -1.2 1.1 -1.3 3 -0.1 4.1 l 0 0 c 1.2 1.2 3 1.1 4.1 -0.1 l 8.9 -10 C 19.9 16.3 22.6 15.9 24.4 14 z" stroke-linecap="round"/>
</g>
<g transform="matrix(0.7703 0 0 0.7703 303.4279 478.3465)" id="755351">
<path style="stroke: none; stroke-width: 0; stroke-dasharray: none; stroke-linecap: butt; stroke-dashoffset: 0; stroke-linejoin: miter; stroke-miterlimit: 4; is-custom-font: none; font-file-url: none; fill: rgb(183,191,203); fill-rule: nonzero; opacity: 1;" vector-effect="non-scaling-stroke" transform=" translate(-147.0501, -147.05)" d="M 294.089 25.772 c -0.766 -7.566 -6.988 -13.222 -14.756 -13.222 h -264 C 7.049 12.55 0 18.766 0 27.05 v 158.333 c 0 0.002 0 0.004 0 0.006 v 29.161 c 0 8.284 7.049 15 15.333 15 h 74.618 l -4.416 22 H 64.333 c -8.284 0 -15 6.716 -15 15 s 6.716 15 15 15 h 33.5 h 99 c 0.005 -0.001 0.013 -0.001 0.02 0 h 32.48 c 8.284 0 15 -6.716 15 -15 s -6.716 -15 -15 -15 H 209.13 l -4.416 -22 h 74.618 c 8.284 0 14.667 -6.716 14.667 -15 V 27.05 C 294 26.532 294.14 26.273 294.089 25.772 z M 264 42.55 v 128 H 30 v -128 H 264 z" stroke-linecap="round"/>
</g>
<g transform="matrix(1.0612 0 0 1.0612 668.1777 443.4665)" id="292938">
<g style="">
		<g transform="matrix(1.5975 0 0 0.314 -0.0001 0)" id="592957">
<path style="stroke: rgb(183,191,203); stroke-width: 5; stroke-dasharray: none; stroke-linecap: butt; stroke-dashoffset: 0; stroke-linejoin: miter; stroke-miterlimit: 4; is-custom-font: none; font-file-url: none; fill: rgb(255,255,255); fill-rule: nonzero; opacity: 1;" vector-effect="non-scaling-stroke" transform=" translate(-79, -78.9999)" d="M 154.685 2.50049 H 154.711 L 154.738 2.49994 C 155.15 2.49126 155.491 2.81853 155.5 3.2304 L 155.5 3.23069 C 155.5 3.24095 155.5 3.25176 155.5 3.26283 L 155.499 3.28886 V 3.3149 V 154.686 C 155.499 155.135 155.135 155.5 154.685 155.5 H 3.31409 C 2.86449 155.5 2.5 155.135 2.5 154.686 V 3.3149 C 2.5 2.86483 2.86465 2.50049 3.31409 2.50049 H 154.685 Z" stroke-linecap="round"/>
</g>
		<g transform="matrix(1 0 0 1 45.2306 0)" id="738205">
<g style="">
		<g transform="matrix(0 0.8377 -2.8084 0 58.9877 -0.0002)" id="Layer_2">
<path style="stroke: none; stroke-width: 0; stroke-dasharray: none; stroke-linecap: butt; stroke-dashoffset: 0; stroke-linejoin: miter; stroke-miterlimit: 4; is-custom-font: none; font-file-url: none; fill: rgb(183,191,203); fill-rule: nonzero; opacity: 1;" transform=" translate(-16, -9)" d="M 28 10 H 4 A 1 1 0 0 1 4 8 H 28 a 1 1 0 0 1 0 2 Z" stroke-linecap="round"/>
</g>
		<g transform="matrix(0 0.8377 -2.8084 0 39.3289 -0.0002)" id="Layer_2">
<path style="stroke: none; stroke-width: 0; stroke-dasharray: none; stroke-linecap: butt; stroke-dashoffset: 0; stroke-linejoin: miter; stroke-miterlimit: 4; is-custom-font: none; font-file-url: none; fill: rgb(183,191,203); fill-rule: nonzero; opacity: 1;" transform=" translate(-16, -16)" d="M 28 17 H 4 a 1 1 0 0 1 0 -2 H 28 a 1 1 0 0 1 0 2 Z" stroke-linecap="round"/>
</g>
		<g transform="matrix(0 0.8377 -2.8084 0 19.6702 -0.0002)" id="Layer_2">
<path style="stroke: none; stroke-width: 0; stroke-dasharray: none; stroke-linecap: butt; stroke-dashoffset: 0; stroke-linejoin: miter; stroke-miterlimit: 4; is-custom-font: none; font-file-url: none; fill: rgb(183,191,203); fill-rule: nonzero; opacity: 1;" transform=" translate(-16, -23)" d="M 28 24 H 4 a 1 1 0 0 1 0 -2 H 28 a 1 1 0 0 1 0 2 Z" stroke-linecap="round"/>
</g>
		<g transform="matrix(0 0.8377 -2.8084 0 0.0257 -0.0002)" id="Layer_2">
<path style="stroke: none; stroke-width: 0; stroke-dasharray: none; stroke-linecap: butt; stroke-dashoffset: 0; stroke-linejoin: miter; stroke-miterlimit: 4; is-custom-font: none; font-file-url: none; fill: rgb(183,191,203); fill-rule: nonzero; opacity: 1;" transform=" translate(-16, -9)" d="M 28 10 H 4 A 1 1 0 0 1 4 8 H 28 a 1 1 0 0 1 0 2 Z" stroke-linecap="round"/>
</g>
		<g transform="matrix(0 0.8377 -2.8084 0 -19.6331 -0.0002)" id="Layer_2">
<path style="stroke: none; stroke-width: 0; stroke-dasharray: none; stroke-linecap: butt; stroke-dashoffset: 0; stroke-linejoin: miter; stroke-miterlimit: 4; is-custom-font: none; font-file-url: none; fill: rgb(183,191,203); fill-rule: nonzero; opacity: 1;" transform=" translate(-16, -16)" d="M 28 17 H 4 a 1 1 0 0 1 0 -2 H 28 a 1 1 0 0 1 0 2 Z" stroke-linecap="round"/>
</g>
		<g transform="matrix(0 0.8377 -2.8084 0 -39.2917 -0.0002)" id="Layer_2">
<path style="stroke: none; stroke-width: 0; stroke-dasharray: none; stroke-linecap: butt; stroke-dashoffset: 0; stroke-linejoin: miter; stroke-miterlimit: 4; is-custom-font: none; font-file-url: none; fill: rgb(183,191,203); fill-rule: nonzero; opacity: 1;" transform=" translate(-16, -23)" d="M 28 24 H 4 a 1 1 0 0 1 0 -2 H 28 a 1 1 0 0 1 0 2 Z" stroke-linecap="round"/>
</g>
		<g transform="matrix(0 0.8377 -2.8084 0 -58.9877 -0.0002)" id="Layer_2">
<path style="stroke: none; stroke-width: 0; stroke-dasharray: none; stroke-linecap: butt; stroke-dashoffset: 0; stroke-linejoin: miter; stroke-miterlimit: 4; is-custom-font: none; font-file-url: none; fill: rgb(183,191,203); fill-rule: nonzero; opacity: 1;" transform=" translate(-16, -16)" d="M 28 17 H 4 a 1 1 0 0 1 0 -2 H 28 a 1 1 0 0 1 0 2 Z" stroke-linecap="round"/>
</g>
</g>
</g>
		<g transform="matrix(1 0 0 1 -95.8611 -0.0021)" id="609143">
<g style="">
		<g transform="matrix(0.1467 0 0 0.0869 -9.2218 0.0009)" id="61229">
<path style="stroke: none; stroke-width: 0; stroke-dasharray: none; stroke-linecap: butt; stroke-dashoffset: 0; stroke-linejoin: miter; stroke-miterlimit: 4; is-custom-font: none; font-file-url: none; fill: rgb(0,153,255); fill-rule: nonzero; opacity: 1;" vector-effect="non-scaling-stroke" transform=" translate(-78.4998, -78.5)" d="M 78.5 0 C 52.9419 0 32.1166 35.2271 32.1166 78.5 C 32.1166 121.773 52.9419 157 78.5 157 C 104.058 157 124.883 121.773 124.883 78.5 C 124.883 35.2271 104.058 0 78.5 0 Z" stroke-linecap="round"/>
</g>
		<g transform="matrix(0.1467 0 0 0.0869 9.2217 -0.001)" id="81755">
<path style="stroke: none; stroke-width: 0; stroke-dasharray: none; stroke-linecap: butt; stroke-dashoffset: 0; stroke-linejoin: miter; stroke-miterlimit: 4; is-custom-font: none; font-file-url: none; fill: rgb(183,191,203); fill-rule: nonzero; opacity: 1;" vector-effect="non-scaling-stroke" transform=" translate(-78.4998, -78.5)" d="M 78.5 0 C 52.9419 0 32.1166 35.2271 32.1166 78.5 C 32.1166 121.773 52.9419 157 78.5 157 C 104.058 157 124.883 121.773 124.883 78.5 C 124.883 35.2271 104.058 0 78.5 0 Z" stroke-linecap="round"/>
</g>
</g>
</g>
</g>
</g>
<g transform="matrix(1.0612 0 0 1.0612 668.1777 494.5908)" id="143982">
<g style="">
		<g transform="matrix(1.5975 0 0 0.314 -0.0001 0)" id="762292">
<path style="stroke: rgb(183,191,203); stroke-width: 5; stroke-dasharray: none; stroke-linecap: butt; stroke-dashoffset: 0; stroke-linejoin: miter; stroke-miterlimit: 4; is-custom-font: none; font-file-url: none; fill: rgb(255,255,255); fill-rule: nonzero; opacity: 1;" vector-effect="non-scaling-stroke" transform=" translate(-79, -78.9999)" d="M 154.685 2.50049 H 154.711 L 154.738 2.49994 C 155.15 2.49126 155.491 2.81853 155.5 3.2304 L 155.5 3.23069 C 155.5 3.24095 155.5 3.25176 155.5 3.26283 L 155.499 3.28886 V 3.3149 V 154.686 C 155.499 155.135 155.135 155.5 154.685 155.5 H 3.31409 C 2.86449 155.5 2.5 155.135 2.5 154.686 V 3.3149 C 2.5 2.86483 2.86465 2.50049 3.31409 2.50049 H 154.685 Z" stroke-linecap="round"/>
</g>
		<g transform="matrix(1 0 0 1 45.2306 0)" id="988884">
<g style="">
		<g transform="matrix(0 0.8377 -2.8084 0 58.9877 -0.0002)" id="Layer_2">
<path style="stroke: none; stroke-width: 0; stroke-dasharray: none; stroke-linecap: butt; stroke-dashoffset: 0; stroke-linejoin: miter; stroke-miterlimit: 4; is-custom-font: none; font-file-url: none; fill: rgb(183,191,203); fill-rule: nonzero; opacity: 1;" transform=" translate(-16, -9)" d="M 28 10 H 4 A 1 1 0 0 1 4 8 H 28 a 1 1 0 0 1 0 2 Z" stroke-linecap="round"/>
</g>
		<g transform="matrix(0 0.8377 -2.8084 0 39.3289 -0.0002)" id="Layer_2">
<path style="stroke: none; stroke-width: 0; stroke-dasharray: none; stroke-linecap: butt; stroke-dashoffset: 0; stroke-linejoin: miter; stroke-miterlimit: 4; is-custom-font: none; font-file-url: none; fill: rgb(183,191,203); fill-rule: nonzero; opacity: 1;" transform=" translate(-16, -16)" d="M 28 17 H 4 a 1 1 0 0 1 0 -2 H 28 a 1 1 0 0 1 0 2 Z" stroke-linecap="round"/>
</g>
		<g transform="matrix(0 0.8377 -2.8084 0 19.6702 -0.0002)" id="Layer_2">
<path style="stroke: none; stroke-width: 0; stroke-dasharray: none; stroke-linecap: butt; stroke-dashoffset: 0; stroke-linejoin: miter; stroke-miterlimit: 4; is-custom-font: none; font-file-url: none; fill: rgb(183,191,203); fill-rule: nonzero; opacity: 1;" transform=" translate(-16, -23)" d="M 28 24 H 4 a 1 1 0 0 1 0 -2 H 28 a 1 1 0 0 1 0 2 Z" stroke-linecap="round"/>
</g>
		<g transform="matrix(0 0.8377 -2.8084 0 0.0257 -0.0002)" id="Layer_2">
<path style="stroke: none; stroke-width: 0; stroke-dasharray: none; stroke-linecap: butt; stroke-dashoffset: 0; stroke-linejoin: miter; stroke-miterlimit: 4; is-custom-font: none; font-file-url: none; fill: rgb(183,191,203); fill-rule: nonzero; opacity: 1;" transform=" translate(-16, -9)" d="M 28 10 H 4 A 1 1 0 0 1 4 8 H 28 a 1 1 0 0 1 0 2 Z" stroke-linecap="round"/>
</g>
		<g transform="matrix(0 0.8377 -2.8084 0 -19.6331 -0.0002)" id="Layer_2">
<path style="stroke: none; stroke-width: 0; stroke-dasharray: none; stroke-linecap: butt; stroke-dashoffset: 0; stroke-linejoin: miter; stroke-miterlimit: 4; is-custom-font: none; font-file-url: none; fill: rgb(183,191,203); fill-rule: nonzero; opacity: 1;" transform=" translate(-16, -16)" d="M 28 17 H 4 a 1 1 0 0 1 0 -2 H 28 a 1 1 0 0 1 0 2 Z" stroke-linecap="round"/>
</g>
		<g transform="matrix(0 0.8377 -2.8084 0 -39.2917 -0.0002)" id="Layer_2">
<path style="stroke: none; stroke-width: 0; stroke-dasharray: none; stroke-linecap: butt; stroke-dashoffset: 0; stroke-linejoin: miter; stroke-miterlimit: 4; is-custom-font: none; font-file-url: none; fill: rgb(183,191,203); fill-rule: nonzero; opacity: 1;" transform=" translate(-16, -23)" d="M 28 24 H 4 a 1 1 0 0 1 0 -2 H 28 a 1 1 0 0 1 0 2 Z" stroke-linecap="round"/>
</g>
		<g transform="matrix(0 0.8377 -2.8084 0 -58.9877 -0.0002)" id="Layer_2">
<path style="stroke: none; stroke-width: 0; stroke-dasharray: none; stroke-linecap: butt; stroke-dashoffset: 0; stroke-linejoin: miter; stroke-miterlimit: 4; is-custom-font: none; font-file-url: none; fill: rgb(183,191,203); fill-rule: nonzero; opacity: 1;" transform=" translate(-16, -16)" d="M 28 17 H 4 a 1 1 0 0 1 0 -2 H 28 a 1 1 0 0 1 0 2 Z" stroke-linecap="round"/>
</g>
</g>
</g>
		<g transform="matrix(1 0 0 1 -95.8611 -0.0021)" id="606177">
<g style="">
		<g transform="matrix(0.1467 0 0 0.0869 -9.2218 0.0009)" id="61229">
<path style="stroke: none; stroke-width: 0; stroke-dasharray: none; stroke-linecap: butt; stroke-dashoffset: 0; stroke-linejoin: miter; stroke-miterlimit: 4; is-custom-font: none; font-file-url: none; fill: rgb(0,153,255); fill-rule: nonzero; opacity: 1;" vector-effect="non-scaling-stroke" transform=" translate(-78.4998, -78.5)" d="M 78.5 0 C 52.9419 0 32.1166 35.2271 32.1166 78.5 C 32.1166 121.773 52.9419 157 78.5 157 C 104.058 157 124.883 121.773 124.883 78.5 C 124.883 35.2271 104.058 0 78.5 0 Z" stroke-linecap="round"/>
</g>
		<g transform="matrix(0.1467 0 0 0.0869 9.2217 -0.001)" id="81755">
<path style="stroke: none; stroke-width: 0; stroke-dasharray: none; stroke-linecap: butt; stroke-dashoffset: 0; stroke-linejoin: miter; stroke-miterlimit: 4; is-custom-font: none; font-file-url: none; fill: rgb(183,191,203); fill-rule: nonzero; opacity: 1;" vector-effect="non-scaling-stroke" transform=" translate(-78.4998, -78.5)" d="M 78.5 0 C 52.9419 0 32.1166 35.2271 32.1166 78.5 C 32.1166 121.773 52.9419 157 78.5 157 C 104.058 157 124.883 121.773 124.883 78.5 C 124.883 35.2271 104.058 0 78.5 0 Z" stroke-linecap="round"/>
</g>
</g>
</g>
</g>
</g>
<g transform="matrix(0.1567 0 0 0.0353 461.0118 274.9486)" id="606872">
<path style="stroke: none; stroke-width: 0; stroke-dasharray: none; stroke-linecap: butt; stroke-dashoffset: 0; stroke-linejoin: miter; stroke-miterlimit: 4; is-custom-font: none; font-file-url: none; fill: rgb(0,0,0); fill-rule: nonzero; opacity: 1;" vector-effect="non-scaling-stroke" transform=" translate(-512, -512)" d="M 904 476 H 120 c -4.4 0 -8 3.6 -8 8 v 56 c 0 4.4 3.6 8 8 8 h 784 c 4.4 0 8 -3.6 8 -8 v -56 c 0 -4.4 -3.6 -8 -8 -8 z" stroke-linecap="round"/>
</g>
<g transform="matrix(2.9722 0 0 2.9722 357.7229 268.8592)" id="978546">
<path style="stroke: none; stroke-width: 0; stroke-dasharray: none; stroke-linecap: butt; stroke-dashoffset: 0; stroke-linejoin: miter; stroke-miterlimit: 4; is-custom-font: none; font-file-url: none; fill: rgb(92,131,190); fill-rule: nonzero; opacity: 1;" vector-effect="non-scaling-stroke" transform=" translate(-12, -12.2555)" d="M 21.171 15.398 l -5.912 -9.854 C 14.483 4.251 13.296 3.511 12 3.511 s -2.483 0.74 -3.259 2.031 l -5.912 9.856 c -0.786 1.309 -0.872 2.705 -0.235 3.83 C 3.23 20.354 4.472 21 6 21 h 12 c 1.528 0 2.77 -0.646 3.406 -1.771 C 22.043 18.104 21.957 16.708 21.171 15.398 z M 12 17.549 c -0.854 0 -1.55 -0.695 -1.55 -1.549 c 0 -0.855 0.695 -1.551 1.55 -1.551 s 1.55 0.696 1.55 1.551 C 13.55 16.854 12.854 17.549 12 17.549 z M 13.633 10.125 c -0.011 0.031 -1.401 3.468 -1.401 3.468 c -0.038 0.094 -0.13 0.156 -0.231 0.156 s -0.193 -0.062 -0.231 -0.156 l -1.391 -3.438 C 10.289 9.922 10.25 9.712 10.25 9.5 c 0 -0.965 0.785 -1.75 1.75 -1.75 s 1.75 0.785 1.75 1.75 C 13.75 9.712 13.711 9.922 13.633 10.125 z" stroke-linecap="round"/>
</g>
<g transform="matrix(4.9564 0 0 4.7241 342.3214 443.4656)" id="430722">
<path style="stroke: rgb(92,131,190); stroke-width: 5; stroke-dasharray: none; stroke-linecap: round; stroke-dashoffset: 0; stroke-linejoin: round; stroke-miterlimit: 4; is-custom-font: none; font-file-url: none; fill: none; fill-rule: nonzero; opacity: 1;" vector-effect="non-scaling-stroke" transform=" translate(-12, -12)" d="M 5 8 H 19 M 5 12 H 19 M 5 16 H 11" stroke-linecap="round"/>
</g>
<g transform="matrix(0 0.0782 -0.0417 0 357.9462 337.1903)" id="272143">
<path style="stroke: none; stroke-width: 0; stroke-dasharray: none; stroke-linecap: butt; stroke-dashoffset: 0; stroke-linejoin: miter; stroke-miterlimit: 4; is-custom-font: none; font-file-url: none; fill: rgb(0,0,0); fill-rule: nonzero; opacity: 1;" vector-effect="non-scaling-stroke" transform=" translate(-512, -512)" d="M 904 476 H 120 c -4.4 0 -8 3.6 -8 8 v 56 c 0 4.4 3.6 8 8 8 h 784 c 4.4 0 8 -3.6 8 -8 v -56 c 0 -4.4 -3.6 -8 -8 -8 z" stroke-linecap="round"/>
</g>
<g transform="matrix(1.0201 0 0 0.1794 469.5105 578.6665)" id="859861">
<path style="stroke: none; stroke-width: 0; stroke-dasharray: none; stroke-linecap: butt; stroke-dashoffset: 0; stroke-linejoin: miter; stroke-miterlimit: 4; is-custom-font: none; font-file-url: none; fill: rgb(183,191,203); fill-rule: nonzero; opacity: 1;" vector-effect="non-scaling-stroke" transform=" translate(-512, -512)" d="M 904 476 H 120 c -4.4 0 -8 3.6 -8 8 v 56 c 0 4.4 3.6 8 8 8 h 784 c 4.4 0 8 -3.6 8 -8 v -56 c 0 -4.4 -3.6 -8 -8 -8 z" stroke-linecap="round"/>
</g>
<g transform="matrix(1.0612 0 0 1.0612 668.1777 341.3276)" id="115389">
<g style="">
		<g transform="matrix(1.5975 0 0 0.314 -0.0001 0)" id="950572">
<path style="stroke: rgb(183,191,203); stroke-width: 5; stroke-dasharray: none; stroke-linecap: butt; stroke-dashoffset: 0; stroke-linejoin: miter; stroke-miterlimit: 4; is-custom-font: none; font-file-url: none; fill: rgb(255,255,255); fill-rule: nonzero; opacity: 1;" vector-effect="non-scaling-stroke" transform=" translate(-79, -78.9999)" d="M 154.685 2.50049 H 154.711 L 154.738 2.49994 C 155.15 2.49126 155.491 2.81853 155.5 3.2304 L 155.5 3.23069 C 155.5 3.24095 155.5 3.25176 155.5 3.26283 L 155.499 3.28886 V 3.3149 V 154.686 C 155.499 155.135 155.135 155.5 154.685 155.5 H 3.31409 C 2.86449 155.5 2.5 155.135 2.5 154.686 V 3.3149 C 2.5 2.86483 2.86465 2.50049 3.31409 2.50049 H 154.685 Z" stroke-linecap="round"/>
</g>
		<g transform="matrix(1 0 0 1 45.2306 0)" id="331086">
<g style="">
		<g transform="matrix(0 0.8377 -2.8084 0 58.9877 -0.0002)" id="Layer_2">
<path style="stroke: none; stroke-width: 0; stroke-dasharray: none; stroke-linecap: butt; stroke-dashoffset: 0; stroke-linejoin: miter; stroke-miterlimit: 4; is-custom-font: none; font-file-url: none; fill: rgb(183,191,203); fill-rule: nonzero; opacity: 1;" transform=" translate(-16, -9)" d="M 28 10 H 4 A 1 1 0 0 1 4 8 H 28 a 1 1 0 0 1 0 2 Z" stroke-linecap="round"/>
</g>
		<g transform="matrix(0 0.8377 -2.8084 0 39.3289 -0.0002)" id="Layer_2">
<path style="stroke: none; stroke-width: 0; stroke-dasharray: none; stroke-linecap: butt; stroke-dashoffset: 0; stroke-linejoin: miter; stroke-miterlimit: 4; is-custom-font: none; font-file-url: none; fill: rgb(183,191,203); fill-rule: nonzero; opacity: 1;" transform=" translate(-16, -16)" d="M 28 17 H 4 a 1 1 0 0 1 0 -2 H 28 a 1 1 0 0 1 0 2 Z" stroke-linecap="round"/>
</g>
		<g transform="matrix(0 0.8377 -2.8084 0 19.6702 -0.0002)" id="Layer_2">
<path style="stroke: none; stroke-width: 0; stroke-dasharray: none; stroke-linecap: butt; stroke-dashoffset: 0; stroke-linejoin: miter; stroke-miterlimit: 4; is-custom-font: none; font-file-url: none; fill: rgb(183,191,203); fill-rule: nonzero; opacity: 1;" transform=" translate(-16, -23)" d="M 28 24 H 4 a 1 1 0 0 1 0 -2 H 28 a 1 1 0 0 1 0 2 Z" stroke-linecap="round"/>
</g>
		<g transform="matrix(0 0.8377 -2.8084 0 0.0257 -0.0002)" id="Layer_2">
<path style="stroke: none; stroke-width: 0; stroke-dasharray: none; stroke-linecap: butt; stroke-dashoffset: 0; stroke-linejoin: miter; stroke-miterlimit: 4; is-custom-font: none; font-file-url: none; fill: rgb(183,191,203); fill-rule: nonzero; opacity: 1;" transform=" translate(-16, -9)" d="M 28 10 H 4 A 1 1 0 0 1 4 8 H 28 a 1 1 0 0 1 0 2 Z" stroke-linecap="round"/>
</g>
		<g transform="matrix(0 0.8377 -2.8084 0 -19.6331 -0.0002)" id="Layer_2">
<path style="stroke: none; stroke-width: 0; stroke-dasharray: none; stroke-linecap: butt; stroke-dashoffset: 0; stroke-linejoin: miter; stroke-miterlimit: 4; is-custom-font: none; font-file-url: none; fill: rgb(183,191,203); fill-rule: nonzero; opacity: 1;" transform=" translate(-16, -16)" d="M 28 17 H 4 a 1 1 0 0 1 0 -2 H 28 a 1 1 0 0 1 0 2 Z" stroke-linecap="round"/>
</g>
		<g transform="matrix(0 0.8377 -2.8084 0 -39.2917 -0.0002)" id="Layer_2">
<path style="stroke: none; stroke-width: 0; stroke-dasharray: none; stroke-linecap: butt; stroke-dashoffset: 0; stroke-linejoin: miter; stroke-miterlimit: 4; is-custom-font: none; font-file-url: none; fill: rgb(183,191,203); fill-rule: nonzero; opacity: 1;" transform=" translate(-16, -23)" d="M 28 24 H 4 a 1 1 0 0 1 0 -2 H 28 a 1 1 0 0 1 0 2 Z" stroke-linecap="round"/>
</g>
		<g transform="matrix(0 0.8377 -2.8084 0 -58.9877 -0.0002)" id="Layer_2">
<path style="stroke: none; stroke-width: 0; stroke-dasharray: none; stroke-linecap: butt; stroke-dashoffset: 0; stroke-linejoin: miter; stroke-miterlimit: 4; is-custom-font: none; font-file-url: none; fill: rgb(183,191,203); fill-rule: nonzero; opacity: 1;" transform=" translate(-16, -16)" d="M 28 17 H 4 a 1 1 0 0 1 0 -2 H 28 a 1 1 0 0 1 0 2 Z" stroke-linecap="round"/>
</g>
</g>
</g>
		<g transform="matrix(1 0 0 1 -95.8611 -0.0021)" id="315036">
<g style="">
		<g transform="matrix(0.1467 0 0 0.0869 -9.2218 0.0009)" id="61229">
<path style="stroke: none; stroke-width: 0; stroke-dasharray: none; stroke-linecap: butt; stroke-dashoffset: 0; stroke-linejoin: miter; stroke-miterlimit: 4; is-custom-font: none; font-file-url: none; fill: rgb(0,153,255); fill-rule: nonzero; opacity: 1;" vector-effect="non-scaling-stroke" transform=" translate(-78.4998, -78.5)" d="M 78.5 0 C 52.9419 0 32.1166 35.2271 32.1166 78.5 C 32.1166 121.773 52.9419 157 78.5 157 C 104.058 157 124.883 121.773 124.883 78.5 C 124.883 35.2271 104.058 0 78.5 0 Z" stroke-linecap="round"/>
</g>
		<g transform="matrix(0.1467 0 0 0.0869 9.2217 -0.001)" id="81755">
<path style="stroke: none; stroke-width: 0; stroke-dasharray: none; stroke-linecap: butt; stroke-dashoffset: 0; stroke-linejoin: miter; stroke-miterlimit: 4; is-custom-font: none; font-file-url: none; fill: rgb(183,191,203); fill-rule: nonzero; opacity: 1;" vector-effect="non-scaling-stroke" transform=" translate(-78.4998, -78.5)" d="M 78.5 0 C 52.9419 0 32.1166 35.2271 32.1166 78.5 C 32.1166 121.773 52.9419 157 78.5 157 C 104.058 157 124.883 121.773 124.883 78.5 C 124.883 35.2271 104.058 0 78.5 0 Z" stroke-linecap="round"/>
</g>
</g>
</g>
</g>
</g>
<g transform="matrix(1 0 0 1 668.1776 392.4421)" id="241950">
<g style="">
		<g transform="matrix(1.6953 0 0 0.3332 0.0025 -0.0013)" id="625411">
<path style="stroke: rgb(183,191,203); stroke-width: 5; stroke-dasharray: none; stroke-linecap: butt; stroke-dashoffset: 0; stroke-linejoin: miter; stroke-miterlimit: 4; is-custom-font: none; font-file-url: none; fill: rgb(255,255,255); fill-rule: nonzero; opacity: 1;" vector-effect="non-scaling-stroke" transform=" translate(-79, -78.9999)" d="M 154.685 2.50049 H 154.711 L 154.738 2.49994 C 155.15 2.49126 155.491 2.81853 155.5 3.2304 L 155.5 3.23069 C 155.5 3.24095 155.5 3.25176 155.5 3.26283 L 155.499 3.28886 V 3.3149 V 154.686 C 155.499 155.135 155.135 155.5 154.685 155.5 H 3.31409 C 2.86449 155.5 2.5 155.135 2.5 154.686 V 3.3149 C 2.5 2.86483 2.86465 2.50049 3.31409 2.50049 H 154.685 Z" stroke-linecap="round"/>
</g>
		<g transform="matrix(1.0612 0 0 1.0612 47.9987 0)" id="578018">
<g style="">
		<g transform="matrix(0 0.8377 -2.8084 0 58.9877 -0.0002)" id="Layer_2">
<path style="stroke: none; stroke-width: 0; stroke-dasharray: none; stroke-linecap: butt; stroke-dashoffset: 0; stroke-linejoin: miter; stroke-miterlimit: 4; is-custom-font: none; font-file-url: none; fill: rgb(183,191,203); fill-rule: nonzero; opacity: 1;" transform=" translate(-16, -9)" d="M 28 10 H 4 A 1 1 0 0 1 4 8 H 28 a 1 1 0 0 1 0 2 Z" stroke-linecap="round"/>
</g>
		<g transform="matrix(0 0.8377 -2.8084 0 39.3289 -0.0002)" id="Layer_2">
<path style="stroke: none; stroke-width: 0; stroke-dasharray: none; stroke-linecap: butt; stroke-dashoffset: 0; stroke-linejoin: miter; stroke-miterlimit: 4; is-custom-font: none; font-file-url: none; fill: rgb(183,191,203); fill-rule: nonzero; opacity: 1;" transform=" translate(-16, -16)" d="M 28 17 H 4 a 1 1 0 0 1 0 -2 H 28 a 1 1 0 0 1 0 2 Z" stroke-linecap="round"/>
</g>
		<g transform="matrix(0 0.8377 -2.8084 0 19.6702 -0.0002)" id="Layer_2">
<path style="stroke: none; stroke-width: 0; stroke-dasharray: none; stroke-linecap: butt; stroke-dashoffset: 0; stroke-linejoin: miter; stroke-miterlimit: 4; is-custom-font: none; font-file-url: none; fill: rgb(183,191,203); fill-rule: nonzero; opacity: 1;" transform=" translate(-16, -23)" d="M 28 24 H 4 a 1 1 0 0 1 0 -2 H 28 a 1 1 0 0 1 0 2 Z" stroke-linecap="round"/>
</g>
		<g transform="matrix(0 0.8377 -2.8084 0 0.0257 -0.0002)" id="Layer_2">
<path style="stroke: none; stroke-width: 0; stroke-dasharray: none; stroke-linecap: butt; stroke-dashoffset: 0; stroke-linejoin: miter; stroke-miterlimit: 4; is-custom-font: none; font-file-url: none; fill: rgb(183,191,203); fill-rule: nonzero; opacity: 1;" transform=" translate(-16, -9)" d="M 28 10 H 4 A 1 1 0 0 1 4 8 H 28 a 1 1 0 0 1 0 2 Z" stroke-linecap="round"/>
</g>
		<g transform="matrix(0 0.8377 -2.8084 0 -19.6331 -0.0002)" id="Layer_2">
<path style="stroke: none; stroke-width: 0; stroke-dasharray: none; stroke-linecap: butt; stroke-dashoffset: 0; stroke-linejoin: miter; stroke-miterlimit: 4; is-custom-font: none; font-file-url: none; fill: rgb(183,191,203); fill-rule: nonzero; opacity: 1;" transform=" translate(-16, -16)" d="M 28 17 H 4 a 1 1 0 0 1 0 -2 H 28 a 1 1 0 0 1 0 2 Z" stroke-linecap="round"/>
</g>
		<g transform="matrix(0 0.8377 -2.8084 0 -39.2917 -0.0002)" id="Layer_2">
<path style="stroke: none; stroke-width: 0; stroke-dasharray: none; stroke-linecap: butt; stroke-dashoffset: 0; stroke-linejoin: miter; stroke-miterlimit: 4; is-custom-font: none; font-file-url: none; fill: rgb(183,191,203); fill-rule: nonzero; opacity: 1;" transform=" translate(-16, -23)" d="M 28 24 H 4 a 1 1 0 0 1 0 -2 H 28 a 1 1 0 0 1 0 2 Z" stroke-linecap="round"/>
</g>
		<g transform="matrix(0 0.8377 -2.8084 0 -58.9877 -0.0002)" id="Layer_2">
<path style="stroke: none; stroke-width: 0; stroke-dasharray: none; stroke-linecap: butt; stroke-dashoffset: 0; stroke-linejoin: miter; stroke-miterlimit: 4; is-custom-font: none; font-file-url: none; fill: rgb(183,191,203); fill-rule: nonzero; opacity: 1;" transform=" translate(-16, -16)" d="M 28 17 H 4 a 1 1 0 0 1 0 -2 H 28 a 1 1 0 0 1 0 2 Z" stroke-linecap="round"/>
</g>
</g>
</g>
		<g transform="matrix(1 0 0 1 -101.7278 -0.0023)" id="783581">
<g style="">
		<g transform="matrix(0.1557 0 0 0.0922 -9.7851 -0.0004)" id="61229">
<path style="stroke: none; stroke-width: 0; stroke-dasharray: none; stroke-linecap: butt; stroke-dashoffset: 0; stroke-linejoin: miter; stroke-miterlimit: 4; is-custom-font: none; font-file-url: none; fill: rgb(0,153,255); fill-rule: nonzero; opacity: 1;" vector-effect="non-scaling-stroke" transform=" translate(-78.4998, -78.5)" d="M 78.5 0 C 52.9419 0 32.1166 35.2271 32.1166 78.5 C 32.1166 121.773 52.9419 157 78.5 157 C 104.058 157 124.883 121.773 124.883 78.5 C 124.883 35.2271 104.058 0 78.5 0 Z" stroke-linecap="round"/>
</g>
		<g transform="matrix(0.1557 0 0 0.0922 9.7872 -0.0024)" id="81755">
<path style="stroke: none; stroke-width: 0; stroke-dasharray: none; stroke-linecap: butt; stroke-dashoffset: 0; stroke-linejoin: miter; stroke-miterlimit: 4; is-custom-font: none; font-file-url: none; fill: rgb(247,147,30); fill-rule: nonzero; opacity: 1;" vector-effect="non-scaling-stroke" transform=" translate(-78.4998, -78.5)" d="M 78.5 0 C 52.9419 0 32.1166 35.2271 32.1166 78.5 C 32.1166 121.773 52.9419 157 78.5 157 C 104.058 157 124.883 121.773 124.883 78.5 C 124.883 35.2271 104.058 0 78.5 0 Z" stroke-linecap="round"/>
</g>
</g>
</g>
</g>
</g>
<g transform="matrix(1.4623 0.607 -0.607 1.4623 808.1738 556.8969)" id="586637">
<path style="stroke: none; stroke-width: 0; stroke-dasharray: none; stroke-linecap: butt; stroke-dashoffset: 0; stroke-linejoin: miter; stroke-miterlimit: 4; is-custom-font: none; font-file-url: none; fill: rgb(0,0,0); fill-rule: nonzero; opacity: 1;" vector-effect="non-scaling-stroke" transform=" translate(-7, -8)" d="M 6 0 a 0.5 0.5 0 0 1 0.5 0.5 V 3 h 3 V 0.5 a 0.5 0.5 0 0 1 1 0 V 3 h 1 a 0.5 0.5 0 0 1 0.5 0.5 v 3 A 3.5 3.5 0 0 1 8.5 10 c -0.002 0.434 -0.01 0.845 -0.04 1.22 c -0.041 0.514 -0.126 1.003 -0.317 1.424 a 2.083 2.083 0 0 1 -0.97 1.028 C 6.725 13.9 6.169 14 5.5 14 c -0.998 0 -1.61 0.33 -1.974 0.718 A 1.922 1.922 0 0 0 3 16 H 2 c 0 -0.616 0.232 -1.367 0.797 -1.968 C 3.374 13.42 4.261 13 5.5 13 c 0.581 0 0.962 -0.088 1.218 -0.219 c 0.241 -0.123 0.4 -0.3 0.514 -0.55 c 0.121 -0.266 0.193 -0.621 0.23 -1.09 c 0.027 -0.34 0.035 -0.718 0.037 -1.141 A 3.5 3.5 0 0 1 4 6.5 v -3 a 0.5 0.5 0 0 1 0.5 -0.5 h 1 V 0.5 A 0.5 0.5 0 0 1 6 0 z M 5 4 v 2.5 A 2.5 2.5 0 0 0 7.5 9 h 1 A 2.5 2.5 0 0 0 11 6.5 V 4 H 5 z" stroke-linecap="round"/>
</g>
<g transform="matrix(1 0 0 1 668.1801 545.708)" id="917341">
<g style="">
		<g transform="matrix(1.6953 0 0 0.3332 0 0)" id="602888">
<path style="stroke: rgb(183,191,203); stroke-width: 5; stroke-dasharray: none; stroke-linecap: butt; stroke-dashoffset: 0; stroke-linejoin: miter; stroke-miterlimit: 4; is-custom-font: none; font-file-url: none; fill: rgb(255,255,255); fill-rule: nonzero; opacity: 1;" vector-effect="non-scaling-stroke" transform=" translate(-79, -78.9999)" d="M 154.685 2.50049 H 154.711 L 154.738 2.49994 C 155.15 2.49126 155.491 2.81853 155.5 3.2304 L 155.5 3.23069 C 155.5 3.24095 155.5 3.25176 155.5 3.26283 L 155.499 3.28886 V 3.3149 V 154.686 C 155.499 155.135 155.135 155.5 154.685 155.5 H 3.31409 C 2.86449 155.5 2.5 155.135 2.5 154.686 V 3.3149 C 2.5 2.86483 2.86465 2.50049 3.31409 2.50049 H 154.685 Z" stroke-linecap="round"/>
</g>
		<g transform="matrix(1 0 0 1 -101.7301 -0.001)" id="307802">
<g style="">
		<g transform="matrix(0.1557 0 0 0.0922 -9.7851 -0.0004)" id="61229">
<path style="stroke: none; stroke-width: 0; stroke-dasharray: none; stroke-linecap: butt; stroke-dashoffset: 0; stroke-linejoin: miter; stroke-miterlimit: 4; is-custom-font: none; font-file-url: none; fill: rgb(0,153,255); fill-rule: nonzero; opacity: 1;" vector-effect="non-scaling-stroke" transform=" translate(-78.4998, -78.5)" d="M 78.5 0 C 52.9419 0 32.1166 35.2271 32.1166 78.5 C 32.1166 121.773 52.9419 157 78.5 157 C 104.058 157 124.883 121.773 124.883 78.5 C 124.883 35.2271 104.058 0 78.5 0 Z" stroke-linecap="round"/>
</g>
		<g transform="matrix(0.1557 0 0 0.0922 9.7872 -0.0024)" id="81755">
<path style="stroke: none; stroke-width: 0; stroke-dasharray: none; stroke-linecap: butt; stroke-dashoffset: 0; stroke-linejoin: miter; stroke-miterlimit: 4; is-custom-font: none; font-file-url: none; fill: rgb(255,51,51); fill-rule: nonzero; opacity: 1;" vector-effect="non-scaling-stroke" transform=" translate(-78.4998, -78.5)" d="M 78.5 0 C 52.9419 0 32.1166 35.2271 32.1166 78.5 C 32.1166 121.773 52.9419 157 78.5 157 C 104.058 157 124.883 121.773 124.883 78.5 C 124.883 35.2271 104.058 0 78.5 0 Z" stroke-linecap="round"/>
</g>
</g>
</g>
		<g transform="matrix(1.0612 0 0 1.0612 47.9963 0.0013)" id="388178">
<g style="">
		<g transform="matrix(0 0.8377 -2.8084 0 58.9877 -0.0002)" id="Layer_2">
<path style="stroke: none; stroke-width: 0; stroke-dasharray: none; stroke-linecap: butt; stroke-dashoffset: 0; stroke-linejoin: miter; stroke-miterlimit: 4; is-custom-font: none; font-file-url: none; fill: rgb(183,191,203); fill-rule: nonzero; opacity: 1;" transform=" translate(-16, -9)" d="M 28 10 H 4 A 1 1 0 0 1 4 8 H 28 a 1 1 0 0 1 0 2 Z" stroke-linecap="round"/>
</g>
		<g transform="matrix(0 0.8377 -2.8084 0 39.3289 -0.0002)" id="Layer_2">
<path style="stroke: none; stroke-width: 0; stroke-dasharray: none; stroke-linecap: butt; stroke-dashoffset: 0; stroke-linejoin: miter; stroke-miterlimit: 4; is-custom-font: none; font-file-url: none; fill: rgb(183,191,203); fill-rule: nonzero; opacity: 1;" transform=" translate(-16, -16)" d="M 28 17 H 4 a 1 1 0 0 1 0 -2 H 28 a 1 1 0 0 1 0 2 Z" stroke-linecap="round"/>
</g>
		<g transform="matrix(0 0.8377 -2.8084 0 19.6702 -0.0002)" id="Layer_2">
<path style="stroke: none; stroke-width: 0; stroke-dasharray: none; stroke-linecap: butt; stroke-dashoffset: 0; stroke-linejoin: miter; stroke-miterlimit: 4; is-custom-font: none; font-file-url: none; fill: rgb(183,191,203); fill-rule: nonzero; opacity: 1;" transform=" translate(-16, -23)" d="M 28 24 H 4 a 1 1 0 0 1 0 -2 H 28 a 1 1 0 0 1 0 2 Z" stroke-linecap="round"/>
</g>
		<g transform="matrix(0 0.8377 -2.8084 0 0.0257 -0.0002)" id="Layer_2">
<path style="stroke: none; stroke-width: 0; stroke-dasharray: none; stroke-linecap: butt; stroke-dashoffset: 0; stroke-linejoin: miter; stroke-miterlimit: 4; is-custom-font: none; font-file-url: none; fill: rgb(183,191,203); fill-rule: nonzero; opacity: 1;" transform=" translate(-16, -9)" d="M 28 10 H 4 A 1 1 0 0 1 4 8 H 28 a 1 1 0 0 1 0 2 Z" stroke-linecap="round"/>
</g>
		<g transform="matrix(0 0.8377 -2.8084 0 -19.6331 -0.0002)" id="Layer_2">
<path style="stroke: none; stroke-width: 0; stroke-dasharray: none; stroke-linecap: butt; stroke-dashoffset: 0; stroke-linejoin: miter; stroke-miterlimit: 4; is-custom-font: none; font-file-url: none; fill: rgb(183,191,203); fill-rule: nonzero; opacity: 1;" transform=" translate(-16, -16)" d="M 28 17 H 4 a 1 1 0 0 1 0 -2 H 28 a 1 1 0 0 1 0 2 Z" stroke-linecap="round"/>
</g>
		<g transform="matrix(0 0.8377 -2.8084 0 -39.2917 -0.0002)" id="Layer_2">
<path style="stroke: none; stroke-width: 0; stroke-dasharray: none; stroke-linecap: butt; stroke-dashoffset: 0; stroke-linejoin: miter; stroke-miterlimit: 4; is-custom-font: none; font-file-url: none; fill: rgb(183,191,203); fill-rule: nonzero; opacity: 1;" transform=" translate(-16, -23)" d="M 28 24 H 4 a 1 1 0 0 1 0 -2 H 28 a 1 1 0 0 1 0 2 Z" stroke-linecap="round"/>
</g>
		<g transform="matrix(0 0.8377 -2.8084 0 -58.9877 -0.0002)" id="Layer_2">
<path style="stroke: none; stroke-width: 0; stroke-dasharray: none; stroke-linecap: butt; stroke-dashoffset: 0; stroke-linejoin: miter; stroke-miterlimit: 4; is-custom-font: none; font-file-url: none; fill: rgb(183,191,203); fill-rule: nonzero; opacity: 1;" transform=" translate(-16, -16)" d="M 28 17 H 4 a 1 1 0 0 1 0 -2 H 28 a 1 1 0 0 1 0 2 Z" stroke-linecap="round"/>
</g>
</g>
</g>
</g>
</g>
<g transform="matrix(1 0 0 1 668.1776 290.1796)" id="19426">
<g style="">
		<g transform="matrix(1.6953 0 0 0.3332 0.0025 -0.0013)" id="606508">
<path style="stroke: rgb(183,191,203); stroke-width: 5; stroke-dasharray: none; stroke-linecap: butt; stroke-dashoffset: 0; stroke-linejoin: miter; stroke-miterlimit: 4; is-custom-font: none; font-file-url: none; fill: rgb(255,255,255); fill-rule: nonzero; opacity: 1;" vector-effect="non-scaling-stroke" transform=" translate(-79, -78.9999)" d="M 154.685 2.50049 H 154.711 L 154.738 2.49994 C 155.15 2.49126 155.491 2.81853 155.5 3.2304 L 155.5 3.23069 C 155.5 3.24095 155.5 3.25176 155.5 3.26283 L 155.499 3.28886 V 3.3149 V 154.686 C 155.499 155.135 155.135 155.5 154.685 155.5 H 3.31409 C 2.86449 155.5 2.5 155.135 2.5 154.686 V 3.3149 C 2.5 2.86483 2.86465 2.50049 3.31409 2.50049 H 154.685 Z" stroke-linecap="round"/>
</g>
		<g transform="matrix(1 0 0 1 -101.7278 -0.0023)" id="905481">
<g style="">
		<g transform="matrix(0.1557 0 0 0.0922 -9.7851 -0.0004)" id="61229">
<path style="stroke: none; stroke-width: 0; stroke-dasharray: none; stroke-linecap: butt; stroke-dashoffset: 0; stroke-linejoin: miter; stroke-miterlimit: 4; is-custom-font: none; font-file-url: none; fill: rgb(183,191,203); fill-rule: nonzero; opacity: 1;" vector-effect="non-scaling-stroke" transform=" translate(-78.4998, -78.5)" d="M 78.5 0 C 52.9419 0 32.1166 35.2271 32.1166 78.5 C 32.1166 121.773 52.9419 157 78.5 157 C 104.058 157 124.883 121.773 124.883 78.5 C 124.883 35.2271 104.058 0 78.5 0 Z" stroke-linecap="round"/>
</g>
		<g transform="matrix(0.1557 0 0 0.0922 9.7872 -0.0024)" id="81755">
<path style="stroke: none; stroke-width: 0; stroke-dasharray: none; stroke-linecap: butt; stroke-dashoffset: 0; stroke-linejoin: miter; stroke-miterlimit: 4; is-custom-font: none; font-file-url: none; fill: rgb(183,191,203); fill-rule: nonzero; opacity: 1;" vector-effect="non-scaling-stroke" transform=" translate(-78.4998, -78.5)" d="M 78.5 0 C 52.9419 0 32.1166 35.2271 32.1166 78.5 C 32.1166 121.773 52.9419 157 78.5 157 C 104.058 157 124.883 121.773 124.883 78.5 C 124.883 35.2271 104.058 0 78.5 0 Z" stroke-linecap="round"/>
</g>
</g>
</g>
		<g transform="matrix(1.0612 0 0 1.0612 47.9987 0)" id="942320">
<g style="">
		<g transform="matrix(0 0.8377 -2.8084 0 58.9877 -0.0002)" id="Layer_2">
<path style="stroke: none; stroke-width: 0; stroke-dasharray: none; stroke-linecap: butt; stroke-dashoffset: 0; stroke-linejoin: miter; stroke-miterlimit: 4; is-custom-font: none; font-file-url: none; fill: rgb(183,191,203); fill-rule: nonzero; opacity: 1;" transform=" translate(-16, -9)" d="M 28 10 H 4 A 1 1 0 0 1 4 8 H 28 a 1 1 0 0 1 0 2 Z" stroke-linecap="round"/>
</g>
		<g transform="matrix(0 0.8377 -2.8084 0 39.3289 -0.0002)" id="Layer_2">
<path style="stroke: none; stroke-width: 0; stroke-dasharray: none; stroke-linecap: butt; stroke-dashoffset: 0; stroke-linejoin: miter; stroke-miterlimit: 4; is-custom-font: none; font-file-url: none; fill: rgb(183,191,203); fill-rule: nonzero; opacity: 1;" transform=" translate(-16, -16)" d="M 28 17 H 4 a 1 1 0 0 1 0 -2 H 28 a 1 1 0 0 1 0 2 Z" stroke-linecap="round"/>
</g>
		<g transform="matrix(0 0.8377 -2.8084 0 19.6702 -0.0002)" id="Layer_2">
<path style="stroke: none; stroke-width: 0; stroke-dasharray: none; stroke-linecap: butt; stroke-dashoffset: 0; stroke-linejoin: miter; stroke-miterlimit: 4; is-custom-font: none; font-file-url: none; fill: rgb(183,191,203); fill-rule: nonzero; opacity: 1;" transform=" translate(-16, -23)" d="M 28 24 H 4 a 1 1 0 0 1 0 -2 H 28 a 1 1 0 0 1 0 2 Z" stroke-linecap="round"/>
</g>
		<g transform="matrix(0 0.8377 -2.8084 0 0.0257 -0.0002)" id="Layer_2">
<path style="stroke: none; stroke-width: 0; stroke-dasharray: none; stroke-linecap: butt; stroke-dashoffset: 0; stroke-linejoin: miter; stroke-miterlimit: 4; is-custom-font: none; font-file-url: none; fill: rgb(183,191,203); fill-rule: nonzero; opacity: 1;" transform=" translate(-16, -9)" d="M 28 10 H 4 A 1 1 0 0 1 4 8 H 28 a 1 1 0 0 1 0 2 Z" stroke-linecap="round"/>
</g>
		<g transform="matrix(0 0.8377 -2.8084 0 -19.6331 -0.0002)" id="Layer_2">
<path style="stroke: none; stroke-width: 0; stroke-dasharray: none; stroke-linecap: butt; stroke-dashoffset: 0; stroke-linejoin: miter; stroke-miterlimit: 4; is-custom-font: none; font-file-url: none; fill: rgb(183,191,203); fill-rule: nonzero; opacity: 1;" transform=" translate(-16, -16)" d="M 28 17 H 4 a 1 1 0 0 1 0 -2 H 28 a 1 1 0 0 1 0 2 Z" stroke-linecap="round"/>
</g>
		<g transform="matrix(0 0.8377 -2.8084 0 -39.2917 -0.0002)" id="Layer_2">
<path style="stroke: none; stroke-width: 0; stroke-dasharray: none; stroke-linecap: butt; stroke-dashoffset: 0; stroke-linejoin: miter; stroke-miterlimit: 4; is-custom-font: none; font-file-url: none; fill: rgb(183,191,203); fill-rule: nonzero; opacity: 1;" transform=" translate(-16, -23)" d="M 28 24 H 4 a 1 1 0 0 1 0 -2 H 28 a 1 1 0 0 1 0 2 Z" stroke-linecap="round"/>
</g>
		<g transform="matrix(0 0.8377 -2.8084 0 -58.9877 -0.0002)" id="Layer_2">
<path style="stroke: none; stroke-width: 0; stroke-dasharray: none; stroke-linecap: butt; stroke-dashoffset: 0; stroke-linejoin: miter; stroke-miterlimit: 4; is-custom-font: none; font-file-url: none; fill: rgb(183,191,203); fill-rule: nonzero; opacity: 1;" transform=" translate(-16, -16)" d="M 28 17 H 4 a 1 1 0 0 1 0 -2 H 28 a 1 1 0 0 1 0 2 Z" stroke-linecap="round"/>
</g>
</g>
</g>
</g>
</g>
</svg>