<svg xmlns="http://www.w3.org/2000/svg" xmlns:xlink="http://www.w3.org/1999/xlink" version="1.1" width="940" height="788" viewBox="0 0 940 788" xml:space="preserve">
<desc>Created with Fabric.js 3.5.0</desc>
<defs>
</defs>
<rect x="0" y="0" width="100%" height="100%" fill="#ffffff"/>
<g transform="matrix(1 0 0 1 807.2142 367.1809)" id="943358">
<g style="">
		<g transform="matrix(1 0 0 1 0 -76.8191)" id="680513">
<path style="stroke: none; stroke-width: 1; stroke-dasharray: none; stroke-linecap: butt; stroke-dashoffset: 0; stroke-linejoin: miter; stroke-miterlimit: 4; is-custom-font: none; font-file-url: none; fill: rgb(0,0,0); fill-rule: nonzero; opacity: 1;" vector-effect="non-scaling-stroke" transform=" translate(-12.0915, -12.0015)" d="M 16.86 8 A 4 4 0 0 0 13 5 H 6 V 8 H 2 v 2 H 6 v 3 h 7 a 4 4 0 0 0 3.85 -3 a 3.49 3.49 0 0 1 -0.35 7 H 2 v 2 H 16.5 a 5.5 5.5 0 0 0 0.36 -11 Z" stroke-linecap="round"/>
</g>
		<g transform="matrix(1 0 0 1 0 -26.4491)" id="229140">
<path style="stroke: none; stroke-width: 1; stroke-dasharray: none; stroke-linecap: butt; stroke-dashoffset: 0; stroke-linejoin: miter; stroke-miterlimit: 4; is-custom-font: none; font-file-url: none; fill: rgb(0,0,0); fill-rule: nonzero; opacity: 1;" vector-effect="non-scaling-stroke" transform=" translate(-12.0915, -12.0015)" d="M 16.86 8 A 4 4 0 0 0 13 5 H 6 V 8 H 2 v 2 H 6 v 3 h 7 a 4 4 0 0 0 3.85 -3 a 3.49 3.49 0 0 1 -0.35 7 H 2 v 2 H 16.5 a 5.5 5.5 0 0 0 0.36 -11 Z" stroke-linecap="round"/>
</g>
		<g transform="matrix(1 0 0 1 0 76.8191)" id="27642">
<path style="stroke: none; stroke-width: 1; stroke-dasharray: none; stroke-linecap: butt; stroke-dashoffset: 0; stroke-linejoin: miter; stroke-miterlimit: 4; is-custom-font: none; font-file-url: none; fill: rgb(0,0,0); fill-rule: nonzero; opacity: 1;" vector-effect="non-scaling-stroke" transform=" translate(-12.0915, -12.0015)" d="M 16.86 8 A 4 4 0 0 0 13 5 H 6 V 8 H 2 v 2 H 6 v 3 h 7 a 4 4 0 0 0 3.85 -3 a 3.49 3.49 0 0 1 -0.35 7 H 2 v 2 H 16.5 a 5.5 5.5 0 0 0 0.36 -11 Z" stroke-linecap="round"/>
</g>
</g>
</g>
<g transform="matrix(0.7703 0 0 0.7703 303.4279 478.3465)" id="69047">
<path style="stroke: none; stroke-width: 0; stroke-dasharray: none; stroke-linecap: butt; stroke-dashoffset: 0; stroke-linejoin: miter; stroke-miterlimit: 4; is-custom-font: none; font-file-url: none; fill: rgb(183,191,203); fill-rule: nonzero; opacity: 1;" vector-effect="non-scaling-stroke" transform=" translate(-147.0501, -147.05)" d="M 294.089 25.772 c -0.766 -7.566 -6.988 -13.222 -14.756 -13.222 h -264 C 7.049 12.55 0 18.766 0 27.05 v 158.333 c 0 0.002 0 0.004 0 0.006 v 29.161 c 0 8.284 7.049 15 15.333 15 h 74.618 l -4.416 22 H 64.333 c -8.284 0 -15 6.716 -15 15 s 6.716 15 15 15 h 33.5 h 99 c 0.005 -0.001 0.013 -0.001 0.02 0 h 32.48 c 8.284 0 15 -6.716 15 -15 s -6.716 -15 -15 -15 H 209.13 l -4.416 -22 h 74.618 c 8.284 0 14.667 -6.716 14.667 -15 V 27.05 C 294 26.532 294.14 26.273 294.089 25.772 z M 264 42.55 v 128 H 30 v -128 H 264 z" stroke-linecap="round"/>
</g>
<g transform="matrix(1.0612 0 0 1.0612 668.1777 443.4665)" id="826094">
<g style="">
		<g transform="matrix(1.5975 0 0 0.314 -0.0001 0)" id="533800">
<path style="stroke: rgb(183,191,203); stroke-width: 5; stroke-dasharray: none; stroke-linecap: butt; stroke-dashoffset: 0; stroke-linejoin: miter; stroke-miterlimit: 4; is-custom-font: none; font-file-url: none; fill: rgb(255,255,255); fill-rule: nonzero; opacity: 1;" vector-effect="non-scaling-stroke" transform=" translate(-79, -78.9999)" d="M 154.685 2.50049 H 154.711 L 154.738 2.49994 C 155.15 2.49126 155.491 2.81853 155.5 3.2304 L 155.5 3.23069 C 155.5 3.24095 155.5 3.25176 155.5 3.26283 L 155.499 3.28886 V 3.3149 V 154.686 C 155.499 155.135 155.135 155.5 154.685 155.5 H 3.31409 C 2.86449 155.5 2.5 155.135 2.5 154.686 V 3.3149 C 2.5 2.86483 2.86465 2.50049 3.31409 2.50049 H 154.685 Z" stroke-linecap="round"/>
</g>
		<g transform="matrix(1 0 0 1 45.2306 0)" id="964538">
<g style="">
		<g transform="matrix(0 0.8377 -2.8084 0 58.9877 -0.0002)" id="Layer_2">
<path style="stroke: none; stroke-width: 0; stroke-dasharray: none; stroke-linecap: butt; stroke-dashoffset: 0; stroke-linejoin: miter; stroke-miterlimit: 4; is-custom-font: none; font-file-url: none; fill: rgb(183,191,203); fill-rule: nonzero; opacity: 1;" transform=" translate(-16, -9)" d="M 28 10 H 4 A 1 1 0 0 1 4 8 H 28 a 1 1 0 0 1 0 2 Z" stroke-linecap="round"/>
</g>
		<g transform="matrix(0 0.8377 -2.8084 0 39.3289 -0.0002)" id="Layer_2">
<path style="stroke: none; stroke-width: 0; stroke-dasharray: none; stroke-linecap: butt; stroke-dashoffset: 0; stroke-linejoin: miter; stroke-miterlimit: 4; is-custom-font: none; font-file-url: none; fill: rgb(183,191,203); fill-rule: nonzero; opacity: 1;" transform=" translate(-16, -16)" d="M 28 17 H 4 a 1 1 0 0 1 0 -2 H 28 a 1 1 0 0 1 0 2 Z" stroke-linecap="round"/>
</g>
		<g transform="matrix(0 0.8377 -2.8084 0 19.6702 -0.0002)" id="Layer_2">
<path style="stroke: none; stroke-width: 0; stroke-dasharray: none; stroke-linecap: butt; stroke-dashoffset: 0; stroke-linejoin: miter; stroke-miterlimit: 4; is-custom-font: none; font-file-url: none; fill: rgb(183,191,203); fill-rule: nonzero; opacity: 1;" transform=" translate(-16, -23)" d="M 28 24 H 4 a 1 1 0 0 1 0 -2 H 28 a 1 1 0 0 1 0 2 Z" stroke-linecap="round"/>
</g>
		<g transform="matrix(0 0.8377 -2.8084 0 0.0257 -0.0002)" id="Layer_2">
<path style="stroke: none; stroke-width: 0; stroke-dasharray: none; stroke-linecap: butt; stroke-dashoffset: 0; stroke-linejoin: miter; stroke-miterlimit: 4; is-custom-font: none; font-file-url: none; fill: rgb(183,191,203); fill-rule: nonzero; opacity: 1;" transform=" translate(-16, -9)" d="M 28 10 H 4 A 1 1 0 0 1 4 8 H 28 a 1 1 0 0 1 0 2 Z" stroke-linecap="round"/>
</g>
		<g transform="matrix(0 0.8377 -2.8084 0 -19.6331 -0.0002)" id="Layer_2">
<path style="stroke: none; stroke-width: 0; stroke-dasharray: none; stroke-linecap: butt; stroke-dashoffset: 0; stroke-linejoin: miter; stroke-miterlimit: 4; is-custom-font: none; font-file-url: none; fill: rgb(183,191,203); fill-rule: nonzero; opacity: 1;" transform=" translate(-16, -16)" d="M 28 17 H 4 a 1 1 0 0 1 0 -2 H 28 a 1 1 0 0 1 0 2 Z" stroke-linecap="round"/>
</g>
		<g transform="matrix(0 0.8377 -2.8084 0 -39.2917 -0.0002)" id="Layer_2">
<path style="stroke: none; stroke-width: 0; stroke-dasharray: none; stroke-linecap: butt; stroke-dashoffset: 0; stroke-linejoin: miter; stroke-miterlimit: 4; is-custom-font: none; font-file-url: none; fill: rgb(183,191,203); fill-rule: nonzero; opacity: 1;" transform=" translate(-16, -23)" d="M 28 24 H 4 a 1 1 0 0 1 0 -2 H 28 a 1 1 0 0 1 0 2 Z" stroke-linecap="round"/>
</g>
		<g transform="matrix(0 0.8377 -2.8084 0 -58.9877 -0.0002)" id="Layer_2">
<path style="stroke: none; stroke-width: 0; stroke-dasharray: none; stroke-linecap: butt; stroke-dashoffset: 0; stroke-linejoin: miter; stroke-miterlimit: 4; is-custom-font: none; font-file-url: none; fill: rgb(183,191,203); fill-rule: nonzero; opacity: 1;" transform=" translate(-16, -16)" d="M 28 17 H 4 a 1 1 0 0 1 0 -2 H 28 a 1 1 0 0 1 0 2 Z" stroke-linecap="round"/>
</g>
</g>
</g>
		<g transform="matrix(1 0 0 1 -95.8611 -0.0021)" id="504262">
<g style="">
		<g transform="matrix(0.1467 0 0 0.0869 -9.2218 0.0009)" id="61229">
<path style="stroke: none; stroke-width: 0; stroke-dasharray: none; stroke-linecap: butt; stroke-dashoffset: 0; stroke-linejoin: miter; stroke-miterlimit: 4; is-custom-font: none; font-file-url: none; fill: rgb(0,153,255); fill-rule: nonzero; opacity: 1;" vector-effect="non-scaling-stroke" transform=" translate(-78.4998, -78.5)" d="M 78.5 0 C 52.9419 0 32.1166 35.2271 32.1166 78.5 C 32.1166 121.773 52.9419 157 78.5 157 C 104.058 157 124.883 121.773 124.883 78.5 C 124.883 35.2271 104.058 0 78.5 0 Z" stroke-linecap="round"/>
</g>
		<g transform="matrix(0.1467 0 0 0.0869 9.2217 -0.001)" id="81755">
<path style="stroke: none; stroke-width: 0; stroke-dasharray: none; stroke-linecap: butt; stroke-dashoffset: 0; stroke-linejoin: miter; stroke-miterlimit: 4; is-custom-font: none; font-file-url: none; fill: rgb(183,191,203); fill-rule: nonzero; opacity: 1;" vector-effect="non-scaling-stroke" transform=" translate(-78.4998, -78.5)" d="M 78.5 0 C 52.9419 0 32.1166 35.2271 32.1166 78.5 C 32.1166 121.773 52.9419 157 78.5 157 C 104.058 157 124.883 121.773 124.883 78.5 C 124.883 35.2271 104.058 0 78.5 0 Z" stroke-linecap="round"/>
</g>
</g>
</g>
</g>
</g>
<g transform="matrix(1.0612 0 0 1.0612 668.1777 494.5908)" id="619828">
<g style="">
		<g transform="matrix(1.5975 0 0 0.314 -0.0001 0)" id="228633">
<path style="stroke: rgb(183,191,203); stroke-width: 5; stroke-dasharray: none; stroke-linecap: butt; stroke-dashoffset: 0; stroke-linejoin: miter; stroke-miterlimit: 4; is-custom-font: none; font-file-url: none; fill: rgb(255,255,255); fill-rule: nonzero; opacity: 1;" vector-effect="non-scaling-stroke" transform=" translate(-79, -78.9999)" d="M 154.685 2.50049 H 154.711 L 154.738 2.49994 C 155.15 2.49126 155.491 2.81853 155.5 3.2304 L 155.5 3.23069 C 155.5 3.24095 155.5 3.25176 155.5 3.26283 L 155.499 3.28886 V 3.3149 V 154.686 C 155.499 155.135 155.135 155.5 154.685 155.5 H 3.31409 C 2.86449 155.5 2.5 155.135 2.5 154.686 V 3.3149 C 2.5 2.86483 2.86465 2.50049 3.31409 2.50049 H 154.685 Z" stroke-linecap="round"/>
</g>
		<g transform="matrix(1 0 0 1 45.2306 0)" id="356880">
<g style="">
		<g transform="matrix(0 0.8377 -2.8084 0 58.9877 -0.0002)" id="Layer_2">
<path style="stroke: none; stroke-width: 0; stroke-dasharray: none; stroke-linecap: butt; stroke-dashoffset: 0; stroke-linejoin: miter; stroke-miterlimit: 4; is-custom-font: none; font-file-url: none; fill: rgb(183,191,203); fill-rule: nonzero; opacity: 1;" transform=" translate(-16, -9)" d="M 28 10 H 4 A 1 1 0 0 1 4 8 H 28 a 1 1 0 0 1 0 2 Z" stroke-linecap="round"/>
</g>
		<g transform="matrix(0 0.8377 -2.8084 0 39.3289 -0.0002)" id="Layer_2">
<path style="stroke: none; stroke-width: 0; stroke-dasharray: none; stroke-linecap: butt; stroke-dashoffset: 0; stroke-linejoin: miter; stroke-miterlimit: 4; is-custom-font: none; font-file-url: none; fill: rgb(183,191,203); fill-rule: nonzero; opacity: 1;" transform=" translate(-16, -16)" d="M 28 17 H 4 a 1 1 0 0 1 0 -2 H 28 a 1 1 0 0 1 0 2 Z" stroke-linecap="round"/>
</g>
		<g transform="matrix(0 0.8377 -2.8084 0 19.6702 -0.0002)" id="Layer_2">
<path style="stroke: none; stroke-width: 0; stroke-dasharray: none; stroke-linecap: butt; stroke-dashoffset: 0; stroke-linejoin: miter; stroke-miterlimit: 4; is-custom-font: none; font-file-url: none; fill: rgb(183,191,203); fill-rule: nonzero; opacity: 1;" transform=" translate(-16, -23)" d="M 28 24 H 4 a 1 1 0 0 1 0 -2 H 28 a 1 1 0 0 1 0 2 Z" stroke-linecap="round"/>
</g>
		<g transform="matrix(0 0.8377 -2.8084 0 0.0257 -0.0002)" id="Layer_2">
<path style="stroke: none; stroke-width: 0; stroke-dasharray: none; stroke-linecap: butt; stroke-dashoffset: 0; stroke-linejoin: miter; stroke-miterlimit: 4; is-custom-font: none; font-file-url: none; fill: rgb(183,191,203); fill-rule: nonzero; opacity: 1;" transform=" translate(-16, -9)" d="M 28 10 H 4 A 1 1 0 0 1 4 8 H 28 a 1 1 0 0 1 0 2 Z" stroke-linecap="round"/>
</g>
		<g transform="matrix(0 0.8377 -2.8084 0 -19.6331 -0.0002)" id="Layer_2">
<path style="stroke: none; stroke-width: 0; stroke-dasharray: none; stroke-linecap: butt; stroke-dashoffset: 0; stroke-linejoin: miter; stroke-miterlimit: 4; is-custom-font: none; font-file-url: none; fill: rgb(183,191,203); fill-rule: nonzero; opacity: 1;" transform=" translate(-16, -16)" d="M 28 17 H 4 a 1 1 0 0 1 0 -2 H 28 a 1 1 0 0 1 0 2 Z" stroke-linecap="round"/>
</g>
		<g transform="matrix(0 0.8377 -2.8084 0 -39.2917 -0.0002)" id="Layer_2">
<path style="stroke: none; stroke-width: 0; stroke-dasharray: none; stroke-linecap: butt; stroke-dashoffset: 0; stroke-linejoin: miter; stroke-miterlimit: 4; is-custom-font: none; font-file-url: none; fill: rgb(183,191,203); fill-rule: nonzero; opacity: 1;" transform=" translate(-16, -23)" d="M 28 24 H 4 a 1 1 0 0 1 0 -2 H 28 a 1 1 0 0 1 0 2 Z" stroke-linecap="round"/>
</g>
		<g transform="matrix(0 0.8377 -2.8084 0 -58.9877 -0.0002)" id="Layer_2">
<path style="stroke: none; stroke-width: 0; stroke-dasharray: none; stroke-linecap: butt; stroke-dashoffset: 0; stroke-linejoin: miter; stroke-miterlimit: 4; is-custom-font: none; font-file-url: none; fill: rgb(183,191,203); fill-rule: nonzero; opacity: 1;" transform=" translate(-16, -16)" d="M 28 17 H 4 a 1 1 0 0 1 0 -2 H 28 a 1 1 0 0 1 0 2 Z" stroke-linecap="round"/>
</g>
</g>
</g>
		<g transform="matrix(1 0 0 1 -95.8611 -0.0021)" id="814477">
<g style="">
		<g transform="matrix(0.1467 0 0 0.0869 -9.2218 0.0009)" id="61229">
<path style="stroke: none; stroke-width: 0; stroke-dasharray: none; stroke-linecap: butt; stroke-dashoffset: 0; stroke-linejoin: miter; stroke-miterlimit: 4; is-custom-font: none; font-file-url: none; fill: rgb(0,153,255); fill-rule: nonzero; opacity: 1;" vector-effect="non-scaling-stroke" transform=" translate(-78.4998, -78.5)" d="M 78.5 0 C 52.9419 0 32.1166 35.2271 32.1166 78.5 C 32.1166 121.773 52.9419 157 78.5 157 C 104.058 157 124.883 121.773 124.883 78.5 C 124.883 35.2271 104.058 0 78.5 0 Z" stroke-linecap="round"/>
</g>
		<g transform="matrix(0.1467 0 0 0.0869 9.2217 -0.001)" id="81755">
<path style="stroke: none; stroke-width: 0; stroke-dasharray: none; stroke-linecap: butt; stroke-dashoffset: 0; stroke-linejoin: miter; stroke-miterlimit: 4; is-custom-font: none; font-file-url: none; fill: rgb(183,191,203); fill-rule: nonzero; opacity: 1;" vector-effect="non-scaling-stroke" transform=" translate(-78.4998, -78.5)" d="M 78.5 0 C 52.9419 0 32.1166 35.2271 32.1166 78.5 C 32.1166 121.773 52.9419 157 78.5 157 C 104.058 157 124.883 121.773 124.883 78.5 C 124.883 35.2271 104.058 0 78.5 0 Z" stroke-linecap="round"/>
</g>
</g>
</g>
</g>
</g>
<g transform="matrix(0.1567 0 0 0.0353 461.0118 274.9486)" id="675095">
<path style="stroke: none; stroke-width: 0; stroke-dasharray: none; stroke-linecap: butt; stroke-dashoffset: 0; stroke-linejoin: miter; stroke-miterlimit: 4; is-custom-font: none; font-file-url: none; fill: rgb(0,0,0); fill-rule: nonzero; opacity: 1;" vector-effect="non-scaling-stroke" transform=" translate(-512, -512)" d="M 904 476 H 120 c -4.4 0 -8 3.6 -8 8 v 56 c 0 4.4 3.6 8 8 8 h 784 c 4.4 0 8 -3.6 8 -8 v -56 c 0 -4.4 -3.6 -8 -8 -8 z" stroke-linecap="round"/>
</g>
<g transform="matrix(3.038 0 0 3.038 260.336 446.8185)" id="143324">
<g style="" vector-effect="non-scaling-stroke">
		<g transform="matrix(1 0 0 1 0 1)" id="925294">
<path style="stroke: none; stroke-width: 1; stroke-dasharray: none; stroke-linecap: butt; stroke-dashoffset: 0; stroke-linejoin: miter; stroke-miterlimit: 4; is-custom-font: none; font-file-url: none; fill: rgb(0,0,0); fill-opacity: 0; fill-rule: nonzero; opacity: 1;" transform=" translate(-12, -12)" d="m 22 12 c 0 5.523 -4.477 10 -10 10 c -5.5228 0 -10 -4.477 -10 -10 c 0 -5.5228 4.4772 -10 10 -10 c 5.523 0 10 4.4772 10 10 z" stroke-linecap="round"/>
</g>
		<g transform="matrix(1 0 0 1 0 0)" id="550156">
<path style="stroke: none; stroke-width: 1; stroke-dasharray: none; stroke-linecap: butt; stroke-dashoffset: 0; stroke-linejoin: miter; stroke-miterlimit: 4; is-custom-font: none; font-file-url: none; fill: rgb(92,131,190); fill-rule: nonzero; opacity: 1;" transform=" translate(-12, -12)" d="m 22 12 c 0 5.523 -4.477 10 -10 10 c -5.5228 0 -10 -4.477 -10 -10 c 0 -5.5228 4.4772 -10 10 -10 c 5.523 0 10 4.4772 10 10 z" stroke-linecap="round"/>
</g>
		<g transform="matrix(1 0 0 1 0.0001 0.95)" id="598911">
<path style="stroke: none; stroke-width: 1; stroke-dasharray: none; stroke-linecap: butt; stroke-dashoffset: 0; stroke-linejoin: miter; stroke-miterlimit: 4; is-custom-font: none; font-file-url: none; fill: rgb(0,0,0); fill-opacity: 0; fill-rule: nonzero; opacity: 1;" transform=" translate(-12.0001, -1041.35)" d="m 7.0503 1037.8 l 3.5357 3.6 l -3.5357 3.5 l 1.4142 1.4 l 3.5355 -3.5 l 3.536 3.5 l 1.414 -1.4 l -3.536 -3.5 l 3.536 -3.6 l -1.414 -1.4 l -3.536 3.5 l -3.5355 -3.5 l -1.4142 1.4 z" stroke-linecap="round"/>
</g>
		<g transform="matrix(1 0 0 1 0.0001 -0.05)" id="277945">
<path style="stroke: none; stroke-width: 1; stroke-dasharray: none; stroke-linecap: butt; stroke-dashoffset: 0; stroke-linejoin: miter; stroke-miterlimit: 4; is-custom-font: none; font-file-url: none; fill: rgb(236,240,241); fill-rule: nonzero; opacity: 1;" transform=" translate(-12.0001, -1040.35)" d="m 7.0503 1036.8 l 3.5357 3.6 l -3.5357 3.5 l 1.4142 1.4 l 3.5355 -3.5 l 3.536 3.5 l 1.414 -1.4 l -3.536 -3.5 l 3.536 -3.6 l -1.414 -1.4 l -3.536 3.5 l -3.5355 -3.5 l -1.4142 1.4 z" stroke-linecap="round"/>
</g>
</g>
</g>
<g transform="matrix(2.9722 0 0 2.9722 357.7229 268.8592)" id="825317">
<path style="stroke: none; stroke-width: 0; stroke-dasharray: none; stroke-linecap: butt; stroke-dashoffset: 0; stroke-linejoin: miter; stroke-miterlimit: 4; is-custom-font: none; font-file-url: none; fill: rgb(92,131,190); fill-rule: nonzero; opacity: 1;" vector-effect="non-scaling-stroke" transform=" translate(-12, -12.2555)" d="M 21.171 15.398 l -5.912 -9.854 C 14.483 4.251 13.296 3.511 12 3.511 s -2.483 0.74 -3.259 2.031 l -5.912 9.856 c -0.786 1.309 -0.872 2.705 -0.235 3.83 C 3.23 20.354 4.472 21 6 21 h 12 c 1.528 0 2.77 -0.646 3.406 -1.771 C 22.043 18.104 21.957 16.708 21.171 15.398 z M 12 17.549 c -0.854 0 -1.55 -0.695 -1.55 -1.549 c 0 -0.855 0.695 -1.551 1.55 -1.551 s 1.55 0.696 1.55 1.551 C 13.55 16.854 12.854 17.549 12 17.549 z M 13.633 10.125 c -0.011 0.031 -1.401 3.468 -1.401 3.468 c -0.038 0.094 -0.13 0.156 -0.231 0.156 s -0.193 -0.062 -0.231 -0.156 l -1.391 -3.438 C 10.289 9.922 10.25 9.712 10.25 9.5 c 0 -0.965 0.785 -1.75 1.75 -1.75 s 1.75 0.785 1.75 1.75 C 13.75 9.712 13.711 9.922 13.633 10.125 z" stroke-linecap="round"/>
</g>
<g transform="matrix(4.9564 0 0 4.7241 342.3214 443.4656)" id="626043">
<path style="stroke: rgb(92,131,190); stroke-width: 5; stroke-dasharray: none; stroke-linecap: round; stroke-dashoffset: 0; stroke-linejoin: round; stroke-miterlimit: 4; is-custom-font: none; font-file-url: none; fill: none; fill-rule: nonzero; opacity: 1;" vector-effect="non-scaling-stroke" transform=" translate(-12, -12)" d="M 5 8 H 19 M 5 12 H 19 M 5 16 H 11" stroke-linecap="round"/>
</g>
<g transform="matrix(0 0.0782 -0.0417 0 357.9462 337.1903)" id="776705">
<path style="stroke: none; stroke-width: 0; stroke-dasharray: none; stroke-linecap: butt; stroke-dashoffset: 0; stroke-linejoin: miter; stroke-miterlimit: 4; is-custom-font: none; font-file-url: none; fill: rgb(0,0,0); fill-rule: nonzero; opacity: 1;" vector-effect="non-scaling-stroke" transform=" translate(-512, -512)" d="M 904 476 H 120 c -4.4 0 -8 3.6 -8 8 v 56 c 0 4.4 3.6 8 8 8 h 784 c 4.4 0 8 -3.6 8 -8 v -56 c 0 -4.4 -3.6 -8 -8 -8 z" stroke-linecap="round"/>
</g>
<g transform="matrix(1.0201 0 0 0.1794 469.5105 578.6665)" id="485636">
<path style="stroke: none; stroke-width: 0; stroke-dasharray: none; stroke-linecap: butt; stroke-dashoffset: 0; stroke-linejoin: miter; stroke-miterlimit: 4; is-custom-font: none; font-file-url: none; fill: rgb(183,191,203); fill-rule: nonzero; opacity: 1;" vector-effect="non-scaling-stroke" transform=" translate(-512, -512)" d="M 904 476 H 120 c -4.4 0 -8 3.6 -8 8 v 56 c 0 4.4 3.6 8 8 8 h 784 c 4.4 0 8 -3.6 8 -8 v -56 c 0 -4.4 -3.6 -8 -8 -8 z" stroke-linecap="round"/>
</g>
<g transform="matrix(1.0612 0 0 1.0612 668.1777 341.3276)" id="306154">
<g style="">
		<g transform="matrix(1.5975 0 0 0.314 -0.0001 0)" id="27306">
<path style="stroke: rgb(183,191,203); stroke-width: 5; stroke-dasharray: none; stroke-linecap: butt; stroke-dashoffset: 0; stroke-linejoin: miter; stroke-miterlimit: 4; is-custom-font: none; font-file-url: none; fill: rgb(255,255,255); fill-rule: nonzero; opacity: 1;" vector-effect="non-scaling-stroke" transform=" translate(-79, -78.9999)" d="M 154.685 2.50049 H 154.711 L 154.738 2.49994 C 155.15 2.49126 155.491 2.81853 155.5 3.2304 L 155.5 3.23069 C 155.5 3.24095 155.5 3.25176 155.5 3.26283 L 155.499 3.28886 V 3.3149 V 154.686 C 155.499 155.135 155.135 155.5 154.685 155.5 H 3.31409 C 2.86449 155.5 2.5 155.135 2.5 154.686 V 3.3149 C 2.5 2.86483 2.86465 2.50049 3.31409 2.50049 H 154.685 Z" stroke-linecap="round"/>
</g>
		<g transform="matrix(1 0 0 1 45.2306 0)" id="292755">
<g style="">
		<g transform="matrix(0 0.8377 -2.8084 0 58.9877 -0.0002)" id="Layer_2">
<path style="stroke: none; stroke-width: 0; stroke-dasharray: none; stroke-linecap: butt; stroke-dashoffset: 0; stroke-linejoin: miter; stroke-miterlimit: 4; is-custom-font: none; font-file-url: none; fill: rgb(183,191,203); fill-rule: nonzero; opacity: 1;" transform=" translate(-16, -9)" d="M 28 10 H 4 A 1 1 0 0 1 4 8 H 28 a 1 1 0 0 1 0 2 Z" stroke-linecap="round"/>
</g>
		<g transform="matrix(0 0.8377 -2.8084 0 39.3289 -0.0002)" id="Layer_2">
<path style="stroke: none; stroke-width: 0; stroke-dasharray: none; stroke-linecap: butt; stroke-dashoffset: 0; stroke-linejoin: miter; stroke-miterlimit: 4; is-custom-font: none; font-file-url: none; fill: rgb(183,191,203); fill-rule: nonzero; opacity: 1;" transform=" translate(-16, -16)" d="M 28 17 H 4 a 1 1 0 0 1 0 -2 H 28 a 1 1 0 0 1 0 2 Z" stroke-linecap="round"/>
</g>
		<g transform="matrix(0 0.8377 -2.8084 0 19.6702 -0.0002)" id="Layer_2">
<path style="stroke: none; stroke-width: 0; stroke-dasharray: none; stroke-linecap: butt; stroke-dashoffset: 0; stroke-linejoin: miter; stroke-miterlimit: 4; is-custom-font: none; font-file-url: none; fill: rgb(183,191,203); fill-rule: nonzero; opacity: 1;" transform=" translate(-16, -23)" d="M 28 24 H 4 a 1 1 0 0 1 0 -2 H 28 a 1 1 0 0 1 0 2 Z" stroke-linecap="round"/>
</g>
		<g transform="matrix(0 0.8377 -2.8084 0 0.0257 -0.0002)" id="Layer_2">
<path style="stroke: none; stroke-width: 0; stroke-dasharray: none; stroke-linecap: butt; stroke-dashoffset: 0; stroke-linejoin: miter; stroke-miterlimit: 4; is-custom-font: none; font-file-url: none; fill: rgb(183,191,203); fill-rule: nonzero; opacity: 1;" transform=" translate(-16, -9)" d="M 28 10 H 4 A 1 1 0 0 1 4 8 H 28 a 1 1 0 0 1 0 2 Z" stroke-linecap="round"/>
</g>
		<g transform="matrix(0 0.8377 -2.8084 0 -19.6331 -0.0002)" id="Layer_2">
<path style="stroke: none; stroke-width: 0; stroke-dasharray: none; stroke-linecap: butt; stroke-dashoffset: 0; stroke-linejoin: miter; stroke-miterlimit: 4; is-custom-font: none; font-file-url: none; fill: rgb(183,191,203); fill-rule: nonzero; opacity: 1;" transform=" translate(-16, -16)" d="M 28 17 H 4 a 1 1 0 0 1 0 -2 H 28 a 1 1 0 0 1 0 2 Z" stroke-linecap="round"/>
</g>
		<g transform="matrix(0 0.8377 -2.8084 0 -39.2917 -0.0002)" id="Layer_2">
<path style="stroke: none; stroke-width: 0; stroke-dasharray: none; stroke-linecap: butt; stroke-dashoffset: 0; stroke-linejoin: miter; stroke-miterlimit: 4; is-custom-font: none; font-file-url: none; fill: rgb(183,191,203); fill-rule: nonzero; opacity: 1;" transform=" translate(-16, -23)" d="M 28 24 H 4 a 1 1 0 0 1 0 -2 H 28 a 1 1 0 0 1 0 2 Z" stroke-linecap="round"/>
</g>
		<g transform="matrix(0 0.8377 -2.8084 0 -58.9877 -0.0002)" id="Layer_2">
<path style="stroke: none; stroke-width: 0; stroke-dasharray: none; stroke-linecap: butt; stroke-dashoffset: 0; stroke-linejoin: miter; stroke-miterlimit: 4; is-custom-font: none; font-file-url: none; fill: rgb(183,191,203); fill-rule: nonzero; opacity: 1;" transform=" translate(-16, -16)" d="M 28 17 H 4 a 1 1 0 0 1 0 -2 H 28 a 1 1 0 0 1 0 2 Z" stroke-linecap="round"/>
</g>
</g>
</g>
		<g transform="matrix(1 0 0 1 -95.8611 -0.0021)" id="876928">
<g style="">
		<g transform="matrix(0.1467 0 0 0.0869 -9.2218 0.0009)" id="61229">
<path style="stroke: none; stroke-width: 0; stroke-dasharray: none; stroke-linecap: butt; stroke-dashoffset: 0; stroke-linejoin: miter; stroke-miterlimit: 4; is-custom-font: none; font-file-url: none; fill: rgb(0,153,255); fill-rule: nonzero; opacity: 1;" vector-effect="non-scaling-stroke" transform=" translate(-78.4998, -78.5)" d="M 78.5 0 C 52.9419 0 32.1166 35.2271 32.1166 78.5 C 32.1166 121.773 52.9419 157 78.5 157 C 104.058 157 124.883 121.773 124.883 78.5 C 124.883 35.2271 104.058 0 78.5 0 Z" stroke-linecap="round"/>
</g>
		<g transform="matrix(0.1467 0 0 0.0869 9.2217 -0.001)" id="81755">
<path style="stroke: none; stroke-width: 0; stroke-dasharray: none; stroke-linecap: butt; stroke-dashoffset: 0; stroke-linejoin: miter; stroke-miterlimit: 4; is-custom-font: none; font-file-url: none; fill: rgb(183,191,203); fill-rule: nonzero; opacity: 1;" vector-effect="non-scaling-stroke" transform=" translate(-78.4998, -78.5)" d="M 78.5 0 C 52.9419 0 32.1166 35.2271 32.1166 78.5 C 32.1166 121.773 52.9419 157 78.5 157 C 104.058 157 124.883 121.773 124.883 78.5 C 124.883 35.2271 104.058 0 78.5 0 Z" stroke-linecap="round"/>
</g>
</g>
</g>
</g>
</g>
<g transform="matrix(1 0 0 1 668.1776 392.4421)" id="611385">
<g style="">
		<g transform="matrix(1.6953 0 0 0.3332 0.0025 -0.0013)" id="601138">
<path style="stroke: rgb(183,191,203); stroke-width: 5; stroke-dasharray: none; stroke-linecap: butt; stroke-dashoffset: 0; stroke-linejoin: miter; stroke-miterlimit: 4; is-custom-font: none; font-file-url: none; fill: rgb(255,255,255); fill-rule: nonzero; opacity: 1;" vector-effect="non-scaling-stroke" transform=" translate(-79, -78.9999)" d="M 154.685 2.50049 H 154.711 L 154.738 2.49994 C 155.15 2.49126 155.491 2.81853 155.5 3.2304 L 155.5 3.23069 C 155.5 3.24095 155.5 3.25176 155.5 3.26283 L 155.499 3.28886 V 3.3149 V 154.686 C 155.499 155.135 155.135 155.5 154.685 155.5 H 3.31409 C 2.86449 155.5 2.5 155.135 2.5 154.686 V 3.3149 C 2.5 2.86483 2.86465 2.50049 3.31409 2.50049 H 154.685 Z" stroke-linecap="round"/>
</g>
		<g transform="matrix(1.0612 0 0 1.0612 47.9987 0)" id="754232">
<g style="">
		<g transform="matrix(0 0.8377 -2.8084 0 58.9877 -0.0002)" id="Layer_2">
<path style="stroke: none; stroke-width: 0; stroke-dasharray: none; stroke-linecap: butt; stroke-dashoffset: 0; stroke-linejoin: miter; stroke-miterlimit: 4; is-custom-font: none; font-file-url: none; fill: rgb(183,191,203); fill-rule: nonzero; opacity: 1;" transform=" translate(-16, -9)" d="M 28 10 H 4 A 1 1 0 0 1 4 8 H 28 a 1 1 0 0 1 0 2 Z" stroke-linecap="round"/>
</g>
		<g transform="matrix(0 0.8377 -2.8084 0 39.3289 -0.0002)" id="Layer_2">
<path style="stroke: none; stroke-width: 0; stroke-dasharray: none; stroke-linecap: butt; stroke-dashoffset: 0; stroke-linejoin: miter; stroke-miterlimit: 4; is-custom-font: none; font-file-url: none; fill: rgb(183,191,203); fill-rule: nonzero; opacity: 1;" transform=" translate(-16, -16)" d="M 28 17 H 4 a 1 1 0 0 1 0 -2 H 28 a 1 1 0 0 1 0 2 Z" stroke-linecap="round"/>
</g>
		<g transform="matrix(0 0.8377 -2.8084 0 19.6702 -0.0002)" id="Layer_2">
<path style="stroke: none; stroke-width: 0; stroke-dasharray: none; stroke-linecap: butt; stroke-dashoffset: 0; stroke-linejoin: miter; stroke-miterlimit: 4; is-custom-font: none; font-file-url: none; fill: rgb(183,191,203); fill-rule: nonzero; opacity: 1;" transform=" translate(-16, -23)" d="M 28 24 H 4 a 1 1 0 0 1 0 -2 H 28 a 1 1 0 0 1 0 2 Z" stroke-linecap="round"/>
</g>
		<g transform="matrix(0 0.8377 -2.8084 0 0.0257 -0.0002)" id="Layer_2">
<path style="stroke: none; stroke-width: 0; stroke-dasharray: none; stroke-linecap: butt; stroke-dashoffset: 0; stroke-linejoin: miter; stroke-miterlimit: 4; is-custom-font: none; font-file-url: none; fill: rgb(183,191,203); fill-rule: nonzero; opacity: 1;" transform=" translate(-16, -9)" d="M 28 10 H 4 A 1 1 0 0 1 4 8 H 28 a 1 1 0 0 1 0 2 Z" stroke-linecap="round"/>
</g>
		<g transform="matrix(0 0.8377 -2.8084 0 -19.6331 -0.0002)" id="Layer_2">
<path style="stroke: none; stroke-width: 0; stroke-dasharray: none; stroke-linecap: butt; stroke-dashoffset: 0; stroke-linejoin: miter; stroke-miterlimit: 4; is-custom-font: none; font-file-url: none; fill: rgb(183,191,203); fill-rule: nonzero; opacity: 1;" transform=" translate(-16, -16)" d="M 28 17 H 4 a 1 1 0 0 1 0 -2 H 28 a 1 1 0 0 1 0 2 Z" stroke-linecap="round"/>
</g>
		<g transform="matrix(0 0.8377 -2.8084 0 -39.2917 -0.0002)" id="Layer_2">
<path style="stroke: none; stroke-width: 0; stroke-dasharray: none; stroke-linecap: butt; stroke-dashoffset: 0; stroke-linejoin: miter; stroke-miterlimit: 4; is-custom-font: none; font-file-url: none; fill: rgb(183,191,203); fill-rule: nonzero; opacity: 1;" transform=" translate(-16, -23)" d="M 28 24 H 4 a 1 1 0 0 1 0 -2 H 28 a 1 1 0 0 1 0 2 Z" stroke-linecap="round"/>
</g>
		<g transform="matrix(0 0.8377 -2.8084 0 -58.9877 -0.0002)" id="Layer_2">
<path style="stroke: none; stroke-width: 0; stroke-dasharray: none; stroke-linecap: butt; stroke-dashoffset: 0; stroke-linejoin: miter; stroke-miterlimit: 4; is-custom-font: none; font-file-url: none; fill: rgb(183,191,203); fill-rule: nonzero; opacity: 1;" transform=" translate(-16, -16)" d="M 28 17 H 4 a 1 1 0 0 1 0 -2 H 28 a 1 1 0 0 1 0 2 Z" stroke-linecap="round"/>
</g>
</g>
</g>
		<g transform="matrix(1 0 0 1 -101.7278 -0.0023)" id="308493">
<g style="">
		<g transform="matrix(0.1557 0 0 0.0922 -9.7851 -0.0004)" id="61229">
<path style="stroke: none; stroke-width: 0; stroke-dasharray: none; stroke-linecap: butt; stroke-dashoffset: 0; stroke-linejoin: miter; stroke-miterlimit: 4; is-custom-font: none; font-file-url: none; fill: rgb(0,153,255); fill-rule: nonzero; opacity: 1;" vector-effect="non-scaling-stroke" transform=" translate(-78.4998, -78.5)" d="M 78.5 0 C 52.9419 0 32.1166 35.2271 32.1166 78.5 C 32.1166 121.773 52.9419 157 78.5 157 C 104.058 157 124.883 121.773 124.883 78.5 C 124.883 35.2271 104.058 0 78.5 0 Z" stroke-linecap="round"/>
</g>
		<g transform="matrix(0.1557 0 0 0.0922 9.7872 -0.0024)" id="81755">
<path style="stroke: none; stroke-width: 0; stroke-dasharray: none; stroke-linecap: butt; stroke-dashoffset: 0; stroke-linejoin: miter; stroke-miterlimit: 4; is-custom-font: none; font-file-url: none; fill: rgb(247,147,30); fill-rule: nonzero; opacity: 1;" vector-effect="non-scaling-stroke" transform=" translate(-78.4998, -78.5)" d="M 78.5 0 C 52.9419 0 32.1166 35.2271 32.1166 78.5 C 32.1166 121.773 52.9419 157 78.5 157 C 104.058 157 124.883 121.773 124.883 78.5 C 124.883 35.2271 104.058 0 78.5 0 Z" stroke-linecap="round"/>
</g>
</g>
</g>
</g>
</g>
<g transform="matrix(1 0 0 1 668.1801 545.708)" id="432857">
<g style="">
		<g transform="matrix(1.6953 0 0 0.3332 0 0)" id="537600">
<path style="stroke: rgb(183,191,203); stroke-width: 5; stroke-dasharray: none; stroke-linecap: butt; stroke-dashoffset: 0; stroke-linejoin: miter; stroke-miterlimit: 4; is-custom-font: none; font-file-url: none; fill: rgb(255,255,255); fill-rule: nonzero; opacity: 1;" vector-effect="non-scaling-stroke" transform=" translate(-79, -78.9999)" d="M 154.685 2.50049 H 154.711 L 154.738 2.49994 C 155.15 2.49126 155.491 2.81853 155.5 3.2304 L 155.5 3.23069 C 155.5 3.24095 155.5 3.25176 155.5 3.26283 L 155.499 3.28886 V 3.3149 V 154.686 C 155.499 155.135 155.135 155.5 154.685 155.5 H 3.31409 C 2.86449 155.5 2.5 155.135 2.5 154.686 V 3.3149 C 2.5 2.86483 2.86465 2.50049 3.31409 2.50049 H 154.685 Z" stroke-linecap="round"/>
</g>
		<g transform="matrix(1 0 0 1 -101.7301 -0.001)" id="944632">
<g style="">
		<g transform="matrix(0.1557 0 0 0.0922 -9.7851 -0.0004)" id="61229">
<path style="stroke: none; stroke-width: 0; stroke-dasharray: none; stroke-linecap: butt; stroke-dashoffset: 0; stroke-linejoin: miter; stroke-miterlimit: 4; is-custom-font: none; font-file-url: none; fill: rgb(0,153,255); fill-rule: nonzero; opacity: 1;" vector-effect="non-scaling-stroke" transform=" translate(-78.4998, -78.5)" d="M 78.5 0 C 52.9419 0 32.1166 35.2271 32.1166 78.5 C 32.1166 121.773 52.9419 157 78.5 157 C 104.058 157 124.883 121.773 124.883 78.5 C 124.883 35.2271 104.058 0 78.5 0 Z" stroke-linecap="round"/>
</g>
		<g transform="matrix(0.1557 0 0 0.0922 9.7872 -0.0024)" id="81755">
<path style="stroke: none; stroke-width: 0; stroke-dasharray: none; stroke-linecap: butt; stroke-dashoffset: 0; stroke-linejoin: miter; stroke-miterlimit: 4; is-custom-font: none; font-file-url: none; fill: rgb(255,51,51); fill-rule: nonzero; opacity: 1;" vector-effect="non-scaling-stroke" transform=" translate(-78.4998, -78.5)" d="M 78.5 0 C 52.9419 0 32.1166 35.2271 32.1166 78.5 C 32.1166 121.773 52.9419 157 78.5 157 C 104.058 157 124.883 121.773 124.883 78.5 C 124.883 35.2271 104.058 0 78.5 0 Z" stroke-linecap="round"/>
</g>
</g>
</g>
		<g transform="matrix(1.0612 0 0 1.0612 47.9963 0.0013)" id="496806">
<g style="">
		<g transform="matrix(0 0.8377 -2.8084 0 58.9877 -0.0002)" id="Layer_2">
<path style="stroke: none; stroke-width: 0; stroke-dasharray: none; stroke-linecap: butt; stroke-dashoffset: 0; stroke-linejoin: miter; stroke-miterlimit: 4; is-custom-font: none; font-file-url: none; fill: rgb(183,191,203); fill-rule: nonzero; opacity: 1;" transform=" translate(-16, -9)" d="M 28 10 H 4 A 1 1 0 0 1 4 8 H 28 a 1 1 0 0 1 0 2 Z" stroke-linecap="round"/>
</g>
		<g transform="matrix(0 0.8377 -2.8084 0 39.3289 -0.0002)" id="Layer_2">
<path style="stroke: none; stroke-width: 0; stroke-dasharray: none; stroke-linecap: butt; stroke-dashoffset: 0; stroke-linejoin: miter; stroke-miterlimit: 4; is-custom-font: none; font-file-url: none; fill: rgb(183,191,203); fill-rule: nonzero; opacity: 1;" transform=" translate(-16, -16)" d="M 28 17 H 4 a 1 1 0 0 1 0 -2 H 28 a 1 1 0 0 1 0 2 Z" stroke-linecap="round"/>
</g>
		<g transform="matrix(0 0.8377 -2.8084 0 19.6702 -0.0002)" id="Layer_2">
<path style="stroke: none; stroke-width: 0; stroke-dasharray: none; stroke-linecap: butt; stroke-dashoffset: 0; stroke-linejoin: miter; stroke-miterlimit: 4; is-custom-font: none; font-file-url: none; fill: rgb(183,191,203); fill-rule: nonzero; opacity: 1;" transform=" translate(-16, -23)" d="M 28 24 H 4 a 1 1 0 0 1 0 -2 H 28 a 1 1 0 0 1 0 2 Z" stroke-linecap="round"/>
</g>
		<g transform="matrix(0 0.8377 -2.8084 0 0.0257 -0.0002)" id="Layer_2">
<path style="stroke: none; stroke-width: 0; stroke-dasharray: none; stroke-linecap: butt; stroke-dashoffset: 0; stroke-linejoin: miter; stroke-miterlimit: 4; is-custom-font: none; font-file-url: none; fill: rgb(183,191,203); fill-rule: nonzero; opacity: 1;" transform=" translate(-16, -9)" d="M 28 10 H 4 A 1 1 0 0 1 4 8 H 28 a 1 1 0 0 1 0 2 Z" stroke-linecap="round"/>
</g>
		<g transform="matrix(0 0.8377 -2.8084 0 -19.6331 -0.0002)" id="Layer_2">
<path style="stroke: none; stroke-width: 0; stroke-dasharray: none; stroke-linecap: butt; stroke-dashoffset: 0; stroke-linejoin: miter; stroke-miterlimit: 4; is-custom-font: none; font-file-url: none; fill: rgb(183,191,203); fill-rule: nonzero; opacity: 1;" transform=" translate(-16, -16)" d="M 28 17 H 4 a 1 1 0 0 1 0 -2 H 28 a 1 1 0 0 1 0 2 Z" stroke-linecap="round"/>
</g>
		<g transform="matrix(0 0.8377 -2.8084 0 -39.2917 -0.0002)" id="Layer_2">
<path style="stroke: none; stroke-width: 0; stroke-dasharray: none; stroke-linecap: butt; stroke-dashoffset: 0; stroke-linejoin: miter; stroke-miterlimit: 4; is-custom-font: none; font-file-url: none; fill: rgb(183,191,203); fill-rule: nonzero; opacity: 1;" transform=" translate(-16, -23)" d="M 28 24 H 4 a 1 1 0 0 1 0 -2 H 28 a 1 1 0 0 1 0 2 Z" stroke-linecap="round"/>
</g>
		<g transform="matrix(0 0.8377 -2.8084 0 -58.9877 -0.0002)" id="Layer_2">
<path style="stroke: none; stroke-width: 0; stroke-dasharray: none; stroke-linecap: butt; stroke-dashoffset: 0; stroke-linejoin: miter; stroke-miterlimit: 4; is-custom-font: none; font-file-url: none; fill: rgb(183,191,203); fill-rule: nonzero; opacity: 1;" transform=" translate(-16, -16)" d="M 28 17 H 4 a 1 1 0 0 1 0 -2 H 28 a 1 1 0 0 1 0 2 Z" stroke-linecap="round"/>
</g>
</g>
</g>
</g>
</g>
<g transform="matrix(2.9625 0 0 2.9625 744.4892 247.0707)" id="600377">
<g style="" vector-effect="non-scaling-stroke">
		<g transform="matrix(1 0 0 1 0.0005 0.0017)" id="799523">
<path style="stroke: rgb(255,255,255); stroke-width: 0; stroke-dasharray: none; stroke-linecap: round; stroke-dashoffset: 0; stroke-linejoin: miter; stroke-miterlimit: 4; is-custom-font: none; font-file-url: none; fill: rgb(255,110,110); fill-rule: evenodd; opacity: 1;" transform=" translate(-24.0005, -24.0017)" d="M 35.555 32.1 A 11.979 11.979 0 0 1 12 28.857 a 7.933 7.933 0 0 1 0.485 -2.924 c 1.158 -7.338 8.3 -7.87 4.315 -18.933 c 0 0 6.65 1.727 8 12.143 c 0 0 4.919 -0.163 1.6 -7.286 A 21.311 21.311 0 0 1 36 27 A 24.911 24.911 0 0 1 35.555 32.1 Z" stroke-linecap="round"/>
</g>
		<g transform="matrix(1 0 0 1 -0.5166 4.2205)" id="682722">
<path style="stroke: rgb(255,255,255); stroke-width: 0; stroke-dasharray: none; stroke-linecap: round; stroke-dashoffset: 0; stroke-linejoin: miter; stroke-miterlimit: 4; is-custom-font: none; font-file-url: none; fill: rgb(12,0,88); fill-rule: evenodd; opacity: 1;" transform=" translate(-23.4833, -28.2204)" d="M 31 33.5 a 7.5 7.5 0 0 1 -14.975 0.484 L 16 34 s -0.075 -3.272 0 -4 c 0.684 -6.611 2.6 -9.563 5 -14 c 0.067 -2.639 -1.115 7.273 5 10 A 8.188 8.188 0 0 1 31 33.5 Z" stroke-linecap="round"/>
</g>
</g>
</g>
<g transform="matrix(1 0 0 1 668.1776 290.1796)" id="801134">
<g style="">
		<g transform="matrix(1.6953 0 0 0.3332 0.0025 -0.0013)" id="971275">
<path style="stroke: rgb(183,191,203); stroke-width: 5; stroke-dasharray: none; stroke-linecap: butt; stroke-dashoffset: 0; stroke-linejoin: miter; stroke-miterlimit: 4; is-custom-font: none; font-file-url: none; fill: rgb(255,255,255); fill-rule: nonzero; opacity: 1;" vector-effect="non-scaling-stroke" transform=" translate(-79, -78.9999)" d="M 154.685 2.50049 H 154.711 L 154.738 2.49994 C 155.15 2.49126 155.491 2.81853 155.5 3.2304 L 155.5 3.23069 C 155.5 3.24095 155.5 3.25176 155.5 3.26283 L 155.499 3.28886 V 3.3149 V 154.686 C 155.499 155.135 155.135 155.5 154.685 155.5 H 3.31409 C 2.86449 155.5 2.5 155.135 2.5 154.686 V 3.3149 C 2.5 2.86483 2.86465 2.50049 3.31409 2.50049 H 154.685 Z" stroke-linecap="round"/>
</g>
		<g transform="matrix(1 0 0 1 -101.7278 -0.0023)" id="693766">
<g style="">
		<g transform="matrix(0.1557 0 0 0.0922 -9.7851 -0.0004)" id="61229">
<path style="stroke: none; stroke-width: 0; stroke-dasharray: none; stroke-linecap: butt; stroke-dashoffset: 0; stroke-linejoin: miter; stroke-miterlimit: 4; is-custom-font: none; font-file-url: none; fill: rgb(183,191,203); fill-rule: nonzero; opacity: 1;" vector-effect="non-scaling-stroke" transform=" translate(-78.4998, -78.5)" d="M 78.5 0 C 52.9419 0 32.1166 35.2271 32.1166 78.5 C 32.1166 121.773 52.9419 157 78.5 157 C 104.058 157 124.883 121.773 124.883 78.5 C 124.883 35.2271 104.058 0 78.5 0 Z" stroke-linecap="round"/>
</g>
		<g transform="matrix(0.1557 0 0 0.0922 9.7872 -0.0024)" id="81755">
<path style="stroke: none; stroke-width: 0; stroke-dasharray: none; stroke-linecap: butt; stroke-dashoffset: 0; stroke-linejoin: miter; stroke-miterlimit: 4; is-custom-font: none; font-file-url: none; fill: rgb(183,191,203); fill-rule: nonzero; opacity: 1;" vector-effect="non-scaling-stroke" transform=" translate(-78.4998, -78.5)" d="M 78.5 0 C 52.9419 0 32.1166 35.2271 32.1166 78.5 C 32.1166 121.773 52.9419 157 78.5 157 C 104.058 157 124.883 121.773 124.883 78.5 C 124.883 35.2271 104.058 0 78.5 0 Z" stroke-linecap="round"/>
</g>
</g>
</g>
		<g transform="matrix(1.0612 0 0 1.0612 47.9987 0)" id="355082">
<g style="">
		<g transform="matrix(0 0.8377 -2.8084 0 58.9877 -0.0002)" id="Layer_2">
<path style="stroke: none; stroke-width: 0; stroke-dasharray: none; stroke-linecap: butt; stroke-dashoffset: 0; stroke-linejoin: miter; stroke-miterlimit: 4; is-custom-font: none; font-file-url: none; fill: rgb(183,191,203); fill-rule: nonzero; opacity: 1;" transform=" translate(-16, -9)" d="M 28 10 H 4 A 1 1 0 0 1 4 8 H 28 a 1 1 0 0 1 0 2 Z" stroke-linecap="round"/>
</g>
		<g transform="matrix(0 0.8377 -2.8084 0 39.3289 -0.0002)" id="Layer_2">
<path style="stroke: none; stroke-width: 0; stroke-dasharray: none; stroke-linecap: butt; stroke-dashoffset: 0; stroke-linejoin: miter; stroke-miterlimit: 4; is-custom-font: none; font-file-url: none; fill: rgb(183,191,203); fill-rule: nonzero; opacity: 1;" transform=" translate(-16, -16)" d="M 28 17 H 4 a 1 1 0 0 1 0 -2 H 28 a 1 1 0 0 1 0 2 Z" stroke-linecap="round"/>
</g>
		<g transform="matrix(0 0.8377 -2.8084 0 19.6702 -0.0002)" id="Layer_2">
<path style="stroke: none; stroke-width: 0; stroke-dasharray: none; stroke-linecap: butt; stroke-dashoffset: 0; stroke-linejoin: miter; stroke-miterlimit: 4; is-custom-font: none; font-file-url: none; fill: rgb(183,191,203); fill-rule: nonzero; opacity: 1;" transform=" translate(-16, -23)" d="M 28 24 H 4 a 1 1 0 0 1 0 -2 H 28 a 1 1 0 0 1 0 2 Z" stroke-linecap="round"/>
</g>
		<g transform="matrix(0 0.8377 -2.8084 0 0.0257 -0.0002)" id="Layer_2">
<path style="stroke: none; stroke-width: 0; stroke-dasharray: none; stroke-linecap: butt; stroke-dashoffset: 0; stroke-linejoin: miter; stroke-miterlimit: 4; is-custom-font: none; font-file-url: none; fill: rgb(183,191,203); fill-rule: nonzero; opacity: 1;" transform=" translate(-16, -9)" d="M 28 10 H 4 A 1 1 0 0 1 4 8 H 28 a 1 1 0 0 1 0 2 Z" stroke-linecap="round"/>
</g>
		<g transform="matrix(0 0.8377 -2.8084 0 -19.6331 -0.0002)" id="Layer_2">
<path style="stroke: none; stroke-width: 0; stroke-dasharray: none; stroke-linecap: butt; stroke-dashoffset: 0; stroke-linejoin: miter; stroke-miterlimit: 4; is-custom-font: none; font-file-url: none; fill: rgb(183,191,203); fill-rule: nonzero; opacity: 1;" transform=" translate(-16, -16)" d="M 28 17 H 4 a 1 1 0 0 1 0 -2 H 28 a 1 1 0 0 1 0 2 Z" stroke-linecap="round"/>
</g>
		<g transform="matrix(0 0.8377 -2.8084 0 -39.2917 -0.0002)" id="Layer_2">
<path style="stroke: none; stroke-width: 0; stroke-dasharray: none; stroke-linecap: butt; stroke-dashoffset: 0; stroke-linejoin: miter; stroke-miterlimit: 4; is-custom-font: none; font-file-url: none; fill: rgb(183,191,203); fill-rule: nonzero; opacity: 1;" transform=" translate(-16, -23)" d="M 28 24 H 4 a 1 1 0 0 1 0 -2 H 28 a 1 1 0 0 1 0 2 Z" stroke-linecap="round"/>
</g>
		<g transform="matrix(0 0.8377 -2.8084 0 -58.9877 -0.0002)" id="Layer_2">
<path style="stroke: none; stroke-width: 0; stroke-dasharray: none; stroke-linecap: butt; stroke-dashoffset: 0; stroke-linejoin: miter; stroke-miterlimit: 4; is-custom-font: none; font-file-url: none; fill: rgb(183,191,203); fill-rule: nonzero; opacity: 1;" transform=" translate(-16, -16)" d="M 28 17 H 4 a 1 1 0 0 1 0 -2 H 28 a 1 1 0 0 1 0 2 Z" stroke-linecap="round"/>
</g>
</g>
</g>
</g>
</g>
</svg>