<?xml version="1.0" encoding="UTF-8" standalone="no"?>
<!-- Created with Inkscape (http://www.inkscape.org/) -->

<svg
   width="600mm"
   height="250mm"
   version="1.1"
   viewBox="0 0 600 250"
   xml:space="preserve"
   id="svg326"
   sodipodi:docname="img.svg"
   inkscape:version="1.2.2 (732a01da63, 2022-12-09)"
   xmlns:inkscape="http://www.inkscape.org/namespaces/inkscape"
   xmlns:sodipodi="http://sodipodi.sourceforge.net/DTD/sodipodi-0.dtd"
   xmlns="http://www.w3.org/2000/svg"
   xmlns:svg="http://www.w3.org/2000/svg"><defs
     id="defs330" /><sodipodi:namedview
     id="namedview328"
     pagecolor="#505050"
     bordercolor="#eeeeee"
     borderopacity="1"
     inkscape:showpageshadow="0"
     inkscape:pageopacity="0"
     inkscape:pagecheckerboard="0"
     inkscape:deskcolor="#505050"
     inkscape:document-units="mm"
     showgrid="false"
     inkscape:zoom="0.53137153"
     inkscape:cx="1134.7992"
     inkscape:cy="472.36253"
     inkscape:window-width="1366"
     inkscape:window-height="715"
     inkscape:window-x="1358"
     inkscape:window-y="-8"
     inkscape:window-maximized="1"
     inkscape:current-layer="g324" /><g
     transform="matrix(.63812 0 0 .63812 .65823 -125.01)"
     id="g324"><g
       transform="translate(806.21 369.18)"
       id="g14">

		<g
   transform="translate(0 -76.819)"
   id="g4">
<path
   transform="translate(-12.092 -12.002)"
   d="m16.86 8a4 4 0 0 0-3.86-3h-7v3h-4v2h4v3h7a4 4 0 0 0 3.85-3 3.5044 3.5044 0 0 1-0.35 7h-14.5v2h14.5a5.5029 5.5029 0 0 0 0.36-11z"
   stroke-linecap="round"
   vector-effect="non-scaling-stroke"
   id="path2" />
</g>
		<g
   transform="translate(0 -26.449)"
   id="g8">
<path
   transform="translate(-12.092 -12.002)"
   d="m16.86 8a4 4 0 0 0-3.86-3h-7v3h-4v2h4v3h7a4 4 0 0 0 3.85-3 3.5044 3.5044 0 0 1-0.35 7h-14.5v2h14.5a5.5029 5.5029 0 0 0 0.36-11z"
   stroke-linecap="round"
   vector-effect="non-scaling-stroke"
   id="path6" />
</g>
		<g
   transform="translate(0 76.819)"
   id="g12">
<path
   transform="translate(-12.092 -12.002)"
   d="m16.86 8a4 4 0 0 0-3.86-3h-7v3h-4v2h4v3h7a4 4 0 0 0 3.85-3 3.5044 3.5044 0 0 1-0.35 7h-14.5v2h14.5a5.5029 5.5029 0 0 0 0.36-11z"
   stroke-linecap="round"
   vector-effect="non-scaling-stroke"
   id="path10" />
</g>

</g><g
       transform="matrix(2.9789 0 0 2.9789 256.75 448.77)"
       id="g18">
<path
   transform="translate(-14.997 -15.023)"
   d="m6 9.3-2.1-3.5 1.4-1.4 3.5 2.1v1.4l3.6 3.6v0.3l-1.3 1.2-3.7-3.7zm15 8.5h-0.8v0c-0.7 0-1.3-0.1-1.9-0.2l-2.1 2.4 4.7 5.3c1.1 1.2 3 1.3 4.1 0.1 1.2-1.2 1.1-3-0.1-4.1zm3.4-3.8c1.6-1.6 2.1-4 1.5-6.1-0.1-0.4-0.6-0.5-0.8-0.2l-3.5 3.5-2.8-2.8 3.5-3.5c0.3-0.3 0.2-0.7-0.2-0.8-2.1-0.7-4.5-0.2-6.1 1.5-1.8 1.8-2.2 4.6-1.2 6.8l-10 8.9c-1.2 1.1-1.3 3-0.1 4.1v0c1.2 1.2 3 1.1 4.1-0.1l8.9-10c2.2 1 4.9 0.6 6.7-1.3z"
   fill="#5c83be"
   stroke-linecap="round"
   vector-effect="non-scaling-stroke"
   id="path16" />
</g><g
       transform="matrix(.7703 0 0 .7703 303.43 478.35)"
       id="g22">
<path
   transform="translate(-147.05 -147.05)"
   d="m294.09 25.772c-0.766-7.566-6.988-13.222-14.756-13.222h-264c-8.284 0-15.333 6.216-15.333 14.5v158.33 6e-3 29.161c0 8.284 7.049 15 15.333 15h74.618l-4.416 22h-21.202c-8.284 0-15 6.716-15 15s6.716 15 15 15h132.5c5e-3 -1e-3 0.013-1e-3 0.02 0h32.48c8.284 0 15-6.716 15-15s-6.716-15-15-15h-20.203l-4.416-22h74.618c8.284 0 14.667-6.716 14.667-15v-187.5c1e-3 -0.518 0.141-0.777 0.09-1.278zm-30.089 16.778v128h-234v-128z"
   fill="#b7bfcb"
   stroke-linecap="round"
   vector-effect="non-scaling-stroke"
   id="path20" />
</g><g
       transform="matrix(1.0612 0 0 1.0612 668.18 443.47)"
       id="g68">

		<g
   transform="matrix(1.5975 0 0 .314 -1e-4 0)"
   id="g26">
<path
   transform="translate(-79 -79)"
   d="m154.68 2.5005h0.026l0.027-5.5e-4c0.412-0.00868 0.753 0.31859 0.762 0.73046v2.9e-4 0.03214l-1e-3 0.02603v151.4c0 0.449-0.364 0.814-0.814 0.814h-151.37c-0.4496 0-0.81409-0.365-0.81409-0.814v-151.37c0-0.45007 0.36465-0.81441 0.81409-0.81441z"
   fill="#fff"
   stroke="#b7bfcb"
   stroke-width="5"
   vector-effect="non-scaling-stroke"
   id="path24" />
</g>
		<g
   transform="translate(45.231)"
   id="g56">

		<g
   transform="matrix(0 .8377 -2.8084 0 58.988 -2e-4)"
   id="g30">
<path
   transform="translate(-16,-9)"
   d="m28 10h-24a1 1 0 0 1 0-2h24a1 1 0 0 1 0 2z"
   fill="#b7bfcb"
   stroke-linecap="round"
   id="path28" />
</g>
		<g
   transform="matrix(0 .8377 -2.8084 0 39.329 -2e-4)"
   id="g34">
<path
   transform="translate(-16,-16)"
   d="m28 17h-24a1 1 0 0 1 0-2h24a1 1 0 0 1 0 2z"
   fill="#b7bfcb"
   stroke-linecap="round"
   id="path32" />
</g>
		<g
   transform="matrix(0 .8377 -2.8084 0 19.67 -2e-4)"
   id="g38">
<path
   transform="translate(-16,-23)"
   d="m28 24h-24a1 1 0 0 1 0-2h24a1 1 0 0 1 0 2z"
   fill="#b7bfcb"
   stroke-linecap="round"
   id="path36" />
</g>
		<g
   transform="matrix(0 .8377 -2.8084 0 .0257 -2e-4)"
   id="g42">
<path
   transform="translate(-16,-9)"
   d="m28 10h-24a1 1 0 0 1 0-2h24a1 1 0 0 1 0 2z"
   fill="#b7bfcb"
   stroke-linecap="round"
   id="path40" />
</g>
		<g
   transform="matrix(0 .8377 -2.8084 0 -19.633 -2e-4)"
   id="g46">
<path
   transform="translate(-16,-16)"
   d="m28 17h-24a1 1 0 0 1 0-2h24a1 1 0 0 1 0 2z"
   fill="#b7bfcb"
   stroke-linecap="round"
   id="path44" />
</g>
		<g
   transform="matrix(0 .8377 -2.8084 0 -39.292 -2e-4)"
   id="g50">
<path
   transform="translate(-16,-23)"
   d="m28 24h-24a1 1 0 0 1 0-2h24a1 1 0 0 1 0 2z"
   fill="#b7bfcb"
   stroke-linecap="round"
   id="path48" />
</g>
		<g
   transform="matrix(0 .8377 -2.8084 0 -58.988 -2e-4)"
   id="g54">
<path
   transform="translate(-16,-16)"
   d="m28 17h-24a1 1 0 0 1 0-2h24a1 1 0 0 1 0 2z"
   fill="#b7bfcb"
   stroke-linecap="round"
   id="path52" />
</g>

</g>
		<g
   transform="translate(-95.861 -.0021)"
   id="g66">

		<g
   transform="matrix(.1467 0 0 .0869 -9.2218 9e-4)"
   id="g60">
<path
   transform="translate(-78.5 -78.5)"
   d="m78.5 0c-25.558 0-46.383 35.227-46.383 78.5 0 43.273 20.825 78.5 46.383 78.5 25.558 0 46.383-35.227 46.383-78.5 0-43.273-20.825-78.5-46.383-78.5z"
   fill="#09f"
   stroke-linecap="round"
   vector-effect="non-scaling-stroke"
   id="path58" />
</g>
		<g
   transform="matrix(.1467 0 0 .0869 9.2217 -.001)"
   id="g64">
<path
   transform="translate(-78.5 -78.5)"
   d="m78.5 0c-25.558 0-46.383 35.227-46.383 78.5 0 43.273 20.825 78.5 46.383 78.5 25.558 0 46.383-35.227 46.383-78.5 0-43.273-20.825-78.5-46.383-78.5z"
   fill="#b7bfcb"
   stroke-linecap="round"
   vector-effect="non-scaling-stroke"
   id="path62" />
</g>

</g>

</g><g
       transform="matrix(1.0612 0 0 1.0612 668.18 494.59)"
       id="g114">

		<g
   transform="matrix(1.5975 0 0 .314 -1e-4 0)"
   id="g72">
<path
   transform="translate(-79 -79)"
   d="m154.68 2.5005h0.026l0.027-5.5e-4c0.412-0.00868 0.753 0.31859 0.762 0.73046v2.9e-4 0.03214l-1e-3 0.02603v151.4c0 0.449-0.364 0.814-0.814 0.814h-151.37c-0.4496 0-0.81409-0.365-0.81409-0.814v-151.37c0-0.45007 0.36465-0.81441 0.81409-0.81441z"
   fill="#fff"
   stroke="#b7bfcb"
   stroke-width="5"
   vector-effect="non-scaling-stroke"
   id="path70" />
</g>
		<g
   transform="translate(45.231)"
   id="g102">

		<g
   transform="matrix(0 .8377 -2.8084 0 58.988 -2e-4)"
   id="g76">
<path
   transform="translate(-16,-9)"
   d="m28 10h-24a1 1 0 0 1 0-2h24a1 1 0 0 1 0 2z"
   fill="#b7bfcb"
   stroke-linecap="round"
   id="path74" />
</g>
		<g
   transform="matrix(0 .8377 -2.8084 0 39.329 -2e-4)"
   id="g80">
<path
   transform="translate(-16,-16)"
   d="m28 17h-24a1 1 0 0 1 0-2h24a1 1 0 0 1 0 2z"
   fill="#b7bfcb"
   stroke-linecap="round"
   id="path78" />
</g>
		<g
   transform="matrix(0 .8377 -2.8084 0 19.67 -2e-4)"
   id="g84">
<path
   transform="translate(-16,-23)"
   d="m28 24h-24a1 1 0 0 1 0-2h24a1 1 0 0 1 0 2z"
   fill="#b7bfcb"
   stroke-linecap="round"
   id="path82" />
</g>
		<g
   transform="matrix(0 .8377 -2.8084 0 .0257 -2e-4)"
   id="g88">
<path
   transform="translate(-16,-9)"
   d="m28 10h-24a1 1 0 0 1 0-2h24a1 1 0 0 1 0 2z"
   fill="#b7bfcb"
   stroke-linecap="round"
   id="path86" />
</g>
		<g
   transform="matrix(0 .8377 -2.8084 0 -19.633 -2e-4)"
   id="g92">
<path
   transform="translate(-16,-16)"
   d="m28 17h-24a1 1 0 0 1 0-2h24a1 1 0 0 1 0 2z"
   fill="#b7bfcb"
   stroke-linecap="round"
   id="path90" />
</g>
		<g
   transform="matrix(0 .8377 -2.8084 0 -39.292 -2e-4)"
   id="g96">
<path
   transform="translate(-16,-23)"
   d="m28 24h-24a1 1 0 0 1 0-2h24a1 1 0 0 1 0 2z"
   fill="#b7bfcb"
   stroke-linecap="round"
   id="path94" />
</g>
		<g
   transform="matrix(0 .8377 -2.8084 0 -58.988 -2e-4)"
   id="g100">
<path
   transform="translate(-16,-16)"
   d="m28 17h-24a1 1 0 0 1 0-2h24a1 1 0 0 1 0 2z"
   fill="#b7bfcb"
   stroke-linecap="round"
   id="path98" />
</g>

</g>
		<g
   transform="translate(-95.861 -.0021)"
   id="g112">

		<g
   transform="matrix(.1467 0 0 .0869 -9.2218 9e-4)"
   id="g106">
<path
   transform="translate(-78.5 -78.5)"
   d="m78.5 0c-25.558 0-46.383 35.227-46.383 78.5 0 43.273 20.825 78.5 46.383 78.5 25.558 0 46.383-35.227 46.383-78.5 0-43.273-20.825-78.5-46.383-78.5z"
   fill="#09f"
   stroke-linecap="round"
   vector-effect="non-scaling-stroke"
   id="path104" />
</g>
		<g
   transform="matrix(.1467 0 0 .0869 9.2217 -.001)"
   id="g110">
<path
   transform="translate(-78.5 -78.5)"
   d="m78.5 0c-25.558 0-46.383 35.227-46.383 78.5 0 43.273 20.825 78.5 46.383 78.5 25.558 0 46.383-35.227 46.383-78.5 0-43.273-20.825-78.5-46.383-78.5z"
   fill="#b7bfcb"
   stroke-linecap="round"
   vector-effect="non-scaling-stroke"
   id="path108" />
</g>

</g>

</g><g
       transform="matrix(.1567 0 0 .0353 461.01 274.95)"
       id="g118"
       style="fill:#5c83be;fill-opacity:1">
<path
   transform="translate(-512,-512)"
   d="m904 476h-784c-4.4 0-8 3.6-8 8v56c0 4.4 3.6 8 8 8h784c4.4 0 8-3.6 8-8v-56c0-4.4-3.6-8-8-8z"
   stroke-linecap="round"
   vector-effect="non-scaling-stroke"
   id="path116"
   style="fill:#5c83be;fill-opacity:1" />
</g><g
       transform="matrix(2.9722 0 0 2.9722 357.72 268.86)"
       id="g122">
<path
   transform="translate(-12 -12.256)"
   d="m21.171 15.398-5.912-9.854c-0.776-1.293-1.963-2.033-3.259-2.033s-2.483 0.74-3.259 2.031l-5.912 9.856c-0.786 1.309-0.872 2.705-0.235 3.83 0.636 1.126 1.878 1.772 3.406 1.772h12c1.528 0 2.77-0.646 3.406-1.771 0.637-1.125 0.551-2.521-0.235-3.831zm-9.171 2.151c-0.854 0-1.55-0.695-1.55-1.549 0-0.855 0.695-1.551 1.55-1.551s1.55 0.696 1.55 1.551c0 0.854-0.696 1.549-1.55 1.549zm1.633-7.424c-0.011 0.031-1.401 3.468-1.401 3.468-0.038 0.094-0.13 0.156-0.231 0.156s-0.193-0.062-0.231-0.156l-1.391-3.438c-0.09-0.233-0.129-0.443-0.129-0.655 0-0.965 0.785-1.75 1.75-1.75s1.75 0.785 1.75 1.75c0 0.212-0.039 0.422-0.117 0.625z"
   fill="#5c83be"
   stroke-linecap="round"
   vector-effect="non-scaling-stroke"
   id="path120" />
</g><g
       transform="matrix(4.9564 0 0 4.7241 342.32 443.47)"
       id="g126">
<path
   transform="translate(-12,-12)"
   d="m5 8h14m-14 4h14m-14 4h6"
   fill="none"
   stroke="#5c83be"
   stroke-linecap="round"
   stroke-linejoin="round"
   stroke-width="5"
   vector-effect="non-scaling-stroke"
   id="path124" />
</g><g
       transform="matrix(0 .0782 -.0417 0 357.95 337.19)"
       id="g130"
       style="fill:#5c83be;fill-opacity:1">
<path
   transform="translate(-512,-512)"
   d="m904 476h-784c-4.4 0-8 3.6-8 8v56c0 4.4 3.6 8 8 8h784c4.4 0 8-3.6 8-8v-56c0-4.4-3.6-8-8-8z"
   stroke-linecap="round"
   vector-effect="non-scaling-stroke"
   id="path128"
   style="fill:#5c83be;fill-opacity:1" />
</g><g
       transform="matrix(1.0201 0 0 .1794 469.51 578.67)"
       id="g134">
<path
   transform="translate(-512,-512)"
   d="m904 476h-784c-4.4 0-8 3.6-8 8v56c0 4.4 3.6 8 8 8h784c4.4 0 8-3.6 8-8v-56c0-4.4-3.6-8-8-8z"
   fill="#b7bfcb"
   stroke-linecap="round"
   vector-effect="non-scaling-stroke"
   id="path132" />
</g><g
       transform="matrix(1.0612 0 0 1.0612 668.18 341.33)"
       id="g180">

		<g
   transform="matrix(1.5975 0 0 .314 -1e-4 0)"
   id="g138">
<path
   transform="translate(-79 -79)"
   d="m154.68 2.5005h0.026l0.027-5.5e-4c0.412-0.00868 0.753 0.31859 0.762 0.73046v2.9e-4 0.03214l-1e-3 0.02603v151.4c0 0.449-0.364 0.814-0.814 0.814h-151.37c-0.4496 0-0.81409-0.365-0.81409-0.814v-151.37c0-0.45007 0.36465-0.81441 0.81409-0.81441z"
   fill="#fff"
   stroke="#b7bfcb"
   stroke-width="5"
   vector-effect="non-scaling-stroke"
   id="path136" />
</g>
		<g
   transform="translate(45.231)"
   id="g168">

		<g
   transform="matrix(0 .8377 -2.8084 0 58.988 -2e-4)"
   id="g142">
<path
   transform="translate(-16,-9)"
   d="m28 10h-24a1 1 0 0 1 0-2h24a1 1 0 0 1 0 2z"
   fill="#b7bfcb"
   stroke-linecap="round"
   id="path140" />
</g>
		<g
   transform="matrix(0 .8377 -2.8084 0 39.329 -2e-4)"
   id="g146">
<path
   transform="translate(-16,-16)"
   d="m28 17h-24a1 1 0 0 1 0-2h24a1 1 0 0 1 0 2z"
   fill="#b7bfcb"
   stroke-linecap="round"
   id="path144" />
</g>
		<g
   transform="matrix(0 .8377 -2.8084 0 19.67 -2e-4)"
   id="g150">
<path
   transform="translate(-16,-23)"
   d="m28 24h-24a1 1 0 0 1 0-2h24a1 1 0 0 1 0 2z"
   fill="#b7bfcb"
   stroke-linecap="round"
   id="path148" />
</g>
		<g
   transform="matrix(0 .8377 -2.8084 0 .0257 -2e-4)"
   id="g154">
<path
   transform="translate(-16,-9)"
   d="m28 10h-24a1 1 0 0 1 0-2h24a1 1 0 0 1 0 2z"
   fill="#b7bfcb"
   stroke-linecap="round"
   id="path152" />
</g>
		<g
   transform="matrix(0 .8377 -2.8084 0 -19.633 -2e-4)"
   id="g158">
<path
   transform="translate(-16,-16)"
   d="m28 17h-24a1 1 0 0 1 0-2h24a1 1 0 0 1 0 2z"
   fill="#b7bfcb"
   stroke-linecap="round"
   id="path156" />
</g>
		<g
   transform="matrix(0 .8377 -2.8084 0 -39.292 -2e-4)"
   id="g162">
<path
   transform="translate(-16,-23)"
   d="m28 24h-24a1 1 0 0 1 0-2h24a1 1 0 0 1 0 2z"
   fill="#b7bfcb"
   stroke-linecap="round"
   id="path160" />
</g>
		<g
   transform="matrix(0 .8377 -2.8084 0 -58.988 -2e-4)"
   id="g166">
<path
   transform="translate(-16,-16)"
   d="m28 17h-24a1 1 0 0 1 0-2h24a1 1 0 0 1 0 2z"
   fill="#b7bfcb"
   stroke-linecap="round"
   id="path164" />
</g>

</g>
		<g
   transform="translate(-95.861 -.0021)"
   id="g178">

		<g
   transform="matrix(.1467 0 0 .0869 -9.2218 9e-4)"
   id="g172">
<path
   transform="translate(-78.5 -78.5)"
   d="m78.5 0c-25.558 0-46.383 35.227-46.383 78.5 0 43.273 20.825 78.5 46.383 78.5 25.558 0 46.383-35.227 46.383-78.5 0-43.273-20.825-78.5-46.383-78.5z"
   fill="#09f"
   stroke-linecap="round"
   vector-effect="non-scaling-stroke"
   id="path170" />
</g>
		<g
   transform="matrix(.1467 0 0 .0869 9.2217 -.001)"
   id="g176">
<path
   transform="translate(-78.5 -78.5)"
   d="m78.5 0c-25.558 0-46.383 35.227-46.383 78.5 0 43.273 20.825 78.5 46.383 78.5 25.558 0 46.383-35.227 46.383-78.5 0-43.273-20.825-78.5-46.383-78.5z"
   fill="#b7bfcb"
   stroke-linecap="round"
   vector-effect="non-scaling-stroke"
   id="path174" />
</g>

</g>

</g><g
       transform="translate(668.18 392.44)"
       id="g226">

		<g
   transform="matrix(1.6953 0 0 .3332 .0025 -.0013)"
   id="g184">
<path
   transform="translate(-79 -79)"
   d="m154.68 2.5005h0.026l0.027-5.5e-4c0.412-0.00868 0.753 0.31859 0.762 0.73046v2.9e-4 0.03214l-1e-3 0.02603v151.4c0 0.449-0.364 0.814-0.814 0.814h-151.37c-0.4496 0-0.81409-0.365-0.81409-0.814v-151.37c0-0.45007 0.36465-0.81441 0.81409-0.81441z"
   fill="#fff"
   stroke="#b7bfcb"
   stroke-width="5"
   vector-effect="non-scaling-stroke"
   id="path182" />
</g>
		<g
   transform="matrix(1.0612 0 0 1.0612 47.999 0)"
   id="g214">

		<g
   transform="matrix(0 .8377 -2.8084 0 58.988 -2e-4)"
   id="g188">
<path
   transform="translate(-16,-9)"
   d="m28 10h-24a1 1 0 0 1 0-2h24a1 1 0 0 1 0 2z"
   fill="#b7bfcb"
   stroke-linecap="round"
   id="path186" />
</g>
		<g
   transform="matrix(0 .8377 -2.8084 0 39.329 -2e-4)"
   id="g192">
<path
   transform="translate(-16,-16)"
   d="m28 17h-24a1 1 0 0 1 0-2h24a1 1 0 0 1 0 2z"
   fill="#b7bfcb"
   stroke-linecap="round"
   id="path190" />
</g>
		<g
   transform="matrix(0 .8377 -2.8084 0 19.67 -2e-4)"
   id="g196">
<path
   transform="translate(-16,-23)"
   d="m28 24h-24a1 1 0 0 1 0-2h24a1 1 0 0 1 0 2z"
   fill="#b7bfcb"
   stroke-linecap="round"
   id="path194" />
</g>
		<g
   transform="matrix(0 .8377 -2.8084 0 .0257 -2e-4)"
   id="g200">
<path
   transform="translate(-16,-9)"
   d="m28 10h-24a1 1 0 0 1 0-2h24a1 1 0 0 1 0 2z"
   fill="#b7bfcb"
   stroke-linecap="round"
   id="path198" />
</g>
		<g
   transform="matrix(0 .8377 -2.8084 0 -19.633 -2e-4)"
   id="g204">
<path
   transform="translate(-16,-16)"
   d="m28 17h-24a1 1 0 0 1 0-2h24a1 1 0 0 1 0 2z"
   fill="#b7bfcb"
   stroke-linecap="round"
   id="path202" />
</g>
		<g
   transform="matrix(0 .8377 -2.8084 0 -39.292 -2e-4)"
   id="g208">
<path
   transform="translate(-16,-23)"
   d="m28 24h-24a1 1 0 0 1 0-2h24a1 1 0 0 1 0 2z"
   fill="#b7bfcb"
   stroke-linecap="round"
   id="path206" />
</g>
		<g
   transform="matrix(0 .8377 -2.8084 0 -58.988 -2e-4)"
   id="g212">
<path
   transform="translate(-16,-16)"
   d="m28 17h-24a1 1 0 0 1 0-2h24a1 1 0 0 1 0 2z"
   fill="#b7bfcb"
   stroke-linecap="round"
   id="path210" />
</g>

</g>
		<g
   transform="translate(-101.73 -.0023)"
   id="g224">

		<g
   transform="matrix(.1557 0 0 .0922 -9.7851 -4e-4)"
   id="g218">
<path
   transform="translate(-78.5 -78.5)"
   d="m78.5 0c-25.558 0-46.383 35.227-46.383 78.5 0 43.273 20.825 78.5 46.383 78.5 25.558 0 46.383-35.227 46.383-78.5 0-43.273-20.825-78.5-46.383-78.5z"
   fill="#09f"
   stroke-linecap="round"
   vector-effect="non-scaling-stroke"
   id="path216" />
</g>
		<g
   transform="matrix(.1557 0 0 .0922 9.7872 -.0024)"
   id="g222">
<path
   transform="translate(-78.5 -78.5)"
   d="m78.5 0c-25.558 0-46.383 35.227-46.383 78.5 0 43.273 20.825 78.5 46.383 78.5 25.558 0 46.383-35.227 46.383-78.5 0-43.273-20.825-78.5-46.383-78.5z"
   fill="#f7931e"
   stroke-linecap="round"
   vector-effect="non-scaling-stroke"
   id="path220" />
</g>

</g>

</g><g
       transform="matrix(1.4623 .607 -.607 1.4623 808.17 556.9)"
       id="g230">
<path
   transform="translate(-7,-8)"
   d="m6 0a0.5 0.5 0 0 1 0.5 0.5v2.5h3v-2.5a0.5 0.5 0 0 1 1 0v2.5h1a0.5 0.5 0 0 1 0.5 0.5v3a3.5 3.5 0 0 1-3.5 3.5c-2e-3 0.434-0.01 0.845-0.04 1.22-0.041 0.514-0.126 1.003-0.317 1.424a2.083 2.083 0 0 1-0.97 1.028c-0.448 0.228-1.004 0.328-1.673 0.328-0.998 0-1.61 0.33-1.974 0.718a1.922 1.922 0 0 0-0.526 1.282h-1c0-0.616 0.232-1.367 0.797-1.968 0.577-0.612 1.464-1.032 2.703-1.032 0.581 0 0.962-0.088 1.218-0.219 0.241-0.123 0.4-0.3 0.514-0.55 0.121-0.266 0.193-0.621 0.23-1.09 0.027-0.34 0.035-0.718 0.037-1.141a3.5 3.5 0 0 1-3.499-3.5v-3a0.5 0.5 0 0 1 0.5-0.5h1v-2.5a0.5 0.5 0 0 1 0.5-0.5zm-1 4v2.5a2.5 2.5 0 0 0 2.5 2.5h1a2.5 2.5 0 0 0 2.5-2.5v-2.5z"
   stroke-linecap="round"
   vector-effect="non-scaling-stroke"
   id="path228" />
</g><g
       transform="translate(668.18 545.71)"
       id="g276">

		<g
   transform="scale(1.6953 .3332)"
   id="g234">
<path
   transform="translate(-79 -79)"
   d="m154.68 2.5005h0.026l0.027-5.5e-4c0.412-0.00868 0.753 0.31859 0.762 0.73046v2.9e-4 0.03214l-1e-3 0.02603v151.4c0 0.449-0.364 0.814-0.814 0.814h-151.37c-0.4496 0-0.81409-0.365-0.81409-0.814v-151.37c0-0.45007 0.36465-0.81441 0.81409-0.81441z"
   fill="#fff"
   stroke="#b7bfcb"
   stroke-width="5"
   vector-effect="non-scaling-stroke"
   id="path232" />
</g>
		<g
   transform="translate(-101.73 -.001)"
   id="g244">

		<g
   transform="matrix(.1557 0 0 .0922 -9.7851 -4e-4)"
   id="g238">
<path
   transform="translate(-78.5 -78.5)"
   d="m78.5 0c-25.558 0-46.383 35.227-46.383 78.5 0 43.273 20.825 78.5 46.383 78.5 25.558 0 46.383-35.227 46.383-78.5 0-43.273-20.825-78.5-46.383-78.5z"
   fill="#09f"
   stroke-linecap="round"
   vector-effect="non-scaling-stroke"
   id="path236" />
</g>
		<g
   transform="matrix(.1557 0 0 .0922 9.7872 -.0024)"
   id="g242">
<path
   transform="translate(-78.5 -78.5)"
   d="m78.5 0c-25.558 0-46.383 35.227-46.383 78.5 0 43.273 20.825 78.5 46.383 78.5 25.558 0 46.383-35.227 46.383-78.5 0-43.273-20.825-78.5-46.383-78.5z"
   fill="#f33"
   stroke-linecap="round"
   vector-effect="non-scaling-stroke"
   id="path240" />
</g>

</g>
		<g
   transform="matrix(1.0612 0 0 1.0612 47.996 .0013)"
   id="g274">

		<g
   transform="matrix(0 .8377 -2.8084 0 58.988 -2e-4)"
   id="g248">
<path
   transform="translate(-16,-9)"
   d="m28 10h-24a1 1 0 0 1 0-2h24a1 1 0 0 1 0 2z"
   fill="#b7bfcb"
   stroke-linecap="round"
   id="path246" />
</g>
		<g
   transform="matrix(0 .8377 -2.8084 0 39.329 -2e-4)"
   id="g252">
<path
   transform="translate(-16,-16)"
   d="m28 17h-24a1 1 0 0 1 0-2h24a1 1 0 0 1 0 2z"
   fill="#b7bfcb"
   stroke-linecap="round"
   id="path250" />
</g>
		<g
   transform="matrix(0 .8377 -2.8084 0 19.67 -2e-4)"
   id="g256">
<path
   transform="translate(-16,-23)"
   d="m28 24h-24a1 1 0 0 1 0-2h24a1 1 0 0 1 0 2z"
   fill="#b7bfcb"
   stroke-linecap="round"
   id="path254" />
</g>
		<g
   transform="matrix(0 .8377 -2.8084 0 .0257 -2e-4)"
   id="g260">
<path
   transform="translate(-16,-9)"
   d="m28 10h-24a1 1 0 0 1 0-2h24a1 1 0 0 1 0 2z"
   fill="#b7bfcb"
   stroke-linecap="round"
   id="path258" />
</g>
		<g
   transform="matrix(0 .8377 -2.8084 0 -19.633 -2e-4)"
   id="g264">
<path
   transform="translate(-16,-16)"
   d="m28 17h-24a1 1 0 0 1 0-2h24a1 1 0 0 1 0 2z"
   fill="#b7bfcb"
   stroke-linecap="round"
   id="path262" />
</g>
		<g
   transform="matrix(0 .8377 -2.8084 0 -39.292 -2e-4)"
   id="g268">
<path
   transform="translate(-16,-23)"
   d="m28 24h-24a1 1 0 0 1 0-2h24a1 1 0 0 1 0 2z"
   fill="#b7bfcb"
   stroke-linecap="round"
   id="path266" />
</g>
		<g
   transform="matrix(0 .8377 -2.8084 0 -58.988 -2e-4)"
   id="g272">
<path
   transform="translate(-16,-16)"
   d="m28 17h-24a1 1 0 0 1 0-2h24a1 1 0 0 1 0 2z"
   fill="#b7bfcb"
   stroke-linecap="round"
   id="path270" />
</g>

</g>

</g><g
       transform="translate(668.18 290.18)"
       id="g322">

		<g
   transform="matrix(1.6953 0 0 .3332 .0025 -.0013)"
   id="g280">
<path
   transform="translate(-79 -79)"
   d="m154.68 2.5005h0.026l0.027-5.5e-4c0.412-0.00868 0.753 0.31859 0.762 0.73046v2.9e-4 0.03214l-1e-3 0.02603v151.4c0 0.449-0.364 0.814-0.814 0.814h-151.37c-0.4496 0-0.81409-0.365-0.81409-0.814v-151.37c0-0.45007 0.36465-0.81441 0.81409-0.81441z"
   fill="#fff"
   stroke="#b7bfcb"
   stroke-width="5"
   vector-effect="non-scaling-stroke"
   id="path278" />
</g>
		<g
   transform="translate(-101.73 -.0023)"
   id="g290">

		<g
   transform="matrix(.1557 0 0 .0922 -9.7851 -4e-4)"
   id="g284">
<path
   transform="translate(-78.5 -78.5)"
   d="m78.5 0c-25.558 0-46.383 35.227-46.383 78.5 0 43.273 20.825 78.5 46.383 78.5 25.558 0 46.383-35.227 46.383-78.5 0-43.273-20.825-78.5-46.383-78.5z"
   fill="#b7bfcb"
   stroke-linecap="round"
   vector-effect="non-scaling-stroke"
   id="path282" />
</g>
		<g
   transform="matrix(.1557 0 0 .0922 9.7872 -.0024)"
   id="g288">
<path
   transform="translate(-78.5 -78.5)"
   d="m78.5 0c-25.558 0-46.383 35.227-46.383 78.5 0 43.273 20.825 78.5 46.383 78.5 25.558 0 46.383-35.227 46.383-78.5 0-43.273-20.825-78.5-46.383-78.5z"
   fill="#b7bfcb"
   stroke-linecap="round"
   vector-effect="non-scaling-stroke"
   id="path286" />
</g>

</g>
		<g
   transform="matrix(1.0612 0 0 1.0612 47.999 0)"
   id="g320">

		<g
   transform="matrix(0 .8377 -2.8084 0 58.988 -2e-4)"
   id="g294">
<path
   transform="translate(-16,-9)"
   d="m28 10h-24a1 1 0 0 1 0-2h24a1 1 0 0 1 0 2z"
   fill="#b7bfcb"
   stroke-linecap="round"
   id="path292" />
</g>
		<g
   transform="matrix(0 .8377 -2.8084 0 39.329 -2e-4)"
   id="g298">
<path
   transform="translate(-16,-16)"
   d="m28 17h-24a1 1 0 0 1 0-2h24a1 1 0 0 1 0 2z"
   fill="#b7bfcb"
   stroke-linecap="round"
   id="path296" />
</g>
		<g
   transform="matrix(0 .8377 -2.8084 0 19.67 -2e-4)"
   id="g302">
<path
   transform="translate(-16,-23)"
   d="m28 24h-24a1 1 0 0 1 0-2h24a1 1 0 0 1 0 2z"
   fill="#b7bfcb"
   stroke-linecap="round"
   id="path300" />
</g>
		<g
   transform="matrix(0 .8377 -2.8084 0 .0257 -2e-4)"
   id="g306">
<path
   transform="translate(-16,-9)"
   d="m28 10h-24a1 1 0 0 1 0-2h24a1 1 0 0 1 0 2z"
   fill="#b7bfcb"
   stroke-linecap="round"
   id="path304" />
</g>
		<g
   transform="matrix(0 .8377 -2.8084 0 -19.633 -2e-4)"
   id="g310">
<path
   transform="translate(-16,-16)"
   d="m28 17h-24a1 1 0 0 1 0-2h24a1 1 0 0 1 0 2z"
   fill="#b7bfcb"
   stroke-linecap="round"
   id="path308" />
</g>
		<g
   transform="matrix(0 .8377 -2.8084 0 -39.292 -2e-4)"
   id="g314">
<path
   transform="translate(-16,-23)"
   d="m28 24h-24a1 1 0 0 1 0-2h24a1 1 0 0 1 0 2z"
   fill="#b7bfcb"
   stroke-linecap="round"
   id="path312" />
</g>
		<g
   transform="matrix(0 .8377 -2.8084 0 -58.988 -2e-4)"
   id="g318">
<path
   transform="translate(-16,-16)"
   d="m28 17h-24a1 1 0 0 1 0-2h24a1 1 0 0 1 0 2z"
   fill="#b7bfcb"
   stroke-linecap="round"
   id="path316" />
</g>

</g>

</g></g></svg>
