<?xml version="1.0" encoding="UTF-8" standalone="no"?>
<!-- Created with Inkscape (http://www.inkscape.org/) -->

<svg
   width="600mm"
   height="250mm"
   version="1.1"
   viewBox="0 0 600 250"
   xml:space="preserve"
   id="svg368"
   sodipodi:docname="img.svg"
   inkscape:version="1.2.2 (732a01da63, 2022-12-09)"
   xmlns:inkscape="http://www.inkscape.org/namespaces/inkscape"
   xmlns:sodipodi="http://sodipodi.sourceforge.net/DTD/sodipodi-0.dtd"
   xmlns="http://www.w3.org/2000/svg"
   xmlns:svg="http://www.w3.org/2000/svg"><defs
     id="defs372" /><sodipodi:namedview
     id="namedview370"
     pagecolor="#505050"
     bordercolor="#eeeeee"
     borderopacity="1"
     inkscape:showpageshadow="0"
     inkscape:pageopacity="0"
     inkscape:pagecheckerboard="0"
     inkscape:deskcolor="#505050"
     inkscape:document-units="mm"
     showgrid="false"
     inkscape:zoom="0.53137153"
     inkscape:cx="1134.7992"
     inkscape:cy="472.36253"
     inkscape:window-width="1366"
     inkscape:window-height="715"
     inkscape:window-x="1358"
     inkscape:window-y="-8"
     inkscape:window-maximized="1"
     inkscape:current-layer="g366" /><g
     transform="matrix(.63812 0 0 .63812 .34586 -106.08)"
     id="g366"><g
       transform="translate(806.99 338.74)"
       id="g14"
       style="fill:#5c83be;fill-opacity:1">

		<g
   transform="translate(0 -76.819)"
   id="g4"
   style="fill:#5c83be;fill-opacity:1">
<path
   transform="translate(-12.092 -12.002)"
   d="m16.86 8a4 4 0 0 0-3.86-3h-7v3h-4v2h4v3h7a4 4 0 0 0 3.85-3 3.5044 3.5044 0 0 1-0.35 7h-14.5v2h14.5a5.5029 5.5029 0 0 0 0.36-11z"
   stroke-linecap="round"
   vector-effect="non-scaling-stroke"
   id="path2"
   style="fill:#5c83be;fill-opacity:1" />
</g>
		<g
   transform="translate(0 -26.449)"
   id="g8"
   style="fill:#5c83be;fill-opacity:1">
<path
   transform="translate(-12.092 -12.002)"
   d="m16.86 8a4 4 0 0 0-3.86-3h-7v3h-4v2h4v3h7a4 4 0 0 0 3.85-3 3.5044 3.5044 0 0 1-0.35 7h-14.5v2h14.5a5.5029 5.5029 0 0 0 0.36-11z"
   stroke-linecap="round"
   vector-effect="non-scaling-stroke"
   id="path6"
   style="fill:#5c83be;fill-opacity:1" />
</g>
		<g
   transform="translate(0 76.819)"
   id="g12"
   style="fill:#5c83be;fill-opacity:1">
<path
   transform="translate(-12.092 -12.002)"
   d="m16.86 8a4 4 0 0 0-3.86-3h-7v3h-4v2h4v3h7a4 4 0 0 0 3.85-3 3.5044 3.5044 0 0 1-0.35 7h-14.5v2h14.5a5.5029 5.5029 0 0 0 0.36-11z"
   stroke-linecap="round"
   vector-effect="non-scaling-stroke"
   id="path10"
   style="fill:#5c83be;fill-opacity:1" />
</g>

</g><g
       transform="matrix(.7703 0 0 .7703 303.92 448.69)"
       id="g18">
<path
   transform="translate(-147.05 -147.05)"
   d="m294.09 25.772c-0.766-7.566-6.988-13.222-14.756-13.222h-264c-8.284 0-15.333 6.216-15.333 14.5v158.33 6e-3 29.161c0 8.284 7.049 15 15.333 15h74.618l-4.416 22h-21.202c-8.284 0-15 6.716-15 15s6.716 15 15 15h132.5c5e-3 -1e-3 0.013-1e-3 0.02 0h32.48c8.284 0 15-6.716 15-15s-6.716-15-15-15h-20.203l-4.416-22h74.618c8.284 0 14.667-6.716 14.667-15v-187.5c1e-3 -0.518 0.141-0.777 0.09-1.278zm-30.089 16.778v128h-234v-128z"
   fill="#b7bfcb"
   stroke-linecap="round"
   vector-effect="non-scaling-stroke"
   id="path16" />
</g><g
       transform="matrix(1.0612 0 0 1.0612 668.67 413.81)"
       id="g64">

		<g
   transform="matrix(1.5975 0 0 .314 -1e-4 0)"
   id="g22">
<path
   transform="translate(-79 -79)"
   d="m154.68 2.5005h0.026l0.027-5.5e-4c0.412-0.00868 0.753 0.31859 0.762 0.73046v2.9e-4 0.03214l-1e-3 0.02603v151.4c0 0.449-0.364 0.814-0.814 0.814h-151.37c-0.4496 0-0.81409-0.365-0.81409-0.814v-151.37c0-0.45007 0.36465-0.81441 0.81409-0.81441z"
   fill="#fff"
   stroke="#b7bfcb"
   stroke-width="5"
   vector-effect="non-scaling-stroke"
   id="path20" />
</g>
		<g
   transform="translate(45.231)"
   id="g52">

		<g
   transform="matrix(0 .8377 -2.8084 0 58.988 -2e-4)"
   id="g26">
<path
   transform="translate(-16,-9)"
   d="m28 10h-24a1 1 0 0 1 0-2h24a1 1 0 0 1 0 2z"
   fill="#b7bfcb"
   stroke-linecap="round"
   id="path24" />
</g>
		<g
   transform="matrix(0 .8377 -2.8084 0 39.329 -2e-4)"
   id="g30">
<path
   transform="translate(-16,-16)"
   d="m28 17h-24a1 1 0 0 1 0-2h24a1 1 0 0 1 0 2z"
   fill="#b7bfcb"
   stroke-linecap="round"
   id="path28" />
</g>
		<g
   transform="matrix(0 .8377 -2.8084 0 19.67 -2e-4)"
   id="g34">
<path
   transform="translate(-16,-23)"
   d="m28 24h-24a1 1 0 0 1 0-2h24a1 1 0 0 1 0 2z"
   fill="#b7bfcb"
   stroke-linecap="round"
   id="path32" />
</g>
		<g
   transform="matrix(0 .8377 -2.8084 0 .0257 -2e-4)"
   id="g38">
<path
   transform="translate(-16,-9)"
   d="m28 10h-24a1 1 0 0 1 0-2h24a1 1 0 0 1 0 2z"
   fill="#b7bfcb"
   stroke-linecap="round"
   id="path36" />
</g>
		<g
   transform="matrix(0 .8377 -2.8084 0 -19.633 -2e-4)"
   id="g42">
<path
   transform="translate(-16,-16)"
   d="m28 17h-24a1 1 0 0 1 0-2h24a1 1 0 0 1 0 2z"
   fill="#b7bfcb"
   stroke-linecap="round"
   id="path40" />
</g>
		<g
   transform="matrix(0 .8377 -2.8084 0 -39.292 -2e-4)"
   id="g46">
<path
   transform="translate(-16,-23)"
   d="m28 24h-24a1 1 0 0 1 0-2h24a1 1 0 0 1 0 2z"
   fill="#b7bfcb"
   stroke-linecap="round"
   id="path44" />
</g>
		<g
   transform="matrix(0 .8377 -2.8084 0 -58.988 -2e-4)"
   id="g50">
<path
   transform="translate(-16,-16)"
   d="m28 17h-24a1 1 0 0 1 0-2h24a1 1 0 0 1 0 2z"
   fill="#b7bfcb"
   stroke-linecap="round"
   id="path48" />
</g>

</g>
		<g
   transform="translate(-95.861 -.0021)"
   id="g62">

		<g
   transform="matrix(.1467 0 0 .0869 -9.2218 9e-4)"
   id="g56">
<path
   transform="translate(-78.5 -78.5)"
   d="m78.5 0c-25.558 0-46.383 35.227-46.383 78.5 0 43.273 20.825 78.5 46.383 78.5 25.558 0 46.383-35.227 46.383-78.5 0-43.273-20.825-78.5-46.383-78.5z"
   fill="#09f"
   stroke-linecap="round"
   vector-effect="non-scaling-stroke"
   id="path54" />
</g>
		<g
   transform="matrix(.1467 0 0 .0869 9.2217 -.001)"
   id="g60">
<path
   transform="translate(-78.5 -78.5)"
   d="m78.5 0c-25.558 0-46.383 35.227-46.383 78.5 0 43.273 20.825 78.5 46.383 78.5 25.558 0 46.383-35.227 46.383-78.5 0-43.273-20.825-78.5-46.383-78.5z"
   fill="#b7bfcb"
   stroke-linecap="round"
   vector-effect="non-scaling-stroke"
   id="path58" />
</g>

</g>

</g><g
       transform="matrix(1.0612 0 0 1.0612 668.67 464.93)"
       id="g110">

		<g
   transform="matrix(1.5975 0 0 .314 -1e-4 0)"
   id="g68">
<path
   transform="translate(-79 -79)"
   d="m154.68 2.5005h0.026l0.027-5.5e-4c0.412-0.00868 0.753 0.31859 0.762 0.73046v2.9e-4 0.03214l-1e-3 0.02603v151.4c0 0.449-0.364 0.814-0.814 0.814h-151.37c-0.4496 0-0.81409-0.365-0.81409-0.814v-151.37c0-0.45007 0.36465-0.81441 0.81409-0.81441z"
   fill="#fff"
   stroke="#b7bfcb"
   stroke-width="5"
   vector-effect="non-scaling-stroke"
   id="path66" />
</g>
		<g
   transform="translate(45.231)"
   id="g98">

		<g
   transform="matrix(0 .8377 -2.8084 0 58.988 -2e-4)"
   id="g72">
<path
   transform="translate(-16,-9)"
   d="m28 10h-24a1 1 0 0 1 0-2h24a1 1 0 0 1 0 2z"
   fill="#b7bfcb"
   stroke-linecap="round"
   id="path70" />
</g>
		<g
   transform="matrix(0 .8377 -2.8084 0 39.329 -2e-4)"
   id="g76">
<path
   transform="translate(-16,-16)"
   d="m28 17h-24a1 1 0 0 1 0-2h24a1 1 0 0 1 0 2z"
   fill="#b7bfcb"
   stroke-linecap="round"
   id="path74" />
</g>
		<g
   transform="matrix(0 .8377 -2.8084 0 19.67 -2e-4)"
   id="g80">
<path
   transform="translate(-16,-23)"
   d="m28 24h-24a1 1 0 0 1 0-2h24a1 1 0 0 1 0 2z"
   fill="#b7bfcb"
   stroke-linecap="round"
   id="path78" />
</g>
		<g
   transform="matrix(0 .8377 -2.8084 0 .0257 -2e-4)"
   id="g84">
<path
   transform="translate(-16,-9)"
   d="m28 10h-24a1 1 0 0 1 0-2h24a1 1 0 0 1 0 2z"
   fill="#b7bfcb"
   stroke-linecap="round"
   id="path82" />
</g>
		<g
   transform="matrix(0 .8377 -2.8084 0 -19.633 -2e-4)"
   id="g88">
<path
   transform="translate(-16,-16)"
   d="m28 17h-24a1 1 0 0 1 0-2h24a1 1 0 0 1 0 2z"
   fill="#b7bfcb"
   stroke-linecap="round"
   id="path86" />
</g>
		<g
   transform="matrix(0 .8377 -2.8084 0 -39.292 -2e-4)"
   id="g92">
<path
   transform="translate(-16,-23)"
   d="m28 24h-24a1 1 0 0 1 0-2h24a1 1 0 0 1 0 2z"
   fill="#b7bfcb"
   stroke-linecap="round"
   id="path90" />
</g>
		<g
   transform="matrix(0 .8377 -2.8084 0 -58.988 -2e-4)"
   id="g96">
<path
   transform="translate(-16,-16)"
   d="m28 17h-24a1 1 0 0 1 0-2h24a1 1 0 0 1 0 2z"
   fill="#b7bfcb"
   stroke-linecap="round"
   id="path94" />
</g>

</g>
		<g
   transform="translate(-95.861 -.0021)"
   id="g108">

		<g
   transform="matrix(.1467 0 0 .0869 -9.2218 9e-4)"
   id="g102">
<path
   transform="translate(-78.5 -78.5)"
   d="m78.5 0c-25.558 0-46.383 35.227-46.383 78.5 0 43.273 20.825 78.5 46.383 78.5 25.558 0 46.383-35.227 46.383-78.5 0-43.273-20.825-78.5-46.383-78.5z"
   fill="#09f"
   stroke-linecap="round"
   vector-effect="non-scaling-stroke"
   id="path100" />
</g>
		<g
   transform="matrix(.1467 0 0 .0869 9.2217 -.001)"
   id="g106">
<path
   transform="translate(-78.5 -78.5)"
   d="m78.5 0c-25.558 0-46.383 35.227-46.383 78.5 0 43.273 20.825 78.5 46.383 78.5 25.558 0 46.383-35.227 46.383-78.5 0-43.273-20.825-78.5-46.383-78.5z"
   fill="#b7bfcb"
   stroke-linecap="round"
   vector-effect="non-scaling-stroke"
   id="path104" />
</g>

</g>

</g><g
       transform="matrix(1.0201 0 0 .1794 470 549.01)"
       id="g114">
<path
   transform="translate(-512,-512)"
   d="m904 476h-784c-4.4 0-8 3.6-8 8v56c0 4.4 3.6 8 8 8h784c4.4 0 8-3.6 8-8v-56c0-4.4-3.6-8-8-8z"
   fill="#b7bfcb"
   stroke-linecap="round"
   vector-effect="non-scaling-stroke"
   id="path112" />
</g><g
       transform="matrix(1.0612 0 0 1.0612 668.67 311.67)"
       id="g160">

		<g
   transform="matrix(1.5975 0 0 .314 -1e-4 0)"
   id="g118">
<path
   transform="translate(-79 -79)"
   d="m154.68 2.5005h0.026l0.027-5.5e-4c0.412-0.00868 0.753 0.31859 0.762 0.73046v2.9e-4 0.03214l-1e-3 0.02603v151.4c0 0.449-0.364 0.814-0.814 0.814h-151.37c-0.4496 0-0.81409-0.365-0.81409-0.814v-151.37c0-0.45007 0.36465-0.81441 0.81409-0.81441z"
   fill="#fff"
   stroke="#b7bfcb"
   stroke-width="5"
   vector-effect="non-scaling-stroke"
   id="path116" />
</g>
		<g
   transform="translate(45.231)"
   id="g148">

		<g
   transform="matrix(0 .8377 -2.8084 0 58.988 -2e-4)"
   id="g122">
<path
   transform="translate(-16,-9)"
   d="m28 10h-24a1 1 0 0 1 0-2h24a1 1 0 0 1 0 2z"
   fill="#b7bfcb"
   stroke-linecap="round"
   id="path120" />
</g>
		<g
   transform="matrix(0 .8377 -2.8084 0 39.329 -2e-4)"
   id="g126">
<path
   transform="translate(-16,-16)"
   d="m28 17h-24a1 1 0 0 1 0-2h24a1 1 0 0 1 0 2z"
   fill="#b7bfcb"
   stroke-linecap="round"
   id="path124" />
</g>
		<g
   transform="matrix(0 .8377 -2.8084 0 19.67 -2e-4)"
   id="g130">
<path
   transform="translate(-16,-23)"
   d="m28 24h-24a1 1 0 0 1 0-2h24a1 1 0 0 1 0 2z"
   fill="#b7bfcb"
   stroke-linecap="round"
   id="path128" />
</g>
		<g
   transform="matrix(0 .8377 -2.8084 0 .0257 -2e-4)"
   id="g134">
<path
   transform="translate(-16,-9)"
   d="m28 10h-24a1 1 0 0 1 0-2h24a1 1 0 0 1 0 2z"
   fill="#b7bfcb"
   stroke-linecap="round"
   id="path132" />
</g>
		<g
   transform="matrix(0 .8377 -2.8084 0 -19.633 -2e-4)"
   id="g138">
<path
   transform="translate(-16,-16)"
   d="m28 17h-24a1 1 0 0 1 0-2h24a1 1 0 0 1 0 2z"
   fill="#b7bfcb"
   stroke-linecap="round"
   id="path136" />
</g>
		<g
   transform="matrix(0 .8377 -2.8084 0 -39.292 -2e-4)"
   id="g142">
<path
   transform="translate(-16,-23)"
   d="m28 24h-24a1 1 0 0 1 0-2h24a1 1 0 0 1 0 2z"
   fill="#b7bfcb"
   stroke-linecap="round"
   id="path140" />
</g>
		<g
   transform="matrix(0 .8377 -2.8084 0 -58.988 -2e-4)"
   id="g146">
<path
   transform="translate(-16,-16)"
   d="m28 17h-24a1 1 0 0 1 0-2h24a1 1 0 0 1 0 2z"
   fill="#b7bfcb"
   stroke-linecap="round"
   id="path144" />
</g>

</g>
		<g
   transform="translate(-95.861 -.0021)"
   id="g158">

		<g
   transform="matrix(.1467 0 0 .0869 -9.2218 9e-4)"
   id="g152">
<path
   transform="translate(-78.5 -78.5)"
   d="m78.5 0c-25.558 0-46.383 35.227-46.383 78.5 0 43.273 20.825 78.5 46.383 78.5 25.558 0 46.383-35.227 46.383-78.5 0-43.273-20.825-78.5-46.383-78.5z"
   fill="#09f"
   stroke-linecap="round"
   vector-effect="non-scaling-stroke"
   id="path150" />
</g>
		<g
   transform="matrix(.1467 0 0 .0869 9.2217 -.001)"
   id="g156">
<path
   transform="translate(-78.5 -78.5)"
   d="m78.5 0c-25.558 0-46.383 35.227-46.383 78.5 0 43.273 20.825 78.5 46.383 78.5 25.558 0 46.383-35.227 46.383-78.5 0-43.273-20.825-78.5-46.383-78.5z"
   fill="#b7bfcb"
   stroke-linecap="round"
   vector-effect="non-scaling-stroke"
   id="path154" />
</g>

</g>

</g><g
       transform="translate(668.67 362.79)"
       id="g206">

		<g
   transform="matrix(1.6953 0 0 .3332 .0025 -.0013)"
   id="g164">
<path
   transform="translate(-79 -79)"
   d="m154.68 2.5005h0.026l0.027-5.5e-4c0.412-0.00868 0.753 0.31859 0.762 0.73046v2.9e-4 0.03214l-1e-3 0.02603v151.4c0 0.449-0.364 0.814-0.814 0.814h-151.37c-0.4496 0-0.81409-0.365-0.81409-0.814v-151.37c0-0.45007 0.36465-0.81441 0.81409-0.81441z"
   fill="#fff"
   stroke="#b7bfcb"
   stroke-width="5"
   vector-effect="non-scaling-stroke"
   id="path162" />
</g>
		<g
   transform="matrix(1.0612 0 0 1.0612 47.999 0)"
   id="g194">

		<g
   transform="matrix(0 .8377 -2.8084 0 58.988 -2e-4)"
   id="g168">
<path
   transform="translate(-16,-9)"
   d="m28 10h-24a1 1 0 0 1 0-2h24a1 1 0 0 1 0 2z"
   fill="#b7bfcb"
   stroke-linecap="round"
   id="path166" />
</g>
		<g
   transform="matrix(0 .8377 -2.8084 0 39.329 -2e-4)"
   id="g172">
<path
   transform="translate(-16,-16)"
   d="m28 17h-24a1 1 0 0 1 0-2h24a1 1 0 0 1 0 2z"
   fill="#b7bfcb"
   stroke-linecap="round"
   id="path170" />
</g>
		<g
   transform="matrix(0 .8377 -2.8084 0 19.67 -2e-4)"
   id="g176">
<path
   transform="translate(-16,-23)"
   d="m28 24h-24a1 1 0 0 1 0-2h24a1 1 0 0 1 0 2z"
   fill="#b7bfcb"
   stroke-linecap="round"
   id="path174" />
</g>
		<g
   transform="matrix(0 .8377 -2.8084 0 .0257 -2e-4)"
   id="g180">
<path
   transform="translate(-16,-9)"
   d="m28 10h-24a1 1 0 0 1 0-2h24a1 1 0 0 1 0 2z"
   fill="#b7bfcb"
   stroke-linecap="round"
   id="path178" />
</g>
		<g
   transform="matrix(0 .8377 -2.8084 0 -19.633 -2e-4)"
   id="g184">
<path
   transform="translate(-16,-16)"
   d="m28 17h-24a1 1 0 0 1 0-2h24a1 1 0 0 1 0 2z"
   fill="#b7bfcb"
   stroke-linecap="round"
   id="path182" />
</g>
		<g
   transform="matrix(0 .8377 -2.8084 0 -39.292 -2e-4)"
   id="g188">
<path
   transform="translate(-16,-23)"
   d="m28 24h-24a1 1 0 0 1 0-2h24a1 1 0 0 1 0 2z"
   fill="#b7bfcb"
   stroke-linecap="round"
   id="path186" />
</g>
		<g
   transform="matrix(0 .8377 -2.8084 0 -58.988 -2e-4)"
   id="g192">
<path
   transform="translate(-16,-16)"
   d="m28 17h-24a1 1 0 0 1 0-2h24a1 1 0 0 1 0 2z"
   fill="#b7bfcb"
   stroke-linecap="round"
   id="path190" />
</g>

</g>
		<g
   transform="translate(-101.73 -.0023)"
   id="g204">

		<g
   transform="matrix(.1557 0 0 .0922 -9.7851 -4e-4)"
   id="g198">
<path
   transform="translate(-78.5 -78.5)"
   d="m78.5 0c-25.558 0-46.383 35.227-46.383 78.5 0 43.273 20.825 78.5 46.383 78.5 25.558 0 46.383-35.227 46.383-78.5 0-43.273-20.825-78.5-46.383-78.5z"
   fill="#09f"
   stroke-linecap="round"
   vector-effect="non-scaling-stroke"
   id="path196" />
</g>
		<g
   transform="matrix(.1557 0 0 .0922 9.7872 -.0024)"
   id="g202">
<path
   transform="translate(-78.5 -78.5)"
   d="m78.5 0c-25.558 0-46.383 35.227-46.383 78.5 0 43.273 20.825 78.5 46.383 78.5 25.558 0 46.383-35.227 46.383-78.5 0-43.273-20.825-78.5-46.383-78.5z"
   fill="#f7931e"
   stroke-linecap="round"
   vector-effect="non-scaling-stroke"
   id="path200" />
</g>

</g>

</g><g
       transform="translate(668.67 516.05)"
       id="g252">

		<g
   transform="scale(1.6953 .3332)"
   id="g210">
<path
   transform="translate(-79 -79)"
   d="m154.68 2.5005h0.026l0.027-5.5e-4c0.412-0.00868 0.753 0.31859 0.762 0.73046v2.9e-4 0.03214l-1e-3 0.02603v151.4c0 0.449-0.364 0.814-0.814 0.814h-151.37c-0.4496 0-0.81409-0.365-0.81409-0.814v-151.37c0-0.45007 0.36465-0.81441 0.81409-0.81441z"
   fill="#fff"
   stroke="#b7bfcb"
   stroke-width="5"
   vector-effect="non-scaling-stroke"
   id="path208" />
</g>
		<g
   transform="translate(-101.73 -.001)"
   id="g220">

		<g
   transform="matrix(.1557 0 0 .0922 -9.7851 -4e-4)"
   id="g214">
<path
   transform="translate(-78.5 -78.5)"
   d="m78.5 0c-25.558 0-46.383 35.227-46.383 78.5 0 43.273 20.825 78.5 46.383 78.5 25.558 0 46.383-35.227 46.383-78.5 0-43.273-20.825-78.5-46.383-78.5z"
   fill="#09f"
   stroke-linecap="round"
   vector-effect="non-scaling-stroke"
   id="path212" />
</g>
		<g
   transform="matrix(.1557 0 0 .0922 9.7872 -.0024)"
   id="g218">
<path
   transform="translate(-78.5 -78.5)"
   d="m78.5 0c-25.558 0-46.383 35.227-46.383 78.5 0 43.273 20.825 78.5 46.383 78.5 25.558 0 46.383-35.227 46.383-78.5 0-43.273-20.825-78.5-46.383-78.5z"
   fill="#f33"
   stroke-linecap="round"
   vector-effect="non-scaling-stroke"
   id="path216" />
</g>

</g>
		<g
   transform="matrix(1.0612 0 0 1.0612 47.996 .0013)"
   id="g250">

		<g
   transform="matrix(0 .8377 -2.8084 0 58.988 -2e-4)"
   id="g224">
<path
   transform="translate(-16,-9)"
   d="m28 10h-24a1 1 0 0 1 0-2h24a1 1 0 0 1 0 2z"
   fill="#b7bfcb"
   stroke-linecap="round"
   id="path222" />
</g>
		<g
   transform="matrix(0 .8377 -2.8084 0 39.329 -2e-4)"
   id="g228">
<path
   transform="translate(-16,-16)"
   d="m28 17h-24a1 1 0 0 1 0-2h24a1 1 0 0 1 0 2z"
   fill="#b7bfcb"
   stroke-linecap="round"
   id="path226" />
</g>
		<g
   transform="matrix(0 .8377 -2.8084 0 19.67 -2e-4)"
   id="g232">
<path
   transform="translate(-16,-23)"
   d="m28 24h-24a1 1 0 0 1 0-2h24a1 1 0 0 1 0 2z"
   fill="#b7bfcb"
   stroke-linecap="round"
   id="path230" />
</g>
		<g
   transform="matrix(0 .8377 -2.8084 0 .0257 -2e-4)"
   id="g236">
<path
   transform="translate(-16,-9)"
   d="m28 10h-24a1 1 0 0 1 0-2h24a1 1 0 0 1 0 2z"
   fill="#b7bfcb"
   stroke-linecap="round"
   id="path234" />
</g>
		<g
   transform="matrix(0 .8377 -2.8084 0 -19.633 -2e-4)"
   id="g240">
<path
   transform="translate(-16,-16)"
   d="m28 17h-24a1 1 0 0 1 0-2h24a1 1 0 0 1 0 2z"
   fill="#b7bfcb"
   stroke-linecap="round"
   id="path238" />
</g>
		<g
   transform="matrix(0 .8377 -2.8084 0 -39.292 -2e-4)"
   id="g244">
<path
   transform="translate(-16,-23)"
   d="m28 24h-24a1 1 0 0 1 0-2h24a1 1 0 0 1 0 2z"
   fill="#b7bfcb"
   stroke-linecap="round"
   id="path242" />
</g>
		<g
   transform="matrix(0 .8377 -2.8084 0 -58.988 -2e-4)"
   id="g248">
<path
   transform="translate(-16,-16)"
   d="m28 17h-24a1 1 0 0 1 0-2h24a1 1 0 0 1 0 2z"
   fill="#b7bfcb"
   stroke-linecap="round"
   id="path246" />
</g>

</g>

</g><g
       transform="translate(668.67 260.52)"
       id="g298">

		<g
   transform="matrix(1.6953 0 0 .3332 .0025 -.0013)"
   id="g256">
<path
   transform="translate(-79 -79)"
   d="m154.68 2.5005h0.026l0.027-5.5e-4c0.412-0.00868 0.753 0.31859 0.762 0.73046v2.9e-4 0.03214l-1e-3 0.02603v151.4c0 0.449-0.364 0.814-0.814 0.814h-151.37c-0.4496 0-0.81409-0.365-0.81409-0.814v-151.37c0-0.45007 0.36465-0.81441 0.81409-0.81441z"
   fill="#fff"
   stroke="#b7bfcb"
   stroke-width="5"
   vector-effect="non-scaling-stroke"
   id="path254" />
</g>
		<g
   transform="translate(-101.73 -.0023)"
   id="g266">

		<g
   transform="matrix(.1557 0 0 .0922 -9.7851 -4e-4)"
   id="g260">
<path
   transform="translate(-78.5 -78.5)"
   d="m78.5 0c-25.558 0-46.383 35.227-46.383 78.5 0 43.273 20.825 78.5 46.383 78.5 25.558 0 46.383-35.227 46.383-78.5 0-43.273-20.825-78.5-46.383-78.5z"
   fill="#b7bfcb"
   stroke-linecap="round"
   vector-effect="non-scaling-stroke"
   id="path258" />
</g>
		<g
   transform="matrix(.1557 0 0 .0922 9.7872 -.0024)"
   id="g264">
<path
   transform="translate(-78.5 -78.5)"
   d="m78.5 0c-25.558 0-46.383 35.227-46.383 78.5 0 43.273 20.825 78.5 46.383 78.5 25.558 0 46.383-35.227 46.383-78.5 0-43.273-20.825-78.5-46.383-78.5z"
   fill="#b7bfcb"
   stroke-linecap="round"
   vector-effect="non-scaling-stroke"
   id="path262" />
</g>

</g>
		<g
   transform="matrix(1.0612 0 0 1.0612 47.999 0)"
   id="g296">

		<g
   transform="matrix(0 .8377 -2.8084 0 58.988 -2e-4)"
   id="g270">
<path
   transform="translate(-16,-9)"
   d="m28 10h-24a1 1 0 0 1 0-2h24a1 1 0 0 1 0 2z"
   fill="#b7bfcb"
   stroke-linecap="round"
   id="path268" />
</g>
		<g
   transform="matrix(0 .8377 -2.8084 0 39.329 -2e-4)"
   id="g274">
<path
   transform="translate(-16,-16)"
   d="m28 17h-24a1 1 0 0 1 0-2h24a1 1 0 0 1 0 2z"
   fill="#b7bfcb"
   stroke-linecap="round"
   id="path272" />
</g>
		<g
   transform="matrix(0 .8377 -2.8084 0 19.67 -2e-4)"
   id="g278">
<path
   transform="translate(-16,-23)"
   d="m28 24h-24a1 1 0 0 1 0-2h24a1 1 0 0 1 0 2z"
   fill="#b7bfcb"
   stroke-linecap="round"
   id="path276" />
</g>
		<g
   transform="matrix(0 .8377 -2.8084 0 .0257 -2e-4)"
   id="g282">
<path
   transform="translate(-16,-9)"
   d="m28 10h-24a1 1 0 0 1 0-2h24a1 1 0 0 1 0 2z"
   fill="#b7bfcb"
   stroke-linecap="round"
   id="path280" />
</g>
		<g
   transform="matrix(0 .8377 -2.8084 0 -19.633 -2e-4)"
   id="g286">
<path
   transform="translate(-16,-16)"
   d="m28 17h-24a1 1 0 0 1 0-2h24a1 1 0 0 1 0 2z"
   fill="#b7bfcb"
   stroke-linecap="round"
   id="path284" />
</g>
		<g
   transform="matrix(0 .8377 -2.8084 0 -39.292 -2e-4)"
   id="g290">
<path
   transform="translate(-16,-23)"
   d="m28 24h-24a1 1 0 0 1 0-2h24a1 1 0 0 1 0 2z"
   fill="#b7bfcb"
   stroke-linecap="round"
   id="path288" />
</g>
		<g
   transform="matrix(0 .8377 -2.8084 0 -58.988 -2e-4)"
   id="g294">
<path
   transform="translate(-16,-16)"
   d="m28 17h-24a1 1 0 0 1 0-2h24a1 1 0 0 1 0 2z"
   fill="#b7bfcb"
   stroke-linecap="round"
   id="path292" />
</g>

</g>

</g><g
       transform="matrix(4.9564 0 0 4.7241 342.81 413.81)"
       id="g302">
<path
   transform="translate(-12,-12)"
   d="m5 8h14m-14 4h14m-14 4h6"
   fill="none"
   stroke="#5c83be"
   stroke-linecap="round"
   stroke-linejoin="round"
   stroke-width="5"
   vector-effect="non-scaling-stroke"
   id="path300" />
</g><g
       transform="matrix(.3182 0 0 .3182 478.13 426.54)"
       id="g326">
<g
   vector-effect="non-scaling-stroke"
   id="g324">
		<g
   transform="translate(-96.115)"
   id="g306">
<line
   x1="-47.885"
   x2="47.885"
   fill="none"
   stroke="#5c83be"
   stroke-linecap="round"
   stroke-linejoin="round"
   stroke-width="20"
   id="line304" />
</g>
		<g
   transform="translate(96.115)"
   id="g310">
<line
   x1="-47.885"
   x2="47.885"
   fill="none"
   stroke="#5c83be"
   stroke-linecap="round"
   stroke-linejoin="round"
   stroke-width="20"
   id="line308" />
</g>
		
<line
   x1="23.6"
   x2="-23.6"
   y1="-23.6"
   y2="23.6"
   fill="none"
   stroke="#5c83be"
   stroke-linecap="round"
   stroke-linejoin="round"
   stroke-width="20"
   id="line312" />

		
<line
   x1="23.6"
   x2="-23.6"
   y1="23.6"
   y2="-23.6"
   fill="none"
   stroke="#5c83be"
   stroke-linecap="round"
   stroke-linejoin="round"
   stroke-width="20"
   id="line314" />

		<g
   transform="translate(0 68.189)"
   id="g318">
<path
   transform="translate(-256 -324.19)"
   d="m168.86 296.33a96 96 0 0 0 174.28 0"
   fill="none"
   stroke="#5c83be"
   stroke-linecap="round"
   stroke-linejoin="round"
   stroke-width="20"
   id="path316" />
</g>
		<g
   transform="translate(0 -68.189)"
   id="g322">
<path
   transform="translate(-256 -187.81)"
   d="m168.86 215.67a96 96 0 0 1 174.28 0"
   fill="none"
   stroke="#5c83be"
   stroke-linecap="round"
   stroke-linejoin="round"
   stroke-width="20"
   id="path320" />
</g>
</g>
</g><g
       transform="matrix(.0834 0 0 .0834 259.72 418.03)"
       id="g364">
<g
   vector-effect="non-scaling-stroke"
   id="g362">
		<g
   id="icon"
   transform="matrix(25,0,0,25,0,-175)">
<rect
   x="-1"
   y="-1"
   width="2"
   height="2"
   rx="0"
   ry="0"
   fill="#5c83be"
   id="rect328" />
</g>
		<g
   transform="matrix(25,0,0,25,100,-175)"
   id="g333">
<rect
   x="-1"
   y="-1"
   width="2"
   height="2"
   rx="0"
   ry="0"
   fill="#5c83be"
   id="rect331" />
</g>
		<g
   transform="matrix(25,0,0,25,-100,-175)"
   id="g337">
<rect
   x="-1"
   y="-1"
   width="2"
   height="2"
   rx="0"
   ry="0"
   fill="#5c83be"
   id="rect335" />
</g>
		<g
   transform="matrix(25,0,0,25,0,62.5)"
   id="g341">
<path
   transform="translate(-16,-18.5)"
   d="m25 16h-8v-3h-2v3h-8a2.0023 2.0023 0 0 0-2 2v6h2v-6h8v6h2v-6h8v6h2v-6a2.0023 2.0023 0 0 0-2-2z"
   fill="#5c83be"
   stroke-linecap="round"
   id="path339" />
</g>
		<g
   transform="matrix(25,0,0,25,-250,300)"
   id="g345">
<rect
   x="-2"
   y="-2"
   width="4"
   height="4"
   rx="0"
   ry="0"
   fill="#5c83be"
   id="rect343" />
</g>
		<g
   transform="matrix(25,0,0,25,0,300)"
   id="g349">
<rect
   x="-2"
   y="-2"
   width="4"
   height="4"
   rx="0"
   ry="0"
   fill="#5c83be"
   id="rect347" />
</g>
		<g
   transform="matrix(25,0,0,25,250,300)"
   id="g353">
<rect
   x="-2"
   y="-2"
   width="4"
   height="4"
   rx="0"
   ry="0"
   fill="#5c83be"
   id="rect351" />
</g>
		<g
   transform="matrix(25,0,0,25,0,-300)"
   id="g357">
<rect
   x="-5"
   y="-1"
   width="10"
   height="2"
   rx="0"
   ry="0"
   fill="#5c83be"
   id="rect355" />
</g>
		<g
   id="_Transparent_Rectangle_"
   transform="scale(25)">
<rect
   x="-16"
   y="-16"
   width="32"
   height="32"
   rx="0"
   ry="0"
   fill="none"
   id="rect359" />
</g>
</g>
</g></g></svg>
