<svg xmlns="http://www.w3.org/2000/svg" xmlns:xlink="http://www.w3.org/1999/xlink" version="1.1" width="940" height="788" viewBox="0 0 940 788" xml:space="preserve">
<desc>Created with Fabric.js 3.5.0</desc>
<defs>
</defs>
<rect x="0" y="0" width="100%" height="100%" fill="#ffffff"/>
<g transform="matrix(1 0 0 1 807.2142 367.1809)" id="783242">
<g style="">
		<g transform="matrix(1 0 0 1 0 -76.8191)" id="575310">
<path style="stroke: none; stroke-width: 1; stroke-dasharray: none; stroke-linecap: butt; stroke-dashoffset: 0; stroke-linejoin: miter; stroke-miterlimit: 4; is-custom-font: none; font-file-url: none; fill: rgb(0,0,0); fill-rule: nonzero; opacity: 1;" vector-effect="non-scaling-stroke" transform=" translate(-12.0915, -12.0015)" d="M 16.86 8 A 4 4 0 0 0 13 5 H 6 V 8 H 2 v 2 H 6 v 3 h 7 a 4 4 0 0 0 3.85 -3 a 3.49 3.49 0 0 1 -0.35 7 H 2 v 2 H 16.5 a 5.5 5.5 0 0 0 0.36 -11 Z" stroke-linecap="round"/>
</g>
		<g transform="matrix(1 0 0 1 0 -26.4491)" id="990081">
<path style="stroke: none; stroke-width: 1; stroke-dasharray: none; stroke-linecap: butt; stroke-dashoffset: 0; stroke-linejoin: miter; stroke-miterlimit: 4; is-custom-font: none; font-file-url: none; fill: rgb(0,0,0); fill-rule: nonzero; opacity: 1;" vector-effect="non-scaling-stroke" transform=" translate(-12.0915, -12.0015)" d="M 16.86 8 A 4 4 0 0 0 13 5 H 6 V 8 H 2 v 2 H 6 v 3 h 7 a 4 4 0 0 0 3.85 -3 a 3.49 3.49 0 0 1 -0.35 7 H 2 v 2 H 16.5 a 5.5 5.5 0 0 0 0.36 -11 Z" stroke-linecap="round"/>
</g>
		<g transform="matrix(1 0 0 1 0 76.8191)" id="49726">
<path style="stroke: none; stroke-width: 1; stroke-dasharray: none; stroke-linecap: butt; stroke-dashoffset: 0; stroke-linejoin: miter; stroke-miterlimit: 4; is-custom-font: none; font-file-url: none; fill: rgb(0,0,0); fill-rule: nonzero; opacity: 1;" vector-effect="non-scaling-stroke" transform=" translate(-12.0915, -12.0015)" d="M 16.86 8 A 4 4 0 0 0 13 5 H 6 V 8 H 2 v 2 H 6 v 3 h 7 a 4 4 0 0 0 3.85 -3 a 3.49 3.49 0 0 1 -0.35 7 H 2 v 2 H 16.5 a 5.5 5.5 0 0 0 0.36 -11 Z" stroke-linecap="round"/>
</g>
</g>
</g>
<g transform="matrix(0.7703 0 0 0.7703 303.4279 478.3465)" id="646438">
<path style="stroke: none; stroke-width: 0; stroke-dasharray: none; stroke-linecap: butt; stroke-dashoffset: 0; stroke-linejoin: miter; stroke-miterlimit: 4; is-custom-font: none; font-file-url: none; fill: rgb(183,191,203); fill-rule: nonzero; opacity: 1;" vector-effect="non-scaling-stroke" transform=" translate(-147.0501, -147.05)" d="M 294.089 25.772 c -0.766 -7.566 -6.988 -13.222 -14.756 -13.222 h -264 C 7.049 12.55 0 18.766 0 27.05 v 158.333 c 0 0.002 0 0.004 0 0.006 v 29.161 c 0 8.284 7.049 15 15.333 15 h 74.618 l -4.416 22 H 64.333 c -8.284 0 -15 6.716 -15 15 s 6.716 15 15 15 h 33.5 h 99 c 0.005 -0.001 0.013 -0.001 0.02 0 h 32.48 c 8.284 0 15 -6.716 15 -15 s -6.716 -15 -15 -15 H 209.13 l -4.416 -22 h 74.618 c 8.284 0 14.667 -6.716 14.667 -15 V 27.05 C 294 26.532 294.14 26.273 294.089 25.772 z M 264 42.55 v 128 H 30 v -128 H 264 z" stroke-linecap="round"/>
</g>
<g transform="matrix(1.0612 0 0 1.0612 668.1777 443.4665)" id="752077">
<g style="">
		<g transform="matrix(1.5975 0 0 0.314 -0.0001 0)" id="636501">
<path style="stroke: rgb(183,191,203); stroke-width: 5; stroke-dasharray: none; stroke-linecap: butt; stroke-dashoffset: 0; stroke-linejoin: miter; stroke-miterlimit: 4; is-custom-font: none; font-file-url: none; fill: rgb(255,255,255); fill-rule: nonzero; opacity: 1;" vector-effect="non-scaling-stroke" transform=" translate(-79, -78.9999)" d="M 154.685 2.50049 H 154.711 L 154.738 2.49994 C 155.15 2.49126 155.491 2.81853 155.5 3.2304 L 155.5 3.23069 C 155.5 3.24095 155.5 3.25176 155.5 3.26283 L 155.499 3.28886 V 3.3149 V 154.686 C 155.499 155.135 155.135 155.5 154.685 155.5 H 3.31409 C 2.86449 155.5 2.5 155.135 2.5 154.686 V 3.3149 C 2.5 2.86483 2.86465 2.50049 3.31409 2.50049 H 154.685 Z" stroke-linecap="round"/>
</g>
		<g transform="matrix(1 0 0 1 45.2306 0)" id="763562">
<g style="">
		<g transform="matrix(0 0.8377 -2.8084 0 58.9877 -0.0002)" id="Layer_2">
<path style="stroke: none; stroke-width: 0; stroke-dasharray: none; stroke-linecap: butt; stroke-dashoffset: 0; stroke-linejoin: miter; stroke-miterlimit: 4; is-custom-font: none; font-file-url: none; fill: rgb(183,191,203); fill-rule: nonzero; opacity: 1;" transform=" translate(-16, -9)" d="M 28 10 H 4 A 1 1 0 0 1 4 8 H 28 a 1 1 0 0 1 0 2 Z" stroke-linecap="round"/>
</g>
		<g transform="matrix(0 0.8377 -2.8084 0 39.3289 -0.0002)" id="Layer_2">
<path style="stroke: none; stroke-width: 0; stroke-dasharray: none; stroke-linecap: butt; stroke-dashoffset: 0; stroke-linejoin: miter; stroke-miterlimit: 4; is-custom-font: none; font-file-url: none; fill: rgb(183,191,203); fill-rule: nonzero; opacity: 1;" transform=" translate(-16, -16)" d="M 28 17 H 4 a 1 1 0 0 1 0 -2 H 28 a 1 1 0 0 1 0 2 Z" stroke-linecap="round"/>
</g>
		<g transform="matrix(0 0.8377 -2.8084 0 19.6702 -0.0002)" id="Layer_2">
<path style="stroke: none; stroke-width: 0; stroke-dasharray: none; stroke-linecap: butt; stroke-dashoffset: 0; stroke-linejoin: miter; stroke-miterlimit: 4; is-custom-font: none; font-file-url: none; fill: rgb(183,191,203); fill-rule: nonzero; opacity: 1;" transform=" translate(-16, -23)" d="M 28 24 H 4 a 1 1 0 0 1 0 -2 H 28 a 1 1 0 0 1 0 2 Z" stroke-linecap="round"/>
</g>
		<g transform="matrix(0 0.8377 -2.8084 0 0.0257 -0.0002)" id="Layer_2">
<path style="stroke: none; stroke-width: 0; stroke-dasharray: none; stroke-linecap: butt; stroke-dashoffset: 0; stroke-linejoin: miter; stroke-miterlimit: 4; is-custom-font: none; font-file-url: none; fill: rgb(183,191,203); fill-rule: nonzero; opacity: 1;" transform=" translate(-16, -9)" d="M 28 10 H 4 A 1 1 0 0 1 4 8 H 28 a 1 1 0 0 1 0 2 Z" stroke-linecap="round"/>
</g>
		<g transform="matrix(0 0.8377 -2.8084 0 -19.6331 -0.0002)" id="Layer_2">
<path style="stroke: none; stroke-width: 0; stroke-dasharray: none; stroke-linecap: butt; stroke-dashoffset: 0; stroke-linejoin: miter; stroke-miterlimit: 4; is-custom-font: none; font-file-url: none; fill: rgb(183,191,203); fill-rule: nonzero; opacity: 1;" transform=" translate(-16, -16)" d="M 28 17 H 4 a 1 1 0 0 1 0 -2 H 28 a 1 1 0 0 1 0 2 Z" stroke-linecap="round"/>
</g>
		<g transform="matrix(0 0.8377 -2.8084 0 -39.2917 -0.0002)" id="Layer_2">
<path style="stroke: none; stroke-width: 0; stroke-dasharray: none; stroke-linecap: butt; stroke-dashoffset: 0; stroke-linejoin: miter; stroke-miterlimit: 4; is-custom-font: none; font-file-url: none; fill: rgb(183,191,203); fill-rule: nonzero; opacity: 1;" transform=" translate(-16, -23)" d="M 28 24 H 4 a 1 1 0 0 1 0 -2 H 28 a 1 1 0 0 1 0 2 Z" stroke-linecap="round"/>
</g>
		<g transform="matrix(0 0.8377 -2.8084 0 -58.9877 -0.0002)" id="Layer_2">
<path style="stroke: none; stroke-width: 0; stroke-dasharray: none; stroke-linecap: butt; stroke-dashoffset: 0; stroke-linejoin: miter; stroke-miterlimit: 4; is-custom-font: none; font-file-url: none; fill: rgb(183,191,203); fill-rule: nonzero; opacity: 1;" transform=" translate(-16, -16)" d="M 28 17 H 4 a 1 1 0 0 1 0 -2 H 28 a 1 1 0 0 1 0 2 Z" stroke-linecap="round"/>
</g>
</g>
</g>
		<g transform="matrix(1 0 0 1 -95.8611 -0.0021)" id="483744">
<g style="">
		<g transform="matrix(0.1467 0 0 0.0869 -9.2218 0.0009)" id="61229">
<path style="stroke: none; stroke-width: 0; stroke-dasharray: none; stroke-linecap: butt; stroke-dashoffset: 0; stroke-linejoin: miter; stroke-miterlimit: 4; is-custom-font: none; font-file-url: none; fill: rgb(0,153,255); fill-rule: nonzero; opacity: 1;" vector-effect="non-scaling-stroke" transform=" translate(-78.4998, -78.5)" d="M 78.5 0 C 52.9419 0 32.1166 35.2271 32.1166 78.5 C 32.1166 121.773 52.9419 157 78.5 157 C 104.058 157 124.883 121.773 124.883 78.5 C 124.883 35.2271 104.058 0 78.5 0 Z" stroke-linecap="round"/>
</g>
		<g transform="matrix(0.1467 0 0 0.0869 9.2217 -0.001)" id="81755">
<path style="stroke: none; stroke-width: 0; stroke-dasharray: none; stroke-linecap: butt; stroke-dashoffset: 0; stroke-linejoin: miter; stroke-miterlimit: 4; is-custom-font: none; font-file-url: none; fill: rgb(183,191,203); fill-rule: nonzero; opacity: 1;" vector-effect="non-scaling-stroke" transform=" translate(-78.4998, -78.5)" d="M 78.5 0 C 52.9419 0 32.1166 35.2271 32.1166 78.5 C 32.1166 121.773 52.9419 157 78.5 157 C 104.058 157 124.883 121.773 124.883 78.5 C 124.883 35.2271 104.058 0 78.5 0 Z" stroke-linecap="round"/>
</g>
</g>
</g>
</g>
</g>
<g transform="matrix(1.0612 0 0 1.0612 668.1777 494.5908)" id="50071">
<g style="">
		<g transform="matrix(1.5975 0 0 0.314 -0.0001 0)" id="696108">
<path style="stroke: rgb(183,191,203); stroke-width: 5; stroke-dasharray: none; stroke-linecap: butt; stroke-dashoffset: 0; stroke-linejoin: miter; stroke-miterlimit: 4; is-custom-font: none; font-file-url: none; fill: rgb(255,255,255); fill-rule: nonzero; opacity: 1;" vector-effect="non-scaling-stroke" transform=" translate(-79, -78.9999)" d="M 154.685 2.50049 H 154.711 L 154.738 2.49994 C 155.15 2.49126 155.491 2.81853 155.5 3.2304 L 155.5 3.23069 C 155.5 3.24095 155.5 3.25176 155.5 3.26283 L 155.499 3.28886 V 3.3149 V 154.686 C 155.499 155.135 155.135 155.5 154.685 155.5 H 3.31409 C 2.86449 155.5 2.5 155.135 2.5 154.686 V 3.3149 C 2.5 2.86483 2.86465 2.50049 3.31409 2.50049 H 154.685 Z" stroke-linecap="round"/>
</g>
		<g transform="matrix(1 0 0 1 45.2306 0)" id="915377">
<g style="">
		<g transform="matrix(0 0.8377 -2.8084 0 58.9877 -0.0002)" id="Layer_2">
<path style="stroke: none; stroke-width: 0; stroke-dasharray: none; stroke-linecap: butt; stroke-dashoffset: 0; stroke-linejoin: miter; stroke-miterlimit: 4; is-custom-font: none; font-file-url: none; fill: rgb(183,191,203); fill-rule: nonzero; opacity: 1;" transform=" translate(-16, -9)" d="M 28 10 H 4 A 1 1 0 0 1 4 8 H 28 a 1 1 0 0 1 0 2 Z" stroke-linecap="round"/>
</g>
		<g transform="matrix(0 0.8377 -2.8084 0 39.3289 -0.0002)" id="Layer_2">
<path style="stroke: none; stroke-width: 0; stroke-dasharray: none; stroke-linecap: butt; stroke-dashoffset: 0; stroke-linejoin: miter; stroke-miterlimit: 4; is-custom-font: none; font-file-url: none; fill: rgb(183,191,203); fill-rule: nonzero; opacity: 1;" transform=" translate(-16, -16)" d="M 28 17 H 4 a 1 1 0 0 1 0 -2 H 28 a 1 1 0 0 1 0 2 Z" stroke-linecap="round"/>
</g>
		<g transform="matrix(0 0.8377 -2.8084 0 19.6702 -0.0002)" id="Layer_2">
<path style="stroke: none; stroke-width: 0; stroke-dasharray: none; stroke-linecap: butt; stroke-dashoffset: 0; stroke-linejoin: miter; stroke-miterlimit: 4; is-custom-font: none; font-file-url: none; fill: rgb(183,191,203); fill-rule: nonzero; opacity: 1;" transform=" translate(-16, -23)" d="M 28 24 H 4 a 1 1 0 0 1 0 -2 H 28 a 1 1 0 0 1 0 2 Z" stroke-linecap="round"/>
</g>
		<g transform="matrix(0 0.8377 -2.8084 0 0.0257 -0.0002)" id="Layer_2">
<path style="stroke: none; stroke-width: 0; stroke-dasharray: none; stroke-linecap: butt; stroke-dashoffset: 0; stroke-linejoin: miter; stroke-miterlimit: 4; is-custom-font: none; font-file-url: none; fill: rgb(183,191,203); fill-rule: nonzero; opacity: 1;" transform=" translate(-16, -9)" d="M 28 10 H 4 A 1 1 0 0 1 4 8 H 28 a 1 1 0 0 1 0 2 Z" stroke-linecap="round"/>
</g>
		<g transform="matrix(0 0.8377 -2.8084 0 -19.6331 -0.0002)" id="Layer_2">
<path style="stroke: none; stroke-width: 0; stroke-dasharray: none; stroke-linecap: butt; stroke-dashoffset: 0; stroke-linejoin: miter; stroke-miterlimit: 4; is-custom-font: none; font-file-url: none; fill: rgb(183,191,203); fill-rule: nonzero; opacity: 1;" transform=" translate(-16, -16)" d="M 28 17 H 4 a 1 1 0 0 1 0 -2 H 28 a 1 1 0 0 1 0 2 Z" stroke-linecap="round"/>
</g>
		<g transform="matrix(0 0.8377 -2.8084 0 -39.2917 -0.0002)" id="Layer_2">
<path style="stroke: none; stroke-width: 0; stroke-dasharray: none; stroke-linecap: butt; stroke-dashoffset: 0; stroke-linejoin: miter; stroke-miterlimit: 4; is-custom-font: none; font-file-url: none; fill: rgb(183,191,203); fill-rule: nonzero; opacity: 1;" transform=" translate(-16, -23)" d="M 28 24 H 4 a 1 1 0 0 1 0 -2 H 28 a 1 1 0 0 1 0 2 Z" stroke-linecap="round"/>
</g>
		<g transform="matrix(0 0.8377 -2.8084 0 -58.9877 -0.0002)" id="Layer_2">
<path style="stroke: none; stroke-width: 0; stroke-dasharray: none; stroke-linecap: butt; stroke-dashoffset: 0; stroke-linejoin: miter; stroke-miterlimit: 4; is-custom-font: none; font-file-url: none; fill: rgb(183,191,203); fill-rule: nonzero; opacity: 1;" transform=" translate(-16, -16)" d="M 28 17 H 4 a 1 1 0 0 1 0 -2 H 28 a 1 1 0 0 1 0 2 Z" stroke-linecap="round"/>
</g>
</g>
</g>
		<g transform="matrix(1 0 0 1 -95.8611 -0.0021)" id="838963">
<g style="">
		<g transform="matrix(0.1467 0 0 0.0869 -9.2218 0.0009)" id="61229">
<path style="stroke: none; stroke-width: 0; stroke-dasharray: none; stroke-linecap: butt; stroke-dashoffset: 0; stroke-linejoin: miter; stroke-miterlimit: 4; is-custom-font: none; font-file-url: none; fill: rgb(0,153,255); fill-rule: nonzero; opacity: 1;" vector-effect="non-scaling-stroke" transform=" translate(-78.4998, -78.5)" d="M 78.5 0 C 52.9419 0 32.1166 35.2271 32.1166 78.5 C 32.1166 121.773 52.9419 157 78.5 157 C 104.058 157 124.883 121.773 124.883 78.5 C 124.883 35.2271 104.058 0 78.5 0 Z" stroke-linecap="round"/>
</g>
		<g transform="matrix(0.1467 0 0 0.0869 9.2217 -0.001)" id="81755">
<path style="stroke: none; stroke-width: 0; stroke-dasharray: none; stroke-linecap: butt; stroke-dashoffset: 0; stroke-linejoin: miter; stroke-miterlimit: 4; is-custom-font: none; font-file-url: none; fill: rgb(183,191,203); fill-rule: nonzero; opacity: 1;" vector-effect="non-scaling-stroke" transform=" translate(-78.4998, -78.5)" d="M 78.5 0 C 52.9419 0 32.1166 35.2271 32.1166 78.5 C 32.1166 121.773 52.9419 157 78.5 157 C 104.058 157 124.883 121.773 124.883 78.5 C 124.883 35.2271 104.058 0 78.5 0 Z" stroke-linecap="round"/>
</g>
</g>
</g>
</g>
</g>
<g transform="matrix(0.1567 0 0 0.0353 461.0118 274.9486)" id="922688">
<path style="stroke: none; stroke-width: 0; stroke-dasharray: none; stroke-linecap: butt; stroke-dashoffset: 0; stroke-linejoin: miter; stroke-miterlimit: 4; is-custom-font: none; font-file-url: none; fill: rgb(0,0,0); fill-rule: nonzero; opacity: 1;" vector-effect="non-scaling-stroke" transform=" translate(-512, -512)" d="M 904 476 H 120 c -4.4 0 -8 3.6 -8 8 v 56 c 0 4.4 3.6 8 8 8 h 784 c 4.4 0 8 -3.6 8 -8 v -56 c 0 -4.4 -3.6 -8 -8 -8 z" stroke-linecap="round"/>
</g>
<g transform="matrix(4.9564 0 0 4.7241 342.3214 443.4656)" id="528499">
<path style="stroke: rgb(92,131,190); stroke-width: 5; stroke-dasharray: none; stroke-linecap: round; stroke-dashoffset: 0; stroke-linejoin: round; stroke-miterlimit: 4; is-custom-font: none; font-file-url: none; fill: none; fill-rule: nonzero; opacity: 1;" vector-effect="non-scaling-stroke" transform=" translate(-12, -12)" d="M 5 8 H 19 M 5 12 H 19 M 5 16 H 11" stroke-linecap="round"/>
</g>
<g transform="matrix(0 0.0651 -0.0417 0 357.6099 342.4625)" id="525840">
<path style="stroke: none; stroke-width: 0; stroke-dasharray: none; stroke-linecap: butt; stroke-dashoffset: 0; stroke-linejoin: miter; stroke-miterlimit: 4; is-custom-font: none; font-file-url: none; fill: rgb(0,0,0); fill-rule: nonzero; opacity: 1;" vector-effect="non-scaling-stroke" transform=" translate(-512, -512)" d="M 904 476 H 120 c -4.4 0 -8 3.6 -8 8 v 56 c 0 4.4 3.6 8 8 8 h 784 c 4.4 0 8 -3.6 8 -8 v -56 c 0 -4.4 -3.6 -8 -8 -8 z" stroke-linecap="round"/>
</g>
<g transform="matrix(1.0201 0 0 0.1794 469.5105 578.6665)" id="755493">
<path style="stroke: none; stroke-width: 0; stroke-dasharray: none; stroke-linecap: butt; stroke-dashoffset: 0; stroke-linejoin: miter; stroke-miterlimit: 4; is-custom-font: none; font-file-url: none; fill: rgb(183,191,203); fill-rule: nonzero; opacity: 1;" vector-effect="non-scaling-stroke" transform=" translate(-512, -512)" d="M 904 476 H 120 c -4.4 0 -8 3.6 -8 8 v 56 c 0 4.4 3.6 8 8 8 h 784 c 4.4 0 8 -3.6 8 -8 v -56 c 0 -4.4 -3.6 -8 -8 -8 z" stroke-linecap="round"/>
</g>
<g transform="matrix(1.0612 0 0 1.0612 668.1777 341.3276)" id="410936">
<g style="">
		<g transform="matrix(1.5975 0 0 0.314 -0.0001 0)" id="581033">
<path style="stroke: rgb(183,191,203); stroke-width: 5; stroke-dasharray: none; stroke-linecap: butt; stroke-dashoffset: 0; stroke-linejoin: miter; stroke-miterlimit: 4; is-custom-font: none; font-file-url: none; fill: rgb(255,255,255); fill-rule: nonzero; opacity: 1;" vector-effect="non-scaling-stroke" transform=" translate(-79, -78.9999)" d="M 154.685 2.50049 H 154.711 L 154.738 2.49994 C 155.15 2.49126 155.491 2.81853 155.5 3.2304 L 155.5 3.23069 C 155.5 3.24095 155.5 3.25176 155.5 3.26283 L 155.499 3.28886 V 3.3149 V 154.686 C 155.499 155.135 155.135 155.5 154.685 155.5 H 3.31409 C 2.86449 155.5 2.5 155.135 2.5 154.686 V 3.3149 C 2.5 2.86483 2.86465 2.50049 3.31409 2.50049 H 154.685 Z" stroke-linecap="round"/>
</g>
		<g transform="matrix(1 0 0 1 45.2306 0)" id="293083">
<g style="">
		<g transform="matrix(0 0.8377 -2.8084 0 58.9877 -0.0002)" id="Layer_2">
<path style="stroke: none; stroke-width: 0; stroke-dasharray: none; stroke-linecap: butt; stroke-dashoffset: 0; stroke-linejoin: miter; stroke-miterlimit: 4; is-custom-font: none; font-file-url: none; fill: rgb(183,191,203); fill-rule: nonzero; opacity: 1;" transform=" translate(-16, -9)" d="M 28 10 H 4 A 1 1 0 0 1 4 8 H 28 a 1 1 0 0 1 0 2 Z" stroke-linecap="round"/>
</g>
		<g transform="matrix(0 0.8377 -2.8084 0 39.3289 -0.0002)" id="Layer_2">
<path style="stroke: none; stroke-width: 0; stroke-dasharray: none; stroke-linecap: butt; stroke-dashoffset: 0; stroke-linejoin: miter; stroke-miterlimit: 4; is-custom-font: none; font-file-url: none; fill: rgb(183,191,203); fill-rule: nonzero; opacity: 1;" transform=" translate(-16, -16)" d="M 28 17 H 4 a 1 1 0 0 1 0 -2 H 28 a 1 1 0 0 1 0 2 Z" stroke-linecap="round"/>
</g>
		<g transform="matrix(0 0.8377 -2.8084 0 19.6702 -0.0002)" id="Layer_2">
<path style="stroke: none; stroke-width: 0; stroke-dasharray: none; stroke-linecap: butt; stroke-dashoffset: 0; stroke-linejoin: miter; stroke-miterlimit: 4; is-custom-font: none; font-file-url: none; fill: rgb(183,191,203); fill-rule: nonzero; opacity: 1;" transform=" translate(-16, -23)" d="M 28 24 H 4 a 1 1 0 0 1 0 -2 H 28 a 1 1 0 0 1 0 2 Z" stroke-linecap="round"/>
</g>
		<g transform="matrix(0 0.8377 -2.8084 0 0.0257 -0.0002)" id="Layer_2">
<path style="stroke: none; stroke-width: 0; stroke-dasharray: none; stroke-linecap: butt; stroke-dashoffset: 0; stroke-linejoin: miter; stroke-miterlimit: 4; is-custom-font: none; font-file-url: none; fill: rgb(183,191,203); fill-rule: nonzero; opacity: 1;" transform=" translate(-16, -9)" d="M 28 10 H 4 A 1 1 0 0 1 4 8 H 28 a 1 1 0 0 1 0 2 Z" stroke-linecap="round"/>
</g>
		<g transform="matrix(0 0.8377 -2.8084 0 -19.6331 -0.0002)" id="Layer_2">
<path style="stroke: none; stroke-width: 0; stroke-dasharray: none; stroke-linecap: butt; stroke-dashoffset: 0; stroke-linejoin: miter; stroke-miterlimit: 4; is-custom-font: none; font-file-url: none; fill: rgb(183,191,203); fill-rule: nonzero; opacity: 1;" transform=" translate(-16, -16)" d="M 28 17 H 4 a 1 1 0 0 1 0 -2 H 28 a 1 1 0 0 1 0 2 Z" stroke-linecap="round"/>
</g>
		<g transform="matrix(0 0.8377 -2.8084 0 -39.2917 -0.0002)" id="Layer_2">
<path style="stroke: none; stroke-width: 0; stroke-dasharray: none; stroke-linecap: butt; stroke-dashoffset: 0; stroke-linejoin: miter; stroke-miterlimit: 4; is-custom-font: none; font-file-url: none; fill: rgb(183,191,203); fill-rule: nonzero; opacity: 1;" transform=" translate(-16, -23)" d="M 28 24 H 4 a 1 1 0 0 1 0 -2 H 28 a 1 1 0 0 1 0 2 Z" stroke-linecap="round"/>
</g>
		<g transform="matrix(0 0.8377 -2.8084 0 -58.9877 -0.0002)" id="Layer_2">
<path style="stroke: none; stroke-width: 0; stroke-dasharray: none; stroke-linecap: butt; stroke-dashoffset: 0; stroke-linejoin: miter; stroke-miterlimit: 4; is-custom-font: none; font-file-url: none; fill: rgb(183,191,203); fill-rule: nonzero; opacity: 1;" transform=" translate(-16, -16)" d="M 28 17 H 4 a 1 1 0 0 1 0 -2 H 28 a 1 1 0 0 1 0 2 Z" stroke-linecap="round"/>
</g>
</g>
</g>
		<g transform="matrix(1 0 0 1 -95.8611 -0.0021)" id="921998">
<g style="">
		<g transform="matrix(0.1467 0 0 0.0869 -9.2218 0.0009)" id="61229">
<path style="stroke: none; stroke-width: 0; stroke-dasharray: none; stroke-linecap: butt; stroke-dashoffset: 0; stroke-linejoin: miter; stroke-miterlimit: 4; is-custom-font: none; font-file-url: none; fill: rgb(0,153,255); fill-rule: nonzero; opacity: 1;" vector-effect="non-scaling-stroke" transform=" translate(-78.4998, -78.5)" d="M 78.5 0 C 52.9419 0 32.1166 35.2271 32.1166 78.5 C 32.1166 121.773 52.9419 157 78.5 157 C 104.058 157 124.883 121.773 124.883 78.5 C 124.883 35.2271 104.058 0 78.5 0 Z" stroke-linecap="round"/>
</g>
		<g transform="matrix(0.1467 0 0 0.0869 9.2217 -0.001)" id="81755">
<path style="stroke: none; stroke-width: 0; stroke-dasharray: none; stroke-linecap: butt; stroke-dashoffset: 0; stroke-linejoin: miter; stroke-miterlimit: 4; is-custom-font: none; font-file-url: none; fill: rgb(183,191,203); fill-rule: nonzero; opacity: 1;" vector-effect="non-scaling-stroke" transform=" translate(-78.4998, -78.5)" d="M 78.5 0 C 52.9419 0 32.1166 35.2271 32.1166 78.5 C 32.1166 121.773 52.9419 157 78.5 157 C 104.058 157 124.883 121.773 124.883 78.5 C 124.883 35.2271 104.058 0 78.5 0 Z" stroke-linecap="round"/>
</g>
</g>
</g>
</g>
</g>
<g transform="matrix(1 0 0 1 668.1776 392.4421)" id="512161">
<g style="">
		<g transform="matrix(1.6953 0 0 0.3332 0.0025 -0.0013)" id="957797">
<path style="stroke: rgb(183,191,203); stroke-width: 5; stroke-dasharray: none; stroke-linecap: butt; stroke-dashoffset: 0; stroke-linejoin: miter; stroke-miterlimit: 4; is-custom-font: none; font-file-url: none; fill: rgb(255,255,255); fill-rule: nonzero; opacity: 1;" vector-effect="non-scaling-stroke" transform=" translate(-79, -78.9999)" d="M 154.685 2.50049 H 154.711 L 154.738 2.49994 C 155.15 2.49126 155.491 2.81853 155.5 3.2304 L 155.5 3.23069 C 155.5 3.24095 155.5 3.25176 155.5 3.26283 L 155.499 3.28886 V 3.3149 V 154.686 C 155.499 155.135 155.135 155.5 154.685 155.5 H 3.31409 C 2.86449 155.5 2.5 155.135 2.5 154.686 V 3.3149 C 2.5 2.86483 2.86465 2.50049 3.31409 2.50049 H 154.685 Z" stroke-linecap="round"/>
</g>
		<g transform="matrix(1.0612 0 0 1.0612 47.9987 0)" id="883021">
<g style="">
		<g transform="matrix(0 0.8377 -2.8084 0 58.9877 -0.0002)" id="Layer_2">
<path style="stroke: none; stroke-width: 0; stroke-dasharray: none; stroke-linecap: butt; stroke-dashoffset: 0; stroke-linejoin: miter; stroke-miterlimit: 4; is-custom-font: none; font-file-url: none; fill: rgb(183,191,203); fill-rule: nonzero; opacity: 1;" transform=" translate(-16, -9)" d="M 28 10 H 4 A 1 1 0 0 1 4 8 H 28 a 1 1 0 0 1 0 2 Z" stroke-linecap="round"/>
</g>
		<g transform="matrix(0 0.8377 -2.8084 0 39.3289 -0.0002)" id="Layer_2">
<path style="stroke: none; stroke-width: 0; stroke-dasharray: none; stroke-linecap: butt; stroke-dashoffset: 0; stroke-linejoin: miter; stroke-miterlimit: 4; is-custom-font: none; font-file-url: none; fill: rgb(183,191,203); fill-rule: nonzero; opacity: 1;" transform=" translate(-16, -16)" d="M 28 17 H 4 a 1 1 0 0 1 0 -2 H 28 a 1 1 0 0 1 0 2 Z" stroke-linecap="round"/>
</g>
		<g transform="matrix(0 0.8377 -2.8084 0 19.6702 -0.0002)" id="Layer_2">
<path style="stroke: none; stroke-width: 0; stroke-dasharray: none; stroke-linecap: butt; stroke-dashoffset: 0; stroke-linejoin: miter; stroke-miterlimit: 4; is-custom-font: none; font-file-url: none; fill: rgb(183,191,203); fill-rule: nonzero; opacity: 1;" transform=" translate(-16, -23)" d="M 28 24 H 4 a 1 1 0 0 1 0 -2 H 28 a 1 1 0 0 1 0 2 Z" stroke-linecap="round"/>
</g>
		<g transform="matrix(0 0.8377 -2.8084 0 0.0257 -0.0002)" id="Layer_2">
<path style="stroke: none; stroke-width: 0; stroke-dasharray: none; stroke-linecap: butt; stroke-dashoffset: 0; stroke-linejoin: miter; stroke-miterlimit: 4; is-custom-font: none; font-file-url: none; fill: rgb(183,191,203); fill-rule: nonzero; opacity: 1;" transform=" translate(-16, -9)" d="M 28 10 H 4 A 1 1 0 0 1 4 8 H 28 a 1 1 0 0 1 0 2 Z" stroke-linecap="round"/>
</g>
		<g transform="matrix(0 0.8377 -2.8084 0 -19.6331 -0.0002)" id="Layer_2">
<path style="stroke: none; stroke-width: 0; stroke-dasharray: none; stroke-linecap: butt; stroke-dashoffset: 0; stroke-linejoin: miter; stroke-miterlimit: 4; is-custom-font: none; font-file-url: none; fill: rgb(183,191,203); fill-rule: nonzero; opacity: 1;" transform=" translate(-16, -16)" d="M 28 17 H 4 a 1 1 0 0 1 0 -2 H 28 a 1 1 0 0 1 0 2 Z" stroke-linecap="round"/>
</g>
		<g transform="matrix(0 0.8377 -2.8084 0 -39.2917 -0.0002)" id="Layer_2">
<path style="stroke: none; stroke-width: 0; stroke-dasharray: none; stroke-linecap: butt; stroke-dashoffset: 0; stroke-linejoin: miter; stroke-miterlimit: 4; is-custom-font: none; font-file-url: none; fill: rgb(183,191,203); fill-rule: nonzero; opacity: 1;" transform=" translate(-16, -23)" d="M 28 24 H 4 a 1 1 0 0 1 0 -2 H 28 a 1 1 0 0 1 0 2 Z" stroke-linecap="round"/>
</g>
		<g transform="matrix(0 0.8377 -2.8084 0 -58.9877 -0.0002)" id="Layer_2">
<path style="stroke: none; stroke-width: 0; stroke-dasharray: none; stroke-linecap: butt; stroke-dashoffset: 0; stroke-linejoin: miter; stroke-miterlimit: 4; is-custom-font: none; font-file-url: none; fill: rgb(183,191,203); fill-rule: nonzero; opacity: 1;" transform=" translate(-16, -16)" d="M 28 17 H 4 a 1 1 0 0 1 0 -2 H 28 a 1 1 0 0 1 0 2 Z" stroke-linecap="round"/>
</g>
</g>
</g>
		<g transform="matrix(1 0 0 1 -101.7278 -0.0023)" id="336868">
<g style="">
		<g transform="matrix(0.1557 0 0 0.0922 -9.7851 -0.0004)" id="61229">
<path style="stroke: none; stroke-width: 0; stroke-dasharray: none; stroke-linecap: butt; stroke-dashoffset: 0; stroke-linejoin: miter; stroke-miterlimit: 4; is-custom-font: none; font-file-url: none; fill: rgb(0,153,255); fill-rule: nonzero; opacity: 1;" vector-effect="non-scaling-stroke" transform=" translate(-78.4998, -78.5)" d="M 78.5 0 C 52.9419 0 32.1166 35.2271 32.1166 78.5 C 32.1166 121.773 52.9419 157 78.5 157 C 104.058 157 124.883 121.773 124.883 78.5 C 124.883 35.2271 104.058 0 78.5 0 Z" stroke-linecap="round"/>
</g>
		<g transform="matrix(0.1557 0 0 0.0922 9.7872 -0.0024)" id="81755">
<path style="stroke: none; stroke-width: 0; stroke-dasharray: none; stroke-linecap: butt; stroke-dashoffset: 0; stroke-linejoin: miter; stroke-miterlimit: 4; is-custom-font: none; font-file-url: none; fill: rgb(247,147,30); fill-rule: nonzero; opacity: 1;" vector-effect="non-scaling-stroke" transform=" translate(-78.4998, -78.5)" d="M 78.5 0 C 52.9419 0 32.1166 35.2271 32.1166 78.5 C 32.1166 121.773 52.9419 157 78.5 157 C 104.058 157 124.883 121.773 124.883 78.5 C 124.883 35.2271 104.058 0 78.5 0 Z" stroke-linecap="round"/>
</g>
</g>
</g>
</g>
</g>
<g transform="matrix(1 0 0 1 668.1801 545.708)" id="143712">
<g style="">
		<g transform="matrix(1.6953 0 0 0.3332 0 0)" id="900434">
<path style="stroke: rgb(183,191,203); stroke-width: 5; stroke-dasharray: none; stroke-linecap: butt; stroke-dashoffset: 0; stroke-linejoin: miter; stroke-miterlimit: 4; is-custom-font: none; font-file-url: none; fill: rgb(255,255,255); fill-rule: nonzero; opacity: 1;" vector-effect="non-scaling-stroke" transform=" translate(-79, -78.9999)" d="M 154.685 2.50049 H 154.711 L 154.738 2.49994 C 155.15 2.49126 155.491 2.81853 155.5 3.2304 L 155.5 3.23069 C 155.5 3.24095 155.5 3.25176 155.5 3.26283 L 155.499 3.28886 V 3.3149 V 154.686 C 155.499 155.135 155.135 155.5 154.685 155.5 H 3.31409 C 2.86449 155.5 2.5 155.135 2.5 154.686 V 3.3149 C 2.5 2.86483 2.86465 2.50049 3.31409 2.50049 H 154.685 Z" stroke-linecap="round"/>
</g>
		<g transform="matrix(1 0 0 1 -101.7301 -0.001)" id="860095">
<g style="">
		<g transform="matrix(0.1557 0 0 0.0922 -9.7851 -0.0004)" id="61229">
<path style="stroke: none; stroke-width: 0; stroke-dasharray: none; stroke-linecap: butt; stroke-dashoffset: 0; stroke-linejoin: miter; stroke-miterlimit: 4; is-custom-font: none; font-file-url: none; fill: rgb(0,153,255); fill-rule: nonzero; opacity: 1;" vector-effect="non-scaling-stroke" transform=" translate(-78.4998, -78.5)" d="M 78.5 0 C 52.9419 0 32.1166 35.2271 32.1166 78.5 C 32.1166 121.773 52.9419 157 78.5 157 C 104.058 157 124.883 121.773 124.883 78.5 C 124.883 35.2271 104.058 0 78.5 0 Z" stroke-linecap="round"/>
</g>
		<g transform="matrix(0.1557 0 0 0.0922 9.7872 -0.0024)" id="81755">
<path style="stroke: none; stroke-width: 0; stroke-dasharray: none; stroke-linecap: butt; stroke-dashoffset: 0; stroke-linejoin: miter; stroke-miterlimit: 4; is-custom-font: none; font-file-url: none; fill: rgb(255,51,51); fill-rule: nonzero; opacity: 1;" vector-effect="non-scaling-stroke" transform=" translate(-78.4998, -78.5)" d="M 78.5 0 C 52.9419 0 32.1166 35.2271 32.1166 78.5 C 32.1166 121.773 52.9419 157 78.5 157 C 104.058 157 124.883 121.773 124.883 78.5 C 124.883 35.2271 104.058 0 78.5 0 Z" stroke-linecap="round"/>
</g>
</g>
</g>
		<g transform="matrix(1.0612 0 0 1.0612 47.9963 0.0013)" id="66454">
<g style="">
		<g transform="matrix(0 0.8377 -2.8084 0 58.9877 -0.0002)" id="Layer_2">
<path style="stroke: none; stroke-width: 0; stroke-dasharray: none; stroke-linecap: butt; stroke-dashoffset: 0; stroke-linejoin: miter; stroke-miterlimit: 4; is-custom-font: none; font-file-url: none; fill: rgb(183,191,203); fill-rule: nonzero; opacity: 1;" transform=" translate(-16, -9)" d="M 28 10 H 4 A 1 1 0 0 1 4 8 H 28 a 1 1 0 0 1 0 2 Z" stroke-linecap="round"/>
</g>
		<g transform="matrix(0 0.8377 -2.8084 0 39.3289 -0.0002)" id="Layer_2">
<path style="stroke: none; stroke-width: 0; stroke-dasharray: none; stroke-linecap: butt; stroke-dashoffset: 0; stroke-linejoin: miter; stroke-miterlimit: 4; is-custom-font: none; font-file-url: none; fill: rgb(183,191,203); fill-rule: nonzero; opacity: 1;" transform=" translate(-16, -16)" d="M 28 17 H 4 a 1 1 0 0 1 0 -2 H 28 a 1 1 0 0 1 0 2 Z" stroke-linecap="round"/>
</g>
		<g transform="matrix(0 0.8377 -2.8084 0 19.6702 -0.0002)" id="Layer_2">
<path style="stroke: none; stroke-width: 0; stroke-dasharray: none; stroke-linecap: butt; stroke-dashoffset: 0; stroke-linejoin: miter; stroke-miterlimit: 4; is-custom-font: none; font-file-url: none; fill: rgb(183,191,203); fill-rule: nonzero; opacity: 1;" transform=" translate(-16, -23)" d="M 28 24 H 4 a 1 1 0 0 1 0 -2 H 28 a 1 1 0 0 1 0 2 Z" stroke-linecap="round"/>
</g>
		<g transform="matrix(0 0.8377 -2.8084 0 0.0257 -0.0002)" id="Layer_2">
<path style="stroke: none; stroke-width: 0; stroke-dasharray: none; stroke-linecap: butt; stroke-dashoffset: 0; stroke-linejoin: miter; stroke-miterlimit: 4; is-custom-font: none; font-file-url: none; fill: rgb(183,191,203); fill-rule: nonzero; opacity: 1;" transform=" translate(-16, -9)" d="M 28 10 H 4 A 1 1 0 0 1 4 8 H 28 a 1 1 0 0 1 0 2 Z" stroke-linecap="round"/>
</g>
		<g transform="matrix(0 0.8377 -2.8084 0 -19.6331 -0.0002)" id="Layer_2">
<path style="stroke: none; stroke-width: 0; stroke-dasharray: none; stroke-linecap: butt; stroke-dashoffset: 0; stroke-linejoin: miter; stroke-miterlimit: 4; is-custom-font: none; font-file-url: none; fill: rgb(183,191,203); fill-rule: nonzero; opacity: 1;" transform=" translate(-16, -16)" d="M 28 17 H 4 a 1 1 0 0 1 0 -2 H 28 a 1 1 0 0 1 0 2 Z" stroke-linecap="round"/>
</g>
		<g transform="matrix(0 0.8377 -2.8084 0 -39.2917 -0.0002)" id="Layer_2">
<path style="stroke: none; stroke-width: 0; stroke-dasharray: none; stroke-linecap: butt; stroke-dashoffset: 0; stroke-linejoin: miter; stroke-miterlimit: 4; is-custom-font: none; font-file-url: none; fill: rgb(183,191,203); fill-rule: nonzero; opacity: 1;" transform=" translate(-16, -23)" d="M 28 24 H 4 a 1 1 0 0 1 0 -2 H 28 a 1 1 0 0 1 0 2 Z" stroke-linecap="round"/>
</g>
		<g transform="matrix(0 0.8377 -2.8084 0 -58.9877 -0.0002)" id="Layer_2">
<path style="stroke: none; stroke-width: 0; stroke-dasharray: none; stroke-linecap: butt; stroke-dashoffset: 0; stroke-linejoin: miter; stroke-miterlimit: 4; is-custom-font: none; font-file-url: none; fill: rgb(183,191,203); fill-rule: nonzero; opacity: 1;" transform=" translate(-16, -16)" d="M 28 17 H 4 a 1 1 0 0 1 0 -2 H 28 a 1 1 0 0 1 0 2 Z" stroke-linecap="round"/>
</g>
</g>
</g>
</g>
</g>
<g transform="matrix(1 0 0 1 668.1776 290.1796)" id="242570">
<g style="">
		<g transform="matrix(1.6953 0 0 0.3332 0.0025 -0.0013)" id="364676">
<path style="stroke: rgb(183,191,203); stroke-width: 5; stroke-dasharray: none; stroke-linecap: butt; stroke-dashoffset: 0; stroke-linejoin: miter; stroke-miterlimit: 4; is-custom-font: none; font-file-url: none; fill: rgb(255,255,255); fill-rule: nonzero; opacity: 1;" vector-effect="non-scaling-stroke" transform=" translate(-79, -78.9999)" d="M 154.685 2.50049 H 154.711 L 154.738 2.49994 C 155.15 2.49126 155.491 2.81853 155.5 3.2304 L 155.5 3.23069 C 155.5 3.24095 155.5 3.25176 155.5 3.26283 L 155.499 3.28886 V 3.3149 V 154.686 C 155.499 155.135 155.135 155.5 154.685 155.5 H 3.31409 C 2.86449 155.5 2.5 155.135 2.5 154.686 V 3.3149 C 2.5 2.86483 2.86465 2.50049 3.31409 2.50049 H 154.685 Z" stroke-linecap="round"/>
</g>
		<g transform="matrix(1 0 0 1 -101.7278 -0.0023)" id="231833">
<g style="">
		<g transform="matrix(0.1557 0 0 0.0922 -9.7851 -0.0004)" id="61229">
<path style="stroke: none; stroke-width: 0; stroke-dasharray: none; stroke-linecap: butt; stroke-dashoffset: 0; stroke-linejoin: miter; stroke-miterlimit: 4; is-custom-font: none; font-file-url: none; fill: rgb(183,191,203); fill-rule: nonzero; opacity: 1;" vector-effect="non-scaling-stroke" transform=" translate(-78.4998, -78.5)" d="M 78.5 0 C 52.9419 0 32.1166 35.2271 32.1166 78.5 C 32.1166 121.773 52.9419 157 78.5 157 C 104.058 157 124.883 121.773 124.883 78.5 C 124.883 35.2271 104.058 0 78.5 0 Z" stroke-linecap="round"/>
</g>
		<g transform="matrix(0.1557 0 0 0.0922 9.7872 -0.0024)" id="81755">
<path style="stroke: none; stroke-width: 0; stroke-dasharray: none; stroke-linecap: butt; stroke-dashoffset: 0; stroke-linejoin: miter; stroke-miterlimit: 4; is-custom-font: none; font-file-url: none; fill: rgb(183,191,203); fill-rule: nonzero; opacity: 1;" vector-effect="non-scaling-stroke" transform=" translate(-78.4998, -78.5)" d="M 78.5 0 C 52.9419 0 32.1166 35.2271 32.1166 78.5 C 32.1166 121.773 52.9419 157 78.5 157 C 104.058 157 124.883 121.773 124.883 78.5 C 124.883 35.2271 104.058 0 78.5 0 Z" stroke-linecap="round"/>
</g>
</g>
</g>
		<g transform="matrix(1.0612 0 0 1.0612 47.9987 0)" id="598158">
<g style="">
		<g transform="matrix(0 0.8377 -2.8084 0 58.9877 -0.0002)" id="Layer_2">
<path style="stroke: none; stroke-width: 0; stroke-dasharray: none; stroke-linecap: butt; stroke-dashoffset: 0; stroke-linejoin: miter; stroke-miterlimit: 4; is-custom-font: none; font-file-url: none; fill: rgb(183,191,203); fill-rule: nonzero; opacity: 1;" transform=" translate(-16, -9)" d="M 28 10 H 4 A 1 1 0 0 1 4 8 H 28 a 1 1 0 0 1 0 2 Z" stroke-linecap="round"/>
</g>
		<g transform="matrix(0 0.8377 -2.8084 0 39.3289 -0.0002)" id="Layer_2">
<path style="stroke: none; stroke-width: 0; stroke-dasharray: none; stroke-linecap: butt; stroke-dashoffset: 0; stroke-linejoin: miter; stroke-miterlimit: 4; is-custom-font: none; font-file-url: none; fill: rgb(183,191,203); fill-rule: nonzero; opacity: 1;" transform=" translate(-16, -16)" d="M 28 17 H 4 a 1 1 0 0 1 0 -2 H 28 a 1 1 0 0 1 0 2 Z" stroke-linecap="round"/>
</g>
		<g transform="matrix(0 0.8377 -2.8084 0 19.6702 -0.0002)" id="Layer_2">
<path style="stroke: none; stroke-width: 0; stroke-dasharray: none; stroke-linecap: butt; stroke-dashoffset: 0; stroke-linejoin: miter; stroke-miterlimit: 4; is-custom-font: none; font-file-url: none; fill: rgb(183,191,203); fill-rule: nonzero; opacity: 1;" transform=" translate(-16, -23)" d="M 28 24 H 4 a 1 1 0 0 1 0 -2 H 28 a 1 1 0 0 1 0 2 Z" stroke-linecap="round"/>
</g>
		<g transform="matrix(0 0.8377 -2.8084 0 0.0257 -0.0002)" id="Layer_2">
<path style="stroke: none; stroke-width: 0; stroke-dasharray: none; stroke-linecap: butt; stroke-dashoffset: 0; stroke-linejoin: miter; stroke-miterlimit: 4; is-custom-font: none; font-file-url: none; fill: rgb(183,191,203); fill-rule: nonzero; opacity: 1;" transform=" translate(-16, -9)" d="M 28 10 H 4 A 1 1 0 0 1 4 8 H 28 a 1 1 0 0 1 0 2 Z" stroke-linecap="round"/>
</g>
		<g transform="matrix(0 0.8377 -2.8084 0 -19.6331 -0.0002)" id="Layer_2">
<path style="stroke: none; stroke-width: 0; stroke-dasharray: none; stroke-linecap: butt; stroke-dashoffset: 0; stroke-linejoin: miter; stroke-miterlimit: 4; is-custom-font: none; font-file-url: none; fill: rgb(183,191,203); fill-rule: nonzero; opacity: 1;" transform=" translate(-16, -16)" d="M 28 17 H 4 a 1 1 0 0 1 0 -2 H 28 a 1 1 0 0 1 0 2 Z" stroke-linecap="round"/>
</g>
		<g transform="matrix(0 0.8377 -2.8084 0 -39.2917 -0.0002)" id="Layer_2">
<path style="stroke: none; stroke-width: 0; stroke-dasharray: none; stroke-linecap: butt; stroke-dashoffset: 0; stroke-linejoin: miter; stroke-miterlimit: 4; is-custom-font: none; font-file-url: none; fill: rgb(183,191,203); fill-rule: nonzero; opacity: 1;" transform=" translate(-16, -23)" d="M 28 24 H 4 a 1 1 0 0 1 0 -2 H 28 a 1 1 0 0 1 0 2 Z" stroke-linecap="round"/>
</g>
		<g transform="matrix(0 0.8377 -2.8084 0 -58.9877 -0.0002)" id="Layer_2">
<path style="stroke: none; stroke-width: 0; stroke-dasharray: none; stroke-linecap: butt; stroke-dashoffset: 0; stroke-linejoin: miter; stroke-miterlimit: 4; is-custom-font: none; font-file-url: none; fill: rgb(183,191,203); fill-rule: nonzero; opacity: 1;" transform=" translate(-16, -16)" d="M 28 17 H 4 a 1 1 0 0 1 0 -2 H 28 a 1 1 0 0 1 0 2 Z" stroke-linecap="round"/>
</g>
</g>
</g>
</g>
</g>
<g transform="matrix(0.0711 0 0 0.0711 358.5291 274.9344)" id="764832">
<g style="" vector-effect="non-scaling-stroke">
		<g transform="matrix(1.3072 0 0 1.3072 157.0744 -157.2674)" id="Capa_1">
<path style="stroke: none; stroke-width: 1; stroke-dasharray: none; stroke-linecap: butt; stroke-dashoffset: 0; stroke-linejoin: miter; stroke-miterlimit: 4; is-custom-font: none; font-file-url: none; fill: rgb(92,131,190); fill-rule: nonzero; opacity: 1;" transform=" translate(-426.1604, -185.6889)" d="M 256.451 231.685 c 16.64 11.489 39.439 7.309 50.922 -9.33 l 91.591 -132.679 c 11.966 -17.335 35.806 -21.702 53.139 -9.731 l 69.837 48.21 c 8.401 5.798 14.038 14.519 15.878 24.555 c 1.838 10.036 -0.341 20.188 -6.142 28.586 l -91.589 132.675 c -11.485 16.639 -7.309 39.437 9.33 50.922 c 6.35 4.383 13.593 6.485 20.763 6.485 c 11.624 0 23.056 -5.524 30.159 -15.815 l 91.587 -132.673 c 16.91 -24.493 23.268 -54.104 17.905 -83.377 c -5.364 -29.271 -21.805 -54.705 -46.299 -71.612 l -69.835 -48.21 C 443.137 -15.213 373.611 -2.475 338.711 48.084 l -91.591 132.679 C 235.634 197.403 239.81 220.199 256.451 231.685 z" stroke-linecap="round"/>
</g>
		<g transform="matrix(1.3072 0 0 1.3072 -157.2571 157.0725)" id="Capa_1">
<path style="stroke: none; stroke-width: 1; stroke-dasharray: none; stroke-linecap: butt; stroke-dashoffset: 0; stroke-linejoin: miter; stroke-miterlimit: 4; is-custom-font: none; font-file-url: none; fill: rgb(92,131,190); fill-rule: nonzero; opacity: 1;" transform=" translate(-185.6969, -426.159)" d="M 313.979 440.081 l -132.681 91.593 c -8.399 5.8 -18.55 7.984 -28.584 6.14 c -10.036 -1.838 -18.757 -7.478 -24.555 -15.876 L 79.946 452.1 c -11.968 -17.335 -7.599 -41.175 9.737 -53.141 l 132.677 -91.591 c 16.639 -11.485 20.815 -34.283 9.33 -50.922 c -11.485 -16.64 -34.285 -20.821 -50.922 -9.33 L 48.089 338.708 C -2.47 373.61 -15.208 443.136 19.695 493.697 l 48.214 69.839 c 16.91 24.491 42.343 40.933 71.612 46.297 c 6.777 1.241 13.568 1.856 20.313 1.856 c 22.393 -0.002 44.242 -6.765 63.064 -19.759 l 132.677 -91.593 c 16.639 -11.485 20.815 -34.283 9.33 -50.922 C 353.416 432.772 330.616 428.592 313.979 440.081 z" stroke-linecap="round"/>
</g>
		<g transform="matrix(1.3072 0 0 1.3072 15.9575 15.9559)" id="Capa_1">
<path style="stroke: none; stroke-width: 1; stroke-dasharray: none; stroke-linecap: butt; stroke-dashoffset: 0; stroke-linejoin: miter; stroke-miterlimit: 4; is-custom-font: none; font-file-url: none; fill: rgb(92,131,190); fill-rule: nonzero; opacity: 1;" transform=" translate(-318.2065, -318.2053)" d="M 426.242 202.848 c -16.174 -12.129 -39.119 -8.851 -51.251 7.321 l -70.637 94.18 l -94.184 70.643 c -16.174 12.13 -19.451 35.077 -7.321 51.249 c 7.192 9.59 18.183 14.644 29.313 14.644 c 7.642 0 15.352 -2.382 21.937 -7.323 l 98.368 -73.78 c 2.775 -2.08 5.238 -4.546 7.321 -7.321 l 73.778 -98.364 C 445.694 237.924 442.416 214.979 426.242 202.848 z" stroke-linecap="round"/>
</g>
		<g transform="matrix(1.3072 0 0 1.3072 168.4079 306.5705)" id="Capa_1">
<path style="stroke: none; stroke-width: 1; stroke-dasharray: none; stroke-linecap: butt; stroke-dashoffset: 0; stroke-linejoin: miter; stroke-miterlimit: 4; is-custom-font: none; font-file-url: none; fill: rgb(92,131,190); fill-rule: nonzero; opacity: 1;" transform=" translate(-434.8318, -540.5258)" d="M 416.349 469.052 l -8.736 113.556 c -0.3 4.115 0.316 8.488 2.007 12.559 c 5.78 13.921 21.752 20.519 35.671 14.739 c 13.921 -5.78 20.519 -21.752 14.739 -35.673 L 416.349 469.052 z" stroke-linecap="round"/>
</g>
		<g transform="matrix(1.3072 0 0 1.3072 306.5698 168.3897)" id="Capa_1">
<path style="stroke: none; stroke-width: 1; stroke-dasharray: none; stroke-linecap: butt; stroke-dashoffset: 0; stroke-linejoin: miter; stroke-miterlimit: 4; is-custom-font: none; font-file-url: none; fill: rgb(92,131,190); fill-rule: nonzero; opacity: 1;" transform=" translate(-540.5253, -434.8179)" d="M 611.914 432.724 c -1.155 -15.027 -14.276 -26.272 -29.305 -25.115 l -113.554 8.734 l 105.179 43.679 c 3.817 1.57 8.166 2.346 12.561 2.009 C 601.824 460.876 613.069 447.755 611.914 432.724 z" stroke-linecap="round"/>
</g>
</g>
</g>
<g transform="matrix(0.7583 0 0 0.7583 258.8972 448.4332)" id="50614">
<path style="stroke: none; stroke-width: 1; stroke-dasharray: none; stroke-linecap: butt; stroke-dashoffset: 0; stroke-linejoin: miter; stroke-miterlimit: 4; is-custom-font: none; font-file-url: none; fill: rgb(92,131,190); fill-rule: evenodd; opacity: 1;" vector-effect="non-scaling-stroke" transform=" translate(-74.796, -105.1159)" d="M 38.155 140.475 L 48.988 62.1108 L 92.869 67.0568 L 111.437 91.0118 L 103.396 148.121 L 38.155 140.475 Z M 84.013 94.0018 L 88.827 71.8068 L 54.046 68.3068 L 44.192 135.457 L 98.335 142.084 L 104.877 96.8088 L 84.013 94.0018 Z M 59.771 123.595 C 59.394 123.099 56.05 120.299 55.421 119.433 C 64.32 109.522 86.05 109.645 92.085 122.757 C 91.08 123.128 86.59 125.072 85.71 125.567 C 83.192 118.25 68.445 115.942 59.771 123.595 Z M 76.503 96.4988 L 72.837 99.2588 L 67.322 92.6168 L 59.815 96.6468 L 56.786 91.5778 L 63.615 88.1508 L 59.089 82.6988 L 64.589 79.0188 L 68.979 85.4578 L 76.798 81.5328 L 79.154 86.2638 L 72.107 90.0468 L 76.503 96.4988 Z" stroke-linecap="round"/>
</g>
</svg>