<?xml version="1.0" encoding="UTF-8" standalone="no"?>
<!-- Created with Inkscape (http://www.inkscape.org/) -->

<svg
   width="600mm"
   height="250mm"
   viewBox="0 0 600 250"
   version="1.1"
   id="svg5"
   xml:space="preserve"
   sodipodi:docname="ok.svg"
   inkscape:version="1.2.2 (732a01da63, 2022-12-09)"
   xmlns:inkscape="http://www.inkscape.org/namespaces/inkscape"
   xmlns:sodipodi="http://sodipodi.sourceforge.net/DTD/sodipodi-0.dtd"
   xmlns="http://www.w3.org/2000/svg"
   xmlns:svg="http://www.w3.org/2000/svg"><sodipodi:namedview
     id="namedview7"
     pagecolor="#505050"
     bordercolor="#eeeeee"
     borderopacity="1"
     inkscape:showpageshadow="0"
     inkscape:pageopacity="0"
     inkscape:pagecheckerboard="0"
     inkscape:deskcolor="#505050"
     inkscape:document-units="mm"
     showgrid="false"
     inkscape:zoom="0.46604417"
     inkscape:cx="1280.9945"
     inkscape:cy="489.22402"
     inkscape:window-width="1366"
     inkscape:window-height="715"
     inkscape:window-x="-8"
     inkscape:window-y="-8"
     inkscape:window-maximized="1"
     inkscape:current-layer="layer1" /><defs
     id="defs2" /><g
     inkscape:label="Katman 1"
     inkscape:groupmode="layer"
     id="layer1"><g
       id="g3531"
       transform="matrix(0.63812494,0,0,0.63812494,0.34586386,-106.08287)"><g
         transform="translate(806.9911,338.7411)"
         id="72431">
<g
   id="g3019">
		<g
   transform="translate(0,-76.8191)"
   id="728234">
<path
   style="opacity:1;fill:#000000;fill-rule:nonzero;stroke:none;stroke-width:1;stroke-linecap:butt;stroke-linejoin:miter;stroke-miterlimit:4;stroke-dasharray:none;stroke-dashoffset:0"
   vector-effect="non-scaling-stroke"
   transform="translate(-12.0915,-12.0015)"
   d="M 16.86,8 A 4,4 0 0 0 13,5 H 6 V 8 H 2 v 2 h 4 v 3 h 7 a 4,4 0 0 0 3.85,-3 3.5043723,3.5043723 0 0 1 -0.35,7 H 2 v 2 H 16.5 A 5.5029447,5.5029447 0 0 0 16.86,8 Z"
   stroke-linecap="round"
   id="path3010" />
</g>
		<g
   transform="translate(0,-26.4491)"
   id="727361">
<path
   style="opacity:1;fill:#000000;fill-rule:nonzero;stroke:none;stroke-width:1;stroke-linecap:butt;stroke-linejoin:miter;stroke-miterlimit:4;stroke-dasharray:none;stroke-dashoffset:0"
   vector-effect="non-scaling-stroke"
   transform="translate(-12.0915,-12.0015)"
   d="M 16.86,8 A 4,4 0 0 0 13,5 H 6 V 8 H 2 v 2 h 4 v 3 h 7 a 4,4 0 0 0 3.85,-3 3.5043723,3.5043723 0 0 1 -0.35,7 H 2 v 2 H 16.5 A 5.5029447,5.5029447 0 0 0 16.86,8 Z"
   stroke-linecap="round"
   id="path3013" />
</g>
		<g
   transform="translate(0,76.8191)"
   id="688796">
<path
   style="opacity:1;fill:#000000;fill-rule:nonzero;stroke:none;stroke-width:1;stroke-linecap:butt;stroke-linejoin:miter;stroke-miterlimit:4;stroke-dasharray:none;stroke-dashoffset:0"
   vector-effect="non-scaling-stroke"
   transform="translate(-12.0915,-12.0015)"
   d="M 16.86,8 A 4,4 0 0 0 13,5 H 6 V 8 H 2 v 2 h 4 v 3 h 7 a 4,4 0 0 0 3.85,-3 3.5043723,3.5043723 0 0 1 -0.35,7 H 2 v 2 H 16.5 A 5.5029447,5.5029447 0 0 0 16.86,8 Z"
   stroke-linecap="round"
   id="path3016" />
</g>
</g>
</g><g
         transform="matrix(0.7703,0,0,0.7703,303.9174,448.6898)"
         id="837616">
<path
   style="opacity:1;fill:#b7bfcb;fill-rule:nonzero;stroke:none;stroke-width:0;stroke-linecap:butt;stroke-linejoin:miter;stroke-miterlimit:4;stroke-dasharray:none;stroke-dashoffset:0"
   vector-effect="non-scaling-stroke"
   transform="translate(-147.0501,-147.05)"
   d="M 294.089,25.772 C 293.323,18.206 287.101,12.55 279.333,12.55 h -264 C 7.049,12.55 0,18.766 0,27.05 v 158.333 c 0,0.002 0,0.004 0,0.006 v 29.161 c 0,8.284 7.049,15 15.333,15 h 74.618 l -4.416,22 H 64.333 c -8.284,0 -15,6.716 -15,15 0,8.284 6.716,15 15,15 h 33.5 99 c 0.005,-0.001 0.013,-0.001 0.02,0 h 32.48 c 8.284,0 15,-6.716 15,-15 0,-8.284 -6.716,-15 -15,-15 H 209.13 l -4.416,-22 h 74.618 c 8.284,0 14.667,-6.716 14.667,-15 V 27.05 c 10e-4,-0.518 0.141,-0.777 0.09,-1.278 z M 264,42.55 v 128 H 30 v -128 z"
   stroke-linecap="round"
   id="path3022" />
</g><g
         transform="matrix(1.0612,0,0,1.0612,668.6672,413.8098)"
         id="46196">
<g
   id="g3067">
		<g
   transform="matrix(1.5975,0,0,0.314,-1e-4,0)"
   id="236745">
<path
   style="opacity:1;fill:#ffffff;fill-rule:nonzero;stroke:#b7bfcb;stroke-width:5;stroke-linecap:butt;stroke-linejoin:miter;stroke-miterlimit:4;stroke-dasharray:none;stroke-dashoffset:0"
   vector-effect="non-scaling-stroke"
   transform="translate(-79,-78.9999)"
   d="m 154.685,2.50049 h 0.026 l 0.027,-5.5e-4 c 0.412,-0.00868 0.753,0.31859 0.762,0.73046 v 2.9e-4 c 0,0.01026 0,0.02107 0,0.03214 l -0.001,0.02603 V 3.3149 154.686 c 0,0.449 -0.364,0.814 -0.814,0.814 H 3.31409 C 2.86449,155.5 2.5,155.135 2.5,154.686 V 3.3149 C 2.5,2.86483 2.86465,2.50049 3.31409,2.50049 Z"
   stroke-linecap="round"
   id="path3025" />
</g>
		<g
   transform="translate(45.2306)"
   id="922290">
<g
   id="g3055">
		<g
   transform="matrix(0,0.8377,-2.8084,0,58.9877,-2e-4)"
   id="Layer_2">
<path
   style="opacity:1;fill:#b7bfcb;fill-rule:nonzero;stroke:none;stroke-width:0;stroke-linecap:butt;stroke-linejoin:miter;stroke-miterlimit:4;stroke-dasharray:none;stroke-dashoffset:0"
   transform="translate(-16,-9)"
   d="M 28,10 H 4 A 1,1 0 0 1 4,8 h 24 a 1,1 0 0 1 0,2 z"
   stroke-linecap="round"
   id="path3028" />
</g>
		<g
   transform="matrix(0,0.8377,-2.8084,0,39.3289,-2e-4)"
   id="g3033">
<path
   style="opacity:1;fill:#b7bfcb;fill-rule:nonzero;stroke:none;stroke-width:0;stroke-linecap:butt;stroke-linejoin:miter;stroke-miterlimit:4;stroke-dasharray:none;stroke-dashoffset:0"
   transform="translate(-16,-16)"
   d="M 28,17 H 4 a 1,1 0 0 1 0,-2 h 24 a 1,1 0 0 1 0,2 z"
   stroke-linecap="round"
   id="path3031" />
</g>
		<g
   transform="matrix(0,0.8377,-2.8084,0,19.6702,-2e-4)"
   id="g3037">
<path
   style="opacity:1;fill:#b7bfcb;fill-rule:nonzero;stroke:none;stroke-width:0;stroke-linecap:butt;stroke-linejoin:miter;stroke-miterlimit:4;stroke-dasharray:none;stroke-dashoffset:0"
   transform="translate(-16,-23)"
   d="M 28,24 H 4 a 1,1 0 0 1 0,-2 h 24 a 1,1 0 0 1 0,2 z"
   stroke-linecap="round"
   id="path3035" />
</g>
		<g
   transform="matrix(0,0.8377,-2.8084,0,0.0257,-2e-4)"
   id="g3041">
<path
   style="opacity:1;fill:#b7bfcb;fill-rule:nonzero;stroke:none;stroke-width:0;stroke-linecap:butt;stroke-linejoin:miter;stroke-miterlimit:4;stroke-dasharray:none;stroke-dashoffset:0"
   transform="translate(-16,-9)"
   d="M 28,10 H 4 A 1,1 0 0 1 4,8 h 24 a 1,1 0 0 1 0,2 z"
   stroke-linecap="round"
   id="path3039" />
</g>
		<g
   transform="matrix(0,0.8377,-2.8084,0,-19.6331,-2e-4)"
   id="g3045">
<path
   style="opacity:1;fill:#b7bfcb;fill-rule:nonzero;stroke:none;stroke-width:0;stroke-linecap:butt;stroke-linejoin:miter;stroke-miterlimit:4;stroke-dasharray:none;stroke-dashoffset:0"
   transform="translate(-16,-16)"
   d="M 28,17 H 4 a 1,1 0 0 1 0,-2 h 24 a 1,1 0 0 1 0,2 z"
   stroke-linecap="round"
   id="path3043" />
</g>
		<g
   transform="matrix(0,0.8377,-2.8084,0,-39.2917,-2e-4)"
   id="g3049">
<path
   style="opacity:1;fill:#b7bfcb;fill-rule:nonzero;stroke:none;stroke-width:0;stroke-linecap:butt;stroke-linejoin:miter;stroke-miterlimit:4;stroke-dasharray:none;stroke-dashoffset:0"
   transform="translate(-16,-23)"
   d="M 28,24 H 4 a 1,1 0 0 1 0,-2 h 24 a 1,1 0 0 1 0,2 z"
   stroke-linecap="round"
   id="path3047" />
</g>
		<g
   transform="matrix(0,0.8377,-2.8084,0,-58.9877,-2e-4)"
   id="g3053">
<path
   style="opacity:1;fill:#b7bfcb;fill-rule:nonzero;stroke:none;stroke-width:0;stroke-linecap:butt;stroke-linejoin:miter;stroke-miterlimit:4;stroke-dasharray:none;stroke-dashoffset:0"
   transform="translate(-16,-16)"
   d="M 28,17 H 4 a 1,1 0 0 1 0,-2 h 24 a 1,1 0 0 1 0,2 z"
   stroke-linecap="round"
   id="path3051" />
</g>
</g>
</g>
		<g
   transform="translate(-95.8611,-0.0021)"
   id="545051">
<g
   id="g3064">
		<g
   transform="matrix(0.1467,0,0,0.0869,-9.2218,9e-4)"
   id="61229">
<path
   style="opacity:1;fill:#0099ff;fill-rule:nonzero;stroke:none;stroke-width:0;stroke-linecap:butt;stroke-linejoin:miter;stroke-miterlimit:4;stroke-dasharray:none;stroke-dashoffset:0"
   vector-effect="non-scaling-stroke"
   transform="translate(-78.4998,-78.5)"
   d="M 78.5,0 C 52.9419,0 32.1166,35.2271 32.1166,78.5 c 0,43.273 20.8253,78.5 46.3834,78.5 25.558,0 46.383,-35.227 46.383,-78.5 C 124.883,35.2271 104.058,0 78.5,0 Z"
   stroke-linecap="round"
   id="path3058" />
</g>
		<g
   transform="matrix(0.1467,0,0,0.0869,9.2217,-0.001)"
   id="81755">
<path
   style="opacity:1;fill:#b7bfcb;fill-rule:nonzero;stroke:none;stroke-width:0;stroke-linecap:butt;stroke-linejoin:miter;stroke-miterlimit:4;stroke-dasharray:none;stroke-dashoffset:0"
   vector-effect="non-scaling-stroke"
   transform="translate(-78.4998,-78.5)"
   d="M 78.5,0 C 52.9419,0 32.1166,35.2271 32.1166,78.5 c 0,43.273 20.8253,78.5 46.3834,78.5 25.558,0 46.383,-35.227 46.383,-78.5 C 124.883,35.2271 104.058,0 78.5,0 Z"
   stroke-linecap="round"
   id="path3061" />
</g>
</g>
</g>
</g>
</g><g
         transform="matrix(1.0612,0,0,1.0612,668.6672,464.9341)"
         id="614869">
<g
   id="g3115">
		<g
   transform="matrix(1.5975,0,0,0.314,-1e-4,0)"
   id="628630">
<path
   style="opacity:1;fill:#ffffff;fill-rule:nonzero;stroke:#b7bfcb;stroke-width:5;stroke-linecap:butt;stroke-linejoin:miter;stroke-miterlimit:4;stroke-dasharray:none;stroke-dashoffset:0"
   vector-effect="non-scaling-stroke"
   transform="translate(-79,-78.9999)"
   d="m 154.685,2.50049 h 0.026 l 0.027,-5.5e-4 c 0.412,-0.00868 0.753,0.31859 0.762,0.73046 v 2.9e-4 c 0,0.01026 0,0.02107 0,0.03214 l -0.001,0.02603 V 3.3149 154.686 c 0,0.449 -0.364,0.814 -0.814,0.814 H 3.31409 C 2.86449,155.5 2.5,155.135 2.5,154.686 V 3.3149 C 2.5,2.86483 2.86465,2.50049 3.31409,2.50049 Z"
   stroke-linecap="round"
   id="path3070" />
</g>
		<g
   transform="translate(45.2306)"
   id="266633">
<g
   id="g3101">
		<g
   transform="matrix(0,0.8377,-2.8084,0,58.9877,-2e-4)"
   id="g3075">
<path
   style="opacity:1;fill:#b7bfcb;fill-rule:nonzero;stroke:none;stroke-width:0;stroke-linecap:butt;stroke-linejoin:miter;stroke-miterlimit:4;stroke-dasharray:none;stroke-dashoffset:0"
   transform="translate(-16,-9)"
   d="M 28,10 H 4 A 1,1 0 0 1 4,8 h 24 a 1,1 0 0 1 0,2 z"
   stroke-linecap="round"
   id="path3073" />
</g>
		<g
   transform="matrix(0,0.8377,-2.8084,0,39.3289,-2e-4)"
   id="g3079">
<path
   style="opacity:1;fill:#b7bfcb;fill-rule:nonzero;stroke:none;stroke-width:0;stroke-linecap:butt;stroke-linejoin:miter;stroke-miterlimit:4;stroke-dasharray:none;stroke-dashoffset:0"
   transform="translate(-16,-16)"
   d="M 28,17 H 4 a 1,1 0 0 1 0,-2 h 24 a 1,1 0 0 1 0,2 z"
   stroke-linecap="round"
   id="path3077" />
</g>
		<g
   transform="matrix(0,0.8377,-2.8084,0,19.6702,-2e-4)"
   id="g3083">
<path
   style="opacity:1;fill:#b7bfcb;fill-rule:nonzero;stroke:none;stroke-width:0;stroke-linecap:butt;stroke-linejoin:miter;stroke-miterlimit:4;stroke-dasharray:none;stroke-dashoffset:0"
   transform="translate(-16,-23)"
   d="M 28,24 H 4 a 1,1 0 0 1 0,-2 h 24 a 1,1 0 0 1 0,2 z"
   stroke-linecap="round"
   id="path3081" />
</g>
		<g
   transform="matrix(0,0.8377,-2.8084,0,0.0257,-2e-4)"
   id="g3087">
<path
   style="opacity:1;fill:#b7bfcb;fill-rule:nonzero;stroke:none;stroke-width:0;stroke-linecap:butt;stroke-linejoin:miter;stroke-miterlimit:4;stroke-dasharray:none;stroke-dashoffset:0"
   transform="translate(-16,-9)"
   d="M 28,10 H 4 A 1,1 0 0 1 4,8 h 24 a 1,1 0 0 1 0,2 z"
   stroke-linecap="round"
   id="path3085" />
</g>
		<g
   transform="matrix(0,0.8377,-2.8084,0,-19.6331,-2e-4)"
   id="g3091">
<path
   style="opacity:1;fill:#b7bfcb;fill-rule:nonzero;stroke:none;stroke-width:0;stroke-linecap:butt;stroke-linejoin:miter;stroke-miterlimit:4;stroke-dasharray:none;stroke-dashoffset:0"
   transform="translate(-16,-16)"
   d="M 28,17 H 4 a 1,1 0 0 1 0,-2 h 24 a 1,1 0 0 1 0,2 z"
   stroke-linecap="round"
   id="path3089" />
</g>
		<g
   transform="matrix(0,0.8377,-2.8084,0,-39.2917,-2e-4)"
   id="g3095">
<path
   style="opacity:1;fill:#b7bfcb;fill-rule:nonzero;stroke:none;stroke-width:0;stroke-linecap:butt;stroke-linejoin:miter;stroke-miterlimit:4;stroke-dasharray:none;stroke-dashoffset:0"
   transform="translate(-16,-23)"
   d="M 28,24 H 4 a 1,1 0 0 1 0,-2 h 24 a 1,1 0 0 1 0,2 z"
   stroke-linecap="round"
   id="path3093" />
</g>
		<g
   transform="matrix(0,0.8377,-2.8084,0,-58.9877,-2e-4)"
   id="g3099">
<path
   style="opacity:1;fill:#b7bfcb;fill-rule:nonzero;stroke:none;stroke-width:0;stroke-linecap:butt;stroke-linejoin:miter;stroke-miterlimit:4;stroke-dasharray:none;stroke-dashoffset:0"
   transform="translate(-16,-16)"
   d="M 28,17 H 4 a 1,1 0 0 1 0,-2 h 24 a 1,1 0 0 1 0,2 z"
   stroke-linecap="round"
   id="path3097" />
</g>
</g>
</g>
		<g
   transform="translate(-95.8611,-0.0021)"
   id="320729">
<g
   id="g3112">
		<g
   transform="matrix(0.1467,0,0,0.0869,-9.2218,9e-4)"
   id="g3106">
<path
   style="opacity:1;fill:#0099ff;fill-rule:nonzero;stroke:none;stroke-width:0;stroke-linecap:butt;stroke-linejoin:miter;stroke-miterlimit:4;stroke-dasharray:none;stroke-dashoffset:0"
   vector-effect="non-scaling-stroke"
   transform="translate(-78.4998,-78.5)"
   d="M 78.5,0 C 52.9419,0 32.1166,35.2271 32.1166,78.5 c 0,43.273 20.8253,78.5 46.3834,78.5 25.558,0 46.383,-35.227 46.383,-78.5 C 124.883,35.2271 104.058,0 78.5,0 Z"
   stroke-linecap="round"
   id="path3104" />
</g>
		<g
   transform="matrix(0.1467,0,0,0.0869,9.2217,-0.001)"
   id="g3110">
<path
   style="opacity:1;fill:#b7bfcb;fill-rule:nonzero;stroke:none;stroke-width:0;stroke-linecap:butt;stroke-linejoin:miter;stroke-miterlimit:4;stroke-dasharray:none;stroke-dashoffset:0"
   vector-effect="non-scaling-stroke"
   transform="translate(-78.4998,-78.5)"
   d="M 78.5,0 C 52.9419,0 32.1166,35.2271 32.1166,78.5 c 0,43.273 20.8253,78.5 46.3834,78.5 25.558,0 46.383,-35.227 46.383,-78.5 C 124.883,35.2271 104.058,0 78.5,0 Z"
   stroke-linecap="round"
   id="path3108" />
</g>
</g>
</g>
</g>
</g><g
         transform="matrix(1.0201,0,0,0.1794,470,549.0098)"
         id="694200">
<path
   style="opacity:1;fill:#b7bfcb;fill-rule:nonzero;stroke:none;stroke-width:0;stroke-linecap:butt;stroke-linejoin:miter;stroke-miterlimit:4;stroke-dasharray:none;stroke-dashoffset:0"
   vector-effect="non-scaling-stroke"
   transform="translate(-512,-512)"
   d="M 904,476 H 120 c -4.4,0 -8,3.6 -8,8 v 56 c 0,4.4 3.6,8 8,8 h 784 c 4.4,0 8,-3.6 8,-8 v -56 c 0,-4.4 -3.6,-8 -8,-8 z"
   stroke-linecap="round"
   id="path3118" />
</g><g
         transform="matrix(1.0612,0,0,1.0612,668.6672,311.6709)"
         id="685756">
<g
   id="g3166">
		<g
   transform="matrix(1.5975,0,0,0.314,-1e-4,0)"
   id="582322">
<path
   style="opacity:1;fill:#ffffff;fill-rule:nonzero;stroke:#b7bfcb;stroke-width:5;stroke-linecap:butt;stroke-linejoin:miter;stroke-miterlimit:4;stroke-dasharray:none;stroke-dashoffset:0"
   vector-effect="non-scaling-stroke"
   transform="translate(-79,-78.9999)"
   d="m 154.685,2.50049 h 0.026 l 0.027,-5.5e-4 c 0.412,-0.00868 0.753,0.31859 0.762,0.73046 v 2.9e-4 c 0,0.01026 0,0.02107 0,0.03214 l -0.001,0.02603 V 3.3149 154.686 c 0,0.449 -0.364,0.814 -0.814,0.814 H 3.31409 C 2.86449,155.5 2.5,155.135 2.5,154.686 V 3.3149 C 2.5,2.86483 2.86465,2.50049 3.31409,2.50049 Z"
   stroke-linecap="round"
   id="path3121" />
</g>
		<g
   transform="translate(45.2306)"
   id="640537">
<g
   id="g3152">
		<g
   transform="matrix(0,0.8377,-2.8084,0,58.9877,-2e-4)"
   id="g3126">
<path
   style="opacity:1;fill:#b7bfcb;fill-rule:nonzero;stroke:none;stroke-width:0;stroke-linecap:butt;stroke-linejoin:miter;stroke-miterlimit:4;stroke-dasharray:none;stroke-dashoffset:0"
   transform="translate(-16,-9)"
   d="M 28,10 H 4 A 1,1 0 0 1 4,8 h 24 a 1,1 0 0 1 0,2 z"
   stroke-linecap="round"
   id="path3124" />
</g>
		<g
   transform="matrix(0,0.8377,-2.8084,0,39.3289,-2e-4)"
   id="g3130">
<path
   style="opacity:1;fill:#b7bfcb;fill-rule:nonzero;stroke:none;stroke-width:0;stroke-linecap:butt;stroke-linejoin:miter;stroke-miterlimit:4;stroke-dasharray:none;stroke-dashoffset:0"
   transform="translate(-16,-16)"
   d="M 28,17 H 4 a 1,1 0 0 1 0,-2 h 24 a 1,1 0 0 1 0,2 z"
   stroke-linecap="round"
   id="path3128" />
</g>
		<g
   transform="matrix(0,0.8377,-2.8084,0,19.6702,-2e-4)"
   id="g3134">
<path
   style="opacity:1;fill:#b7bfcb;fill-rule:nonzero;stroke:none;stroke-width:0;stroke-linecap:butt;stroke-linejoin:miter;stroke-miterlimit:4;stroke-dasharray:none;stroke-dashoffset:0"
   transform="translate(-16,-23)"
   d="M 28,24 H 4 a 1,1 0 0 1 0,-2 h 24 a 1,1 0 0 1 0,2 z"
   stroke-linecap="round"
   id="path3132" />
</g>
		<g
   transform="matrix(0,0.8377,-2.8084,0,0.0257,-2e-4)"
   id="g3138">
<path
   style="opacity:1;fill:#b7bfcb;fill-rule:nonzero;stroke:none;stroke-width:0;stroke-linecap:butt;stroke-linejoin:miter;stroke-miterlimit:4;stroke-dasharray:none;stroke-dashoffset:0"
   transform="translate(-16,-9)"
   d="M 28,10 H 4 A 1,1 0 0 1 4,8 h 24 a 1,1 0 0 1 0,2 z"
   stroke-linecap="round"
   id="path3136" />
</g>
		<g
   transform="matrix(0,0.8377,-2.8084,0,-19.6331,-2e-4)"
   id="g3142">
<path
   style="opacity:1;fill:#b7bfcb;fill-rule:nonzero;stroke:none;stroke-width:0;stroke-linecap:butt;stroke-linejoin:miter;stroke-miterlimit:4;stroke-dasharray:none;stroke-dashoffset:0"
   transform="translate(-16,-16)"
   d="M 28,17 H 4 a 1,1 0 0 1 0,-2 h 24 a 1,1 0 0 1 0,2 z"
   stroke-linecap="round"
   id="path3140" />
</g>
		<g
   transform="matrix(0,0.8377,-2.8084,0,-39.2917,-2e-4)"
   id="g3146">
<path
   style="opacity:1;fill:#b7bfcb;fill-rule:nonzero;stroke:none;stroke-width:0;stroke-linecap:butt;stroke-linejoin:miter;stroke-miterlimit:4;stroke-dasharray:none;stroke-dashoffset:0"
   transform="translate(-16,-23)"
   d="M 28,24 H 4 a 1,1 0 0 1 0,-2 h 24 a 1,1 0 0 1 0,2 z"
   stroke-linecap="round"
   id="path3144" />
</g>
		<g
   transform="matrix(0,0.8377,-2.8084,0,-58.9877,-2e-4)"
   id="g3150">
<path
   style="opacity:1;fill:#b7bfcb;fill-rule:nonzero;stroke:none;stroke-width:0;stroke-linecap:butt;stroke-linejoin:miter;stroke-miterlimit:4;stroke-dasharray:none;stroke-dashoffset:0"
   transform="translate(-16,-16)"
   d="M 28,17 H 4 a 1,1 0 0 1 0,-2 h 24 a 1,1 0 0 1 0,2 z"
   stroke-linecap="round"
   id="path3148" />
</g>
</g>
</g>
		<g
   transform="translate(-95.8611,-0.0021)"
   id="993761">
<g
   id="g3163">
		<g
   transform="matrix(0.1467,0,0,0.0869,-9.2218,9e-4)"
   id="g3157">
<path
   style="opacity:1;fill:#0099ff;fill-rule:nonzero;stroke:none;stroke-width:0;stroke-linecap:butt;stroke-linejoin:miter;stroke-miterlimit:4;stroke-dasharray:none;stroke-dashoffset:0"
   vector-effect="non-scaling-stroke"
   transform="translate(-78.4998,-78.5)"
   d="M 78.5,0 C 52.9419,0 32.1166,35.2271 32.1166,78.5 c 0,43.273 20.8253,78.5 46.3834,78.5 25.558,0 46.383,-35.227 46.383,-78.5 C 124.883,35.2271 104.058,0 78.5,0 Z"
   stroke-linecap="round"
   id="path3155" />
</g>
		<g
   transform="matrix(0.1467,0,0,0.0869,9.2217,-0.001)"
   id="g3161">
<path
   style="opacity:1;fill:#b7bfcb;fill-rule:nonzero;stroke:none;stroke-width:0;stroke-linecap:butt;stroke-linejoin:miter;stroke-miterlimit:4;stroke-dasharray:none;stroke-dashoffset:0"
   vector-effect="non-scaling-stroke"
   transform="translate(-78.4998,-78.5)"
   d="M 78.5,0 C 52.9419,0 32.1166,35.2271 32.1166,78.5 c 0,43.273 20.8253,78.5 46.3834,78.5 25.558,0 46.383,-35.227 46.383,-78.5 C 124.883,35.2271 104.058,0 78.5,0 Z"
   stroke-linecap="round"
   id="path3159" />
</g>
</g>
</g>
</g>
</g><g
         transform="translate(668.6671,362.7854)"
         id="866458">
<g
   id="g3214">
		<g
   transform="matrix(1.6953,0,0,0.3332,0.0025,-0.0013)"
   id="321752">
<path
   style="opacity:1;fill:#ffffff;fill-rule:nonzero;stroke:#b7bfcb;stroke-width:5;stroke-linecap:butt;stroke-linejoin:miter;stroke-miterlimit:4;stroke-dasharray:none;stroke-dashoffset:0"
   vector-effect="non-scaling-stroke"
   transform="translate(-79,-78.9999)"
   d="m 154.685,2.50049 h 0.026 l 0.027,-5.5e-4 c 0.412,-0.00868 0.753,0.31859 0.762,0.73046 v 2.9e-4 c 0,0.01026 0,0.02107 0,0.03214 l -0.001,0.02603 V 3.3149 154.686 c 0,0.449 -0.364,0.814 -0.814,0.814 H 3.31409 C 2.86449,155.5 2.5,155.135 2.5,154.686 V 3.3149 C 2.5,2.86483 2.86465,2.50049 3.31409,2.50049 Z"
   stroke-linecap="round"
   id="path3169" />
</g>
		<g
   transform="matrix(1.0612,0,0,1.0612,47.9987,0)"
   id="414476">
<g
   id="g3200">
		<g
   transform="matrix(0,0.8377,-2.8084,0,58.9877,-2e-4)"
   id="g3174">
<path
   style="opacity:1;fill:#b7bfcb;fill-rule:nonzero;stroke:none;stroke-width:0;stroke-linecap:butt;stroke-linejoin:miter;stroke-miterlimit:4;stroke-dasharray:none;stroke-dashoffset:0"
   transform="translate(-16,-9)"
   d="M 28,10 H 4 A 1,1 0 0 1 4,8 h 24 a 1,1 0 0 1 0,2 z"
   stroke-linecap="round"
   id="path3172" />
</g>
		<g
   transform="matrix(0,0.8377,-2.8084,0,39.3289,-2e-4)"
   id="g3178">
<path
   style="opacity:1;fill:#b7bfcb;fill-rule:nonzero;stroke:none;stroke-width:0;stroke-linecap:butt;stroke-linejoin:miter;stroke-miterlimit:4;stroke-dasharray:none;stroke-dashoffset:0"
   transform="translate(-16,-16)"
   d="M 28,17 H 4 a 1,1 0 0 1 0,-2 h 24 a 1,1 0 0 1 0,2 z"
   stroke-linecap="round"
   id="path3176" />
</g>
		<g
   transform="matrix(0,0.8377,-2.8084,0,19.6702,-2e-4)"
   id="g3182">
<path
   style="opacity:1;fill:#b7bfcb;fill-rule:nonzero;stroke:none;stroke-width:0;stroke-linecap:butt;stroke-linejoin:miter;stroke-miterlimit:4;stroke-dasharray:none;stroke-dashoffset:0"
   transform="translate(-16,-23)"
   d="M 28,24 H 4 a 1,1 0 0 1 0,-2 h 24 a 1,1 0 0 1 0,2 z"
   stroke-linecap="round"
   id="path3180" />
</g>
		<g
   transform="matrix(0,0.8377,-2.8084,0,0.0257,-2e-4)"
   id="g3186">
<path
   style="opacity:1;fill:#b7bfcb;fill-rule:nonzero;stroke:none;stroke-width:0;stroke-linecap:butt;stroke-linejoin:miter;stroke-miterlimit:4;stroke-dasharray:none;stroke-dashoffset:0"
   transform="translate(-16,-9)"
   d="M 28,10 H 4 A 1,1 0 0 1 4,8 h 24 a 1,1 0 0 1 0,2 z"
   stroke-linecap="round"
   id="path3184" />
</g>
		<g
   transform="matrix(0,0.8377,-2.8084,0,-19.6331,-2e-4)"
   id="g3190">
<path
   style="opacity:1;fill:#b7bfcb;fill-rule:nonzero;stroke:none;stroke-width:0;stroke-linecap:butt;stroke-linejoin:miter;stroke-miterlimit:4;stroke-dasharray:none;stroke-dashoffset:0"
   transform="translate(-16,-16)"
   d="M 28,17 H 4 a 1,1 0 0 1 0,-2 h 24 a 1,1 0 0 1 0,2 z"
   stroke-linecap="round"
   id="path3188" />
</g>
		<g
   transform="matrix(0,0.8377,-2.8084,0,-39.2917,-2e-4)"
   id="g3194">
<path
   style="opacity:1;fill:#b7bfcb;fill-rule:nonzero;stroke:none;stroke-width:0;stroke-linecap:butt;stroke-linejoin:miter;stroke-miterlimit:4;stroke-dasharray:none;stroke-dashoffset:0"
   transform="translate(-16,-23)"
   d="M 28,24 H 4 a 1,1 0 0 1 0,-2 h 24 a 1,1 0 0 1 0,2 z"
   stroke-linecap="round"
   id="path3192" />
</g>
		<g
   transform="matrix(0,0.8377,-2.8084,0,-58.9877,-2e-4)"
   id="g3198">
<path
   style="opacity:1;fill:#b7bfcb;fill-rule:nonzero;stroke:none;stroke-width:0;stroke-linecap:butt;stroke-linejoin:miter;stroke-miterlimit:4;stroke-dasharray:none;stroke-dashoffset:0"
   transform="translate(-16,-16)"
   d="M 28,17 H 4 a 1,1 0 0 1 0,-2 h 24 a 1,1 0 0 1 0,2 z"
   stroke-linecap="round"
   id="path3196" />
</g>
</g>
</g>
		<g
   transform="translate(-101.7278,-0.0023)"
   id="670482">
<g
   id="g3211">
		<g
   transform="matrix(0.1557,0,0,0.0922,-9.7851,-4e-4)"
   id="g3205">
<path
   style="opacity:1;fill:#0099ff;fill-rule:nonzero;stroke:none;stroke-width:0;stroke-linecap:butt;stroke-linejoin:miter;stroke-miterlimit:4;stroke-dasharray:none;stroke-dashoffset:0"
   vector-effect="non-scaling-stroke"
   transform="translate(-78.4998,-78.5)"
   d="M 78.5,0 C 52.9419,0 32.1166,35.2271 32.1166,78.5 c 0,43.273 20.8253,78.5 46.3834,78.5 25.558,0 46.383,-35.227 46.383,-78.5 C 124.883,35.2271 104.058,0 78.5,0 Z"
   stroke-linecap="round"
   id="path3203" />
</g>
		<g
   transform="matrix(0.1557,0,0,0.0922,9.7872,-0.0024)"
   id="g3209">
<path
   style="opacity:1;fill:#f7931e;fill-rule:nonzero;stroke:none;stroke-width:0;stroke-linecap:butt;stroke-linejoin:miter;stroke-miterlimit:4;stroke-dasharray:none;stroke-dashoffset:0"
   vector-effect="non-scaling-stroke"
   transform="translate(-78.4998,-78.5)"
   d="M 78.5,0 C 52.9419,0 32.1166,35.2271 32.1166,78.5 c 0,43.273 20.8253,78.5 46.3834,78.5 25.558,0 46.383,-35.227 46.383,-78.5 C 124.883,35.2271 104.058,0 78.5,0 Z"
   stroke-linecap="round"
   id="path3207" />
</g>
</g>
</g>
</g>
</g><g
         transform="translate(668.6697,516.0512)"
         id="88914">
<g
   id="g3262">
		<g
   transform="scale(1.6953,0.3332)"
   id="466850">
<path
   style="opacity:1;fill:#ffffff;fill-rule:nonzero;stroke:#b7bfcb;stroke-width:5;stroke-linecap:butt;stroke-linejoin:miter;stroke-miterlimit:4;stroke-dasharray:none;stroke-dashoffset:0"
   vector-effect="non-scaling-stroke"
   transform="translate(-79,-78.9999)"
   d="m 154.685,2.50049 h 0.026 l 0.027,-5.5e-4 c 0.412,-0.00868 0.753,0.31859 0.762,0.73046 v 2.9e-4 c 0,0.01026 0,0.02107 0,0.03214 l -0.001,0.02603 V 3.3149 154.686 c 0,0.449 -0.364,0.814 -0.814,0.814 H 3.31409 C 2.86449,155.5 2.5,155.135 2.5,154.686 V 3.3149 C 2.5,2.86483 2.86465,2.50049 3.31409,2.50049 Z"
   stroke-linecap="round"
   id="path3217" />
</g>
		<g
   transform="translate(-101.7301,-0.001)"
   id="45748">
<g
   id="g3228">
		<g
   transform="matrix(0.1557,0,0,0.0922,-9.7851,-4e-4)"
   id="g3222">
<path
   style="opacity:1;fill:#0099ff;fill-rule:nonzero;stroke:none;stroke-width:0;stroke-linecap:butt;stroke-linejoin:miter;stroke-miterlimit:4;stroke-dasharray:none;stroke-dashoffset:0"
   vector-effect="non-scaling-stroke"
   transform="translate(-78.4998,-78.5)"
   d="M 78.5,0 C 52.9419,0 32.1166,35.2271 32.1166,78.5 c 0,43.273 20.8253,78.5 46.3834,78.5 25.558,0 46.383,-35.227 46.383,-78.5 C 124.883,35.2271 104.058,0 78.5,0 Z"
   stroke-linecap="round"
   id="path3220" />
</g>
		<g
   transform="matrix(0.1557,0,0,0.0922,9.7872,-0.0024)"
   id="g3226">
<path
   style="opacity:1;fill:#ff3333;fill-rule:nonzero;stroke:none;stroke-width:0;stroke-linecap:butt;stroke-linejoin:miter;stroke-miterlimit:4;stroke-dasharray:none;stroke-dashoffset:0"
   vector-effect="non-scaling-stroke"
   transform="translate(-78.4998,-78.5)"
   d="M 78.5,0 C 52.9419,0 32.1166,35.2271 32.1166,78.5 c 0,43.273 20.8253,78.5 46.3834,78.5 25.558,0 46.383,-35.227 46.383,-78.5 C 124.883,35.2271 104.058,0 78.5,0 Z"
   stroke-linecap="round"
   id="path3224" />
</g>
</g>
</g>
		<g
   transform="matrix(1.0612,0,0,1.0612,47.9963,0.0013)"
   id="927166">
<g
   id="g3259">
		<g
   transform="matrix(0,0.8377,-2.8084,0,58.9877,-2e-4)"
   id="g3233">
<path
   style="opacity:1;fill:#b7bfcb;fill-rule:nonzero;stroke:none;stroke-width:0;stroke-linecap:butt;stroke-linejoin:miter;stroke-miterlimit:4;stroke-dasharray:none;stroke-dashoffset:0"
   transform="translate(-16,-9)"
   d="M 28,10 H 4 A 1,1 0 0 1 4,8 h 24 a 1,1 0 0 1 0,2 z"
   stroke-linecap="round"
   id="path3231" />
</g>
		<g
   transform="matrix(0,0.8377,-2.8084,0,39.3289,-2e-4)"
   id="g3237">
<path
   style="opacity:1;fill:#b7bfcb;fill-rule:nonzero;stroke:none;stroke-width:0;stroke-linecap:butt;stroke-linejoin:miter;stroke-miterlimit:4;stroke-dasharray:none;stroke-dashoffset:0"
   transform="translate(-16,-16)"
   d="M 28,17 H 4 a 1,1 0 0 1 0,-2 h 24 a 1,1 0 0 1 0,2 z"
   stroke-linecap="round"
   id="path3235" />
</g>
		<g
   transform="matrix(0,0.8377,-2.8084,0,19.6702,-2e-4)"
   id="g3241">
<path
   style="opacity:1;fill:#b7bfcb;fill-rule:nonzero;stroke:none;stroke-width:0;stroke-linecap:butt;stroke-linejoin:miter;stroke-miterlimit:4;stroke-dasharray:none;stroke-dashoffset:0"
   transform="translate(-16,-23)"
   d="M 28,24 H 4 a 1,1 0 0 1 0,-2 h 24 a 1,1 0 0 1 0,2 z"
   stroke-linecap="round"
   id="path3239" />
</g>
		<g
   transform="matrix(0,0.8377,-2.8084,0,0.0257,-2e-4)"
   id="g3245">
<path
   style="opacity:1;fill:#b7bfcb;fill-rule:nonzero;stroke:none;stroke-width:0;stroke-linecap:butt;stroke-linejoin:miter;stroke-miterlimit:4;stroke-dasharray:none;stroke-dashoffset:0"
   transform="translate(-16,-9)"
   d="M 28,10 H 4 A 1,1 0 0 1 4,8 h 24 a 1,1 0 0 1 0,2 z"
   stroke-linecap="round"
   id="path3243" />
</g>
		<g
   transform="matrix(0,0.8377,-2.8084,0,-19.6331,-2e-4)"
   id="g3249">
<path
   style="opacity:1;fill:#b7bfcb;fill-rule:nonzero;stroke:none;stroke-width:0;stroke-linecap:butt;stroke-linejoin:miter;stroke-miterlimit:4;stroke-dasharray:none;stroke-dashoffset:0"
   transform="translate(-16,-16)"
   d="M 28,17 H 4 a 1,1 0 0 1 0,-2 h 24 a 1,1 0 0 1 0,2 z"
   stroke-linecap="round"
   id="path3247" />
</g>
		<g
   transform="matrix(0,0.8377,-2.8084,0,-39.2917,-2e-4)"
   id="g3253">
<path
   style="opacity:1;fill:#b7bfcb;fill-rule:nonzero;stroke:none;stroke-width:0;stroke-linecap:butt;stroke-linejoin:miter;stroke-miterlimit:4;stroke-dasharray:none;stroke-dashoffset:0"
   transform="translate(-16,-23)"
   d="M 28,24 H 4 a 1,1 0 0 1 0,-2 h 24 a 1,1 0 0 1 0,2 z"
   stroke-linecap="round"
   id="path3251" />
</g>
		<g
   transform="matrix(0,0.8377,-2.8084,0,-58.9877,-2e-4)"
   id="g3257">
<path
   style="opacity:1;fill:#b7bfcb;fill-rule:nonzero;stroke:none;stroke-width:0;stroke-linecap:butt;stroke-linejoin:miter;stroke-miterlimit:4;stroke-dasharray:none;stroke-dashoffset:0"
   transform="translate(-16,-16)"
   d="M 28,17 H 4 a 1,1 0 0 1 0,-2 h 24 a 1,1 0 0 1 0,2 z"
   stroke-linecap="round"
   id="path3255" />
</g>
</g>
</g>
</g>
</g><g
         transform="translate(668.6671,260.5229)"
         id="730581">
<g
   id="g3310">
		<g
   transform="matrix(1.6953,0,0,0.3332,0.0025,-0.0013)"
   id="556871">
<path
   style="opacity:1;fill:#ffffff;fill-rule:nonzero;stroke:#b7bfcb;stroke-width:5;stroke-linecap:butt;stroke-linejoin:miter;stroke-miterlimit:4;stroke-dasharray:none;stroke-dashoffset:0"
   vector-effect="non-scaling-stroke"
   transform="translate(-79,-78.9999)"
   d="m 154.685,2.50049 h 0.026 l 0.027,-5.5e-4 c 0.412,-0.00868 0.753,0.31859 0.762,0.73046 v 2.9e-4 c 0,0.01026 0,0.02107 0,0.03214 l -0.001,0.02603 V 3.3149 154.686 c 0,0.449 -0.364,0.814 -0.814,0.814 H 3.31409 C 2.86449,155.5 2.5,155.135 2.5,154.686 V 3.3149 C 2.5,2.86483 2.86465,2.50049 3.31409,2.50049 Z"
   stroke-linecap="round"
   id="path3265" />
</g>
		<g
   transform="translate(-101.7278,-0.0023)"
   id="952470">
<g
   id="g3276">
		<g
   transform="matrix(0.1557,0,0,0.0922,-9.7851,-4e-4)"
   id="g3270">
<path
   style="opacity:1;fill:#b7bfcb;fill-rule:nonzero;stroke:none;stroke-width:0;stroke-linecap:butt;stroke-linejoin:miter;stroke-miterlimit:4;stroke-dasharray:none;stroke-dashoffset:0"
   vector-effect="non-scaling-stroke"
   transform="translate(-78.4998,-78.5)"
   d="M 78.5,0 C 52.9419,0 32.1166,35.2271 32.1166,78.5 c 0,43.273 20.8253,78.5 46.3834,78.5 25.558,0 46.383,-35.227 46.383,-78.5 C 124.883,35.2271 104.058,0 78.5,0 Z"
   stroke-linecap="round"
   id="path3268" />
</g>
		<g
   transform="matrix(0.1557,0,0,0.0922,9.7872,-0.0024)"
   id="g3274">
<path
   style="opacity:1;fill:#b7bfcb;fill-rule:nonzero;stroke:none;stroke-width:0;stroke-linecap:butt;stroke-linejoin:miter;stroke-miterlimit:4;stroke-dasharray:none;stroke-dashoffset:0"
   vector-effect="non-scaling-stroke"
   transform="translate(-78.4998,-78.5)"
   d="M 78.5,0 C 52.9419,0 32.1166,35.2271 32.1166,78.5 c 0,43.273 20.8253,78.5 46.3834,78.5 25.558,0 46.383,-35.227 46.383,-78.5 C 124.883,35.2271 104.058,0 78.5,0 Z"
   stroke-linecap="round"
   id="path3272" />
</g>
</g>
</g>
		<g
   transform="matrix(1.0612,0,0,1.0612,47.9987,0)"
   id="911294">
<g
   id="g3307">
		<g
   transform="matrix(0,0.8377,-2.8084,0,58.9877,-2e-4)"
   id="g3281">
<path
   style="opacity:1;fill:#b7bfcb;fill-rule:nonzero;stroke:none;stroke-width:0;stroke-linecap:butt;stroke-linejoin:miter;stroke-miterlimit:4;stroke-dasharray:none;stroke-dashoffset:0"
   transform="translate(-16,-9)"
   d="M 28,10 H 4 A 1,1 0 0 1 4,8 h 24 a 1,1 0 0 1 0,2 z"
   stroke-linecap="round"
   id="path3279" />
</g>
		<g
   transform="matrix(0,0.8377,-2.8084,0,39.3289,-2e-4)"
   id="g3285">
<path
   style="opacity:1;fill:#b7bfcb;fill-rule:nonzero;stroke:none;stroke-width:0;stroke-linecap:butt;stroke-linejoin:miter;stroke-miterlimit:4;stroke-dasharray:none;stroke-dashoffset:0"
   transform="translate(-16,-16)"
   d="M 28,17 H 4 a 1,1 0 0 1 0,-2 h 24 a 1,1 0 0 1 0,2 z"
   stroke-linecap="round"
   id="path3283" />
</g>
		<g
   transform="matrix(0,0.8377,-2.8084,0,19.6702,-2e-4)"
   id="g3289">
<path
   style="opacity:1;fill:#b7bfcb;fill-rule:nonzero;stroke:none;stroke-width:0;stroke-linecap:butt;stroke-linejoin:miter;stroke-miterlimit:4;stroke-dasharray:none;stroke-dashoffset:0"
   transform="translate(-16,-23)"
   d="M 28,24 H 4 a 1,1 0 0 1 0,-2 h 24 a 1,1 0 0 1 0,2 z"
   stroke-linecap="round"
   id="path3287" />
</g>
		<g
   transform="matrix(0,0.8377,-2.8084,0,0.0257,-2e-4)"
   id="g3293">
<path
   style="opacity:1;fill:#b7bfcb;fill-rule:nonzero;stroke:none;stroke-width:0;stroke-linecap:butt;stroke-linejoin:miter;stroke-miterlimit:4;stroke-dasharray:none;stroke-dashoffset:0"
   transform="translate(-16,-9)"
   d="M 28,10 H 4 A 1,1 0 0 1 4,8 h 24 a 1,1 0 0 1 0,2 z"
   stroke-linecap="round"
   id="path3291" />
</g>
		<g
   transform="matrix(0,0.8377,-2.8084,0,-19.6331,-2e-4)"
   id="g3297">
<path
   style="opacity:1;fill:#b7bfcb;fill-rule:nonzero;stroke:none;stroke-width:0;stroke-linecap:butt;stroke-linejoin:miter;stroke-miterlimit:4;stroke-dasharray:none;stroke-dashoffset:0"
   transform="translate(-16,-16)"
   d="M 28,17 H 4 a 1,1 0 0 1 0,-2 h 24 a 1,1 0 0 1 0,2 z"
   stroke-linecap="round"
   id="path3295" />
</g>
		<g
   transform="matrix(0,0.8377,-2.8084,0,-39.2917,-2e-4)"
   id="g3301">
<path
   style="opacity:1;fill:#b7bfcb;fill-rule:nonzero;stroke:none;stroke-width:0;stroke-linecap:butt;stroke-linejoin:miter;stroke-miterlimit:4;stroke-dasharray:none;stroke-dashoffset:0"
   transform="translate(-16,-23)"
   d="M 28,24 H 4 a 1,1 0 0 1 0,-2 h 24 a 1,1 0 0 1 0,2 z"
   stroke-linecap="round"
   id="path3299" />
</g>
		<g
   transform="matrix(0,0.8377,-2.8084,0,-58.9877,-2e-4)"
   id="g3305">
<path
   style="opacity:1;fill:#b7bfcb;fill-rule:nonzero;stroke:none;stroke-width:0;stroke-linecap:butt;stroke-linejoin:miter;stroke-miterlimit:4;stroke-dasharray:none;stroke-dashoffset:0"
   transform="translate(-16,-16)"
   d="M 28,17 H 4 a 1,1 0 0 1 0,-2 h 24 a 1,1 0 0 1 0,2 z"
   stroke-linecap="round"
   id="path3303" />
</g>
</g>
</g>
</g>
</g><g
         transform="matrix(4.9564,0,0,4.7241,342.8109,413.8089)"
         id="75742">
<path
   style="opacity:1;fill:none;fill-rule:nonzero;stroke:#5c83be;stroke-width:5;stroke-linecap:round;stroke-linejoin:round;stroke-miterlimit:4;stroke-dasharray:none;stroke-dashoffset:0"
   vector-effect="non-scaling-stroke"
   transform="translate(-12,-12)"
   d="M 5,8 H 19 M 5,12 H 19 M 5,16 h 6"
   stroke-linecap="round"
   id="path3313" />
</g><g
         transform="matrix(0.3182,0,0,0.3182,478.1338,426.5437)"
         id="248181">
<g
   vector-effect="non-scaling-stroke"
   id="g3334">
		<g
   transform="translate(-96.115)"
   id="285463">
<line
   style="opacity:1;fill:none;fill-rule:nonzero;stroke:#5c83be;stroke-width:20;stroke-linecap:round;stroke-linejoin:round;stroke-miterlimit:4;stroke-dasharray:none;stroke-dashoffset:0"
   x1="-47.884998"
   y1="0"
   x2="47.884998"
   y2="0"
   id="line3316" />
</g>
		<g
   transform="translate(96.115)"
   id="273964">
<line
   style="opacity:1;fill:none;fill-rule:nonzero;stroke:#5c83be;stroke-width:20;stroke-linecap:round;stroke-linejoin:round;stroke-miterlimit:4;stroke-dasharray:none;stroke-dashoffset:0"
   x1="-47.884998"
   y1="0"
   x2="47.884998"
   y2="0"
   id="line3319" />
</g>
		<g
   id="703941">
<line
   style="opacity:1;fill:none;fill-rule:nonzero;stroke:#5c83be;stroke-width:20;stroke-linecap:round;stroke-linejoin:round;stroke-miterlimit:4;stroke-dasharray:none;stroke-dashoffset:0"
   x1="23.6"
   y1="-23.6"
   x2="-23.6"
   y2="23.6"
   id="line3322" />
</g>
		<g
   id="441874">
<line
   style="opacity:1;fill:none;fill-rule:nonzero;stroke:#5c83be;stroke-width:20;stroke-linecap:round;stroke-linejoin:round;stroke-miterlimit:4;stroke-dasharray:none;stroke-dashoffset:0"
   x1="23.6"
   y1="23.6"
   x2="-23.6"
   y2="-23.6"
   id="line3325" />
</g>
		<g
   transform="translate(0,68.1891)"
   id="159025">
<path
   style="opacity:1;fill:none;fill-rule:nonzero;stroke:#5c83be;stroke-width:20;stroke-linecap:round;stroke-linejoin:round;stroke-miterlimit:4;stroke-dasharray:none;stroke-dashoffset:0"
   transform="translate(-256,-324.1891)"
   d="m 168.86,296.33 a 96,96 0 0 0 174.28,0"
   stroke-linecap="round"
   id="path3328" />
</g>
		<g
   transform="translate(0,-68.1891)"
   id="227933">
<path
   style="opacity:1;fill:none;fill-rule:nonzero;stroke:#5c83be;stroke-width:20;stroke-linecap:round;stroke-linejoin:round;stroke-miterlimit:4;stroke-dasharray:none;stroke-dashoffset:0"
   transform="translate(-256,-187.8109)"
   d="m 168.86,215.67 a 96,96 0 0 1 174.28,0"
   stroke-linecap="round"
   id="path3331" />
</g>
</g>
</g><g
         transform="matrix(3.2214,0,0,3.2214,260.1303,417.8797)"
         id="664869">
<path
   style="opacity:1;fill:#5c83be;fill-rule:nonzero;stroke:none;stroke-width:0;stroke-linecap:butt;stroke-linejoin:miter;stroke-miterlimit:4;stroke-dasharray:none;stroke-dashoffset:0"
   vector-effect="non-scaling-stroke"
   transform="translate(-12,-12)"
   d="m 21,2 h -6 a 1,1 0 0 0 0,2 h 5 v 5 a 1,1 0 0 0 2,0 V 3 A 1,1 0 0 0 21,2 Z m 0,12 a 1,1 0 0 0 -1,1 v 5 h -5 a 1,1 0 0 0 0,2 h 6 a 1,1 0 0 0 1,-1 V 15 A 1,1 0 0 0 21,14 Z M 12,6 A 3,3 0 0 0 9,9 v 1 a 2,2 0 0 0 -2,2 v 4 a 2,2 0 0 0 2,2 h 6 a 2,2 0 0 0 2,-2 V 12 A 2,2 0 0 0 15,10 V 9 A 3,3 0 0 0 12,6 Z m -1,3 a 1,1 0 0 1 2,0 v 1 h -2 z m 4,7 H 9 v -4 h 6 z M 3,10 A 1,1 0 0 0 4,9 V 4 H 9 A 1,1 0 0 0 9,2 H 3 A 1,1 0 0 0 2,3 v 6 a 1,1 0 0 0 1,1 z M 9,20 H 4 v -5 a 1,1 0 0 0 -2,0 v 6 a 1,1 0 0 0 1,1 h 6 a 1,1 0 0 0 0,-2 z"
   stroke-linecap="round"
   id="path3337" />
</g></g></g></svg>
