<?xml version="1.0" encoding="UTF-8" standalone="no"?>
<!-- Created with Inkscape (http://www.inkscape.org/) -->

<svg
   width="600mm"
   height="250mm"
   viewBox="0 0 600 250"
   version="1.1"
   id="svg5"
   xml:space="preserve"
   inkscape:version="1.2.2 (732a01da63, 2022-12-09)"
   sodipodi:docname="çizim.svg"
   xmlns:inkscape="http://www.inkscape.org/namespaces/inkscape"
   xmlns:sodipodi="http://sodipodi.sourceforge.net/DTD/sodipodi-0.dtd"
   xmlns="http://www.w3.org/2000/svg"
   xmlns:svg="http://www.w3.org/2000/svg"><sodipodi:namedview
     id="namedview7"
     pagecolor="#505050"
     bordercolor="#eeeeee"
     borderopacity="1"
     inkscape:showpageshadow="0"
     inkscape:pageopacity="0"
     inkscape:pagecheckerboard="0"
     inkscape:deskcolor="#505050"
     inkscape:document-units="mm"
     showgrid="false"
     inkscape:zoom="0.32954299"
     inkscape:cx="1165.2501"
     inkscape:cy="461.24483"
     inkscape:window-width="1366"
     inkscape:window-height="715"
     inkscape:window-x="-8"
     inkscape:window-y="-8"
     inkscape:window-maximized="1"
     inkscape:current-layer="layer1" /><defs
     id="defs2" /><g
     inkscape:label="Katman 1"
     inkscape:groupmode="layer"
     id="layer1"><g
       id="g558"
       transform="matrix(0.63747651,0,0,0.63747651,0.69808505,-124.20012)"><g
         transform="translate(807.2142,367.1809)"
         id="943358">
<g
   id="g31">
		<g
   transform="translate(0,-76.8191)"
   id="680513">
<path
   style="opacity:1;fill:#000000;fill-rule:nonzero;stroke:none;stroke-width:1;stroke-linecap:butt;stroke-linejoin:miter;stroke-miterlimit:4;stroke-dasharray:none;stroke-dashoffset:0"
   vector-effect="non-scaling-stroke"
   transform="translate(-12.0915,-12.0015)"
   d="M 16.86,8 A 4,4 0 0 0 13,5 H 6 V 8 H 2 v 2 h 4 v 3 h 7 a 4,4 0 0 0 3.85,-3 3.5043723,3.5043723 0 0 1 -0.35,7 H 2 v 2 H 16.5 A 5.5029447,5.5029447 0 0 0 16.86,8 Z"
   stroke-linecap="round"
   id="path22" />
</g>
		<g
   transform="translate(0,-26.4491)"
   id="229140">
<path
   style="opacity:1;fill:#000000;fill-rule:nonzero;stroke:none;stroke-width:1;stroke-linecap:butt;stroke-linejoin:miter;stroke-miterlimit:4;stroke-dasharray:none;stroke-dashoffset:0"
   vector-effect="non-scaling-stroke"
   transform="translate(-12.0915,-12.0015)"
   d="M 16.86,8 A 4,4 0 0 0 13,5 H 6 V 8 H 2 v 2 h 4 v 3 h 7 a 4,4 0 0 0 3.85,-3 3.5043723,3.5043723 0 0 1 -0.35,7 H 2 v 2 H 16.5 A 5.5029447,5.5029447 0 0 0 16.86,8 Z"
   stroke-linecap="round"
   id="path25" />
</g>
		<g
   transform="translate(0,76.8191)"
   id="27642">
<path
   style="opacity:1;fill:#000000;fill-rule:nonzero;stroke:none;stroke-width:1;stroke-linecap:butt;stroke-linejoin:miter;stroke-miterlimit:4;stroke-dasharray:none;stroke-dashoffset:0"
   vector-effect="non-scaling-stroke"
   transform="translate(-12.0915,-12.0015)"
   d="M 16.86,8 A 4,4 0 0 0 13,5 H 6 V 8 H 2 v 2 h 4 v 3 h 7 a 4,4 0 0 0 3.85,-3 3.5043723,3.5043723 0 0 1 -0.35,7 H 2 v 2 H 16.5 A 5.5029447,5.5029447 0 0 0 16.86,8 Z"
   stroke-linecap="round"
   id="path28" />
</g>
</g>
</g><g
         transform="matrix(0.7703,0,0,0.7703,303.4279,478.3465)"
         id="69047">
<path
   style="opacity:1;fill:#b7bfcb;fill-rule:nonzero;stroke:none;stroke-width:0;stroke-linecap:butt;stroke-linejoin:miter;stroke-miterlimit:4;stroke-dasharray:none;stroke-dashoffset:0"
   vector-effect="non-scaling-stroke"
   transform="translate(-147.0501,-147.05)"
   d="M 294.089,25.772 C 293.323,18.206 287.101,12.55 279.333,12.55 h -264 C 7.049,12.55 0,18.766 0,27.05 v 158.333 c 0,0.002 0,0.004 0,0.006 v 29.161 c 0,8.284 7.049,15 15.333,15 h 74.618 l -4.416,22 H 64.333 c -8.284,0 -15,6.716 -15,15 0,8.284 6.716,15 15,15 h 33.5 99 c 0.005,-0.001 0.013,-0.001 0.02,0 h 32.48 c 8.284,0 15,-6.716 15,-15 0,-8.284 -6.716,-15 -15,-15 H 209.13 l -4.416,-22 h 74.618 c 8.284,0 14.667,-6.716 14.667,-15 V 27.05 c 10e-4,-0.518 0.141,-0.777 0.09,-1.278 z M 264,42.55 v 128 H 30 v -128 z"
   stroke-linecap="round"
   id="path34" />
</g><g
         transform="matrix(1.0612,0,0,1.0612,668.1777,443.4665)"
         id="826094">
<g
   id="g79">
		<g
   transform="matrix(1.5975,0,0,0.314,-1e-4,0)"
   id="533800">
<path
   style="opacity:1;fill:#ffffff;fill-rule:nonzero;stroke:#b7bfcb;stroke-width:5;stroke-linecap:butt;stroke-linejoin:miter;stroke-miterlimit:4;stroke-dasharray:none;stroke-dashoffset:0"
   vector-effect="non-scaling-stroke"
   transform="translate(-79,-78.9999)"
   d="m 154.685,2.50049 h 0.026 l 0.027,-5.5e-4 c 0.412,-0.00868 0.753,0.31859 0.762,0.73046 v 2.9e-4 c 0,0.01026 0,0.02107 0,0.03214 l -0.001,0.02603 V 3.3149 154.686 c 0,0.449 -0.364,0.814 -0.814,0.814 H 3.31409 C 2.86449,155.5 2.5,155.135 2.5,154.686 V 3.3149 C 2.5,2.86483 2.86465,2.50049 3.31409,2.50049 Z"
   stroke-linecap="round"
   id="path37" />
</g>
		<g
   transform="translate(45.2306)"
   id="964538">
<g
   id="g67">
		<g
   transform="matrix(0,0.8377,-2.8084,0,58.9877,-2e-4)"
   id="Layer_2">
<path
   style="opacity:1;fill:#b7bfcb;fill-rule:nonzero;stroke:none;stroke-width:0;stroke-linecap:butt;stroke-linejoin:miter;stroke-miterlimit:4;stroke-dasharray:none;stroke-dashoffset:0"
   transform="translate(-16,-9)"
   d="M 28,10 H 4 A 1,1 0 0 1 4,8 h 24 a 1,1 0 0 1 0,2 z"
   stroke-linecap="round"
   id="path40" />
</g>
		<g
   transform="matrix(0,0.8377,-2.8084,0,39.3289,-2e-4)"
   id="g45">
<path
   style="opacity:1;fill:#b7bfcb;fill-rule:nonzero;stroke:none;stroke-width:0;stroke-linecap:butt;stroke-linejoin:miter;stroke-miterlimit:4;stroke-dasharray:none;stroke-dashoffset:0"
   transform="translate(-16,-16)"
   d="M 28,17 H 4 a 1,1 0 0 1 0,-2 h 24 a 1,1 0 0 1 0,2 z"
   stroke-linecap="round"
   id="path43" />
</g>
		<g
   transform="matrix(0,0.8377,-2.8084,0,19.6702,-2e-4)"
   id="g49">
<path
   style="opacity:1;fill:#b7bfcb;fill-rule:nonzero;stroke:none;stroke-width:0;stroke-linecap:butt;stroke-linejoin:miter;stroke-miterlimit:4;stroke-dasharray:none;stroke-dashoffset:0"
   transform="translate(-16,-23)"
   d="M 28,24 H 4 a 1,1 0 0 1 0,-2 h 24 a 1,1 0 0 1 0,2 z"
   stroke-linecap="round"
   id="path47" />
</g>
		<g
   transform="matrix(0,0.8377,-2.8084,0,0.0257,-2e-4)"
   id="g53">
<path
   style="opacity:1;fill:#b7bfcb;fill-rule:nonzero;stroke:none;stroke-width:0;stroke-linecap:butt;stroke-linejoin:miter;stroke-miterlimit:4;stroke-dasharray:none;stroke-dashoffset:0"
   transform="translate(-16,-9)"
   d="M 28,10 H 4 A 1,1 0 0 1 4,8 h 24 a 1,1 0 0 1 0,2 z"
   stroke-linecap="round"
   id="path51" />
</g>
		<g
   transform="matrix(0,0.8377,-2.8084,0,-19.6331,-2e-4)"
   id="g57">
<path
   style="opacity:1;fill:#b7bfcb;fill-rule:nonzero;stroke:none;stroke-width:0;stroke-linecap:butt;stroke-linejoin:miter;stroke-miterlimit:4;stroke-dasharray:none;stroke-dashoffset:0"
   transform="translate(-16,-16)"
   d="M 28,17 H 4 a 1,1 0 0 1 0,-2 h 24 a 1,1 0 0 1 0,2 z"
   stroke-linecap="round"
   id="path55" />
</g>
		<g
   transform="matrix(0,0.8377,-2.8084,0,-39.2917,-2e-4)"
   id="g61">
<path
   style="opacity:1;fill:#b7bfcb;fill-rule:nonzero;stroke:none;stroke-width:0;stroke-linecap:butt;stroke-linejoin:miter;stroke-miterlimit:4;stroke-dasharray:none;stroke-dashoffset:0"
   transform="translate(-16,-23)"
   d="M 28,24 H 4 a 1,1 0 0 1 0,-2 h 24 a 1,1 0 0 1 0,2 z"
   stroke-linecap="round"
   id="path59" />
</g>
		<g
   transform="matrix(0,0.8377,-2.8084,0,-58.9877,-2e-4)"
   id="g65">
<path
   style="opacity:1;fill:#b7bfcb;fill-rule:nonzero;stroke:none;stroke-width:0;stroke-linecap:butt;stroke-linejoin:miter;stroke-miterlimit:4;stroke-dasharray:none;stroke-dashoffset:0"
   transform="translate(-16,-16)"
   d="M 28,17 H 4 a 1,1 0 0 1 0,-2 h 24 a 1,1 0 0 1 0,2 z"
   stroke-linecap="round"
   id="path63" />
</g>
</g>
</g>
		<g
   transform="translate(-95.8611,-0.0021)"
   id="504262">
<g
   id="g76">
		<g
   transform="matrix(0.1467,0,0,0.0869,-9.2218,9e-4)"
   id="61229">
<path
   style="opacity:1;fill:#0099ff;fill-rule:nonzero;stroke:none;stroke-width:0;stroke-linecap:butt;stroke-linejoin:miter;stroke-miterlimit:4;stroke-dasharray:none;stroke-dashoffset:0"
   vector-effect="non-scaling-stroke"
   transform="translate(-78.4998,-78.5)"
   d="M 78.5,0 C 52.9419,0 32.1166,35.2271 32.1166,78.5 c 0,43.273 20.8253,78.5 46.3834,78.5 25.558,0 46.383,-35.227 46.383,-78.5 C 124.883,35.2271 104.058,0 78.5,0 Z"
   stroke-linecap="round"
   id="path70" />
</g>
		<g
   transform="matrix(0.1467,0,0,0.0869,9.2217,-0.001)"
   id="81755">
<path
   style="opacity:1;fill:#b7bfcb;fill-rule:nonzero;stroke:none;stroke-width:0;stroke-linecap:butt;stroke-linejoin:miter;stroke-miterlimit:4;stroke-dasharray:none;stroke-dashoffset:0"
   vector-effect="non-scaling-stroke"
   transform="translate(-78.4998,-78.5)"
   d="M 78.5,0 C 52.9419,0 32.1166,35.2271 32.1166,78.5 c 0,43.273 20.8253,78.5 46.3834,78.5 25.558,0 46.383,-35.227 46.383,-78.5 C 124.883,35.2271 104.058,0 78.5,0 Z"
   stroke-linecap="round"
   id="path73" />
</g>
</g>
</g>
</g>
</g><g
         transform="matrix(1.0612,0,0,1.0612,668.1777,494.5908)"
         id="619828">
<g
   id="g127">
		<g
   transform="matrix(1.5975,0,0,0.314,-1e-4,0)"
   id="228633">
<path
   style="opacity:1;fill:#ffffff;fill-rule:nonzero;stroke:#b7bfcb;stroke-width:5;stroke-linecap:butt;stroke-linejoin:miter;stroke-miterlimit:4;stroke-dasharray:none;stroke-dashoffset:0"
   vector-effect="non-scaling-stroke"
   transform="translate(-79,-78.9999)"
   d="m 154.685,2.50049 h 0.026 l 0.027,-5.5e-4 c 0.412,-0.00868 0.753,0.31859 0.762,0.73046 v 2.9e-4 c 0,0.01026 0,0.02107 0,0.03214 l -0.001,0.02603 V 3.3149 154.686 c 0,0.449 -0.364,0.814 -0.814,0.814 H 3.31409 C 2.86449,155.5 2.5,155.135 2.5,154.686 V 3.3149 C 2.5,2.86483 2.86465,2.50049 3.31409,2.50049 Z"
   stroke-linecap="round"
   id="path82" />
</g>
		<g
   transform="translate(45.2306)"
   id="356880">
<g
   id="g113">
		<g
   transform="matrix(0,0.8377,-2.8084,0,58.9877,-2e-4)"
   id="g87">
<path
   style="opacity:1;fill:#b7bfcb;fill-rule:nonzero;stroke:none;stroke-width:0;stroke-linecap:butt;stroke-linejoin:miter;stroke-miterlimit:4;stroke-dasharray:none;stroke-dashoffset:0"
   transform="translate(-16,-9)"
   d="M 28,10 H 4 A 1,1 0 0 1 4,8 h 24 a 1,1 0 0 1 0,2 z"
   stroke-linecap="round"
   id="path85" />
</g>
		<g
   transform="matrix(0,0.8377,-2.8084,0,39.3289,-2e-4)"
   id="g91">
<path
   style="opacity:1;fill:#b7bfcb;fill-rule:nonzero;stroke:none;stroke-width:0;stroke-linecap:butt;stroke-linejoin:miter;stroke-miterlimit:4;stroke-dasharray:none;stroke-dashoffset:0"
   transform="translate(-16,-16)"
   d="M 28,17 H 4 a 1,1 0 0 1 0,-2 h 24 a 1,1 0 0 1 0,2 z"
   stroke-linecap="round"
   id="path89" />
</g>
		<g
   transform="matrix(0,0.8377,-2.8084,0,19.6702,-2e-4)"
   id="g95">
<path
   style="opacity:1;fill:#b7bfcb;fill-rule:nonzero;stroke:none;stroke-width:0;stroke-linecap:butt;stroke-linejoin:miter;stroke-miterlimit:4;stroke-dasharray:none;stroke-dashoffset:0"
   transform="translate(-16,-23)"
   d="M 28,24 H 4 a 1,1 0 0 1 0,-2 h 24 a 1,1 0 0 1 0,2 z"
   stroke-linecap="round"
   id="path93" />
</g>
		<g
   transform="matrix(0,0.8377,-2.8084,0,0.0257,-2e-4)"
   id="g99">
<path
   style="opacity:1;fill:#b7bfcb;fill-rule:nonzero;stroke:none;stroke-width:0;stroke-linecap:butt;stroke-linejoin:miter;stroke-miterlimit:4;stroke-dasharray:none;stroke-dashoffset:0"
   transform="translate(-16,-9)"
   d="M 28,10 H 4 A 1,1 0 0 1 4,8 h 24 a 1,1 0 0 1 0,2 z"
   stroke-linecap="round"
   id="path97" />
</g>
		<g
   transform="matrix(0,0.8377,-2.8084,0,-19.6331,-2e-4)"
   id="g103">
<path
   style="opacity:1;fill:#b7bfcb;fill-rule:nonzero;stroke:none;stroke-width:0;stroke-linecap:butt;stroke-linejoin:miter;stroke-miterlimit:4;stroke-dasharray:none;stroke-dashoffset:0"
   transform="translate(-16,-16)"
   d="M 28,17 H 4 a 1,1 0 0 1 0,-2 h 24 a 1,1 0 0 1 0,2 z"
   stroke-linecap="round"
   id="path101" />
</g>
		<g
   transform="matrix(0,0.8377,-2.8084,0,-39.2917,-2e-4)"
   id="g107">
<path
   style="opacity:1;fill:#b7bfcb;fill-rule:nonzero;stroke:none;stroke-width:0;stroke-linecap:butt;stroke-linejoin:miter;stroke-miterlimit:4;stroke-dasharray:none;stroke-dashoffset:0"
   transform="translate(-16,-23)"
   d="M 28,24 H 4 a 1,1 0 0 1 0,-2 h 24 a 1,1 0 0 1 0,2 z"
   stroke-linecap="round"
   id="path105" />
</g>
		<g
   transform="matrix(0,0.8377,-2.8084,0,-58.9877,-2e-4)"
   id="g111">
<path
   style="opacity:1;fill:#b7bfcb;fill-rule:nonzero;stroke:none;stroke-width:0;stroke-linecap:butt;stroke-linejoin:miter;stroke-miterlimit:4;stroke-dasharray:none;stroke-dashoffset:0"
   transform="translate(-16,-16)"
   d="M 28,17 H 4 a 1,1 0 0 1 0,-2 h 24 a 1,1 0 0 1 0,2 z"
   stroke-linecap="round"
   id="path109" />
</g>
</g>
</g>
		<g
   transform="translate(-95.8611,-0.0021)"
   id="814477">
<g
   id="g124">
		<g
   transform="matrix(0.1467,0,0,0.0869,-9.2218,9e-4)"
   id="g118">
<path
   style="opacity:1;fill:#0099ff;fill-rule:nonzero;stroke:none;stroke-width:0;stroke-linecap:butt;stroke-linejoin:miter;stroke-miterlimit:4;stroke-dasharray:none;stroke-dashoffset:0"
   vector-effect="non-scaling-stroke"
   transform="translate(-78.4998,-78.5)"
   d="M 78.5,0 C 52.9419,0 32.1166,35.2271 32.1166,78.5 c 0,43.273 20.8253,78.5 46.3834,78.5 25.558,0 46.383,-35.227 46.383,-78.5 C 124.883,35.2271 104.058,0 78.5,0 Z"
   stroke-linecap="round"
   id="path116" />
</g>
		<g
   transform="matrix(0.1467,0,0,0.0869,9.2217,-0.001)"
   id="g122">
<path
   style="opacity:1;fill:#b7bfcb;fill-rule:nonzero;stroke:none;stroke-width:0;stroke-linecap:butt;stroke-linejoin:miter;stroke-miterlimit:4;stroke-dasharray:none;stroke-dashoffset:0"
   vector-effect="non-scaling-stroke"
   transform="translate(-78.4998,-78.5)"
   d="M 78.5,0 C 52.9419,0 32.1166,35.2271 32.1166,78.5 c 0,43.273 20.8253,78.5 46.3834,78.5 25.558,0 46.383,-35.227 46.383,-78.5 C 124.883,35.2271 104.058,0 78.5,0 Z"
   stroke-linecap="round"
   id="path120" />
</g>
</g>
</g>
</g>
</g><g
         transform="matrix(0.1567,0,0,0.0353,461.0118,274.9486)"
         id="675095">
<path
   style="opacity:1;fill:#000000;fill-rule:nonzero;stroke:none;stroke-width:0;stroke-linecap:butt;stroke-linejoin:miter;stroke-miterlimit:4;stroke-dasharray:none;stroke-dashoffset:0"
   vector-effect="non-scaling-stroke"
   transform="translate(-512,-512)"
   d="M 904,476 H 120 c -4.4,0 -8,3.6 -8,8 v 56 c 0,4.4 3.6,8 8,8 h 784 c 4.4,0 8,-3.6 8,-8 v -56 c 0,-4.4 -3.6,-8 -8,-8 z"
   stroke-linecap="round"
   id="path130" />
</g><g
         transform="matrix(3.038,0,0,3.038,260.336,446.8185)"
         id="143324">
<g
   vector-effect="non-scaling-stroke"
   id="g145">
		<g
   transform="translate(0,1)"
   id="925294">
<path
   style="opacity:1;fill:#000000;fill-opacity:0;fill-rule:nonzero;stroke:none;stroke-width:1;stroke-linecap:butt;stroke-linejoin:miter;stroke-miterlimit:4;stroke-dasharray:none;stroke-dashoffset:0"
   transform="translate(-12,-12)"
   d="M 22,12 C 22,17.523 17.523,22 12,22 6.4772,22 2,17.523 2,12 2,6.4772 6.4772,2 12,2 17.523,2 22,6.4772 22,12 Z"
   stroke-linecap="round"
   id="path133" />
</g>
		<g
   id="550156">
<path
   style="opacity:1;fill:#5c83be;fill-rule:nonzero;stroke:none;stroke-width:1;stroke-linecap:butt;stroke-linejoin:miter;stroke-miterlimit:4;stroke-dasharray:none;stroke-dashoffset:0"
   transform="translate(-12,-12)"
   d="M 22,12 C 22,17.523 17.523,22 12,22 6.4772,22 2,17.523 2,12 2,6.4772 6.4772,2 12,2 17.523,2 22,6.4772 22,12 Z"
   stroke-linecap="round"
   id="path136" />
</g>
		<g
   transform="translate(1e-4,0.95)"
   id="598911">
<path
   style="opacity:1;fill:#000000;fill-opacity:0;fill-rule:nonzero;stroke:none;stroke-width:1;stroke-linecap:butt;stroke-linejoin:miter;stroke-miterlimit:4;stroke-dasharray:none;stroke-dashoffset:0"
   transform="translate(-12.0001,-1041.35)"
   d="m 7.0503,1037.8 3.5357,3.6 -3.5357,3.5 1.4142,1.4 3.5355,-3.5 3.536,3.5 1.414,-1.4 -3.536,-3.5 3.536,-3.6 -1.414,-1.4 -3.536,3.5 -3.5355,-3.5 z"
   stroke-linecap="round"
   id="path139" />
</g>
		<g
   transform="translate(1e-4,-0.05)"
   id="277945">
<path
   style="opacity:1;fill:#ecf0f1;fill-rule:nonzero;stroke:none;stroke-width:1;stroke-linecap:butt;stroke-linejoin:miter;stroke-miterlimit:4;stroke-dasharray:none;stroke-dashoffset:0"
   transform="translate(-12.0001,-1040.35)"
   d="m 7.0503,1036.8 3.5357,3.6 -3.5357,3.5 1.4142,1.4 3.5355,-3.5 3.536,3.5 1.414,-1.4 -3.536,-3.5 3.536,-3.6 -1.414,-1.4 -3.536,3.5 -3.5355,-3.5 z"
   stroke-linecap="round"
   id="path142" />
</g>
</g>
</g><g
         transform="matrix(2.9722,0,0,2.9722,357.7229,268.8592)"
         id="825317">
<path
   style="opacity:1;fill:#5c83be;fill-rule:nonzero;stroke:none;stroke-width:0;stroke-linecap:butt;stroke-linejoin:miter;stroke-miterlimit:4;stroke-dasharray:none;stroke-dashoffset:0"
   vector-effect="non-scaling-stroke"
   transform="translate(-12,-12.2555)"
   d="M 21.171,15.398 15.259,5.544 C 14.483,4.251 13.296,3.511 12,3.511 c -1.296,0 -2.483,0.74 -3.259,2.031 L 2.829,15.398 C 2.043,16.707 1.957,18.103 2.594,19.228 3.23,20.354 4.472,21 6,21 h 12 c 1.528,0 2.77,-0.646 3.406,-1.771 0.637,-1.125 0.551,-2.521 -0.235,-3.831 z M 12,17.549 c -0.854,0 -1.55,-0.695 -1.55,-1.549 0,-0.855 0.695,-1.551 1.55,-1.551 0.855,0 1.55,0.696 1.55,1.551 0,0.854 -0.696,1.549 -1.55,1.549 z m 1.633,-7.424 c -0.011,0.031 -1.401,3.468 -1.401,3.468 -0.038,0.094 -0.13,0.156 -0.231,0.156 -0.101,0 -0.193,-0.062 -0.231,-0.156 L 10.379,10.155 C 10.289,9.922 10.25,9.712 10.25,9.5 c 0,-0.965 0.785,-1.75 1.75,-1.75 0.965,0 1.75,0.785 1.75,1.75 0,0.212 -0.039,0.422 -0.117,0.625 z"
   stroke-linecap="round"
   id="path148" />
</g><g
         transform="matrix(4.9564,0,0,4.7241,342.3214,443.4656)"
         id="626043">
<path
   style="opacity:1;fill:none;fill-rule:nonzero;stroke:#5c83be;stroke-width:5;stroke-linecap:round;stroke-linejoin:round;stroke-miterlimit:4;stroke-dasharray:none;stroke-dashoffset:0"
   vector-effect="non-scaling-stroke"
   transform="translate(-12,-12)"
   d="M 5,8 H 19 M 5,12 H 19 M 5,16 h 6"
   stroke-linecap="round"
   id="path151" />
</g><g
         transform="matrix(0,0.0782,-0.0417,0,357.9462,337.1903)"
         id="776705">
<path
   style="opacity:1;fill:#000000;fill-rule:nonzero;stroke:none;stroke-width:0;stroke-linecap:butt;stroke-linejoin:miter;stroke-miterlimit:4;stroke-dasharray:none;stroke-dashoffset:0"
   vector-effect="non-scaling-stroke"
   transform="translate(-512,-512)"
   d="M 904,476 H 120 c -4.4,0 -8,3.6 -8,8 v 56 c 0,4.4 3.6,8 8,8 h 784 c 4.4,0 8,-3.6 8,-8 v -56 c 0,-4.4 -3.6,-8 -8,-8 z"
   stroke-linecap="round"
   id="path154" />
</g><g
         transform="matrix(1.0201,0,0,0.1794,469.5105,578.6665)"
         id="485636">
<path
   style="opacity:1;fill:#b7bfcb;fill-rule:nonzero;stroke:none;stroke-width:0;stroke-linecap:butt;stroke-linejoin:miter;stroke-miterlimit:4;stroke-dasharray:none;stroke-dashoffset:0"
   vector-effect="non-scaling-stroke"
   transform="translate(-512,-512)"
   d="M 904,476 H 120 c -4.4,0 -8,3.6 -8,8 v 56 c 0,4.4 3.6,8 8,8 h 784 c 4.4,0 8,-3.6 8,-8 v -56 c 0,-4.4 -3.6,-8 -8,-8 z"
   stroke-linecap="round"
   id="path157" />
</g><g
         transform="matrix(1.0612,0,0,1.0612,668.1777,341.3276)"
         id="306154">
<g
   id="g205">
		<g
   transform="matrix(1.5975,0,0,0.314,-1e-4,0)"
   id="27306">
<path
   style="opacity:1;fill:#ffffff;fill-rule:nonzero;stroke:#b7bfcb;stroke-width:5;stroke-linecap:butt;stroke-linejoin:miter;stroke-miterlimit:4;stroke-dasharray:none;stroke-dashoffset:0"
   vector-effect="non-scaling-stroke"
   transform="translate(-79,-78.9999)"
   d="m 154.685,2.50049 h 0.026 l 0.027,-5.5e-4 c 0.412,-0.00868 0.753,0.31859 0.762,0.73046 v 2.9e-4 c 0,0.01026 0,0.02107 0,0.03214 l -0.001,0.02603 V 3.3149 154.686 c 0,0.449 -0.364,0.814 -0.814,0.814 H 3.31409 C 2.86449,155.5 2.5,155.135 2.5,154.686 V 3.3149 C 2.5,2.86483 2.86465,2.50049 3.31409,2.50049 Z"
   stroke-linecap="round"
   id="path160" />
</g>
		<g
   transform="translate(45.2306)"
   id="292755">
<g
   id="g191">
		<g
   transform="matrix(0,0.8377,-2.8084,0,58.9877,-2e-4)"
   id="g165">
<path
   style="opacity:1;fill:#b7bfcb;fill-rule:nonzero;stroke:none;stroke-width:0;stroke-linecap:butt;stroke-linejoin:miter;stroke-miterlimit:4;stroke-dasharray:none;stroke-dashoffset:0"
   transform="translate(-16,-9)"
   d="M 28,10 H 4 A 1,1 0 0 1 4,8 h 24 a 1,1 0 0 1 0,2 z"
   stroke-linecap="round"
   id="path163" />
</g>
		<g
   transform="matrix(0,0.8377,-2.8084,0,39.3289,-2e-4)"
   id="g169">
<path
   style="opacity:1;fill:#b7bfcb;fill-rule:nonzero;stroke:none;stroke-width:0;stroke-linecap:butt;stroke-linejoin:miter;stroke-miterlimit:4;stroke-dasharray:none;stroke-dashoffset:0"
   transform="translate(-16,-16)"
   d="M 28,17 H 4 a 1,1 0 0 1 0,-2 h 24 a 1,1 0 0 1 0,2 z"
   stroke-linecap="round"
   id="path167" />
</g>
		<g
   transform="matrix(0,0.8377,-2.8084,0,19.6702,-2e-4)"
   id="g173">
<path
   style="opacity:1;fill:#b7bfcb;fill-rule:nonzero;stroke:none;stroke-width:0;stroke-linecap:butt;stroke-linejoin:miter;stroke-miterlimit:4;stroke-dasharray:none;stroke-dashoffset:0"
   transform="translate(-16,-23)"
   d="M 28,24 H 4 a 1,1 0 0 1 0,-2 h 24 a 1,1 0 0 1 0,2 z"
   stroke-linecap="round"
   id="path171" />
</g>
		<g
   transform="matrix(0,0.8377,-2.8084,0,0.0257,-2e-4)"
   id="g177">
<path
   style="opacity:1;fill:#b7bfcb;fill-rule:nonzero;stroke:none;stroke-width:0;stroke-linecap:butt;stroke-linejoin:miter;stroke-miterlimit:4;stroke-dasharray:none;stroke-dashoffset:0"
   transform="translate(-16,-9)"
   d="M 28,10 H 4 A 1,1 0 0 1 4,8 h 24 a 1,1 0 0 1 0,2 z"
   stroke-linecap="round"
   id="path175" />
</g>
		<g
   transform="matrix(0,0.8377,-2.8084,0,-19.6331,-2e-4)"
   id="g181">
<path
   style="opacity:1;fill:#b7bfcb;fill-rule:nonzero;stroke:none;stroke-width:0;stroke-linecap:butt;stroke-linejoin:miter;stroke-miterlimit:4;stroke-dasharray:none;stroke-dashoffset:0"
   transform="translate(-16,-16)"
   d="M 28,17 H 4 a 1,1 0 0 1 0,-2 h 24 a 1,1 0 0 1 0,2 z"
   stroke-linecap="round"
   id="path179" />
</g>
		<g
   transform="matrix(0,0.8377,-2.8084,0,-39.2917,-2e-4)"
   id="g185">
<path
   style="opacity:1;fill:#b7bfcb;fill-rule:nonzero;stroke:none;stroke-width:0;stroke-linecap:butt;stroke-linejoin:miter;stroke-miterlimit:4;stroke-dasharray:none;stroke-dashoffset:0"
   transform="translate(-16,-23)"
   d="M 28,24 H 4 a 1,1 0 0 1 0,-2 h 24 a 1,1 0 0 1 0,2 z"
   stroke-linecap="round"
   id="path183" />
</g>
		<g
   transform="matrix(0,0.8377,-2.8084,0,-58.9877,-2e-4)"
   id="g189">
<path
   style="opacity:1;fill:#b7bfcb;fill-rule:nonzero;stroke:none;stroke-width:0;stroke-linecap:butt;stroke-linejoin:miter;stroke-miterlimit:4;stroke-dasharray:none;stroke-dashoffset:0"
   transform="translate(-16,-16)"
   d="M 28,17 H 4 a 1,1 0 0 1 0,-2 h 24 a 1,1 0 0 1 0,2 z"
   stroke-linecap="round"
   id="path187" />
</g>
</g>
</g>
		<g
   transform="translate(-95.8611,-0.0021)"
   id="876928">
<g
   id="g202">
		<g
   transform="matrix(0.1467,0,0,0.0869,-9.2218,9e-4)"
   id="g196">
<path
   style="opacity:1;fill:#0099ff;fill-rule:nonzero;stroke:none;stroke-width:0;stroke-linecap:butt;stroke-linejoin:miter;stroke-miterlimit:4;stroke-dasharray:none;stroke-dashoffset:0"
   vector-effect="non-scaling-stroke"
   transform="translate(-78.4998,-78.5)"
   d="M 78.5,0 C 52.9419,0 32.1166,35.2271 32.1166,78.5 c 0,43.273 20.8253,78.5 46.3834,78.5 25.558,0 46.383,-35.227 46.383,-78.5 C 124.883,35.2271 104.058,0 78.5,0 Z"
   stroke-linecap="round"
   id="path194" />
</g>
		<g
   transform="matrix(0.1467,0,0,0.0869,9.2217,-0.001)"
   id="g200">
<path
   style="opacity:1;fill:#b7bfcb;fill-rule:nonzero;stroke:none;stroke-width:0;stroke-linecap:butt;stroke-linejoin:miter;stroke-miterlimit:4;stroke-dasharray:none;stroke-dashoffset:0"
   vector-effect="non-scaling-stroke"
   transform="translate(-78.4998,-78.5)"
   d="M 78.5,0 C 52.9419,0 32.1166,35.2271 32.1166,78.5 c 0,43.273 20.8253,78.5 46.3834,78.5 25.558,0 46.383,-35.227 46.383,-78.5 C 124.883,35.2271 104.058,0 78.5,0 Z"
   stroke-linecap="round"
   id="path198" />
</g>
</g>
</g>
</g>
</g><g
         transform="translate(668.1776,392.4421)"
         id="611385">
<g
   id="g253">
		<g
   transform="matrix(1.6953,0,0,0.3332,0.0025,-0.0013)"
   id="601138">
<path
   style="opacity:1;fill:#ffffff;fill-rule:nonzero;stroke:#b7bfcb;stroke-width:5;stroke-linecap:butt;stroke-linejoin:miter;stroke-miterlimit:4;stroke-dasharray:none;stroke-dashoffset:0"
   vector-effect="non-scaling-stroke"
   transform="translate(-79,-78.9999)"
   d="m 154.685,2.50049 h 0.026 l 0.027,-5.5e-4 c 0.412,-0.00868 0.753,0.31859 0.762,0.73046 v 2.9e-4 c 0,0.01026 0,0.02107 0,0.03214 l -0.001,0.02603 V 3.3149 154.686 c 0,0.449 -0.364,0.814 -0.814,0.814 H 3.31409 C 2.86449,155.5 2.5,155.135 2.5,154.686 V 3.3149 C 2.5,2.86483 2.86465,2.50049 3.31409,2.50049 Z"
   stroke-linecap="round"
   id="path208" />
</g>
		<g
   transform="matrix(1.0612,0,0,1.0612,47.9987,0)"
   id="754232">
<g
   id="g239">
		<g
   transform="matrix(0,0.8377,-2.8084,0,58.9877,-2e-4)"
   id="g213">
<path
   style="opacity:1;fill:#b7bfcb;fill-rule:nonzero;stroke:none;stroke-width:0;stroke-linecap:butt;stroke-linejoin:miter;stroke-miterlimit:4;stroke-dasharray:none;stroke-dashoffset:0"
   transform="translate(-16,-9)"
   d="M 28,10 H 4 A 1,1 0 0 1 4,8 h 24 a 1,1 0 0 1 0,2 z"
   stroke-linecap="round"
   id="path211" />
</g>
		<g
   transform="matrix(0,0.8377,-2.8084,0,39.3289,-2e-4)"
   id="g217">
<path
   style="opacity:1;fill:#b7bfcb;fill-rule:nonzero;stroke:none;stroke-width:0;stroke-linecap:butt;stroke-linejoin:miter;stroke-miterlimit:4;stroke-dasharray:none;stroke-dashoffset:0"
   transform="translate(-16,-16)"
   d="M 28,17 H 4 a 1,1 0 0 1 0,-2 h 24 a 1,1 0 0 1 0,2 z"
   stroke-linecap="round"
   id="path215" />
</g>
		<g
   transform="matrix(0,0.8377,-2.8084,0,19.6702,-2e-4)"
   id="g221">
<path
   style="opacity:1;fill:#b7bfcb;fill-rule:nonzero;stroke:none;stroke-width:0;stroke-linecap:butt;stroke-linejoin:miter;stroke-miterlimit:4;stroke-dasharray:none;stroke-dashoffset:0"
   transform="translate(-16,-23)"
   d="M 28,24 H 4 a 1,1 0 0 1 0,-2 h 24 a 1,1 0 0 1 0,2 z"
   stroke-linecap="round"
   id="path219" />
</g>
		<g
   transform="matrix(0,0.8377,-2.8084,0,0.0257,-2e-4)"
   id="g225">
<path
   style="opacity:1;fill:#b7bfcb;fill-rule:nonzero;stroke:none;stroke-width:0;stroke-linecap:butt;stroke-linejoin:miter;stroke-miterlimit:4;stroke-dasharray:none;stroke-dashoffset:0"
   transform="translate(-16,-9)"
   d="M 28,10 H 4 A 1,1 0 0 1 4,8 h 24 a 1,1 0 0 1 0,2 z"
   stroke-linecap="round"
   id="path223" />
</g>
		<g
   transform="matrix(0,0.8377,-2.8084,0,-19.6331,-2e-4)"
   id="g229">
<path
   style="opacity:1;fill:#b7bfcb;fill-rule:nonzero;stroke:none;stroke-width:0;stroke-linecap:butt;stroke-linejoin:miter;stroke-miterlimit:4;stroke-dasharray:none;stroke-dashoffset:0"
   transform="translate(-16,-16)"
   d="M 28,17 H 4 a 1,1 0 0 1 0,-2 h 24 a 1,1 0 0 1 0,2 z"
   stroke-linecap="round"
   id="path227" />
</g>
		<g
   transform="matrix(0,0.8377,-2.8084,0,-39.2917,-2e-4)"
   id="g233">
<path
   style="opacity:1;fill:#b7bfcb;fill-rule:nonzero;stroke:none;stroke-width:0;stroke-linecap:butt;stroke-linejoin:miter;stroke-miterlimit:4;stroke-dasharray:none;stroke-dashoffset:0"
   transform="translate(-16,-23)"
   d="M 28,24 H 4 a 1,1 0 0 1 0,-2 h 24 a 1,1 0 0 1 0,2 z"
   stroke-linecap="round"
   id="path231" />
</g>
		<g
   transform="matrix(0,0.8377,-2.8084,0,-58.9877,-2e-4)"
   id="g237">
<path
   style="opacity:1;fill:#b7bfcb;fill-rule:nonzero;stroke:none;stroke-width:0;stroke-linecap:butt;stroke-linejoin:miter;stroke-miterlimit:4;stroke-dasharray:none;stroke-dashoffset:0"
   transform="translate(-16,-16)"
   d="M 28,17 H 4 a 1,1 0 0 1 0,-2 h 24 a 1,1 0 0 1 0,2 z"
   stroke-linecap="round"
   id="path235" />
</g>
</g>
</g>
		<g
   transform="translate(-101.7278,-0.0023)"
   id="308493">
<g
   id="g250">
		<g
   transform="matrix(0.1557,0,0,0.0922,-9.7851,-4e-4)"
   id="g244">
<path
   style="opacity:1;fill:#0099ff;fill-rule:nonzero;stroke:none;stroke-width:0;stroke-linecap:butt;stroke-linejoin:miter;stroke-miterlimit:4;stroke-dasharray:none;stroke-dashoffset:0"
   vector-effect="non-scaling-stroke"
   transform="translate(-78.4998,-78.5)"
   d="M 78.5,0 C 52.9419,0 32.1166,35.2271 32.1166,78.5 c 0,43.273 20.8253,78.5 46.3834,78.5 25.558,0 46.383,-35.227 46.383,-78.5 C 124.883,35.2271 104.058,0 78.5,0 Z"
   stroke-linecap="round"
   id="path242" />
</g>
		<g
   transform="matrix(0.1557,0,0,0.0922,9.7872,-0.0024)"
   id="g248">
<path
   style="opacity:1;fill:#f7931e;fill-rule:nonzero;stroke:none;stroke-width:0;stroke-linecap:butt;stroke-linejoin:miter;stroke-miterlimit:4;stroke-dasharray:none;stroke-dashoffset:0"
   vector-effect="non-scaling-stroke"
   transform="translate(-78.4998,-78.5)"
   d="M 78.5,0 C 52.9419,0 32.1166,35.2271 32.1166,78.5 c 0,43.273 20.8253,78.5 46.3834,78.5 25.558,0 46.383,-35.227 46.383,-78.5 C 124.883,35.2271 104.058,0 78.5,0 Z"
   stroke-linecap="round"
   id="path246" />
</g>
</g>
</g>
</g>
</g><g
         transform="translate(668.1801,545.708)"
         id="432857">
<g
   id="g301">
		<g
   transform="scale(1.6953,0.3332)"
   id="537600">
<path
   style="opacity:1;fill:#ffffff;fill-rule:nonzero;stroke:#b7bfcb;stroke-width:5;stroke-linecap:butt;stroke-linejoin:miter;stroke-miterlimit:4;stroke-dasharray:none;stroke-dashoffset:0"
   vector-effect="non-scaling-stroke"
   transform="translate(-79,-78.9999)"
   d="m 154.685,2.50049 h 0.026 l 0.027,-5.5e-4 c 0.412,-0.00868 0.753,0.31859 0.762,0.73046 v 2.9e-4 c 0,0.01026 0,0.02107 0,0.03214 l -0.001,0.02603 V 3.3149 154.686 c 0,0.449 -0.364,0.814 -0.814,0.814 H 3.31409 C 2.86449,155.5 2.5,155.135 2.5,154.686 V 3.3149 C 2.5,2.86483 2.86465,2.50049 3.31409,2.50049 Z"
   stroke-linecap="round"
   id="path256" />
</g>
		<g
   transform="translate(-101.7301,-0.001)"
   id="944632">
<g
   id="g267">
		<g
   transform="matrix(0.1557,0,0,0.0922,-9.7851,-4e-4)"
   id="g261">
<path
   style="opacity:1;fill:#0099ff;fill-rule:nonzero;stroke:none;stroke-width:0;stroke-linecap:butt;stroke-linejoin:miter;stroke-miterlimit:4;stroke-dasharray:none;stroke-dashoffset:0"
   vector-effect="non-scaling-stroke"
   transform="translate(-78.4998,-78.5)"
   d="M 78.5,0 C 52.9419,0 32.1166,35.2271 32.1166,78.5 c 0,43.273 20.8253,78.5 46.3834,78.5 25.558,0 46.383,-35.227 46.383,-78.5 C 124.883,35.2271 104.058,0 78.5,0 Z"
   stroke-linecap="round"
   id="path259" />
</g>
		<g
   transform="matrix(0.1557,0,0,0.0922,9.7872,-0.0024)"
   id="g265">
<path
   style="opacity:1;fill:#ff3333;fill-rule:nonzero;stroke:none;stroke-width:0;stroke-linecap:butt;stroke-linejoin:miter;stroke-miterlimit:4;stroke-dasharray:none;stroke-dashoffset:0"
   vector-effect="non-scaling-stroke"
   transform="translate(-78.4998,-78.5)"
   d="M 78.5,0 C 52.9419,0 32.1166,35.2271 32.1166,78.5 c 0,43.273 20.8253,78.5 46.3834,78.5 25.558,0 46.383,-35.227 46.383,-78.5 C 124.883,35.2271 104.058,0 78.5,0 Z"
   stroke-linecap="round"
   id="path263" />
</g>
</g>
</g>
		<g
   transform="matrix(1.0612,0,0,1.0612,47.9963,0.0013)"
   id="496806">
<g
   id="g298">
		<g
   transform="matrix(0,0.8377,-2.8084,0,58.9877,-2e-4)"
   id="g272">
<path
   style="opacity:1;fill:#b7bfcb;fill-rule:nonzero;stroke:none;stroke-width:0;stroke-linecap:butt;stroke-linejoin:miter;stroke-miterlimit:4;stroke-dasharray:none;stroke-dashoffset:0"
   transform="translate(-16,-9)"
   d="M 28,10 H 4 A 1,1 0 0 1 4,8 h 24 a 1,1 0 0 1 0,2 z"
   stroke-linecap="round"
   id="path270" />
</g>
		<g
   transform="matrix(0,0.8377,-2.8084,0,39.3289,-2e-4)"
   id="g276">
<path
   style="opacity:1;fill:#b7bfcb;fill-rule:nonzero;stroke:none;stroke-width:0;stroke-linecap:butt;stroke-linejoin:miter;stroke-miterlimit:4;stroke-dasharray:none;stroke-dashoffset:0"
   transform="translate(-16,-16)"
   d="M 28,17 H 4 a 1,1 0 0 1 0,-2 h 24 a 1,1 0 0 1 0,2 z"
   stroke-linecap="round"
   id="path274" />
</g>
		<g
   transform="matrix(0,0.8377,-2.8084,0,19.6702,-2e-4)"
   id="g280">
<path
   style="opacity:1;fill:#b7bfcb;fill-rule:nonzero;stroke:none;stroke-width:0;stroke-linecap:butt;stroke-linejoin:miter;stroke-miterlimit:4;stroke-dasharray:none;stroke-dashoffset:0"
   transform="translate(-16,-23)"
   d="M 28,24 H 4 a 1,1 0 0 1 0,-2 h 24 a 1,1 0 0 1 0,2 z"
   stroke-linecap="round"
   id="path278" />
</g>
		<g
   transform="matrix(0,0.8377,-2.8084,0,0.0257,-2e-4)"
   id="g284">
<path
   style="opacity:1;fill:#b7bfcb;fill-rule:nonzero;stroke:none;stroke-width:0;stroke-linecap:butt;stroke-linejoin:miter;stroke-miterlimit:4;stroke-dasharray:none;stroke-dashoffset:0"
   transform="translate(-16,-9)"
   d="M 28,10 H 4 A 1,1 0 0 1 4,8 h 24 a 1,1 0 0 1 0,2 z"
   stroke-linecap="round"
   id="path282" />
</g>
		<g
   transform="matrix(0,0.8377,-2.8084,0,-19.6331,-2e-4)"
   id="g288">
<path
   style="opacity:1;fill:#b7bfcb;fill-rule:nonzero;stroke:none;stroke-width:0;stroke-linecap:butt;stroke-linejoin:miter;stroke-miterlimit:4;stroke-dasharray:none;stroke-dashoffset:0"
   transform="translate(-16,-16)"
   d="M 28,17 H 4 a 1,1 0 0 1 0,-2 h 24 a 1,1 0 0 1 0,2 z"
   stroke-linecap="round"
   id="path286" />
</g>
		<g
   transform="matrix(0,0.8377,-2.8084,0,-39.2917,-2e-4)"
   id="g292">
<path
   style="opacity:1;fill:#b7bfcb;fill-rule:nonzero;stroke:none;stroke-width:0;stroke-linecap:butt;stroke-linejoin:miter;stroke-miterlimit:4;stroke-dasharray:none;stroke-dashoffset:0"
   transform="translate(-16,-23)"
   d="M 28,24 H 4 a 1,1 0 0 1 0,-2 h 24 a 1,1 0 0 1 0,2 z"
   stroke-linecap="round"
   id="path290" />
</g>
		<g
   transform="matrix(0,0.8377,-2.8084,0,-58.9877,-2e-4)"
   id="g296">
<path
   style="opacity:1;fill:#b7bfcb;fill-rule:nonzero;stroke:none;stroke-width:0;stroke-linecap:butt;stroke-linejoin:miter;stroke-miterlimit:4;stroke-dasharray:none;stroke-dashoffset:0"
   transform="translate(-16,-16)"
   d="M 28,17 H 4 a 1,1 0 0 1 0,-2 h 24 a 1,1 0 0 1 0,2 z"
   stroke-linecap="round"
   id="path294" />
</g>
</g>
</g>
</g>
</g><g
         transform="matrix(2.9625,0,0,2.9625,744.4892,247.0707)"
         id="600377">
<g
   vector-effect="non-scaling-stroke"
   id="g310">
		<g
   transform="translate(5e-4,0.0017)"
   id="799523">
<path
   style="opacity:1;fill:#ff6e6e;fill-rule:evenodd;stroke:#ffffff;stroke-width:0;stroke-linecap:round;stroke-linejoin:miter;stroke-miterlimit:4;stroke-dasharray:none;stroke-dashoffset:0"
   transform="translate(-24.0005,-24.0017)"
   d="M 35.555,32.1 A 11.979,11.979 0 0 1 12,28.857 7.933,7.933 0 0 1 12.485,25.933 c 1.158,-7.338 8.3,-7.87 4.315,-18.933 0,0 6.65,1.727 8,12.143 0,0 4.919,-0.163 1.6,-7.286 A 21.311,21.311 0 0 1 36,27 24.911,24.911 0 0 1 35.555,32.1 Z"
   stroke-linecap="round"
   id="path304" />
</g>
		<g
   transform="translate(-0.5166,4.2205)"
   id="682722">
<path
   style="opacity:1;fill:#0c0058;fill-rule:evenodd;stroke:#ffffff;stroke-width:0;stroke-linecap:round;stroke-linejoin:miter;stroke-miterlimit:4;stroke-dasharray:none;stroke-dashoffset:0"
   transform="translate(-23.4833,-28.2204)"
   d="M 31,33.5 A 7.5,7.5 0 0 1 16.025,33.984 L 16,34 c 0,0 -0.075,-3.272 0,-4 0.684,-6.611 2.6,-9.563 5,-14 0.067,-2.639 -1.115,7.273 5,10 a 8.188,8.188 0 0 1 5,7.5 z"
   stroke-linecap="round"
   id="path307" />
</g>
</g>
</g><g
         transform="translate(668.1776,290.1796)"
         id="801134">
<g
   id="g358">
		<g
   transform="matrix(1.6953,0,0,0.3332,0.0025,-0.0013)"
   id="971275">
<path
   style="opacity:1;fill:#ffffff;fill-rule:nonzero;stroke:#b7bfcb;stroke-width:5;stroke-linecap:butt;stroke-linejoin:miter;stroke-miterlimit:4;stroke-dasharray:none;stroke-dashoffset:0"
   vector-effect="non-scaling-stroke"
   transform="translate(-79,-78.9999)"
   d="m 154.685,2.50049 h 0.026 l 0.027,-5.5e-4 c 0.412,-0.00868 0.753,0.31859 0.762,0.73046 v 2.9e-4 c 0,0.01026 0,0.02107 0,0.03214 l -0.001,0.02603 V 3.3149 154.686 c 0,0.449 -0.364,0.814 -0.814,0.814 H 3.31409 C 2.86449,155.5 2.5,155.135 2.5,154.686 V 3.3149 C 2.5,2.86483 2.86465,2.50049 3.31409,2.50049 Z"
   stroke-linecap="round"
   id="path313" />
</g>
		<g
   transform="translate(-101.7278,-0.0023)"
   id="693766">
<g
   id="g324">
		<g
   transform="matrix(0.1557,0,0,0.0922,-9.7851,-4e-4)"
   id="g318">
<path
   style="opacity:1;fill:#b7bfcb;fill-rule:nonzero;stroke:none;stroke-width:0;stroke-linecap:butt;stroke-linejoin:miter;stroke-miterlimit:4;stroke-dasharray:none;stroke-dashoffset:0"
   vector-effect="non-scaling-stroke"
   transform="translate(-78.4998,-78.5)"
   d="M 78.5,0 C 52.9419,0 32.1166,35.2271 32.1166,78.5 c 0,43.273 20.8253,78.5 46.3834,78.5 25.558,0 46.383,-35.227 46.383,-78.5 C 124.883,35.2271 104.058,0 78.5,0 Z"
   stroke-linecap="round"
   id="path316" />
</g>
		<g
   transform="matrix(0.1557,0,0,0.0922,9.7872,-0.0024)"
   id="g322">
<path
   style="opacity:1;fill:#b7bfcb;fill-rule:nonzero;stroke:none;stroke-width:0;stroke-linecap:butt;stroke-linejoin:miter;stroke-miterlimit:4;stroke-dasharray:none;stroke-dashoffset:0"
   vector-effect="non-scaling-stroke"
   transform="translate(-78.4998,-78.5)"
   d="M 78.5,0 C 52.9419,0 32.1166,35.2271 32.1166,78.5 c 0,43.273 20.8253,78.5 46.3834,78.5 25.558,0 46.383,-35.227 46.383,-78.5 C 124.883,35.2271 104.058,0 78.5,0 Z"
   stroke-linecap="round"
   id="path320" />
</g>
</g>
</g>
		<g
   transform="matrix(1.0612,0,0,1.0612,47.9987,0)"
   id="355082">
<g
   id="g355">
		<g
   transform="matrix(0,0.8377,-2.8084,0,58.9877,-2e-4)"
   id="g329">
<path
   style="opacity:1;fill:#b7bfcb;fill-rule:nonzero;stroke:none;stroke-width:0;stroke-linecap:butt;stroke-linejoin:miter;stroke-miterlimit:4;stroke-dasharray:none;stroke-dashoffset:0"
   transform="translate(-16,-9)"
   d="M 28,10 H 4 A 1,1 0 0 1 4,8 h 24 a 1,1 0 0 1 0,2 z"
   stroke-linecap="round"
   id="path327" />
</g>
		<g
   transform="matrix(0,0.8377,-2.8084,0,39.3289,-2e-4)"
   id="g333">
<path
   style="opacity:1;fill:#b7bfcb;fill-rule:nonzero;stroke:none;stroke-width:0;stroke-linecap:butt;stroke-linejoin:miter;stroke-miterlimit:4;stroke-dasharray:none;stroke-dashoffset:0"
   transform="translate(-16,-16)"
   d="M 28,17 H 4 a 1,1 0 0 1 0,-2 h 24 a 1,1 0 0 1 0,2 z"
   stroke-linecap="round"
   id="path331" />
</g>
		<g
   transform="matrix(0,0.8377,-2.8084,0,19.6702,-2e-4)"
   id="g337">
<path
   style="opacity:1;fill:#b7bfcb;fill-rule:nonzero;stroke:none;stroke-width:0;stroke-linecap:butt;stroke-linejoin:miter;stroke-miterlimit:4;stroke-dasharray:none;stroke-dashoffset:0"
   transform="translate(-16,-23)"
   d="M 28,24 H 4 a 1,1 0 0 1 0,-2 h 24 a 1,1 0 0 1 0,2 z"
   stroke-linecap="round"
   id="path335" />
</g>
		<g
   transform="matrix(0,0.8377,-2.8084,0,0.0257,-2e-4)"
   id="g341">
<path
   style="opacity:1;fill:#b7bfcb;fill-rule:nonzero;stroke:none;stroke-width:0;stroke-linecap:butt;stroke-linejoin:miter;stroke-miterlimit:4;stroke-dasharray:none;stroke-dashoffset:0"
   transform="translate(-16,-9)"
   d="M 28,10 H 4 A 1,1 0 0 1 4,8 h 24 a 1,1 0 0 1 0,2 z"
   stroke-linecap="round"
   id="path339" />
</g>
		<g
   transform="matrix(0,0.8377,-2.8084,0,-19.6331,-2e-4)"
   id="g345">
<path
   style="opacity:1;fill:#b7bfcb;fill-rule:nonzero;stroke:none;stroke-width:0;stroke-linecap:butt;stroke-linejoin:miter;stroke-miterlimit:4;stroke-dasharray:none;stroke-dashoffset:0"
   transform="translate(-16,-16)"
   d="M 28,17 H 4 a 1,1 0 0 1 0,-2 h 24 a 1,1 0 0 1 0,2 z"
   stroke-linecap="round"
   id="path343" />
</g>
		<g
   transform="matrix(0,0.8377,-2.8084,0,-39.2917,-2e-4)"
   id="g349">
<path
   style="opacity:1;fill:#b7bfcb;fill-rule:nonzero;stroke:none;stroke-width:0;stroke-linecap:butt;stroke-linejoin:miter;stroke-miterlimit:4;stroke-dasharray:none;stroke-dashoffset:0"
   transform="translate(-16,-23)"
   d="M 28,24 H 4 a 1,1 0 0 1 0,-2 h 24 a 1,1 0 0 1 0,2 z"
   stroke-linecap="round"
   id="path347" />
</g>
		<g
   transform="matrix(0,0.8377,-2.8084,0,-58.9877,-2e-4)"
   id="g353">
<path
   style="opacity:1;fill:#b7bfcb;fill-rule:nonzero;stroke:none;stroke-width:0;stroke-linecap:butt;stroke-linejoin:miter;stroke-miterlimit:4;stroke-dasharray:none;stroke-dashoffset:0"
   transform="translate(-16,-16)"
   d="M 28,17 H 4 a 1,1 0 0 1 0,-2 h 24 a 1,1 0 0 1 0,2 z"
   stroke-linecap="round"
   id="path351" />
</g>
</g>
</g>
</g>
</g></g></g></svg>
