<?xml version="1.0" encoding="UTF-8"?>
<!-- Created with Inkscape (http://www.inkscape.org/) -->
<svg width="600mm" height="250mm" version="1.1" viewBox="0 0 600 250" xml:space="preserve" xmlns="http://www.w3.org/2000/svg"><g transform="matrix(.63812 0 0 .63812 .65823 -125.01)"><g transform="translate(807.21 367.18)">

		<g transform="translate(0 -76.819)">
<path transform="translate(-12.092 -12.002)" d="m16.86 8a4 4 0 0 0-3.86-3h-7v3h-4v2h4v3h7a4 4 0 0 0 3.85-3 3.5044 3.5044 0 0 1-0.35 7h-14.5v2h14.5a5.5029 5.5029 0 0 0 0.36-11z" stroke-linecap="round" vector-effect="non-scaling-stroke"/>
</g>
		<g transform="translate(0 -26.449)">
<path transform="translate(-12.092 -12.002)" d="m16.86 8a4 4 0 0 0-3.86-3h-7v3h-4v2h4v3h7a4 4 0 0 0 3.85-3 3.5044 3.5044 0 0 1-0.35 7h-14.5v2h14.5a5.5029 5.5029 0 0 0 0.36-11z" stroke-linecap="round" vector-effect="non-scaling-stroke"/>
</g>
		<g transform="translate(0 76.819)">
<path transform="translate(-12.092 -12.002)" d="m16.86 8a4 4 0 0 0-3.86-3h-7v3h-4v2h4v3h7a4 4 0 0 0 3.85-3 3.5044 3.5044 0 0 1-0.35 7h-14.5v2h14.5a5.5029 5.5029 0 0 0 0.36-11z" stroke-linecap="round" vector-effect="non-scaling-stroke"/>
</g>

</g><g transform="matrix(.7703 0 0 .7703 303.43 478.35)">
<path transform="translate(-147.05 -147.05)" d="m294.09 25.772c-0.766-7.566-6.988-13.222-14.756-13.222h-264c-8.284 0-15.333 6.216-15.333 14.5v158.33 6e-3 29.161c0 8.284 7.049 15 15.333 15h74.618l-4.416 22h-21.202c-8.284 0-15 6.716-15 15s6.716 15 15 15h132.5c5e-3 -1e-3 0.013-1e-3 0.02 0h32.48c8.284 0 15-6.716 15-15s-6.716-15-15-15h-20.203l-4.416-22h74.618c8.284 0 14.667-6.716 14.667-15v-187.5c1e-3 -0.518 0.141-0.777 0.09-1.278zm-30.089 16.778v128h-234v-128z" fill="#b7bfcb" stroke-linecap="round" vector-effect="non-scaling-stroke"/>
</g><g transform="matrix(1.0612 0 0 1.0612 668.18 443.47)">

		<g transform="matrix(1.5975 0 0 .314 -1e-4 0)">
<path transform="translate(-79 -79)" d="m154.68 2.5005h0.026l0.027-5.5e-4c0.412-0.00868 0.753 0.31859 0.762 0.73046v2.9e-4 0.03214l-1e-3 0.02603v151.4c0 0.449-0.364 0.814-0.814 0.814h-151.37c-0.4496 0-0.81409-0.365-0.81409-0.814v-151.37c0-0.45007 0.36465-0.81441 0.81409-0.81441z" fill="#fff" stroke="#b7bfcb" stroke-width="5" vector-effect="non-scaling-stroke"/>
</g>
		<g transform="translate(45.231)">

		<g transform="matrix(0 .8377 -2.8084 0 58.988 -2e-4)">
<path transform="translate(-16,-9)" d="m28 10h-24a1 1 0 0 1 0-2h24a1 1 0 0 1 0 2z" fill="#b7bfcb" stroke-linecap="round"/>
</g>
		<g transform="matrix(0 .8377 -2.8084 0 39.329 -2e-4)">
<path transform="translate(-16,-16)" d="m28 17h-24a1 1 0 0 1 0-2h24a1 1 0 0 1 0 2z" fill="#b7bfcb" stroke-linecap="round"/>
</g>
		<g transform="matrix(0 .8377 -2.8084 0 19.67 -2e-4)">
<path transform="translate(-16,-23)" d="m28 24h-24a1 1 0 0 1 0-2h24a1 1 0 0 1 0 2z" fill="#b7bfcb" stroke-linecap="round"/>
</g>
		<g transform="matrix(0 .8377 -2.8084 0 .0257 -2e-4)">
<path transform="translate(-16,-9)" d="m28 10h-24a1 1 0 0 1 0-2h24a1 1 0 0 1 0 2z" fill="#b7bfcb" stroke-linecap="round"/>
</g>
		<g transform="matrix(0 .8377 -2.8084 0 -19.633 -2e-4)">
<path transform="translate(-16,-16)" d="m28 17h-24a1 1 0 0 1 0-2h24a1 1 0 0 1 0 2z" fill="#b7bfcb" stroke-linecap="round"/>
</g>
		<g transform="matrix(0 .8377 -2.8084 0 -39.292 -2e-4)">
<path transform="translate(-16,-23)" d="m28 24h-24a1 1 0 0 1 0-2h24a1 1 0 0 1 0 2z" fill="#b7bfcb" stroke-linecap="round"/>
</g>
		<g transform="matrix(0 .8377 -2.8084 0 -58.988 -2e-4)">
<path transform="translate(-16,-16)" d="m28 17h-24a1 1 0 0 1 0-2h24a1 1 0 0 1 0 2z" fill="#b7bfcb" stroke-linecap="round"/>
</g>

</g>
		<g transform="translate(-95.861 -.0021)">

		<g transform="matrix(.1467 0 0 .0869 -9.2218 9e-4)">
<path transform="translate(-78.5 -78.5)" d="m78.5 0c-25.558 0-46.383 35.227-46.383 78.5 0 43.273 20.825 78.5 46.383 78.5 25.558 0 46.383-35.227 46.383-78.5 0-43.273-20.825-78.5-46.383-78.5z" fill="#09f" stroke-linecap="round" vector-effect="non-scaling-stroke"/>
</g>
		<g transform="matrix(.1467 0 0 .0869 9.2217 -.001)">
<path transform="translate(-78.5 -78.5)" d="m78.5 0c-25.558 0-46.383 35.227-46.383 78.5 0 43.273 20.825 78.5 46.383 78.5 25.558 0 46.383-35.227 46.383-78.5 0-43.273-20.825-78.5-46.383-78.5z" fill="#b7bfcb" stroke-linecap="round" vector-effect="non-scaling-stroke"/>
</g>

</g>

</g><g transform="matrix(1.0612 0 0 1.0612 668.18 494.59)">

		<g transform="matrix(1.5975 0 0 .314 -1e-4 0)">
<path transform="translate(-79 -79)" d="m154.68 2.5005h0.026l0.027-5.5e-4c0.412-0.00868 0.753 0.31859 0.762 0.73046v2.9e-4 0.03214l-1e-3 0.02603v151.4c0 0.449-0.364 0.814-0.814 0.814h-151.37c-0.4496 0-0.81409-0.365-0.81409-0.814v-151.37c0-0.45007 0.36465-0.81441 0.81409-0.81441z" fill="#fff" stroke="#b7bfcb" stroke-width="5" vector-effect="non-scaling-stroke"/>
</g>
		<g transform="translate(45.231)">

		<g transform="matrix(0 .8377 -2.8084 0 58.988 -2e-4)">
<path transform="translate(-16,-9)" d="m28 10h-24a1 1 0 0 1 0-2h24a1 1 0 0 1 0 2z" fill="#b7bfcb" stroke-linecap="round"/>
</g>
		<g transform="matrix(0 .8377 -2.8084 0 39.329 -2e-4)">
<path transform="translate(-16,-16)" d="m28 17h-24a1 1 0 0 1 0-2h24a1 1 0 0 1 0 2z" fill="#b7bfcb" stroke-linecap="round"/>
</g>
		<g transform="matrix(0 .8377 -2.8084 0 19.67 -2e-4)">
<path transform="translate(-16,-23)" d="m28 24h-24a1 1 0 0 1 0-2h24a1 1 0 0 1 0 2z" fill="#b7bfcb" stroke-linecap="round"/>
</g>
		<g transform="matrix(0 .8377 -2.8084 0 .0257 -2e-4)">
<path transform="translate(-16,-9)" d="m28 10h-24a1 1 0 0 1 0-2h24a1 1 0 0 1 0 2z" fill="#b7bfcb" stroke-linecap="round"/>
</g>
		<g transform="matrix(0 .8377 -2.8084 0 -19.633 -2e-4)">
<path transform="translate(-16,-16)" d="m28 17h-24a1 1 0 0 1 0-2h24a1 1 0 0 1 0 2z" fill="#b7bfcb" stroke-linecap="round"/>
</g>
		<g transform="matrix(0 .8377 -2.8084 0 -39.292 -2e-4)">
<path transform="translate(-16,-23)" d="m28 24h-24a1 1 0 0 1 0-2h24a1 1 0 0 1 0 2z" fill="#b7bfcb" stroke-linecap="round"/>
</g>
		<g transform="matrix(0 .8377 -2.8084 0 -58.988 -2e-4)">
<path transform="translate(-16,-16)" d="m28 17h-24a1 1 0 0 1 0-2h24a1 1 0 0 1 0 2z" fill="#b7bfcb" stroke-linecap="round"/>
</g>

</g>
		<g transform="translate(-95.861 -.0021)">

		<g transform="matrix(.1467 0 0 .0869 -9.2218 9e-4)">
<path transform="translate(-78.5 -78.5)" d="m78.5 0c-25.558 0-46.383 35.227-46.383 78.5 0 43.273 20.825 78.5 46.383 78.5 25.558 0 46.383-35.227 46.383-78.5 0-43.273-20.825-78.5-46.383-78.5z" fill="#09f" stroke-linecap="round" vector-effect="non-scaling-stroke"/>
</g>
		<g transform="matrix(.1467 0 0 .0869 9.2217 -.001)">
<path transform="translate(-78.5 -78.5)" d="m78.5 0c-25.558 0-46.383 35.227-46.383 78.5 0 43.273 20.825 78.5 46.383 78.5 25.558 0 46.383-35.227 46.383-78.5 0-43.273-20.825-78.5-46.383-78.5z" fill="#b7bfcb" stroke-linecap="round" vector-effect="non-scaling-stroke"/>
</g>

</g>

</g><g transform="matrix(.1567 0 0 .0353 461.01 274.95)">
<path transform="translate(-512,-512)" d="m904 476h-784c-4.4 0-8 3.6-8 8v56c0 4.4 3.6 8 8 8h784c4.4 0 8-3.6 8-8v-56c0-4.4-3.6-8-8-8z" stroke-linecap="round" vector-effect="non-scaling-stroke"/>
</g><g transform="matrix(4.9564 0 0 4.7241 342.32 443.47)">
<path transform="translate(-12,-12)" d="m5 8h14m-14 4h14m-14 4h6" fill="none" stroke="#5c83be" stroke-linecap="round" stroke-linejoin="round" stroke-width="5" vector-effect="non-scaling-stroke"/>
</g><g transform="matrix(0 .0651 -.0417 0 357.61 342.46)">
<path transform="translate(-512,-512)" d="m904 476h-784c-4.4 0-8 3.6-8 8v56c0 4.4 3.6 8 8 8h784c4.4 0 8-3.6 8-8v-56c0-4.4-3.6-8-8-8z" stroke-linecap="round" vector-effect="non-scaling-stroke"/>
</g><g transform="matrix(1.0201 0 0 .1794 469.51 578.67)">
<path transform="translate(-512,-512)" d="m904 476h-784c-4.4 0-8 3.6-8 8v56c0 4.4 3.6 8 8 8h784c4.4 0 8-3.6 8-8v-56c0-4.4-3.6-8-8-8z" fill="#b7bfcb" stroke-linecap="round" vector-effect="non-scaling-stroke"/>
</g><g transform="matrix(1.0612 0 0 1.0612 668.18 341.33)">

		<g transform="matrix(1.5975 0 0 .314 -1e-4 0)">
<path transform="translate(-79 -79)" d="m154.68 2.5005h0.026l0.027-5.5e-4c0.412-0.00868 0.753 0.31859 0.762 0.73046v2.9e-4 0.03214l-1e-3 0.02603v151.4c0 0.449-0.364 0.814-0.814 0.814h-151.37c-0.4496 0-0.81409-0.365-0.81409-0.814v-151.37c0-0.45007 0.36465-0.81441 0.81409-0.81441z" fill="#fff" stroke="#b7bfcb" stroke-width="5" vector-effect="non-scaling-stroke"/>
</g>
		<g transform="translate(45.231)">

		<g transform="matrix(0 .8377 -2.8084 0 58.988 -2e-4)">
<path transform="translate(-16,-9)" d="m28 10h-24a1 1 0 0 1 0-2h24a1 1 0 0 1 0 2z" fill="#b7bfcb" stroke-linecap="round"/>
</g>
		<g transform="matrix(0 .8377 -2.8084 0 39.329 -2e-4)">
<path transform="translate(-16,-16)" d="m28 17h-24a1 1 0 0 1 0-2h24a1 1 0 0 1 0 2z" fill="#b7bfcb" stroke-linecap="round"/>
</g>
		<g transform="matrix(0 .8377 -2.8084 0 19.67 -2e-4)">
<path transform="translate(-16,-23)" d="m28 24h-24a1 1 0 0 1 0-2h24a1 1 0 0 1 0 2z" fill="#b7bfcb" stroke-linecap="round"/>
</g>
		<g transform="matrix(0 .8377 -2.8084 0 .0257 -2e-4)">
<path transform="translate(-16,-9)" d="m28 10h-24a1 1 0 0 1 0-2h24a1 1 0 0 1 0 2z" fill="#b7bfcb" stroke-linecap="round"/>
</g>
		<g transform="matrix(0 .8377 -2.8084 0 -19.633 -2e-4)">
<path transform="translate(-16,-16)" d="m28 17h-24a1 1 0 0 1 0-2h24a1 1 0 0 1 0 2z" fill="#b7bfcb" stroke-linecap="round"/>
</g>
		<g transform="matrix(0 .8377 -2.8084 0 -39.292 -2e-4)">
<path transform="translate(-16,-23)" d="m28 24h-24a1 1 0 0 1 0-2h24a1 1 0 0 1 0 2z" fill="#b7bfcb" stroke-linecap="round"/>
</g>
		<g transform="matrix(0 .8377 -2.8084 0 -58.988 -2e-4)">
<path transform="translate(-16,-16)" d="m28 17h-24a1 1 0 0 1 0-2h24a1 1 0 0 1 0 2z" fill="#b7bfcb" stroke-linecap="round"/>
</g>

</g>
		<g transform="translate(-95.861 -.0021)">

		<g transform="matrix(.1467 0 0 .0869 -9.2218 9e-4)">
<path transform="translate(-78.5 -78.5)" d="m78.5 0c-25.558 0-46.383 35.227-46.383 78.5 0 43.273 20.825 78.5 46.383 78.5 25.558 0 46.383-35.227 46.383-78.5 0-43.273-20.825-78.5-46.383-78.5z" fill="#09f" stroke-linecap="round" vector-effect="non-scaling-stroke"/>
</g>
		<g transform="matrix(.1467 0 0 .0869 9.2217 -.001)">
<path transform="translate(-78.5 -78.5)" d="m78.5 0c-25.558 0-46.383 35.227-46.383 78.5 0 43.273 20.825 78.5 46.383 78.5 25.558 0 46.383-35.227 46.383-78.5 0-43.273-20.825-78.5-46.383-78.5z" fill="#b7bfcb" stroke-linecap="round" vector-effect="non-scaling-stroke"/>
</g>

</g>

</g><g transform="translate(668.18 392.44)">

		<g transform="matrix(1.6953 0 0 .3332 .0025 -.0013)">
<path transform="translate(-79 -79)" d="m154.68 2.5005h0.026l0.027-5.5e-4c0.412-0.00868 0.753 0.31859 0.762 0.73046v2.9e-4 0.03214l-1e-3 0.02603v151.4c0 0.449-0.364 0.814-0.814 0.814h-151.37c-0.4496 0-0.81409-0.365-0.81409-0.814v-151.37c0-0.45007 0.36465-0.81441 0.81409-0.81441z" fill="#fff" stroke="#b7bfcb" stroke-width="5" vector-effect="non-scaling-stroke"/>
</g>
		<g transform="matrix(1.0612 0 0 1.0612 47.999 0)">

		<g transform="matrix(0 .8377 -2.8084 0 58.988 -2e-4)">
<path transform="translate(-16,-9)" d="m28 10h-24a1 1 0 0 1 0-2h24a1 1 0 0 1 0 2z" fill="#b7bfcb" stroke-linecap="round"/>
</g>
		<g transform="matrix(0 .8377 -2.8084 0 39.329 -2e-4)">
<path transform="translate(-16,-16)" d="m28 17h-24a1 1 0 0 1 0-2h24a1 1 0 0 1 0 2z" fill="#b7bfcb" stroke-linecap="round"/>
</g>
		<g transform="matrix(0 .8377 -2.8084 0 19.67 -2e-4)">
<path transform="translate(-16,-23)" d="m28 24h-24a1 1 0 0 1 0-2h24a1 1 0 0 1 0 2z" fill="#b7bfcb" stroke-linecap="round"/>
</g>
		<g transform="matrix(0 .8377 -2.8084 0 .0257 -2e-4)">
<path transform="translate(-16,-9)" d="m28 10h-24a1 1 0 0 1 0-2h24a1 1 0 0 1 0 2z" fill="#b7bfcb" stroke-linecap="round"/>
</g>
		<g transform="matrix(0 .8377 -2.8084 0 -19.633 -2e-4)">
<path transform="translate(-16,-16)" d="m28 17h-24a1 1 0 0 1 0-2h24a1 1 0 0 1 0 2z" fill="#b7bfcb" stroke-linecap="round"/>
</g>
		<g transform="matrix(0 .8377 -2.8084 0 -39.292 -2e-4)">
<path transform="translate(-16,-23)" d="m28 24h-24a1 1 0 0 1 0-2h24a1 1 0 0 1 0 2z" fill="#b7bfcb" stroke-linecap="round"/>
</g>
		<g transform="matrix(0 .8377 -2.8084 0 -58.988 -2e-4)">
<path transform="translate(-16,-16)" d="m28 17h-24a1 1 0 0 1 0-2h24a1 1 0 0 1 0 2z" fill="#b7bfcb" stroke-linecap="round"/>
</g>

</g>
		<g transform="translate(-101.73 -.0023)">

		<g transform="matrix(.1557 0 0 .0922 -9.7851 -4e-4)">
<path transform="translate(-78.5 -78.5)" d="m78.5 0c-25.558 0-46.383 35.227-46.383 78.5 0 43.273 20.825 78.5 46.383 78.5 25.558 0 46.383-35.227 46.383-78.5 0-43.273-20.825-78.5-46.383-78.5z" fill="#09f" stroke-linecap="round" vector-effect="non-scaling-stroke"/>
</g>
		<g transform="matrix(.1557 0 0 .0922 9.7872 -.0024)">
<path transform="translate(-78.5 -78.5)" d="m78.5 0c-25.558 0-46.383 35.227-46.383 78.5 0 43.273 20.825 78.5 46.383 78.5 25.558 0 46.383-35.227 46.383-78.5 0-43.273-20.825-78.5-46.383-78.5z" fill="#f7931e" stroke-linecap="round" vector-effect="non-scaling-stroke"/>
</g>

</g>

</g><g transform="translate(668.18 545.71)">

		<g transform="scale(1.6953 .3332)">
<path transform="translate(-79 -79)" d="m154.68 2.5005h0.026l0.027-5.5e-4c0.412-0.00868 0.753 0.31859 0.762 0.73046v2.9e-4 0.03214l-1e-3 0.02603v151.4c0 0.449-0.364 0.814-0.814 0.814h-151.37c-0.4496 0-0.81409-0.365-0.81409-0.814v-151.37c0-0.45007 0.36465-0.81441 0.81409-0.81441z" fill="#fff" stroke="#b7bfcb" stroke-width="5" vector-effect="non-scaling-stroke"/>
</g>
		<g transform="translate(-101.73 -.001)">

		<g transform="matrix(.1557 0 0 .0922 -9.7851 -4e-4)">
<path transform="translate(-78.5 -78.5)" d="m78.5 0c-25.558 0-46.383 35.227-46.383 78.5 0 43.273 20.825 78.5 46.383 78.5 25.558 0 46.383-35.227 46.383-78.5 0-43.273-20.825-78.5-46.383-78.5z" fill="#09f" stroke-linecap="round" vector-effect="non-scaling-stroke"/>
</g>
		<g transform="matrix(.1557 0 0 .0922 9.7872 -.0024)">
<path transform="translate(-78.5 -78.5)" d="m78.5 0c-25.558 0-46.383 35.227-46.383 78.5 0 43.273 20.825 78.5 46.383 78.5 25.558 0 46.383-35.227 46.383-78.5 0-43.273-20.825-78.5-46.383-78.5z" fill="#f33" stroke-linecap="round" vector-effect="non-scaling-stroke"/>
</g>

</g>
		<g transform="matrix(1.0612 0 0 1.0612 47.996 .0013)">

		<g transform="matrix(0 .8377 -2.8084 0 58.988 -2e-4)">
<path transform="translate(-16,-9)" d="m28 10h-24a1 1 0 0 1 0-2h24a1 1 0 0 1 0 2z" fill="#b7bfcb" stroke-linecap="round"/>
</g>
		<g transform="matrix(0 .8377 -2.8084 0 39.329 -2e-4)">
<path transform="translate(-16,-16)" d="m28 17h-24a1 1 0 0 1 0-2h24a1 1 0 0 1 0 2z" fill="#b7bfcb" stroke-linecap="round"/>
</g>
		<g transform="matrix(0 .8377 -2.8084 0 19.67 -2e-4)">
<path transform="translate(-16,-23)" d="m28 24h-24a1 1 0 0 1 0-2h24a1 1 0 0 1 0 2z" fill="#b7bfcb" stroke-linecap="round"/>
</g>
		<g transform="matrix(0 .8377 -2.8084 0 .0257 -2e-4)">
<path transform="translate(-16,-9)" d="m28 10h-24a1 1 0 0 1 0-2h24a1 1 0 0 1 0 2z" fill="#b7bfcb" stroke-linecap="round"/>
</g>
		<g transform="matrix(0 .8377 -2.8084 0 -19.633 -2e-4)">
<path transform="translate(-16,-16)" d="m28 17h-24a1 1 0 0 1 0-2h24a1 1 0 0 1 0 2z" fill="#b7bfcb" stroke-linecap="round"/>
</g>
		<g transform="matrix(0 .8377 -2.8084 0 -39.292 -2e-4)">
<path transform="translate(-16,-23)" d="m28 24h-24a1 1 0 0 1 0-2h24a1 1 0 0 1 0 2z" fill="#b7bfcb" stroke-linecap="round"/>
</g>
		<g transform="matrix(0 .8377 -2.8084 0 -58.988 -2e-4)">
<path transform="translate(-16,-16)" d="m28 17h-24a1 1 0 0 1 0-2h24a1 1 0 0 1 0 2z" fill="#b7bfcb" stroke-linecap="round"/>
</g>

</g>

</g><g transform="translate(668.18 290.18)">

		<g transform="matrix(1.6953 0 0 .3332 .0025 -.0013)">
<path transform="translate(-79 -79)" d="m154.68 2.5005h0.026l0.027-5.5e-4c0.412-0.00868 0.753 0.31859 0.762 0.73046v2.9e-4 0.03214l-1e-3 0.02603v151.4c0 0.449-0.364 0.814-0.814 0.814h-151.37c-0.4496 0-0.81409-0.365-0.81409-0.814v-151.37c0-0.45007 0.36465-0.81441 0.81409-0.81441z" fill="#fff" stroke="#b7bfcb" stroke-width="5" vector-effect="non-scaling-stroke"/>
</g>
		<g transform="translate(-101.73 -.0023)">

		<g transform="matrix(.1557 0 0 .0922 -9.7851 -4e-4)">
<path transform="translate(-78.5 -78.5)" d="m78.5 0c-25.558 0-46.383 35.227-46.383 78.5 0 43.273 20.825 78.5 46.383 78.5 25.558 0 46.383-35.227 46.383-78.5 0-43.273-20.825-78.5-46.383-78.5z" fill="#b7bfcb" stroke-linecap="round" vector-effect="non-scaling-stroke"/>
</g>
		<g transform="matrix(.1557 0 0 .0922 9.7872 -.0024)">
<path transform="translate(-78.5 -78.5)" d="m78.5 0c-25.558 0-46.383 35.227-46.383 78.5 0 43.273 20.825 78.5 46.383 78.5 25.558 0 46.383-35.227 46.383-78.5 0-43.273-20.825-78.5-46.383-78.5z" fill="#b7bfcb" stroke-linecap="round" vector-effect="non-scaling-stroke"/>
</g>

</g>
		<g transform="matrix(1.0612 0 0 1.0612 47.999 0)">

		<g transform="matrix(0 .8377 -2.8084 0 58.988 -2e-4)">
<path transform="translate(-16,-9)" d="m28 10h-24a1 1 0 0 1 0-2h24a1 1 0 0 1 0 2z" fill="#b7bfcb" stroke-linecap="round"/>
</g>
		<g transform="matrix(0 .8377 -2.8084 0 39.329 -2e-4)">
<path transform="translate(-16,-16)" d="m28 17h-24a1 1 0 0 1 0-2h24a1 1 0 0 1 0 2z" fill="#b7bfcb" stroke-linecap="round"/>
</g>
		<g transform="matrix(0 .8377 -2.8084 0 19.67 -2e-4)">
<path transform="translate(-16,-23)" d="m28 24h-24a1 1 0 0 1 0-2h24a1 1 0 0 1 0 2z" fill="#b7bfcb" stroke-linecap="round"/>
</g>
		<g transform="matrix(0 .8377 -2.8084 0 .0257 -2e-4)">
<path transform="translate(-16,-9)" d="m28 10h-24a1 1 0 0 1 0-2h24a1 1 0 0 1 0 2z" fill="#b7bfcb" stroke-linecap="round"/>
</g>
		<g transform="matrix(0 .8377 -2.8084 0 -19.633 -2e-4)">
<path transform="translate(-16,-16)" d="m28 17h-24a1 1 0 0 1 0-2h24a1 1 0 0 1 0 2z" fill="#b7bfcb" stroke-linecap="round"/>
</g>
		<g transform="matrix(0 .8377 -2.8084 0 -39.292 -2e-4)">
<path transform="translate(-16,-23)" d="m28 24h-24a1 1 0 0 1 0-2h24a1 1 0 0 1 0 2z" fill="#b7bfcb" stroke-linecap="round"/>
</g>
		<g transform="matrix(0 .8377 -2.8084 0 -58.988 -2e-4)">
<path transform="translate(-16,-16)" d="m28 17h-24a1 1 0 0 1 0-2h24a1 1 0 0 1 0 2z" fill="#b7bfcb" stroke-linecap="round"/>
</g>

</g>

</g><g transform="matrix(.0711 0 0 .0711 358.53 274.93)">
<g vector-effect="non-scaling-stroke">
		<g transform="matrix(1.3072 0 0 1.3072 157.07 -157.27)">
<path transform="translate(-426.16 -185.69)" d="m256.45 231.68c16.64 11.489 39.439 7.309 50.922-9.33l91.591-132.68c11.966-17.335 35.806-21.702 53.139-9.731l69.837 48.21c8.401 5.798 14.038 14.519 15.878 24.555 1.838 10.036-0.341 20.188-6.142 28.586l-91.589 132.68c-11.485 16.639-7.309 39.437 9.33 50.922 6.35 4.383 13.593 6.485 20.763 6.485 11.624 0 23.056-5.524 30.159-15.815l91.587-132.67c16.91-24.493 23.268-54.104 17.905-83.377-5.364-29.271-21.805-54.705-46.299-71.612l-69.835-48.21c-50.56-34.904-120.09-22.166-154.99 28.393l-91.591 132.68c-11.486 16.64-7.31 39.436 9.331 50.922z" fill="#5c83be" stroke-linecap="round"/>
</g>
		<g transform="matrix(1.3072 0 0 1.3072 -157.26 157.07)">
<path transform="translate(-185.7 -426.16)" d="m313.98 440.08-132.68 91.593c-8.399 5.8-18.55 7.984-28.584 6.14-10.036-1.838-18.757-7.478-24.555-15.876l-48.213-69.838c-11.968-17.335-7.599-41.175 9.737-53.141l132.68-91.591c16.639-11.485 20.815-34.283 9.33-50.922-11.485-16.64-34.285-20.821-50.922-9.33l-132.68 91.592c-50.559 34.902-63.297 104.43-28.394 154.99l48.214 69.839c16.91 24.491 42.343 40.933 71.612 46.297 6.777 1.241 13.568 1.856 20.313 1.856 22.393-2e-3 44.242-6.765 63.064-19.759l132.68-91.593c16.639-11.485 20.815-34.283 9.33-50.922-11.489-16.643-34.289-20.823-50.926-9.334z" fill="#5c83be" stroke-linecap="round"/>
</g>
		<g transform="matrix(1.3072 0 0 1.3072 15.958 15.956)">
<path transform="translate(-318.21 -318.21)" d="m426.24 202.85c-16.174-12.129-39.119-8.851-51.251 7.321l-70.637 94.18-94.184 70.643c-16.174 12.13-19.451 35.077-7.321 51.249 7.192 9.59 18.183 14.644 29.313 14.644 7.642 0 15.352-2.382 21.937-7.323l98.368-73.78c2.775-2.08 5.238-4.546 7.321-7.321l73.778-98.364c12.128-16.173 8.85-39.118-7.324-51.249z" fill="#5c83be" stroke-linecap="round"/>
</g>
		<g transform="matrix(1.3072 0 0 1.3072 168.41 306.57)">
<path transform="translate(-434.83 -540.53)" d="m416.35 469.05-8.736 113.56c-0.3 4.115 0.316 8.488 2.007 12.559 5.78 13.921 21.752 20.519 35.671 14.739 13.921-5.78 20.519-21.752 14.739-35.673z" fill="#5c83be" stroke-linecap="round"/>
</g>
		<g transform="matrix(1.3072 0 0 1.3072 306.57 168.39)">
<path transform="translate(-540.53 -434.82)" d="m611.91 432.72c-1.155-15.027-14.276-26.272-29.305-25.115l-113.55 8.734 105.18 43.679c3.817 1.57 8.166 2.346 12.561 2.009 15.029-1.155 26.274-14.276 25.119-29.307z" fill="#5c83be" stroke-linecap="round"/>
</g>
</g>
</g><g transform="matrix(.7583 0 0 .7583 258.9 448.43)">
<path transform="translate(-74.796 -105.12)" d="m38.155 140.48 10.833-78.364 43.881 4.946 18.568 23.955-8.041 57.109zm45.858-46.473 4.814-22.195-34.781-3.5-9.854 67.15 54.143 6.627 6.542-45.275zm-24.242 29.593c-0.377-0.496-3.721-3.296-4.35-4.162 8.899-9.911 30.629-9.788 36.664 3.324-1.005 0.371-5.495 2.315-6.375 2.81-2.518-7.317-17.265-9.625-25.939-1.972zm16.732-27.096-3.666 2.76-5.515-6.642-7.507 4.03-3.029-5.069 6.829-3.427-4.526-5.452 5.5-3.68 4.39 6.439 7.819-3.925 2.356 4.731-7.047 3.783z" fill="#5c83be" fill-rule="evenodd" stroke-linecap="round" vector-effect="non-scaling-stroke"/>
</g></g></svg>
