<?xml version="1.0" encoding="UTF-8" standalone="no"?>
<!-- Created with Inkscape (http://www.inkscape.org/) -->

<svg
   width="600mm"
   height="250mm"
   viewBox="0 0 600 250"
   version="1.1"
   id="svg5"
   xml:space="preserve"
   sodipodi:docname="ok.svg"
   inkscape:version="1.2.2 (732a01da63, 2022-12-09)"
   xmlns:inkscape="http://www.inkscape.org/namespaces/inkscape"
   xmlns:sodipodi="http://sodipodi.sourceforge.net/DTD/sodipodi-0.dtd"
   xmlns="http://www.w3.org/2000/svg"
   xmlns:svg="http://www.w3.org/2000/svg"><sodipodi:namedview
     id="namedview7"
     pagecolor="#505050"
     bordercolor="#eeeeee"
     borderopacity="1"
     inkscape:showpageshadow="0"
     inkscape:pageopacity="0"
     inkscape:pagecheckerboard="0"
     inkscape:deskcolor="#505050"
     inkscape:document-units="mm"
     showgrid="false"
     inkscape:zoom="0.32954299"
     inkscape:cx="1010.4903"
     inkscape:cy="367.17516"
     inkscape:window-width="1366"
     inkscape:window-height="715"
     inkscape:window-x="-8"
     inkscape:window-y="-8"
     inkscape:window-maximized="1"
     inkscape:current-layer="layer1" /><defs
     id="defs2" /><g
     inkscape:label="Katman 1"
     inkscape:groupmode="layer"
     id="layer1"><g
       id="g2405"
       transform="matrix(0.63812494,0,0,0.63812494,0.34586386,-106.08287)"><g
         transform="translate(806.9911,338.7411)"
         id="577585">
<g
   id="g1873">
		<g
   transform="translate(0,-76.8191)"
   id="831981">
<path
   style="opacity:1;fill:#000000;fill-rule:nonzero;stroke:none;stroke-width:1;stroke-linecap:butt;stroke-linejoin:miter;stroke-miterlimit:4;stroke-dasharray:none;stroke-dashoffset:0"
   vector-effect="non-scaling-stroke"
   transform="translate(-12.0915,-12.0015)"
   d="M 16.86,8 A 4,4 0 0 0 13,5 H 6 V 8 H 2 v 2 h 4 v 3 h 7 a 4,4 0 0 0 3.85,-3 3.5043723,3.5043723 0 0 1 -0.35,7 H 2 v 2 H 16.5 A 5.5029447,5.5029447 0 0 0 16.86,8 Z"
   stroke-linecap="round"
   id="path1864" />
</g>
		<g
   transform="translate(0,-26.4491)"
   id="795179">
<path
   style="opacity:1;fill:#000000;fill-rule:nonzero;stroke:none;stroke-width:1;stroke-linecap:butt;stroke-linejoin:miter;stroke-miterlimit:4;stroke-dasharray:none;stroke-dashoffset:0"
   vector-effect="non-scaling-stroke"
   transform="translate(-12.0915,-12.0015)"
   d="M 16.86,8 A 4,4 0 0 0 13,5 H 6 V 8 H 2 v 2 h 4 v 3 h 7 a 4,4 0 0 0 3.85,-3 3.5043723,3.5043723 0 0 1 -0.35,7 H 2 v 2 H 16.5 A 5.5029447,5.5029447 0 0 0 16.86,8 Z"
   stroke-linecap="round"
   id="path1867" />
</g>
		<g
   transform="translate(0,76.8191)"
   id="722747">
<path
   style="opacity:1;fill:#000000;fill-rule:nonzero;stroke:none;stroke-width:1;stroke-linecap:butt;stroke-linejoin:miter;stroke-miterlimit:4;stroke-dasharray:none;stroke-dashoffset:0"
   vector-effect="non-scaling-stroke"
   transform="translate(-12.0915,-12.0015)"
   d="M 16.86,8 A 4,4 0 0 0 13,5 H 6 V 8 H 2 v 2 h 4 v 3 h 7 a 4,4 0 0 0 3.85,-3 3.5043723,3.5043723 0 0 1 -0.35,7 H 2 v 2 H 16.5 A 5.5029447,5.5029447 0 0 0 16.86,8 Z"
   stroke-linecap="round"
   id="path1870" />
</g>
</g>
</g><g
         transform="matrix(0.7703,0,0,0.7703,303.9174,448.6898)"
         id="656710">
<path
   style="opacity:1;fill:#b7bfcb;fill-rule:nonzero;stroke:none;stroke-width:0;stroke-linecap:butt;stroke-linejoin:miter;stroke-miterlimit:4;stroke-dasharray:none;stroke-dashoffset:0"
   vector-effect="non-scaling-stroke"
   transform="translate(-147.0501,-147.05)"
   d="M 294.089,25.772 C 293.323,18.206 287.101,12.55 279.333,12.55 h -264 C 7.049,12.55 0,18.766 0,27.05 v 158.333 c 0,0.002 0,0.004 0,0.006 v 29.161 c 0,8.284 7.049,15 15.333,15 h 74.618 l -4.416,22 H 64.333 c -8.284,0 -15,6.716 -15,15 0,8.284 6.716,15 15,15 h 33.5 99 c 0.005,-0.001 0.013,-0.001 0.02,0 h 32.48 c 8.284,0 15,-6.716 15,-15 0,-8.284 -6.716,-15 -15,-15 H 209.13 l -4.416,-22 h 74.618 c 8.284,0 14.667,-6.716 14.667,-15 V 27.05 c 10e-4,-0.518 0.141,-0.777 0.09,-1.278 z M 264,42.55 v 128 H 30 v -128 z"
   stroke-linecap="round"
   id="path1876" />
</g><g
         transform="matrix(1.0612,0,0,1.0612,668.6672,413.8098)"
         id="758117">
<g
   id="g1921">
		<g
   transform="matrix(1.5975,0,0,0.314,-1e-4,0)"
   id="73590">
<path
   style="opacity:1;fill:#ffffff;fill-rule:nonzero;stroke:#b7bfcb;stroke-width:5;stroke-linecap:butt;stroke-linejoin:miter;stroke-miterlimit:4;stroke-dasharray:none;stroke-dashoffset:0"
   vector-effect="non-scaling-stroke"
   transform="translate(-79,-78.9999)"
   d="m 154.685,2.50049 h 0.026 l 0.027,-5.5e-4 c 0.412,-0.00868 0.753,0.31859 0.762,0.73046 v 2.9e-4 c 0,0.01026 0,0.02107 0,0.03214 l -0.001,0.02603 V 3.3149 154.686 c 0,0.449 -0.364,0.814 -0.814,0.814 H 3.31409 C 2.86449,155.5 2.5,155.135 2.5,154.686 V 3.3149 C 2.5,2.86483 2.86465,2.50049 3.31409,2.50049 Z"
   stroke-linecap="round"
   id="path1879" />
</g>
		<g
   transform="translate(45.2306)"
   id="400327">
<g
   id="g1909">
		<g
   transform="matrix(0,0.8377,-2.8084,0,58.9877,-2e-4)"
   id="Layer_2-9">
<path
   style="opacity:1;fill:#b7bfcb;fill-rule:nonzero;stroke:none;stroke-width:0;stroke-linecap:butt;stroke-linejoin:miter;stroke-miterlimit:4;stroke-dasharray:none;stroke-dashoffset:0"
   transform="translate(-16,-9)"
   d="M 28,10 H 4 A 1,1 0 0 1 4,8 h 24 a 1,1 0 0 1 0,2 z"
   stroke-linecap="round"
   id="path1882" />
</g>
		<g
   transform="matrix(0,0.8377,-2.8084,0,39.3289,-2e-4)"
   id="g1887">
<path
   style="opacity:1;fill:#b7bfcb;fill-rule:nonzero;stroke:none;stroke-width:0;stroke-linecap:butt;stroke-linejoin:miter;stroke-miterlimit:4;stroke-dasharray:none;stroke-dashoffset:0"
   transform="translate(-16,-16)"
   d="M 28,17 H 4 a 1,1 0 0 1 0,-2 h 24 a 1,1 0 0 1 0,2 z"
   stroke-linecap="round"
   id="path1885" />
</g>
		<g
   transform="matrix(0,0.8377,-2.8084,0,19.6702,-2e-4)"
   id="g1891">
<path
   style="opacity:1;fill:#b7bfcb;fill-rule:nonzero;stroke:none;stroke-width:0;stroke-linecap:butt;stroke-linejoin:miter;stroke-miterlimit:4;stroke-dasharray:none;stroke-dashoffset:0"
   transform="translate(-16,-23)"
   d="M 28,24 H 4 a 1,1 0 0 1 0,-2 h 24 a 1,1 0 0 1 0,2 z"
   stroke-linecap="round"
   id="path1889" />
</g>
		<g
   transform="matrix(0,0.8377,-2.8084,0,0.0257,-2e-4)"
   id="g1895">
<path
   style="opacity:1;fill:#b7bfcb;fill-rule:nonzero;stroke:none;stroke-width:0;stroke-linecap:butt;stroke-linejoin:miter;stroke-miterlimit:4;stroke-dasharray:none;stroke-dashoffset:0"
   transform="translate(-16,-9)"
   d="M 28,10 H 4 A 1,1 0 0 1 4,8 h 24 a 1,1 0 0 1 0,2 z"
   stroke-linecap="round"
   id="path1893" />
</g>
		<g
   transform="matrix(0,0.8377,-2.8084,0,-19.6331,-2e-4)"
   id="g1899">
<path
   style="opacity:1;fill:#b7bfcb;fill-rule:nonzero;stroke:none;stroke-width:0;stroke-linecap:butt;stroke-linejoin:miter;stroke-miterlimit:4;stroke-dasharray:none;stroke-dashoffset:0"
   transform="translate(-16,-16)"
   d="M 28,17 H 4 a 1,1 0 0 1 0,-2 h 24 a 1,1 0 0 1 0,2 z"
   stroke-linecap="round"
   id="path1897" />
</g>
		<g
   transform="matrix(0,0.8377,-2.8084,0,-39.2917,-2e-4)"
   id="g1903">
<path
   style="opacity:1;fill:#b7bfcb;fill-rule:nonzero;stroke:none;stroke-width:0;stroke-linecap:butt;stroke-linejoin:miter;stroke-miterlimit:4;stroke-dasharray:none;stroke-dashoffset:0"
   transform="translate(-16,-23)"
   d="M 28,24 H 4 a 1,1 0 0 1 0,-2 h 24 a 1,1 0 0 1 0,2 z"
   stroke-linecap="round"
   id="path1901" />
</g>
		<g
   transform="matrix(0,0.8377,-2.8084,0,-58.9877,-2e-4)"
   id="g1907">
<path
   style="opacity:1;fill:#b7bfcb;fill-rule:nonzero;stroke:none;stroke-width:0;stroke-linecap:butt;stroke-linejoin:miter;stroke-miterlimit:4;stroke-dasharray:none;stroke-dashoffset:0"
   transform="translate(-16,-16)"
   d="M 28,17 H 4 a 1,1 0 0 1 0,-2 h 24 a 1,1 0 0 1 0,2 z"
   stroke-linecap="round"
   id="path1905" />
</g>
</g>
</g>
		<g
   transform="translate(-95.8611,-0.0021)"
   id="217042">
<g
   id="g1918">
		<g
   transform="matrix(0.1467,0,0,0.0869,-9.2218,9e-4)"
   id="61229-4">
<path
   style="opacity:1;fill:#0099ff;fill-rule:nonzero;stroke:none;stroke-width:0;stroke-linecap:butt;stroke-linejoin:miter;stroke-miterlimit:4;stroke-dasharray:none;stroke-dashoffset:0"
   vector-effect="non-scaling-stroke"
   transform="translate(-78.4998,-78.5)"
   d="M 78.5,0 C 52.9419,0 32.1166,35.2271 32.1166,78.5 c 0,43.273 20.8253,78.5 46.3834,78.5 25.558,0 46.383,-35.227 46.383,-78.5 C 124.883,35.2271 104.058,0 78.5,0 Z"
   stroke-linecap="round"
   id="path1912" />
</g>
		<g
   transform="matrix(0.1467,0,0,0.0869,9.2217,-0.001)"
   id="81755-1">
<path
   style="opacity:1;fill:#b7bfcb;fill-rule:nonzero;stroke:none;stroke-width:0;stroke-linecap:butt;stroke-linejoin:miter;stroke-miterlimit:4;stroke-dasharray:none;stroke-dashoffset:0"
   vector-effect="non-scaling-stroke"
   transform="translate(-78.4998,-78.5)"
   d="M 78.5,0 C 52.9419,0 32.1166,35.2271 32.1166,78.5 c 0,43.273 20.8253,78.5 46.3834,78.5 25.558,0 46.383,-35.227 46.383,-78.5 C 124.883,35.2271 104.058,0 78.5,0 Z"
   stroke-linecap="round"
   id="path1915" />
</g>
</g>
</g>
</g>
</g><g
         transform="matrix(1.0612,0,0,1.0612,668.6672,464.9341)"
         id="464940">
<g
   id="g1969">
		<g
   transform="matrix(1.5975,0,0,0.314,-1e-4,0)"
   id="640672">
<path
   style="opacity:1;fill:#ffffff;fill-rule:nonzero;stroke:#b7bfcb;stroke-width:5;stroke-linecap:butt;stroke-linejoin:miter;stroke-miterlimit:4;stroke-dasharray:none;stroke-dashoffset:0"
   vector-effect="non-scaling-stroke"
   transform="translate(-79,-78.9999)"
   d="m 154.685,2.50049 h 0.026 l 0.027,-5.5e-4 c 0.412,-0.00868 0.753,0.31859 0.762,0.73046 v 2.9e-4 c 0,0.01026 0,0.02107 0,0.03214 l -0.001,0.02603 V 3.3149 154.686 c 0,0.449 -0.364,0.814 -0.814,0.814 H 3.31409 C 2.86449,155.5 2.5,155.135 2.5,154.686 V 3.3149 C 2.5,2.86483 2.86465,2.50049 3.31409,2.50049 Z"
   stroke-linecap="round"
   id="path1924" />
</g>
		<g
   transform="translate(45.2306)"
   id="568211">
<g
   id="g1955">
		<g
   transform="matrix(0,0.8377,-2.8084,0,58.9877,-2e-4)"
   id="g1929">
<path
   style="opacity:1;fill:#b7bfcb;fill-rule:nonzero;stroke:none;stroke-width:0;stroke-linecap:butt;stroke-linejoin:miter;stroke-miterlimit:4;stroke-dasharray:none;stroke-dashoffset:0"
   transform="translate(-16,-9)"
   d="M 28,10 H 4 A 1,1 0 0 1 4,8 h 24 a 1,1 0 0 1 0,2 z"
   stroke-linecap="round"
   id="path1927" />
</g>
		<g
   transform="matrix(0,0.8377,-2.8084,0,39.3289,-2e-4)"
   id="g1933">
<path
   style="opacity:1;fill:#b7bfcb;fill-rule:nonzero;stroke:none;stroke-width:0;stroke-linecap:butt;stroke-linejoin:miter;stroke-miterlimit:4;stroke-dasharray:none;stroke-dashoffset:0"
   transform="translate(-16,-16)"
   d="M 28,17 H 4 a 1,1 0 0 1 0,-2 h 24 a 1,1 0 0 1 0,2 z"
   stroke-linecap="round"
   id="path1931" />
</g>
		<g
   transform="matrix(0,0.8377,-2.8084,0,19.6702,-2e-4)"
   id="g1937">
<path
   style="opacity:1;fill:#b7bfcb;fill-rule:nonzero;stroke:none;stroke-width:0;stroke-linecap:butt;stroke-linejoin:miter;stroke-miterlimit:4;stroke-dasharray:none;stroke-dashoffset:0"
   transform="translate(-16,-23)"
   d="M 28,24 H 4 a 1,1 0 0 1 0,-2 h 24 a 1,1 0 0 1 0,2 z"
   stroke-linecap="round"
   id="path1935" />
</g>
		<g
   transform="matrix(0,0.8377,-2.8084,0,0.0257,-2e-4)"
   id="g1941">
<path
   style="opacity:1;fill:#b7bfcb;fill-rule:nonzero;stroke:none;stroke-width:0;stroke-linecap:butt;stroke-linejoin:miter;stroke-miterlimit:4;stroke-dasharray:none;stroke-dashoffset:0"
   transform="translate(-16,-9)"
   d="M 28,10 H 4 A 1,1 0 0 1 4,8 h 24 a 1,1 0 0 1 0,2 z"
   stroke-linecap="round"
   id="path1939" />
</g>
		<g
   transform="matrix(0,0.8377,-2.8084,0,-19.6331,-2e-4)"
   id="g1945">
<path
   style="opacity:1;fill:#b7bfcb;fill-rule:nonzero;stroke:none;stroke-width:0;stroke-linecap:butt;stroke-linejoin:miter;stroke-miterlimit:4;stroke-dasharray:none;stroke-dashoffset:0"
   transform="translate(-16,-16)"
   d="M 28,17 H 4 a 1,1 0 0 1 0,-2 h 24 a 1,1 0 0 1 0,2 z"
   stroke-linecap="round"
   id="path1943" />
</g>
		<g
   transform="matrix(0,0.8377,-2.8084,0,-39.2917,-2e-4)"
   id="g1949">
<path
   style="opacity:1;fill:#b7bfcb;fill-rule:nonzero;stroke:none;stroke-width:0;stroke-linecap:butt;stroke-linejoin:miter;stroke-miterlimit:4;stroke-dasharray:none;stroke-dashoffset:0"
   transform="translate(-16,-23)"
   d="M 28,24 H 4 a 1,1 0 0 1 0,-2 h 24 a 1,1 0 0 1 0,2 z"
   stroke-linecap="round"
   id="path1947" />
</g>
		<g
   transform="matrix(0,0.8377,-2.8084,0,-58.9877,-2e-4)"
   id="g1953">
<path
   style="opacity:1;fill:#b7bfcb;fill-rule:nonzero;stroke:none;stroke-width:0;stroke-linecap:butt;stroke-linejoin:miter;stroke-miterlimit:4;stroke-dasharray:none;stroke-dashoffset:0"
   transform="translate(-16,-16)"
   d="M 28,17 H 4 a 1,1 0 0 1 0,-2 h 24 a 1,1 0 0 1 0,2 z"
   stroke-linecap="round"
   id="path1951" />
</g>
</g>
</g>
		<g
   transform="translate(-95.8611,-0.0021)"
   id="804519">
<g
   id="g1966">
		<g
   transform="matrix(0.1467,0,0,0.0869,-9.2218,9e-4)"
   id="g1960">
<path
   style="opacity:1;fill:#0099ff;fill-rule:nonzero;stroke:none;stroke-width:0;stroke-linecap:butt;stroke-linejoin:miter;stroke-miterlimit:4;stroke-dasharray:none;stroke-dashoffset:0"
   vector-effect="non-scaling-stroke"
   transform="translate(-78.4998,-78.5)"
   d="M 78.5,0 C 52.9419,0 32.1166,35.2271 32.1166,78.5 c 0,43.273 20.8253,78.5 46.3834,78.5 25.558,0 46.383,-35.227 46.383,-78.5 C 124.883,35.2271 104.058,0 78.5,0 Z"
   stroke-linecap="round"
   id="path1958" />
</g>
		<g
   transform="matrix(0.1467,0,0,0.0869,9.2217,-0.001)"
   id="g1964">
<path
   style="opacity:1;fill:#b7bfcb;fill-rule:nonzero;stroke:none;stroke-width:0;stroke-linecap:butt;stroke-linejoin:miter;stroke-miterlimit:4;stroke-dasharray:none;stroke-dashoffset:0"
   vector-effect="non-scaling-stroke"
   transform="translate(-78.4998,-78.5)"
   d="M 78.5,0 C 52.9419,0 32.1166,35.2271 32.1166,78.5 c 0,43.273 20.8253,78.5 46.3834,78.5 25.558,0 46.383,-35.227 46.383,-78.5 C 124.883,35.2271 104.058,0 78.5,0 Z"
   stroke-linecap="round"
   id="path1962" />
</g>
</g>
</g>
</g>
</g><g
         transform="matrix(1.0201,0,0,0.1794,470,549.0098)"
         id="495119">
<path
   style="opacity:1;fill:#b7bfcb;fill-rule:nonzero;stroke:none;stroke-width:0;stroke-linecap:butt;stroke-linejoin:miter;stroke-miterlimit:4;stroke-dasharray:none;stroke-dashoffset:0"
   vector-effect="non-scaling-stroke"
   transform="translate(-512,-512)"
   d="M 904,476 H 120 c -4.4,0 -8,3.6 -8,8 v 56 c 0,4.4 3.6,8 8,8 h 784 c 4.4,0 8,-3.6 8,-8 v -56 c 0,-4.4 -3.6,-8 -8,-8 z"
   stroke-linecap="round"
   id="path1972" />
</g><g
         transform="matrix(1.0612,0,0,1.0612,668.6672,311.6709)"
         id="695645">
<g
   id="g2020">
		<g
   transform="matrix(1.5975,0,0,0.314,-1e-4,0)"
   id="902644">
<path
   style="opacity:1;fill:#ffffff;fill-rule:nonzero;stroke:#b7bfcb;stroke-width:5;stroke-linecap:butt;stroke-linejoin:miter;stroke-miterlimit:4;stroke-dasharray:none;stroke-dashoffset:0"
   vector-effect="non-scaling-stroke"
   transform="translate(-79,-78.9999)"
   d="m 154.685,2.50049 h 0.026 l 0.027,-5.5e-4 c 0.412,-0.00868 0.753,0.31859 0.762,0.73046 v 2.9e-4 c 0,0.01026 0,0.02107 0,0.03214 l -0.001,0.02603 V 3.3149 154.686 c 0,0.449 -0.364,0.814 -0.814,0.814 H 3.31409 C 2.86449,155.5 2.5,155.135 2.5,154.686 V 3.3149 C 2.5,2.86483 2.86465,2.50049 3.31409,2.50049 Z"
   stroke-linecap="round"
   id="path1975" />
</g>
		<g
   transform="translate(45.2306)"
   id="319323">
<g
   id="g2006">
		<g
   transform="matrix(0,0.8377,-2.8084,0,58.9877,-2e-4)"
   id="g1980">
<path
   style="opacity:1;fill:#b7bfcb;fill-rule:nonzero;stroke:none;stroke-width:0;stroke-linecap:butt;stroke-linejoin:miter;stroke-miterlimit:4;stroke-dasharray:none;stroke-dashoffset:0"
   transform="translate(-16,-9)"
   d="M 28,10 H 4 A 1,1 0 0 1 4,8 h 24 a 1,1 0 0 1 0,2 z"
   stroke-linecap="round"
   id="path1978" />
</g>
		<g
   transform="matrix(0,0.8377,-2.8084,0,39.3289,-2e-4)"
   id="g1984">
<path
   style="opacity:1;fill:#b7bfcb;fill-rule:nonzero;stroke:none;stroke-width:0;stroke-linecap:butt;stroke-linejoin:miter;stroke-miterlimit:4;stroke-dasharray:none;stroke-dashoffset:0"
   transform="translate(-16,-16)"
   d="M 28,17 H 4 a 1,1 0 0 1 0,-2 h 24 a 1,1 0 0 1 0,2 z"
   stroke-linecap="round"
   id="path1982" />
</g>
		<g
   transform="matrix(0,0.8377,-2.8084,0,19.6702,-2e-4)"
   id="g1988">
<path
   style="opacity:1;fill:#b7bfcb;fill-rule:nonzero;stroke:none;stroke-width:0;stroke-linecap:butt;stroke-linejoin:miter;stroke-miterlimit:4;stroke-dasharray:none;stroke-dashoffset:0"
   transform="translate(-16,-23)"
   d="M 28,24 H 4 a 1,1 0 0 1 0,-2 h 24 a 1,1 0 0 1 0,2 z"
   stroke-linecap="round"
   id="path1986" />
</g>
		<g
   transform="matrix(0,0.8377,-2.8084,0,0.0257,-2e-4)"
   id="g1992">
<path
   style="opacity:1;fill:#b7bfcb;fill-rule:nonzero;stroke:none;stroke-width:0;stroke-linecap:butt;stroke-linejoin:miter;stroke-miterlimit:4;stroke-dasharray:none;stroke-dashoffset:0"
   transform="translate(-16,-9)"
   d="M 28,10 H 4 A 1,1 0 0 1 4,8 h 24 a 1,1 0 0 1 0,2 z"
   stroke-linecap="round"
   id="path1990" />
</g>
		<g
   transform="matrix(0,0.8377,-2.8084,0,-19.6331,-2e-4)"
   id="g1996">
<path
   style="opacity:1;fill:#b7bfcb;fill-rule:nonzero;stroke:none;stroke-width:0;stroke-linecap:butt;stroke-linejoin:miter;stroke-miterlimit:4;stroke-dasharray:none;stroke-dashoffset:0"
   transform="translate(-16,-16)"
   d="M 28,17 H 4 a 1,1 0 0 1 0,-2 h 24 a 1,1 0 0 1 0,2 z"
   stroke-linecap="round"
   id="path1994" />
</g>
		<g
   transform="matrix(0,0.8377,-2.8084,0,-39.2917,-2e-4)"
   id="g2000">
<path
   style="opacity:1;fill:#b7bfcb;fill-rule:nonzero;stroke:none;stroke-width:0;stroke-linecap:butt;stroke-linejoin:miter;stroke-miterlimit:4;stroke-dasharray:none;stroke-dashoffset:0"
   transform="translate(-16,-23)"
   d="M 28,24 H 4 a 1,1 0 0 1 0,-2 h 24 a 1,1 0 0 1 0,2 z"
   stroke-linecap="round"
   id="path1998" />
</g>
		<g
   transform="matrix(0,0.8377,-2.8084,0,-58.9877,-2e-4)"
   id="g2004">
<path
   style="opacity:1;fill:#b7bfcb;fill-rule:nonzero;stroke:none;stroke-width:0;stroke-linecap:butt;stroke-linejoin:miter;stroke-miterlimit:4;stroke-dasharray:none;stroke-dashoffset:0"
   transform="translate(-16,-16)"
   d="M 28,17 H 4 a 1,1 0 0 1 0,-2 h 24 a 1,1 0 0 1 0,2 z"
   stroke-linecap="round"
   id="path2002" />
</g>
</g>
</g>
		<g
   transform="translate(-95.8611,-0.0021)"
   id="74063">
<g
   id="g2017">
		<g
   transform="matrix(0.1467,0,0,0.0869,-9.2218,9e-4)"
   id="g2011">
<path
   style="opacity:1;fill:#0099ff;fill-rule:nonzero;stroke:none;stroke-width:0;stroke-linecap:butt;stroke-linejoin:miter;stroke-miterlimit:4;stroke-dasharray:none;stroke-dashoffset:0"
   vector-effect="non-scaling-stroke"
   transform="translate(-78.4998,-78.5)"
   d="M 78.5,0 C 52.9419,0 32.1166,35.2271 32.1166,78.5 c 0,43.273 20.8253,78.5 46.3834,78.5 25.558,0 46.383,-35.227 46.383,-78.5 C 124.883,35.2271 104.058,0 78.5,0 Z"
   stroke-linecap="round"
   id="path2009" />
</g>
		<g
   transform="matrix(0.1467,0,0,0.0869,9.2217,-0.001)"
   id="g2015">
<path
   style="opacity:1;fill:#b7bfcb;fill-rule:nonzero;stroke:none;stroke-width:0;stroke-linecap:butt;stroke-linejoin:miter;stroke-miterlimit:4;stroke-dasharray:none;stroke-dashoffset:0"
   vector-effect="non-scaling-stroke"
   transform="translate(-78.4998,-78.5)"
   d="M 78.5,0 C 52.9419,0 32.1166,35.2271 32.1166,78.5 c 0,43.273 20.8253,78.5 46.3834,78.5 25.558,0 46.383,-35.227 46.383,-78.5 C 124.883,35.2271 104.058,0 78.5,0 Z"
   stroke-linecap="round"
   id="path2013" />
</g>
</g>
</g>
</g>
</g><g
         transform="translate(668.6671,362.7854)"
         id="388332">
<g
   id="g2068">
		<g
   transform="matrix(1.6953,0,0,0.3332,0.0025,-0.0013)"
   id="795447">
<path
   style="opacity:1;fill:#ffffff;fill-rule:nonzero;stroke:#b7bfcb;stroke-width:5;stroke-linecap:butt;stroke-linejoin:miter;stroke-miterlimit:4;stroke-dasharray:none;stroke-dashoffset:0"
   vector-effect="non-scaling-stroke"
   transform="translate(-79,-78.9999)"
   d="m 154.685,2.50049 h 0.026 l 0.027,-5.5e-4 c 0.412,-0.00868 0.753,0.31859 0.762,0.73046 v 2.9e-4 c 0,0.01026 0,0.02107 0,0.03214 l -0.001,0.02603 V 3.3149 154.686 c 0,0.449 -0.364,0.814 -0.814,0.814 H 3.31409 C 2.86449,155.5 2.5,155.135 2.5,154.686 V 3.3149 C 2.5,2.86483 2.86465,2.50049 3.31409,2.50049 Z"
   stroke-linecap="round"
   id="path2023" />
</g>
		<g
   transform="matrix(1.0612,0,0,1.0612,47.9987,0)"
   id="526110">
<g
   id="g2054">
		<g
   transform="matrix(0,0.8377,-2.8084,0,58.9877,-2e-4)"
   id="g2028">
<path
   style="opacity:1;fill:#b7bfcb;fill-rule:nonzero;stroke:none;stroke-width:0;stroke-linecap:butt;stroke-linejoin:miter;stroke-miterlimit:4;stroke-dasharray:none;stroke-dashoffset:0"
   transform="translate(-16,-9)"
   d="M 28,10 H 4 A 1,1 0 0 1 4,8 h 24 a 1,1 0 0 1 0,2 z"
   stroke-linecap="round"
   id="path2026" />
</g>
		<g
   transform="matrix(0,0.8377,-2.8084,0,39.3289,-2e-4)"
   id="g2032">
<path
   style="opacity:1;fill:#b7bfcb;fill-rule:nonzero;stroke:none;stroke-width:0;stroke-linecap:butt;stroke-linejoin:miter;stroke-miterlimit:4;stroke-dasharray:none;stroke-dashoffset:0"
   transform="translate(-16,-16)"
   d="M 28,17 H 4 a 1,1 0 0 1 0,-2 h 24 a 1,1 0 0 1 0,2 z"
   stroke-linecap="round"
   id="path2030" />
</g>
		<g
   transform="matrix(0,0.8377,-2.8084,0,19.6702,-2e-4)"
   id="g2036">
<path
   style="opacity:1;fill:#b7bfcb;fill-rule:nonzero;stroke:none;stroke-width:0;stroke-linecap:butt;stroke-linejoin:miter;stroke-miterlimit:4;stroke-dasharray:none;stroke-dashoffset:0"
   transform="translate(-16,-23)"
   d="M 28,24 H 4 a 1,1 0 0 1 0,-2 h 24 a 1,1 0 0 1 0,2 z"
   stroke-linecap="round"
   id="path2034" />
</g>
		<g
   transform="matrix(0,0.8377,-2.8084,0,0.0257,-2e-4)"
   id="g2040">
<path
   style="opacity:1;fill:#b7bfcb;fill-rule:nonzero;stroke:none;stroke-width:0;stroke-linecap:butt;stroke-linejoin:miter;stroke-miterlimit:4;stroke-dasharray:none;stroke-dashoffset:0"
   transform="translate(-16,-9)"
   d="M 28,10 H 4 A 1,1 0 0 1 4,8 h 24 a 1,1 0 0 1 0,2 z"
   stroke-linecap="round"
   id="path2038" />
</g>
		<g
   transform="matrix(0,0.8377,-2.8084,0,-19.6331,-2e-4)"
   id="g2044">
<path
   style="opacity:1;fill:#b7bfcb;fill-rule:nonzero;stroke:none;stroke-width:0;stroke-linecap:butt;stroke-linejoin:miter;stroke-miterlimit:4;stroke-dasharray:none;stroke-dashoffset:0"
   transform="translate(-16,-16)"
   d="M 28,17 H 4 a 1,1 0 0 1 0,-2 h 24 a 1,1 0 0 1 0,2 z"
   stroke-linecap="round"
   id="path2042" />
</g>
		<g
   transform="matrix(0,0.8377,-2.8084,0,-39.2917,-2e-4)"
   id="g2048">
<path
   style="opacity:1;fill:#b7bfcb;fill-rule:nonzero;stroke:none;stroke-width:0;stroke-linecap:butt;stroke-linejoin:miter;stroke-miterlimit:4;stroke-dasharray:none;stroke-dashoffset:0"
   transform="translate(-16,-23)"
   d="M 28,24 H 4 a 1,1 0 0 1 0,-2 h 24 a 1,1 0 0 1 0,2 z"
   stroke-linecap="round"
   id="path2046" />
</g>
		<g
   transform="matrix(0,0.8377,-2.8084,0,-58.9877,-2e-4)"
   id="g2052">
<path
   style="opacity:1;fill:#b7bfcb;fill-rule:nonzero;stroke:none;stroke-width:0;stroke-linecap:butt;stroke-linejoin:miter;stroke-miterlimit:4;stroke-dasharray:none;stroke-dashoffset:0"
   transform="translate(-16,-16)"
   d="M 28,17 H 4 a 1,1 0 0 1 0,-2 h 24 a 1,1 0 0 1 0,2 z"
   stroke-linecap="round"
   id="path2050" />
</g>
</g>
</g>
		<g
   transform="translate(-101.7278,-0.0023)"
   id="706347">
<g
   id="g2065">
		<g
   transform="matrix(0.1557,0,0,0.0922,-9.7851,-4e-4)"
   id="g2059">
<path
   style="opacity:1;fill:#0099ff;fill-rule:nonzero;stroke:none;stroke-width:0;stroke-linecap:butt;stroke-linejoin:miter;stroke-miterlimit:4;stroke-dasharray:none;stroke-dashoffset:0"
   vector-effect="non-scaling-stroke"
   transform="translate(-78.4998,-78.5)"
   d="M 78.5,0 C 52.9419,0 32.1166,35.2271 32.1166,78.5 c 0,43.273 20.8253,78.5 46.3834,78.5 25.558,0 46.383,-35.227 46.383,-78.5 C 124.883,35.2271 104.058,0 78.5,0 Z"
   stroke-linecap="round"
   id="path2057" />
</g>
		<g
   transform="matrix(0.1557,0,0,0.0922,9.7872,-0.0024)"
   id="g2063">
<path
   style="opacity:1;fill:#f7931e;fill-rule:nonzero;stroke:none;stroke-width:0;stroke-linecap:butt;stroke-linejoin:miter;stroke-miterlimit:4;stroke-dasharray:none;stroke-dashoffset:0"
   vector-effect="non-scaling-stroke"
   transform="translate(-78.4998,-78.5)"
   d="M 78.5,0 C 52.9419,0 32.1166,35.2271 32.1166,78.5 c 0,43.273 20.8253,78.5 46.3834,78.5 25.558,0 46.383,-35.227 46.383,-78.5 C 124.883,35.2271 104.058,0 78.5,0 Z"
   stroke-linecap="round"
   id="path2061" />
</g>
</g>
</g>
</g>
</g><g
         transform="translate(668.6697,516.0512)"
         id="614883">
<g
   id="g2116">
		<g
   transform="scale(1.6953,0.3332)"
   id="484808">
<path
   style="opacity:1;fill:#ffffff;fill-rule:nonzero;stroke:#b7bfcb;stroke-width:5;stroke-linecap:butt;stroke-linejoin:miter;stroke-miterlimit:4;stroke-dasharray:none;stroke-dashoffset:0"
   vector-effect="non-scaling-stroke"
   transform="translate(-79,-78.9999)"
   d="m 154.685,2.50049 h 0.026 l 0.027,-5.5e-4 c 0.412,-0.00868 0.753,0.31859 0.762,0.73046 v 2.9e-4 c 0,0.01026 0,0.02107 0,0.03214 l -0.001,0.02603 V 3.3149 154.686 c 0,0.449 -0.364,0.814 -0.814,0.814 H 3.31409 C 2.86449,155.5 2.5,155.135 2.5,154.686 V 3.3149 C 2.5,2.86483 2.86465,2.50049 3.31409,2.50049 Z"
   stroke-linecap="round"
   id="path2071" />
</g>
		<g
   transform="translate(-101.7301,-0.001)"
   id="682841">
<g
   id="g2082">
		<g
   transform="matrix(0.1557,0,0,0.0922,-9.7851,-4e-4)"
   id="g2076">
<path
   style="opacity:1;fill:#0099ff;fill-rule:nonzero;stroke:none;stroke-width:0;stroke-linecap:butt;stroke-linejoin:miter;stroke-miterlimit:4;stroke-dasharray:none;stroke-dashoffset:0"
   vector-effect="non-scaling-stroke"
   transform="translate(-78.4998,-78.5)"
   d="M 78.5,0 C 52.9419,0 32.1166,35.2271 32.1166,78.5 c 0,43.273 20.8253,78.5 46.3834,78.5 25.558,0 46.383,-35.227 46.383,-78.5 C 124.883,35.2271 104.058,0 78.5,0 Z"
   stroke-linecap="round"
   id="path2074" />
</g>
		<g
   transform="matrix(0.1557,0,0,0.0922,9.7872,-0.0024)"
   id="g2080">
<path
   style="opacity:1;fill:#ff3333;fill-rule:nonzero;stroke:none;stroke-width:0;stroke-linecap:butt;stroke-linejoin:miter;stroke-miterlimit:4;stroke-dasharray:none;stroke-dashoffset:0"
   vector-effect="non-scaling-stroke"
   transform="translate(-78.4998,-78.5)"
   d="M 78.5,0 C 52.9419,0 32.1166,35.2271 32.1166,78.5 c 0,43.273 20.8253,78.5 46.3834,78.5 25.558,0 46.383,-35.227 46.383,-78.5 C 124.883,35.2271 104.058,0 78.5,0 Z"
   stroke-linecap="round"
   id="path2078" />
</g>
</g>
</g>
		<g
   transform="matrix(1.0612,0,0,1.0612,47.9963,0.0013)"
   id="12022">
<g
   id="g2113">
		<g
   transform="matrix(0,0.8377,-2.8084,0,58.9877,-2e-4)"
   id="g2087">
<path
   style="opacity:1;fill:#b7bfcb;fill-rule:nonzero;stroke:none;stroke-width:0;stroke-linecap:butt;stroke-linejoin:miter;stroke-miterlimit:4;stroke-dasharray:none;stroke-dashoffset:0"
   transform="translate(-16,-9)"
   d="M 28,10 H 4 A 1,1 0 0 1 4,8 h 24 a 1,1 0 0 1 0,2 z"
   stroke-linecap="round"
   id="path2085" />
</g>
		<g
   transform="matrix(0,0.8377,-2.8084,0,39.3289,-2e-4)"
   id="g2091">
<path
   style="opacity:1;fill:#b7bfcb;fill-rule:nonzero;stroke:none;stroke-width:0;stroke-linecap:butt;stroke-linejoin:miter;stroke-miterlimit:4;stroke-dasharray:none;stroke-dashoffset:0"
   transform="translate(-16,-16)"
   d="M 28,17 H 4 a 1,1 0 0 1 0,-2 h 24 a 1,1 0 0 1 0,2 z"
   stroke-linecap="round"
   id="path2089" />
</g>
		<g
   transform="matrix(0,0.8377,-2.8084,0,19.6702,-2e-4)"
   id="g2095">
<path
   style="opacity:1;fill:#b7bfcb;fill-rule:nonzero;stroke:none;stroke-width:0;stroke-linecap:butt;stroke-linejoin:miter;stroke-miterlimit:4;stroke-dasharray:none;stroke-dashoffset:0"
   transform="translate(-16,-23)"
   d="M 28,24 H 4 a 1,1 0 0 1 0,-2 h 24 a 1,1 0 0 1 0,2 z"
   stroke-linecap="round"
   id="path2093" />
</g>
		<g
   transform="matrix(0,0.8377,-2.8084,0,0.0257,-2e-4)"
   id="g2099">
<path
   style="opacity:1;fill:#b7bfcb;fill-rule:nonzero;stroke:none;stroke-width:0;stroke-linecap:butt;stroke-linejoin:miter;stroke-miterlimit:4;stroke-dasharray:none;stroke-dashoffset:0"
   transform="translate(-16,-9)"
   d="M 28,10 H 4 A 1,1 0 0 1 4,8 h 24 a 1,1 0 0 1 0,2 z"
   stroke-linecap="round"
   id="path2097" />
</g>
		<g
   transform="matrix(0,0.8377,-2.8084,0,-19.6331,-2e-4)"
   id="g2103">
<path
   style="opacity:1;fill:#b7bfcb;fill-rule:nonzero;stroke:none;stroke-width:0;stroke-linecap:butt;stroke-linejoin:miter;stroke-miterlimit:4;stroke-dasharray:none;stroke-dashoffset:0"
   transform="translate(-16,-16)"
   d="M 28,17 H 4 a 1,1 0 0 1 0,-2 h 24 a 1,1 0 0 1 0,2 z"
   stroke-linecap="round"
   id="path2101" />
</g>
		<g
   transform="matrix(0,0.8377,-2.8084,0,-39.2917,-2e-4)"
   id="g2107">
<path
   style="opacity:1;fill:#b7bfcb;fill-rule:nonzero;stroke:none;stroke-width:0;stroke-linecap:butt;stroke-linejoin:miter;stroke-miterlimit:4;stroke-dasharray:none;stroke-dashoffset:0"
   transform="translate(-16,-23)"
   d="M 28,24 H 4 a 1,1 0 0 1 0,-2 h 24 a 1,1 0 0 1 0,2 z"
   stroke-linecap="round"
   id="path2105" />
</g>
		<g
   transform="matrix(0,0.8377,-2.8084,0,-58.9877,-2e-4)"
   id="g2111">
<path
   style="opacity:1;fill:#b7bfcb;fill-rule:nonzero;stroke:none;stroke-width:0;stroke-linecap:butt;stroke-linejoin:miter;stroke-miterlimit:4;stroke-dasharray:none;stroke-dashoffset:0"
   transform="translate(-16,-16)"
   d="M 28,17 H 4 a 1,1 0 0 1 0,-2 h 24 a 1,1 0 0 1 0,2 z"
   stroke-linecap="round"
   id="path2109" />
</g>
</g>
</g>
</g>
</g><g
         transform="translate(668.6671,260.5229)"
         id="525963">
<g
   id="g2164">
		<g
   transform="matrix(1.6953,0,0,0.3332,0.0025,-0.0013)"
   id="209911">
<path
   style="opacity:1;fill:#ffffff;fill-rule:nonzero;stroke:#b7bfcb;stroke-width:5;stroke-linecap:butt;stroke-linejoin:miter;stroke-miterlimit:4;stroke-dasharray:none;stroke-dashoffset:0"
   vector-effect="non-scaling-stroke"
   transform="translate(-79,-78.9999)"
   d="m 154.685,2.50049 h 0.026 l 0.027,-5.5e-4 c 0.412,-0.00868 0.753,0.31859 0.762,0.73046 v 2.9e-4 c 0,0.01026 0,0.02107 0,0.03214 l -0.001,0.02603 V 3.3149 154.686 c 0,0.449 -0.364,0.814 -0.814,0.814 H 3.31409 C 2.86449,155.5 2.5,155.135 2.5,154.686 V 3.3149 C 2.5,2.86483 2.86465,2.50049 3.31409,2.50049 Z"
   stroke-linecap="round"
   id="path2119" />
</g>
		<g
   transform="translate(-101.7278,-0.0023)"
   id="422901">
<g
   id="g2130">
		<g
   transform="matrix(0.1557,0,0,0.0922,-9.7851,-4e-4)"
   id="g2124">
<path
   style="opacity:1;fill:#b7bfcb;fill-rule:nonzero;stroke:none;stroke-width:0;stroke-linecap:butt;stroke-linejoin:miter;stroke-miterlimit:4;stroke-dasharray:none;stroke-dashoffset:0"
   vector-effect="non-scaling-stroke"
   transform="translate(-78.4998,-78.5)"
   d="M 78.5,0 C 52.9419,0 32.1166,35.2271 32.1166,78.5 c 0,43.273 20.8253,78.5 46.3834,78.5 25.558,0 46.383,-35.227 46.383,-78.5 C 124.883,35.2271 104.058,0 78.5,0 Z"
   stroke-linecap="round"
   id="path2122" />
</g>
		<g
   transform="matrix(0.1557,0,0,0.0922,9.7872,-0.0024)"
   id="g2128">
<path
   style="opacity:1;fill:#b7bfcb;fill-rule:nonzero;stroke:none;stroke-width:0;stroke-linecap:butt;stroke-linejoin:miter;stroke-miterlimit:4;stroke-dasharray:none;stroke-dashoffset:0"
   vector-effect="non-scaling-stroke"
   transform="translate(-78.4998,-78.5)"
   d="M 78.5,0 C 52.9419,0 32.1166,35.2271 32.1166,78.5 c 0,43.273 20.8253,78.5 46.3834,78.5 25.558,0 46.383,-35.227 46.383,-78.5 C 124.883,35.2271 104.058,0 78.5,0 Z"
   stroke-linecap="round"
   id="path2126" />
</g>
</g>
</g>
		<g
   transform="matrix(1.0612,0,0,1.0612,47.9987,0)"
   id="528423">
<g
   id="g2161">
		<g
   transform="matrix(0,0.8377,-2.8084,0,58.9877,-2e-4)"
   id="g2135">
<path
   style="opacity:1;fill:#b7bfcb;fill-rule:nonzero;stroke:none;stroke-width:0;stroke-linecap:butt;stroke-linejoin:miter;stroke-miterlimit:4;stroke-dasharray:none;stroke-dashoffset:0"
   transform="translate(-16,-9)"
   d="M 28,10 H 4 A 1,1 0 0 1 4,8 h 24 a 1,1 0 0 1 0,2 z"
   stroke-linecap="round"
   id="path2133" />
</g>
		<g
   transform="matrix(0,0.8377,-2.8084,0,39.3289,-2e-4)"
   id="g2139">
<path
   style="opacity:1;fill:#b7bfcb;fill-rule:nonzero;stroke:none;stroke-width:0;stroke-linecap:butt;stroke-linejoin:miter;stroke-miterlimit:4;stroke-dasharray:none;stroke-dashoffset:0"
   transform="translate(-16,-16)"
   d="M 28,17 H 4 a 1,1 0 0 1 0,-2 h 24 a 1,1 0 0 1 0,2 z"
   stroke-linecap="round"
   id="path2137" />
</g>
		<g
   transform="matrix(0,0.8377,-2.8084,0,19.6702,-2e-4)"
   id="g2143">
<path
   style="opacity:1;fill:#b7bfcb;fill-rule:nonzero;stroke:none;stroke-width:0;stroke-linecap:butt;stroke-linejoin:miter;stroke-miterlimit:4;stroke-dasharray:none;stroke-dashoffset:0"
   transform="translate(-16,-23)"
   d="M 28,24 H 4 a 1,1 0 0 1 0,-2 h 24 a 1,1 0 0 1 0,2 z"
   stroke-linecap="round"
   id="path2141" />
</g>
		<g
   transform="matrix(0,0.8377,-2.8084,0,0.0257,-2e-4)"
   id="g2147">
<path
   style="opacity:1;fill:#b7bfcb;fill-rule:nonzero;stroke:none;stroke-width:0;stroke-linecap:butt;stroke-linejoin:miter;stroke-miterlimit:4;stroke-dasharray:none;stroke-dashoffset:0"
   transform="translate(-16,-9)"
   d="M 28,10 H 4 A 1,1 0 0 1 4,8 h 24 a 1,1 0 0 1 0,2 z"
   stroke-linecap="round"
   id="path2145" />
</g>
		<g
   transform="matrix(0,0.8377,-2.8084,0,-19.6331,-2e-4)"
   id="g2151">
<path
   style="opacity:1;fill:#b7bfcb;fill-rule:nonzero;stroke:none;stroke-width:0;stroke-linecap:butt;stroke-linejoin:miter;stroke-miterlimit:4;stroke-dasharray:none;stroke-dashoffset:0"
   transform="translate(-16,-16)"
   d="M 28,17 H 4 a 1,1 0 0 1 0,-2 h 24 a 1,1 0 0 1 0,2 z"
   stroke-linecap="round"
   id="path2149" />
</g>
		<g
   transform="matrix(0,0.8377,-2.8084,0,-39.2917,-2e-4)"
   id="g2155">
<path
   style="opacity:1;fill:#b7bfcb;fill-rule:nonzero;stroke:none;stroke-width:0;stroke-linecap:butt;stroke-linejoin:miter;stroke-miterlimit:4;stroke-dasharray:none;stroke-dashoffset:0"
   transform="translate(-16,-23)"
   d="M 28,24 H 4 a 1,1 0 0 1 0,-2 h 24 a 1,1 0 0 1 0,2 z"
   stroke-linecap="round"
   id="path2153" />
</g>
		<g
   transform="matrix(0,0.8377,-2.8084,0,-58.9877,-2e-4)"
   id="g2159">
<path
   style="opacity:1;fill:#b7bfcb;fill-rule:nonzero;stroke:none;stroke-width:0;stroke-linecap:butt;stroke-linejoin:miter;stroke-miterlimit:4;stroke-dasharray:none;stroke-dashoffset:0"
   transform="translate(-16,-16)"
   d="M 28,17 H 4 a 1,1 0 0 1 0,-2 h 24 a 1,1 0 0 1 0,2 z"
   stroke-linecap="round"
   id="path2157" />
</g>
</g>
</g>
</g>
</g><g
         transform="matrix(4.9564,0,0,4.7241,342.8109,413.8089)"
         id="992030">
<path
   style="opacity:1;fill:none;fill-rule:nonzero;stroke:#5c83be;stroke-width:5;stroke-linecap:round;stroke-linejoin:round;stroke-miterlimit:4;stroke-dasharray:none;stroke-dashoffset:0"
   vector-effect="non-scaling-stroke"
   transform="translate(-12,-12)"
   d="M 5,8 H 19 M 5,12 H 19 M 5,16 h 6"
   stroke-linecap="round"
   id="path2167" />
</g><g
         transform="matrix(0.3182,0,0,0.3182,478.1338,426.5437)"
         id="407428">
<g
   vector-effect="non-scaling-stroke"
   id="g2188">
		<g
   transform="translate(-96.115)"
   id="451262">
<line
   style="opacity:1;fill:none;fill-rule:nonzero;stroke:#5c83be;stroke-width:20;stroke-linecap:round;stroke-linejoin:round;stroke-miterlimit:4;stroke-dasharray:none;stroke-dashoffset:0"
   x1="-47.884998"
   y1="0"
   x2="47.884998"
   y2="0"
   id="line2170" />
</g>
		<g
   transform="translate(96.115)"
   id="28360">
<line
   style="opacity:1;fill:none;fill-rule:nonzero;stroke:#5c83be;stroke-width:20;stroke-linecap:round;stroke-linejoin:round;stroke-miterlimit:4;stroke-dasharray:none;stroke-dashoffset:0"
   x1="-47.884998"
   y1="0"
   x2="47.884998"
   y2="0"
   id="line2173" />
</g>
		<g
   id="539690">
<line
   style="opacity:1;fill:none;fill-rule:nonzero;stroke:#5c83be;stroke-width:20;stroke-linecap:round;stroke-linejoin:round;stroke-miterlimit:4;stroke-dasharray:none;stroke-dashoffset:0"
   x1="23.6"
   y1="-23.6"
   x2="-23.6"
   y2="23.6"
   id="line2176" />
</g>
		<g
   id="682434">
<line
   style="opacity:1;fill:none;fill-rule:nonzero;stroke:#5c83be;stroke-width:20;stroke-linecap:round;stroke-linejoin:round;stroke-miterlimit:4;stroke-dasharray:none;stroke-dashoffset:0"
   x1="23.6"
   y1="23.6"
   x2="-23.6"
   y2="-23.6"
   id="line2179" />
</g>
		<g
   transform="translate(0,68.1891)"
   id="152086">
<path
   style="opacity:1;fill:none;fill-rule:nonzero;stroke:#5c83be;stroke-width:20;stroke-linecap:round;stroke-linejoin:round;stroke-miterlimit:4;stroke-dasharray:none;stroke-dashoffset:0"
   transform="translate(-256,-324.1891)"
   d="m 168.86,296.33 a 96,96 0 0 0 174.28,0"
   stroke-linecap="round"
   id="path2182" />
</g>
		<g
   transform="translate(0,-68.1891)"
   id="166031">
<path
   style="opacity:1;fill:none;fill-rule:nonzero;stroke:#5c83be;stroke-width:20;stroke-linecap:round;stroke-linejoin:round;stroke-miterlimit:4;stroke-dasharray:none;stroke-dashoffset:0"
   transform="translate(-256,-187.8109)"
   d="m 168.86,215.67 a 96,96 0 0 1 174.28,0"
   stroke-linecap="round"
   id="path2185" />
</g>
</g>
</g><g
         transform="matrix(2.2051,0,0,2.2051,255.7847,416.9373)"
         id="397643">
<g
   vector-effect="non-scaling-stroke"
   id="g2203">
		<g
   transform="translate(0,3.5)"
   id="47290">
<path
   style="opacity:1;fill:#5c83be;fill-rule:nonzero;stroke:none;stroke-width:1;stroke-linecap:butt;stroke-linejoin:miter;stroke-miterlimit:4;stroke-dasharray:none;stroke-dashoffset:0"
   transform="translate(-16,-19.5)"
   d="m 21,22 h -2 v -2 a 1.0011,1.0011 0 0 0 -1,-1 h -4 a 1.0011,1.0011 0 0 0 -1,1 v 2 h -2 v -2 a 3.0033,3.0033 0 0 1 3,-3 h 4 a 3.0033,3.0033 0 0 1 3,3 z"
   stroke-linecap="round"
   id="path2191" />
</g>
		<g
   transform="translate(0,-3.5)"
   id="676261">
<path
   style="opacity:1;fill:#5c83be;fill-rule:nonzero;stroke:none;stroke-width:1;stroke-linecap:butt;stroke-linejoin:miter;stroke-miterlimit:4;stroke-dasharray:none;stroke-dashoffset:0"
   transform="translate(-16,-12.5)"
   d="M 16,16 A 3.5,3.5 0 1 1 19.5,12.5 3.5041,3.5041 0 0 1 16,16 Z m 0,-5 A 1.5,1.5 0 1 0 17.5,12.5 1.5017,1.5017 0 0 0 16,11 Z"
   stroke-linecap="round"
   id="path2194" />
</g>
		<g
   id="662070">
<path
   style="opacity:1;fill:#5c83be;fill-rule:nonzero;stroke:none;stroke-width:1;stroke-linecap:butt;stroke-linejoin:miter;stroke-miterlimit:4;stroke-dasharray:none;stroke-dashoffset:0"
   transform="translate(-16,-16)"
   d="m 30.4141,17.4141 a 1.9995,1.9995 0 0 0 0,-2.8282 L 24.6272,8.7993 27.5278,5.9365 A 2.0018,2.0018 0 1 0 26.0862,4.5493 L 23.2129,7.3848 17.4141,1.5859 a 1.9995,1.9995 0 0 0 -2.8282,0 L 8.7993,7.3726 5.9368,4.4717 A 2.002,2.002 0 1 0 4.55,5.9136 l 2.835,2.8735 -5.7991,5.7988 a 1.9995,1.9995 0 0 0 0,2.8282 L 7.3848,23.2129 4.55,26.0864 a 1.9977,1.9977 0 1 0 1.387,1.4419 l 2.8625,-2.9009 5.7866,5.7867 a 1.9995,1.9995 0 0 0 2.8282,0 l 5.7988,-5.7989 2.8733,2.8355 A 1.998,1.998 0 1 0 27.528,26.0635 L 24.6274,23.2007 Z M 16,29 3,16 16,3 29,16 Z"
   stroke-linecap="round"
   id="path2197" />
</g>
		<g
   id="260188">
<rect
   style="opacity:1;fill:none;fill-rule:nonzero;stroke:none;stroke-width:1;stroke-linecap:butt;stroke-linejoin:miter;stroke-miterlimit:4;stroke-dasharray:none;stroke-dashoffset:0"
   x="-16"
   y="-16"
   rx="0"
   ry="0"
   width="32"
   height="32"
   id="rect2200" />
</g>
</g>
</g></g></g></svg>
