<?xml version="1.0" encoding="UTF-8"?>
<!-- Created with Inkscape (http://www.inkscape.org/) -->
<svg width="600mm" height="250mm" version="1.1" viewBox="0 0 600 250" xml:space="preserve" xmlns="http://www.w3.org/2000/svg"><g transform="matrix(.63812 0 0 .63812 .34586 -106.08)"><g transform="translate(806.99 338.74)">

		<g transform="translate(0 -76.819)">
<path transform="translate(-12.092 -12.002)" d="m16.86 8a4 4 0 0 0-3.86-3h-7v3h-4v2h4v3h7a4 4 0 0 0 3.85-3 3.5044 3.5044 0 0 1-0.35 7h-14.5v2h14.5a5.5029 5.5029 0 0 0 0.36-11z" stroke-linecap="round" vector-effect="non-scaling-stroke"/>
</g>
		<g transform="translate(0 -26.449)">
<path transform="translate(-12.092 -12.002)" d="m16.86 8a4 4 0 0 0-3.86-3h-7v3h-4v2h4v3h7a4 4 0 0 0 3.85-3 3.5044 3.5044 0 0 1-0.35 7h-14.5v2h14.5a5.5029 5.5029 0 0 0 0.36-11z" stroke-linecap="round" vector-effect="non-scaling-stroke"/>
</g>
		<g transform="translate(0 76.819)">
<path transform="translate(-12.092 -12.002)" d="m16.86 8a4 4 0 0 0-3.86-3h-7v3h-4v2h4v3h7a4 4 0 0 0 3.85-3 3.5044 3.5044 0 0 1-0.35 7h-14.5v2h14.5a5.5029 5.5029 0 0 0 0.36-11z" stroke-linecap="round" vector-effect="non-scaling-stroke"/>
</g>

</g><g transform="matrix(.7703 0 0 .7703 303.92 448.69)">
<path transform="translate(-147.05 -147.05)" d="m294.09 25.772c-0.766-7.566-6.988-13.222-14.756-13.222h-264c-8.284 0-15.333 6.216-15.333 14.5v158.33 6e-3 29.161c0 8.284 7.049 15 15.333 15h74.618l-4.416 22h-21.202c-8.284 0-15 6.716-15 15s6.716 15 15 15h132.5c5e-3 -1e-3 0.013-1e-3 0.02 0h32.48c8.284 0 15-6.716 15-15s-6.716-15-15-15h-20.203l-4.416-22h74.618c8.284 0 14.667-6.716 14.667-15v-187.5c1e-3 -0.518 0.141-0.777 0.09-1.278zm-30.089 16.778v128h-234v-128z" fill="#b7bfcb" stroke-linecap="round" vector-effect="non-scaling-stroke"/>
</g><g transform="matrix(1.0612 0 0 1.0612 668.67 413.81)">

		<g transform="matrix(1.5975 0 0 .314 -1e-4 0)">
<path transform="translate(-79 -79)" d="m154.68 2.5005h0.026l0.027-5.5e-4c0.412-0.00868 0.753 0.31859 0.762 0.73046v2.9e-4 0.03214l-1e-3 0.02603v151.4c0 0.449-0.364 0.814-0.814 0.814h-151.37c-0.4496 0-0.81409-0.365-0.81409-0.814v-151.37c0-0.45007 0.36465-0.81441 0.81409-0.81441z" fill="#fff" stroke="#b7bfcb" stroke-width="5" vector-effect="non-scaling-stroke"/>
</g>
		<g transform="translate(45.231)">

		<g transform="matrix(0 .8377 -2.8084 0 58.988 -2e-4)">
<path transform="translate(-16,-9)" d="m28 10h-24a1 1 0 0 1 0-2h24a1 1 0 0 1 0 2z" fill="#b7bfcb" stroke-linecap="round"/>
</g>
		<g transform="matrix(0 .8377 -2.8084 0 39.329 -2e-4)">
<path transform="translate(-16,-16)" d="m28 17h-24a1 1 0 0 1 0-2h24a1 1 0 0 1 0 2z" fill="#b7bfcb" stroke-linecap="round"/>
</g>
		<g transform="matrix(0 .8377 -2.8084 0 19.67 -2e-4)">
<path transform="translate(-16,-23)" d="m28 24h-24a1 1 0 0 1 0-2h24a1 1 0 0 1 0 2z" fill="#b7bfcb" stroke-linecap="round"/>
</g>
		<g transform="matrix(0 .8377 -2.8084 0 .0257 -2e-4)">
<path transform="translate(-16,-9)" d="m28 10h-24a1 1 0 0 1 0-2h24a1 1 0 0 1 0 2z" fill="#b7bfcb" stroke-linecap="round"/>
</g>
		<g transform="matrix(0 .8377 -2.8084 0 -19.633 -2e-4)">
<path transform="translate(-16,-16)" d="m28 17h-24a1 1 0 0 1 0-2h24a1 1 0 0 1 0 2z" fill="#b7bfcb" stroke-linecap="round"/>
</g>
		<g transform="matrix(0 .8377 -2.8084 0 -39.292 -2e-4)">
<path transform="translate(-16,-23)" d="m28 24h-24a1 1 0 0 1 0-2h24a1 1 0 0 1 0 2z" fill="#b7bfcb" stroke-linecap="round"/>
</g>
		<g transform="matrix(0 .8377 -2.8084 0 -58.988 -2e-4)">
<path transform="translate(-16,-16)" d="m28 17h-24a1 1 0 0 1 0-2h24a1 1 0 0 1 0 2z" fill="#b7bfcb" stroke-linecap="round"/>
</g>

</g>
		<g transform="translate(-95.861 -.0021)">

		<g transform="matrix(.1467 0 0 .0869 -9.2218 9e-4)">
<path transform="translate(-78.5 -78.5)" d="m78.5 0c-25.558 0-46.383 35.227-46.383 78.5 0 43.273 20.825 78.5 46.383 78.5 25.558 0 46.383-35.227 46.383-78.5 0-43.273-20.825-78.5-46.383-78.5z" fill="#09f" stroke-linecap="round" vector-effect="non-scaling-stroke"/>
</g>
		<g transform="matrix(.1467 0 0 .0869 9.2217 -.001)">
<path transform="translate(-78.5 -78.5)" d="m78.5 0c-25.558 0-46.383 35.227-46.383 78.5 0 43.273 20.825 78.5 46.383 78.5 25.558 0 46.383-35.227 46.383-78.5 0-43.273-20.825-78.5-46.383-78.5z" fill="#b7bfcb" stroke-linecap="round" vector-effect="non-scaling-stroke"/>
</g>

</g>

</g><g transform="matrix(1.0612 0 0 1.0612 668.67 464.93)">

		<g transform="matrix(1.5975 0 0 .314 -1e-4 0)">
<path transform="translate(-79 -79)" d="m154.68 2.5005h0.026l0.027-5.5e-4c0.412-0.00868 0.753 0.31859 0.762 0.73046v2.9e-4 0.03214l-1e-3 0.02603v151.4c0 0.449-0.364 0.814-0.814 0.814h-151.37c-0.4496 0-0.81409-0.365-0.81409-0.814v-151.37c0-0.45007 0.36465-0.81441 0.81409-0.81441z" fill="#fff" stroke="#b7bfcb" stroke-width="5" vector-effect="non-scaling-stroke"/>
</g>
		<g transform="translate(45.231)">

		<g transform="matrix(0 .8377 -2.8084 0 58.988 -2e-4)">
<path transform="translate(-16,-9)" d="m28 10h-24a1 1 0 0 1 0-2h24a1 1 0 0 1 0 2z" fill="#b7bfcb" stroke-linecap="round"/>
</g>
		<g transform="matrix(0 .8377 -2.8084 0 39.329 -2e-4)">
<path transform="translate(-16,-16)" d="m28 17h-24a1 1 0 0 1 0-2h24a1 1 0 0 1 0 2z" fill="#b7bfcb" stroke-linecap="round"/>
</g>
		<g transform="matrix(0 .8377 -2.8084 0 19.67 -2e-4)">
<path transform="translate(-16,-23)" d="m28 24h-24a1 1 0 0 1 0-2h24a1 1 0 0 1 0 2z" fill="#b7bfcb" stroke-linecap="round"/>
</g>
		<g transform="matrix(0 .8377 -2.8084 0 .0257 -2e-4)">
<path transform="translate(-16,-9)" d="m28 10h-24a1 1 0 0 1 0-2h24a1 1 0 0 1 0 2z" fill="#b7bfcb" stroke-linecap="round"/>
</g>
		<g transform="matrix(0 .8377 -2.8084 0 -19.633 -2e-4)">
<path transform="translate(-16,-16)" d="m28 17h-24a1 1 0 0 1 0-2h24a1 1 0 0 1 0 2z" fill="#b7bfcb" stroke-linecap="round"/>
</g>
		<g transform="matrix(0 .8377 -2.8084 0 -39.292 -2e-4)">
<path transform="translate(-16,-23)" d="m28 24h-24a1 1 0 0 1 0-2h24a1 1 0 0 1 0 2z" fill="#b7bfcb" stroke-linecap="round"/>
</g>
		<g transform="matrix(0 .8377 -2.8084 0 -58.988 -2e-4)">
<path transform="translate(-16,-16)" d="m28 17h-24a1 1 0 0 1 0-2h24a1 1 0 0 1 0 2z" fill="#b7bfcb" stroke-linecap="round"/>
</g>

</g>
		<g transform="translate(-95.861 -.0021)">

		<g transform="matrix(.1467 0 0 .0869 -9.2218 9e-4)">
<path transform="translate(-78.5 -78.5)" d="m78.5 0c-25.558 0-46.383 35.227-46.383 78.5 0 43.273 20.825 78.5 46.383 78.5 25.558 0 46.383-35.227 46.383-78.5 0-43.273-20.825-78.5-46.383-78.5z" fill="#09f" stroke-linecap="round" vector-effect="non-scaling-stroke"/>
</g>
		<g transform="matrix(.1467 0 0 .0869 9.2217 -.001)">
<path transform="translate(-78.5 -78.5)" d="m78.5 0c-25.558 0-46.383 35.227-46.383 78.5 0 43.273 20.825 78.5 46.383 78.5 25.558 0 46.383-35.227 46.383-78.5 0-43.273-20.825-78.5-46.383-78.5z" fill="#b7bfcb" stroke-linecap="round" vector-effect="non-scaling-stroke"/>
</g>

</g>

</g><g transform="matrix(1.0201 0 0 .1794 470 549.01)">
<path transform="translate(-512,-512)" d="m904 476h-784c-4.4 0-8 3.6-8 8v56c0 4.4 3.6 8 8 8h784c4.4 0 8-3.6 8-8v-56c0-4.4-3.6-8-8-8z" fill="#b7bfcb" stroke-linecap="round" vector-effect="non-scaling-stroke"/>
</g><g transform="matrix(1.0612 0 0 1.0612 668.67 311.67)">

		<g transform="matrix(1.5975 0 0 .314 -1e-4 0)">
<path transform="translate(-79 -79)" d="m154.68 2.5005h0.026l0.027-5.5e-4c0.412-0.00868 0.753 0.31859 0.762 0.73046v2.9e-4 0.03214l-1e-3 0.02603v151.4c0 0.449-0.364 0.814-0.814 0.814h-151.37c-0.4496 0-0.81409-0.365-0.81409-0.814v-151.37c0-0.45007 0.36465-0.81441 0.81409-0.81441z" fill="#fff" stroke="#b7bfcb" stroke-width="5" vector-effect="non-scaling-stroke"/>
</g>
		<g transform="translate(45.231)">

		<g transform="matrix(0 .8377 -2.8084 0 58.988 -2e-4)">
<path transform="translate(-16,-9)" d="m28 10h-24a1 1 0 0 1 0-2h24a1 1 0 0 1 0 2z" fill="#b7bfcb" stroke-linecap="round"/>
</g>
		<g transform="matrix(0 .8377 -2.8084 0 39.329 -2e-4)">
<path transform="translate(-16,-16)" d="m28 17h-24a1 1 0 0 1 0-2h24a1 1 0 0 1 0 2z" fill="#b7bfcb" stroke-linecap="round"/>
</g>
		<g transform="matrix(0 .8377 -2.8084 0 19.67 -2e-4)">
<path transform="translate(-16,-23)" d="m28 24h-24a1 1 0 0 1 0-2h24a1 1 0 0 1 0 2z" fill="#b7bfcb" stroke-linecap="round"/>
</g>
		<g transform="matrix(0 .8377 -2.8084 0 .0257 -2e-4)">
<path transform="translate(-16,-9)" d="m28 10h-24a1 1 0 0 1 0-2h24a1 1 0 0 1 0 2z" fill="#b7bfcb" stroke-linecap="round"/>
</g>
		<g transform="matrix(0 .8377 -2.8084 0 -19.633 -2e-4)">
<path transform="translate(-16,-16)" d="m28 17h-24a1 1 0 0 1 0-2h24a1 1 0 0 1 0 2z" fill="#b7bfcb" stroke-linecap="round"/>
</g>
		<g transform="matrix(0 .8377 -2.8084 0 -39.292 -2e-4)">
<path transform="translate(-16,-23)" d="m28 24h-24a1 1 0 0 1 0-2h24a1 1 0 0 1 0 2z" fill="#b7bfcb" stroke-linecap="round"/>
</g>
		<g transform="matrix(0 .8377 -2.8084 0 -58.988 -2e-4)">
<path transform="translate(-16,-16)" d="m28 17h-24a1 1 0 0 1 0-2h24a1 1 0 0 1 0 2z" fill="#b7bfcb" stroke-linecap="round"/>
</g>

</g>
		<g transform="translate(-95.861 -.0021)">

		<g transform="matrix(.1467 0 0 .0869 -9.2218 9e-4)">
<path transform="translate(-78.5 -78.5)" d="m78.5 0c-25.558 0-46.383 35.227-46.383 78.5 0 43.273 20.825 78.5 46.383 78.5 25.558 0 46.383-35.227 46.383-78.5 0-43.273-20.825-78.5-46.383-78.5z" fill="#09f" stroke-linecap="round" vector-effect="non-scaling-stroke"/>
</g>
		<g transform="matrix(.1467 0 0 .0869 9.2217 -.001)">
<path transform="translate(-78.5 -78.5)" d="m78.5 0c-25.558 0-46.383 35.227-46.383 78.5 0 43.273 20.825 78.5 46.383 78.5 25.558 0 46.383-35.227 46.383-78.5 0-43.273-20.825-78.5-46.383-78.5z" fill="#b7bfcb" stroke-linecap="round" vector-effect="non-scaling-stroke"/>
</g>

</g>

</g><g transform="translate(668.67 362.79)">

		<g transform="matrix(1.6953 0 0 .3332 .0025 -.0013)">
<path transform="translate(-79 -79)" d="m154.68 2.5005h0.026l0.027-5.5e-4c0.412-0.00868 0.753 0.31859 0.762 0.73046v2.9e-4 0.03214l-1e-3 0.02603v151.4c0 0.449-0.364 0.814-0.814 0.814h-151.37c-0.4496 0-0.81409-0.365-0.81409-0.814v-151.37c0-0.45007 0.36465-0.81441 0.81409-0.81441z" fill="#fff" stroke="#b7bfcb" stroke-width="5" vector-effect="non-scaling-stroke"/>
</g>
		<g transform="matrix(1.0612 0 0 1.0612 47.999 0)">

		<g transform="matrix(0 .8377 -2.8084 0 58.988 -2e-4)">
<path transform="translate(-16,-9)" d="m28 10h-24a1 1 0 0 1 0-2h24a1 1 0 0 1 0 2z" fill="#b7bfcb" stroke-linecap="round"/>
</g>
		<g transform="matrix(0 .8377 -2.8084 0 39.329 -2e-4)">
<path transform="translate(-16,-16)" d="m28 17h-24a1 1 0 0 1 0-2h24a1 1 0 0 1 0 2z" fill="#b7bfcb" stroke-linecap="round"/>
</g>
		<g transform="matrix(0 .8377 -2.8084 0 19.67 -2e-4)">
<path transform="translate(-16,-23)" d="m28 24h-24a1 1 0 0 1 0-2h24a1 1 0 0 1 0 2z" fill="#b7bfcb" stroke-linecap="round"/>
</g>
		<g transform="matrix(0 .8377 -2.8084 0 .0257 -2e-4)">
<path transform="translate(-16,-9)" d="m28 10h-24a1 1 0 0 1 0-2h24a1 1 0 0 1 0 2z" fill="#b7bfcb" stroke-linecap="round"/>
</g>
		<g transform="matrix(0 .8377 -2.8084 0 -19.633 -2e-4)">
<path transform="translate(-16,-16)" d="m28 17h-24a1 1 0 0 1 0-2h24a1 1 0 0 1 0 2z" fill="#b7bfcb" stroke-linecap="round"/>
</g>
		<g transform="matrix(0 .8377 -2.8084 0 -39.292 -2e-4)">
<path transform="translate(-16,-23)" d="m28 24h-24a1 1 0 0 1 0-2h24a1 1 0 0 1 0 2z" fill="#b7bfcb" stroke-linecap="round"/>
</g>
		<g transform="matrix(0 .8377 -2.8084 0 -58.988 -2e-4)">
<path transform="translate(-16,-16)" d="m28 17h-24a1 1 0 0 1 0-2h24a1 1 0 0 1 0 2z" fill="#b7bfcb" stroke-linecap="round"/>
</g>

</g>
		<g transform="translate(-101.73 -.0023)">

		<g transform="matrix(.1557 0 0 .0922 -9.7851 -4e-4)">
<path transform="translate(-78.5 -78.5)" d="m78.5 0c-25.558 0-46.383 35.227-46.383 78.5 0 43.273 20.825 78.5 46.383 78.5 25.558 0 46.383-35.227 46.383-78.5 0-43.273-20.825-78.5-46.383-78.5z" fill="#09f" stroke-linecap="round" vector-effect="non-scaling-stroke"/>
</g>
		<g transform="matrix(.1557 0 0 .0922 9.7872 -.0024)">
<path transform="translate(-78.5 -78.5)" d="m78.5 0c-25.558 0-46.383 35.227-46.383 78.5 0 43.273 20.825 78.5 46.383 78.5 25.558 0 46.383-35.227 46.383-78.5 0-43.273-20.825-78.5-46.383-78.5z" fill="#f7931e" stroke-linecap="round" vector-effect="non-scaling-stroke"/>
</g>

</g>

</g><g transform="translate(668.67 516.05)">

		<g transform="scale(1.6953 .3332)">
<path transform="translate(-79 -79)" d="m154.68 2.5005h0.026l0.027-5.5e-4c0.412-0.00868 0.753 0.31859 0.762 0.73046v2.9e-4 0.03214l-1e-3 0.02603v151.4c0 0.449-0.364 0.814-0.814 0.814h-151.37c-0.4496 0-0.81409-0.365-0.81409-0.814v-151.37c0-0.45007 0.36465-0.81441 0.81409-0.81441z" fill="#fff" stroke="#b7bfcb" stroke-width="5" vector-effect="non-scaling-stroke"/>
</g>
		<g transform="translate(-101.73 -.001)">

		<g transform="matrix(.1557 0 0 .0922 -9.7851 -4e-4)">
<path transform="translate(-78.5 -78.5)" d="m78.5 0c-25.558 0-46.383 35.227-46.383 78.5 0 43.273 20.825 78.5 46.383 78.5 25.558 0 46.383-35.227 46.383-78.5 0-43.273-20.825-78.5-46.383-78.5z" fill="#09f" stroke-linecap="round" vector-effect="non-scaling-stroke"/>
</g>
		<g transform="matrix(.1557 0 0 .0922 9.7872 -.0024)">
<path transform="translate(-78.5 -78.5)" d="m78.5 0c-25.558 0-46.383 35.227-46.383 78.5 0 43.273 20.825 78.5 46.383 78.5 25.558 0 46.383-35.227 46.383-78.5 0-43.273-20.825-78.5-46.383-78.5z" fill="#f33" stroke-linecap="round" vector-effect="non-scaling-stroke"/>
</g>

</g>
		<g transform="matrix(1.0612 0 0 1.0612 47.996 .0013)">

		<g transform="matrix(0 .8377 -2.8084 0 58.988 -2e-4)">
<path transform="translate(-16,-9)" d="m28 10h-24a1 1 0 0 1 0-2h24a1 1 0 0 1 0 2z" fill="#b7bfcb" stroke-linecap="round"/>
</g>
		<g transform="matrix(0 .8377 -2.8084 0 39.329 -2e-4)">
<path transform="translate(-16,-16)" d="m28 17h-24a1 1 0 0 1 0-2h24a1 1 0 0 1 0 2z" fill="#b7bfcb" stroke-linecap="round"/>
</g>
		<g transform="matrix(0 .8377 -2.8084 0 19.67 -2e-4)">
<path transform="translate(-16,-23)" d="m28 24h-24a1 1 0 0 1 0-2h24a1 1 0 0 1 0 2z" fill="#b7bfcb" stroke-linecap="round"/>
</g>
		<g transform="matrix(0 .8377 -2.8084 0 .0257 -2e-4)">
<path transform="translate(-16,-9)" d="m28 10h-24a1 1 0 0 1 0-2h24a1 1 0 0 1 0 2z" fill="#b7bfcb" stroke-linecap="round"/>
</g>
		<g transform="matrix(0 .8377 -2.8084 0 -19.633 -2e-4)">
<path transform="translate(-16,-16)" d="m28 17h-24a1 1 0 0 1 0-2h24a1 1 0 0 1 0 2z" fill="#b7bfcb" stroke-linecap="round"/>
</g>
		<g transform="matrix(0 .8377 -2.8084 0 -39.292 -2e-4)">
<path transform="translate(-16,-23)" d="m28 24h-24a1 1 0 0 1 0-2h24a1 1 0 0 1 0 2z" fill="#b7bfcb" stroke-linecap="round"/>
</g>
		<g transform="matrix(0 .8377 -2.8084 0 -58.988 -2e-4)">
<path transform="translate(-16,-16)" d="m28 17h-24a1 1 0 0 1 0-2h24a1 1 0 0 1 0 2z" fill="#b7bfcb" stroke-linecap="round"/>
</g>

</g>

</g><g transform="translate(668.67 260.52)">

		<g transform="matrix(1.6953 0 0 .3332 .0025 -.0013)">
<path transform="translate(-79 -79)" d="m154.68 2.5005h0.026l0.027-5.5e-4c0.412-0.00868 0.753 0.31859 0.762 0.73046v2.9e-4 0.03214l-1e-3 0.02603v151.4c0 0.449-0.364 0.814-0.814 0.814h-151.37c-0.4496 0-0.81409-0.365-0.81409-0.814v-151.37c0-0.45007 0.36465-0.81441 0.81409-0.81441z" fill="#fff" stroke="#b7bfcb" stroke-width="5" vector-effect="non-scaling-stroke"/>
</g>
		<g transform="translate(-101.73 -.0023)">

		<g transform="matrix(.1557 0 0 .0922 -9.7851 -4e-4)">
<path transform="translate(-78.5 -78.5)" d="m78.5 0c-25.558 0-46.383 35.227-46.383 78.5 0 43.273 20.825 78.5 46.383 78.5 25.558 0 46.383-35.227 46.383-78.5 0-43.273-20.825-78.5-46.383-78.5z" fill="#b7bfcb" stroke-linecap="round" vector-effect="non-scaling-stroke"/>
</g>
		<g transform="matrix(.1557 0 0 .0922 9.7872 -.0024)">
<path transform="translate(-78.5 -78.5)" d="m78.5 0c-25.558 0-46.383 35.227-46.383 78.5 0 43.273 20.825 78.5 46.383 78.5 25.558 0 46.383-35.227 46.383-78.5 0-43.273-20.825-78.5-46.383-78.5z" fill="#b7bfcb" stroke-linecap="round" vector-effect="non-scaling-stroke"/>
</g>

</g>
		<g transform="matrix(1.0612 0 0 1.0612 47.999 0)">

		<g transform="matrix(0 .8377 -2.8084 0 58.988 -2e-4)">
<path transform="translate(-16,-9)" d="m28 10h-24a1 1 0 0 1 0-2h24a1 1 0 0 1 0 2z" fill="#b7bfcb" stroke-linecap="round"/>
</g>
		<g transform="matrix(0 .8377 -2.8084 0 39.329 -2e-4)">
<path transform="translate(-16,-16)" d="m28 17h-24a1 1 0 0 1 0-2h24a1 1 0 0 1 0 2z" fill="#b7bfcb" stroke-linecap="round"/>
</g>
		<g transform="matrix(0 .8377 -2.8084 0 19.67 -2e-4)">
<path transform="translate(-16,-23)" d="m28 24h-24a1 1 0 0 1 0-2h24a1 1 0 0 1 0 2z" fill="#b7bfcb" stroke-linecap="round"/>
</g>
		<g transform="matrix(0 .8377 -2.8084 0 .0257 -2e-4)">
<path transform="translate(-16,-9)" d="m28 10h-24a1 1 0 0 1 0-2h24a1 1 0 0 1 0 2z" fill="#b7bfcb" stroke-linecap="round"/>
</g>
		<g transform="matrix(0 .8377 -2.8084 0 -19.633 -2e-4)">
<path transform="translate(-16,-16)" d="m28 17h-24a1 1 0 0 1 0-2h24a1 1 0 0 1 0 2z" fill="#b7bfcb" stroke-linecap="round"/>
</g>
		<g transform="matrix(0 .8377 -2.8084 0 -39.292 -2e-4)">
<path transform="translate(-16,-23)" d="m28 24h-24a1 1 0 0 1 0-2h24a1 1 0 0 1 0 2z" fill="#b7bfcb" stroke-linecap="round"/>
</g>
		<g transform="matrix(0 .8377 -2.8084 0 -58.988 -2e-4)">
<path transform="translate(-16,-16)" d="m28 17h-24a1 1 0 0 1 0-2h24a1 1 0 0 1 0 2z" fill="#b7bfcb" stroke-linecap="round"/>
</g>

</g>

</g><g transform="matrix(4.9564 0 0 4.7241 342.81 413.81)">
<path transform="translate(-12,-12)" d="m5 8h14m-14 4h14m-14 4h6" fill="none" stroke="#5c83be" stroke-linecap="round" stroke-linejoin="round" stroke-width="5" vector-effect="non-scaling-stroke"/>
</g><g transform="matrix(.3182 0 0 .3182 478.13 426.54)">
<g vector-effect="non-scaling-stroke">
		<g transform="translate(-96.115)">
<line x1="-47.885" x2="47.885" fill="none" stroke="#5c83be" stroke-linecap="round" stroke-linejoin="round" stroke-width="20"/>
</g>
		<g transform="translate(96.115)">
<line x1="-47.885" x2="47.885" fill="none" stroke="#5c83be" stroke-linecap="round" stroke-linejoin="round" stroke-width="20"/>
</g>
		
<line x1="23.6" x2="-23.6" y1="-23.6" y2="23.6" fill="none" stroke="#5c83be" stroke-linecap="round" stroke-linejoin="round" stroke-width="20"/>

		
<line x1="23.6" x2="-23.6" y1="23.6" y2="-23.6" fill="none" stroke="#5c83be" stroke-linecap="round" stroke-linejoin="round" stroke-width="20"/>

		<g transform="translate(0 68.189)">
<path transform="translate(-256 -324.19)" d="m168.86 296.33a96 96 0 0 0 174.28 0" fill="none" stroke="#5c83be" stroke-linecap="round" stroke-linejoin="round" stroke-width="20"/>
</g>
		<g transform="translate(0 -68.189)">
<path transform="translate(-256 -187.81)" d="m168.86 215.67a96 96 0 0 1 174.28 0" fill="none" stroke="#5c83be" stroke-linecap="round" stroke-linejoin="round" stroke-width="20"/>
</g>
</g>
</g><g transform="matrix(2.2051 0 0 2.2051 255.78 416.94)">
<g vector-effect="non-scaling-stroke">
		<g transform="translate(0,3.5)">
<path transform="translate(-16,-19.5)" d="m21 22h-2v-2a1.0011 1.0011 0 0 0-1-1h-4a1.0011 1.0011 0 0 0-1 1v2h-2v-2a3.0033 3.0033 0 0 1 3-3h4a3.0033 3.0033 0 0 1 3 3z" fill="#5c83be" stroke-linecap="round"/>
</g>
		<g transform="translate(0,-3.5)">
<path transform="translate(-16,-12.5)" d="m16 16a3.5 3.5 0 1 1 3.5-3.5 3.5041 3.5041 0 0 1-3.5 3.5zm0-5a1.5 1.5 0 1 0 1.5 1.5 1.5017 1.5017 0 0 0-1.5-1.5z" fill="#5c83be" stroke-linecap="round"/>
</g>
		
<path transform="translate(-16,-16)" d="m30.414 17.414a1.9995 1.9995 0 0 0 0-2.8282l-5.7869-5.7866 2.9006-2.8628a2.0018 2.0018 0 1 0-1.4416-1.3872l-2.8733 2.8355-5.7988-5.7989a1.9995 1.9995 0 0 0-2.8282 0l-5.7866 5.7867-2.8625-2.9009a2.002 2.002 0 1 0-1.3868 1.4419l2.835 2.8735-5.7991 5.7988a1.9995 1.9995 0 0 0 0 2.8282l5.7989 5.7988-2.8348 2.8735a1.9977 1.9977 0 1 0 1.387 1.4419l2.8625-2.9009 5.7866 5.7867a1.9995 1.9995 0 0 0 2.8282 0l5.7988-5.7989 2.8733 2.8355a1.998 1.998 0 1 0 1.4416-1.3872l-2.9006-2.8628zm-14.414 11.586-13-13 13-13 13 13z" fill="#5c83be" stroke-linecap="round"/>

		
<rect x="-16" y="-16" width="32" height="32" rx="0" ry="0" fill="none"/>

</g>
</g></g></svg>
