<?xml version="1.0" encoding="UTF-8" standalone="no"?>
<!-- Created with Inkscape (http://www.inkscape.org/) -->

<svg
   width="600mm"
   height="250mm"
   version="1.1"
   viewBox="0 0 600 250"
   xml:space="preserve"
   id="svg2712"
   sodipodi:docname="img.svg"
   inkscape:version="1.2.2 (732a01da63, 2022-12-09)"
   xmlns:inkscape="http://www.inkscape.org/namespaces/inkscape"
   xmlns:sodipodi="http://sodipodi.sourceforge.net/DTD/sodipodi-0.dtd"
   xmlns="http://www.w3.org/2000/svg"
   xmlns:svg="http://www.w3.org/2000/svg"><defs
     id="defs2716" /><sodipodi:namedview
     id="namedview2714"
     pagecolor="#505050"
     bordercolor="#eeeeee"
     borderopacity="1"
     inkscape:showpageshadow="0"
     inkscape:pageopacity="0"
     inkscape:pagecheckerboard="0"
     inkscape:deskcolor="#505050"
     inkscape:document-units="mm"
     showgrid="false"
     inkscape:zoom="0.53137153"
     inkscape:cx="1134.7992"
     inkscape:cy="472.36253"
     inkscape:window-width="1366"
     inkscape:window-height="715"
     inkscape:window-x="1358"
     inkscape:window-y="-8"
     inkscape:window-maximized="1"
     inkscape:current-layer="g2710" /><g
     transform="matrix(.63812 0 0 .63812 .34586 -106.08)"
     id="g2710"><g
       transform="translate(806.99 338.74)"
       id="g2392"
       style="fill:#5c83be;fill-opacity:1">

		<g
   transform="translate(0 -76.819)"
   id="g2382"
   style="fill:#5c83be;fill-opacity:1">
<path
   transform="translate(-12.092 -12.002)"
   d="m16.86 8a4 4 0 0 0-3.86-3h-7v3h-4v2h4v3h7a4 4 0 0 0 3.85-3 3.5044 3.5044 0 0 1-0.35 7h-14.5v2h14.5a5.5029 5.5029 0 0 0 0.36-11z"
   stroke-linecap="round"
   vector-effect="non-scaling-stroke"
   id="path2380"
   style="fill:#5c83be;fill-opacity:1" />
</g>
		<g
   transform="translate(0 -26.449)"
   id="g2386"
   style="fill:#5c83be;fill-opacity:1">
<path
   transform="translate(-12.092 -12.002)"
   d="m16.86 8a4 4 0 0 0-3.86-3h-7v3h-4v2h4v3h7a4 4 0 0 0 3.85-3 3.5044 3.5044 0 0 1-0.35 7h-14.5v2h14.5a5.5029 5.5029 0 0 0 0.36-11z"
   stroke-linecap="round"
   vector-effect="non-scaling-stroke"
   id="path2384"
   style="fill:#5c83be;fill-opacity:1" />
</g>
		<g
   transform="translate(0 76.819)"
   id="g2390"
   style="fill:#5c83be;fill-opacity:1">
<path
   transform="translate(-12.092 -12.002)"
   d="m16.86 8a4 4 0 0 0-3.86-3h-7v3h-4v2h4v3h7a4 4 0 0 0 3.85-3 3.5044 3.5044 0 0 1-0.35 7h-14.5v2h14.5a5.5029 5.5029 0 0 0 0.36-11z"
   stroke-linecap="round"
   vector-effect="non-scaling-stroke"
   id="path2388"
   style="fill:#5c83be;fill-opacity:1" />
</g>

</g><g
       transform="matrix(.7703 0 0 .7703 303.92 448.69)"
       id="g2396">
<path
   transform="translate(-147.05 -147.05)"
   d="m294.09 25.772c-0.766-7.566-6.988-13.222-14.756-13.222h-264c-8.284 0-15.333 6.216-15.333 14.5v158.33 6e-3 29.161c0 8.284 7.049 15 15.333 15h74.618l-4.416 22h-21.202c-8.284 0-15 6.716-15 15s6.716 15 15 15h132.5c5e-3 -1e-3 0.013-1e-3 0.02 0h32.48c8.284 0 15-6.716 15-15s-6.716-15-15-15h-20.203l-4.416-22h74.618c8.284 0 14.667-6.716 14.667-15v-187.5c1e-3 -0.518 0.141-0.777 0.09-1.278zm-30.089 16.778v128h-234v-128z"
   fill="#b7bfcb"
   stroke-linecap="round"
   vector-effect="non-scaling-stroke"
   id="path2394" />
</g><g
       transform="matrix(1.0612 0 0 1.0612 668.67 413.81)"
       id="g2442">

		<g
   transform="matrix(1.5975 0 0 .314 -1e-4 0)"
   id="g2400">
<path
   transform="translate(-79 -79)"
   d="m154.68 2.5005h0.026l0.027-5.5e-4c0.412-0.00868 0.753 0.31859 0.762 0.73046v2.9e-4 0.03214l-1e-3 0.02603v151.4c0 0.449-0.364 0.814-0.814 0.814h-151.37c-0.4496 0-0.81409-0.365-0.81409-0.814v-151.37c0-0.45007 0.36465-0.81441 0.81409-0.81441z"
   fill="#fff"
   stroke="#b7bfcb"
   stroke-width="5"
   vector-effect="non-scaling-stroke"
   id="path2398" />
</g>
		<g
   transform="translate(45.231)"
   id="g2430">

		<g
   transform="matrix(0 .8377 -2.8084 0 58.988 -2e-4)"
   id="g2404">
<path
   transform="translate(-16,-9)"
   d="m28 10h-24a1 1 0 0 1 0-2h24a1 1 0 0 1 0 2z"
   fill="#b7bfcb"
   stroke-linecap="round"
   id="path2402" />
</g>
		<g
   transform="matrix(0 .8377 -2.8084 0 39.329 -2e-4)"
   id="g2408">
<path
   transform="translate(-16,-16)"
   d="m28 17h-24a1 1 0 0 1 0-2h24a1 1 0 0 1 0 2z"
   fill="#b7bfcb"
   stroke-linecap="round"
   id="path2406" />
</g>
		<g
   transform="matrix(0 .8377 -2.8084 0 19.67 -2e-4)"
   id="g2412">
<path
   transform="translate(-16,-23)"
   d="m28 24h-24a1 1 0 0 1 0-2h24a1 1 0 0 1 0 2z"
   fill="#b7bfcb"
   stroke-linecap="round"
   id="path2410" />
</g>
		<g
   transform="matrix(0 .8377 -2.8084 0 .0257 -2e-4)"
   id="g2416">
<path
   transform="translate(-16,-9)"
   d="m28 10h-24a1 1 0 0 1 0-2h24a1 1 0 0 1 0 2z"
   fill="#b7bfcb"
   stroke-linecap="round"
   id="path2414" />
</g>
		<g
   transform="matrix(0 .8377 -2.8084 0 -19.633 -2e-4)"
   id="g2420">
<path
   transform="translate(-16,-16)"
   d="m28 17h-24a1 1 0 0 1 0-2h24a1 1 0 0 1 0 2z"
   fill="#b7bfcb"
   stroke-linecap="round"
   id="path2418" />
</g>
		<g
   transform="matrix(0 .8377 -2.8084 0 -39.292 -2e-4)"
   id="g2424">
<path
   transform="translate(-16,-23)"
   d="m28 24h-24a1 1 0 0 1 0-2h24a1 1 0 0 1 0 2z"
   fill="#b7bfcb"
   stroke-linecap="round"
   id="path2422" />
</g>
		<g
   transform="matrix(0 .8377 -2.8084 0 -58.988 -2e-4)"
   id="g2428">
<path
   transform="translate(-16,-16)"
   d="m28 17h-24a1 1 0 0 1 0-2h24a1 1 0 0 1 0 2z"
   fill="#b7bfcb"
   stroke-linecap="round"
   id="path2426" />
</g>

</g>
		<g
   transform="translate(-95.861 -.0021)"
   id="g2440">

		<g
   transform="matrix(.1467 0 0 .0869 -9.2218 9e-4)"
   id="g2434">
<path
   transform="translate(-78.5 -78.5)"
   d="m78.5 0c-25.558 0-46.383 35.227-46.383 78.5 0 43.273 20.825 78.5 46.383 78.5 25.558 0 46.383-35.227 46.383-78.5 0-43.273-20.825-78.5-46.383-78.5z"
   fill="#09f"
   stroke-linecap="round"
   vector-effect="non-scaling-stroke"
   id="path2432" />
</g>
		<g
   transform="matrix(.1467 0 0 .0869 9.2217 -.001)"
   id="g2438">
<path
   transform="translate(-78.5 -78.5)"
   d="m78.5 0c-25.558 0-46.383 35.227-46.383 78.5 0 43.273 20.825 78.5 46.383 78.5 25.558 0 46.383-35.227 46.383-78.5 0-43.273-20.825-78.5-46.383-78.5z"
   fill="#b7bfcb"
   stroke-linecap="round"
   vector-effect="non-scaling-stroke"
   id="path2436" />
</g>

</g>

</g><g
       transform="matrix(1.0612 0 0 1.0612 668.67 464.93)"
       id="g2488">

		<g
   transform="matrix(1.5975 0 0 .314 -1e-4 0)"
   id="g2446">
<path
   transform="translate(-79 -79)"
   d="m154.68 2.5005h0.026l0.027-5.5e-4c0.412-0.00868 0.753 0.31859 0.762 0.73046v2.9e-4 0.03214l-1e-3 0.02603v151.4c0 0.449-0.364 0.814-0.814 0.814h-151.37c-0.4496 0-0.81409-0.365-0.81409-0.814v-151.37c0-0.45007 0.36465-0.81441 0.81409-0.81441z"
   fill="#fff"
   stroke="#b7bfcb"
   stroke-width="5"
   vector-effect="non-scaling-stroke"
   id="path2444" />
</g>
		<g
   transform="translate(45.231)"
   id="g2476">

		<g
   transform="matrix(0 .8377 -2.8084 0 58.988 -2e-4)"
   id="g2450">
<path
   transform="translate(-16,-9)"
   d="m28 10h-24a1 1 0 0 1 0-2h24a1 1 0 0 1 0 2z"
   fill="#b7bfcb"
   stroke-linecap="round"
   id="path2448" />
</g>
		<g
   transform="matrix(0 .8377 -2.8084 0 39.329 -2e-4)"
   id="g2454">
<path
   transform="translate(-16,-16)"
   d="m28 17h-24a1 1 0 0 1 0-2h24a1 1 0 0 1 0 2z"
   fill="#b7bfcb"
   stroke-linecap="round"
   id="path2452" />
</g>
		<g
   transform="matrix(0 .8377 -2.8084 0 19.67 -2e-4)"
   id="g2458">
<path
   transform="translate(-16,-23)"
   d="m28 24h-24a1 1 0 0 1 0-2h24a1 1 0 0 1 0 2z"
   fill="#b7bfcb"
   stroke-linecap="round"
   id="path2456" />
</g>
		<g
   transform="matrix(0 .8377 -2.8084 0 .0257 -2e-4)"
   id="g2462">
<path
   transform="translate(-16,-9)"
   d="m28 10h-24a1 1 0 0 1 0-2h24a1 1 0 0 1 0 2z"
   fill="#b7bfcb"
   stroke-linecap="round"
   id="path2460" />
</g>
		<g
   transform="matrix(0 .8377 -2.8084 0 -19.633 -2e-4)"
   id="g2466">
<path
   transform="translate(-16,-16)"
   d="m28 17h-24a1 1 0 0 1 0-2h24a1 1 0 0 1 0 2z"
   fill="#b7bfcb"
   stroke-linecap="round"
   id="path2464" />
</g>
		<g
   transform="matrix(0 .8377 -2.8084 0 -39.292 -2e-4)"
   id="g2470">
<path
   transform="translate(-16,-23)"
   d="m28 24h-24a1 1 0 0 1 0-2h24a1 1 0 0 1 0 2z"
   fill="#b7bfcb"
   stroke-linecap="round"
   id="path2468" />
</g>
		<g
   transform="matrix(0 .8377 -2.8084 0 -58.988 -2e-4)"
   id="g2474">
<path
   transform="translate(-16,-16)"
   d="m28 17h-24a1 1 0 0 1 0-2h24a1 1 0 0 1 0 2z"
   fill="#b7bfcb"
   stroke-linecap="round"
   id="path2472" />
</g>

</g>
		<g
   transform="translate(-95.861 -.0021)"
   id="g2486">

		<g
   transform="matrix(.1467 0 0 .0869 -9.2218 9e-4)"
   id="g2480">
<path
   transform="translate(-78.5 -78.5)"
   d="m78.5 0c-25.558 0-46.383 35.227-46.383 78.5 0 43.273 20.825 78.5 46.383 78.5 25.558 0 46.383-35.227 46.383-78.5 0-43.273-20.825-78.5-46.383-78.5z"
   fill="#09f"
   stroke-linecap="round"
   vector-effect="non-scaling-stroke"
   id="path2478" />
</g>
		<g
   transform="matrix(.1467 0 0 .0869 9.2217 -.001)"
   id="g2484">
<path
   transform="translate(-78.5 -78.5)"
   d="m78.5 0c-25.558 0-46.383 35.227-46.383 78.5 0 43.273 20.825 78.5 46.383 78.5 25.558 0 46.383-35.227 46.383-78.5 0-43.273-20.825-78.5-46.383-78.5z"
   fill="#b7bfcb"
   stroke-linecap="round"
   vector-effect="non-scaling-stroke"
   id="path2482" />
</g>

</g>

</g><g
       transform="matrix(1.0201 0 0 .1794 470 549.01)"
       id="g2492">
<path
   transform="translate(-512,-512)"
   d="m904 476h-784c-4.4 0-8 3.6-8 8v56c0 4.4 3.6 8 8 8h784c4.4 0 8-3.6 8-8v-56c0-4.4-3.6-8-8-8z"
   fill="#b7bfcb"
   stroke-linecap="round"
   vector-effect="non-scaling-stroke"
   id="path2490" />
</g><g
       transform="matrix(1.0612 0 0 1.0612 668.67 311.67)"
       id="g2538">

		<g
   transform="matrix(1.5975 0 0 .314 -1e-4 0)"
   id="g2496">
<path
   transform="translate(-79 -79)"
   d="m154.68 2.5005h0.026l0.027-5.5e-4c0.412-0.00868 0.753 0.31859 0.762 0.73046v2.9e-4 0.03214l-1e-3 0.02603v151.4c0 0.449-0.364 0.814-0.814 0.814h-151.37c-0.4496 0-0.81409-0.365-0.81409-0.814v-151.37c0-0.45007 0.36465-0.81441 0.81409-0.81441z"
   fill="#fff"
   stroke="#b7bfcb"
   stroke-width="5"
   vector-effect="non-scaling-stroke"
   id="path2494" />
</g>
		<g
   transform="translate(45.231)"
   id="g2526">

		<g
   transform="matrix(0 .8377 -2.8084 0 58.988 -2e-4)"
   id="g2500">
<path
   transform="translate(-16,-9)"
   d="m28 10h-24a1 1 0 0 1 0-2h24a1 1 0 0 1 0 2z"
   fill="#b7bfcb"
   stroke-linecap="round"
   id="path2498" />
</g>
		<g
   transform="matrix(0 .8377 -2.8084 0 39.329 -2e-4)"
   id="g2504">
<path
   transform="translate(-16,-16)"
   d="m28 17h-24a1 1 0 0 1 0-2h24a1 1 0 0 1 0 2z"
   fill="#b7bfcb"
   stroke-linecap="round"
   id="path2502" />
</g>
		<g
   transform="matrix(0 .8377 -2.8084 0 19.67 -2e-4)"
   id="g2508">
<path
   transform="translate(-16,-23)"
   d="m28 24h-24a1 1 0 0 1 0-2h24a1 1 0 0 1 0 2z"
   fill="#b7bfcb"
   stroke-linecap="round"
   id="path2506" />
</g>
		<g
   transform="matrix(0 .8377 -2.8084 0 .0257 -2e-4)"
   id="g2512">
<path
   transform="translate(-16,-9)"
   d="m28 10h-24a1 1 0 0 1 0-2h24a1 1 0 0 1 0 2z"
   fill="#b7bfcb"
   stroke-linecap="round"
   id="path2510" />
</g>
		<g
   transform="matrix(0 .8377 -2.8084 0 -19.633 -2e-4)"
   id="g2516">
<path
   transform="translate(-16,-16)"
   d="m28 17h-24a1 1 0 0 1 0-2h24a1 1 0 0 1 0 2z"
   fill="#b7bfcb"
   stroke-linecap="round"
   id="path2514" />
</g>
		<g
   transform="matrix(0 .8377 -2.8084 0 -39.292 -2e-4)"
   id="g2520">
<path
   transform="translate(-16,-23)"
   d="m28 24h-24a1 1 0 0 1 0-2h24a1 1 0 0 1 0 2z"
   fill="#b7bfcb"
   stroke-linecap="round"
   id="path2518" />
</g>
		<g
   transform="matrix(0 .8377 -2.8084 0 -58.988 -2e-4)"
   id="g2524">
<path
   transform="translate(-16,-16)"
   d="m28 17h-24a1 1 0 0 1 0-2h24a1 1 0 0 1 0 2z"
   fill="#b7bfcb"
   stroke-linecap="round"
   id="path2522" />
</g>

</g>
		<g
   transform="translate(-95.861 -.0021)"
   id="g2536">

		<g
   transform="matrix(.1467 0 0 .0869 -9.2218 9e-4)"
   id="g2530">
<path
   transform="translate(-78.5 -78.5)"
   d="m78.5 0c-25.558 0-46.383 35.227-46.383 78.5 0 43.273 20.825 78.5 46.383 78.5 25.558 0 46.383-35.227 46.383-78.5 0-43.273-20.825-78.5-46.383-78.5z"
   fill="#09f"
   stroke-linecap="round"
   vector-effect="non-scaling-stroke"
   id="path2528" />
</g>
		<g
   transform="matrix(.1467 0 0 .0869 9.2217 -.001)"
   id="g2534">
<path
   transform="translate(-78.5 -78.5)"
   d="m78.5 0c-25.558 0-46.383 35.227-46.383 78.5 0 43.273 20.825 78.5 46.383 78.5 25.558 0 46.383-35.227 46.383-78.5 0-43.273-20.825-78.5-46.383-78.5z"
   fill="#b7bfcb"
   stroke-linecap="round"
   vector-effect="non-scaling-stroke"
   id="path2532" />
</g>

</g>

</g><g
       transform="translate(668.67 362.79)"
       id="g2584">

		<g
   transform="matrix(1.6953 0 0 .3332 .0025 -.0013)"
   id="g2542">
<path
   transform="translate(-79 -79)"
   d="m154.68 2.5005h0.026l0.027-5.5e-4c0.412-0.00868 0.753 0.31859 0.762 0.73046v2.9e-4 0.03214l-1e-3 0.02603v151.4c0 0.449-0.364 0.814-0.814 0.814h-151.37c-0.4496 0-0.81409-0.365-0.81409-0.814v-151.37c0-0.45007 0.36465-0.81441 0.81409-0.81441z"
   fill="#fff"
   stroke="#b7bfcb"
   stroke-width="5"
   vector-effect="non-scaling-stroke"
   id="path2540" />
</g>
		<g
   transform="matrix(1.0612 0 0 1.0612 47.999 0)"
   id="g2572">

		<g
   transform="matrix(0 .8377 -2.8084 0 58.988 -2e-4)"
   id="g2546">
<path
   transform="translate(-16,-9)"
   d="m28 10h-24a1 1 0 0 1 0-2h24a1 1 0 0 1 0 2z"
   fill="#b7bfcb"
   stroke-linecap="round"
   id="path2544" />
</g>
		<g
   transform="matrix(0 .8377 -2.8084 0 39.329 -2e-4)"
   id="g2550">
<path
   transform="translate(-16,-16)"
   d="m28 17h-24a1 1 0 0 1 0-2h24a1 1 0 0 1 0 2z"
   fill="#b7bfcb"
   stroke-linecap="round"
   id="path2548" />
</g>
		<g
   transform="matrix(0 .8377 -2.8084 0 19.67 -2e-4)"
   id="g2554">
<path
   transform="translate(-16,-23)"
   d="m28 24h-24a1 1 0 0 1 0-2h24a1 1 0 0 1 0 2z"
   fill="#b7bfcb"
   stroke-linecap="round"
   id="path2552" />
</g>
		<g
   transform="matrix(0 .8377 -2.8084 0 .0257 -2e-4)"
   id="g2558">
<path
   transform="translate(-16,-9)"
   d="m28 10h-24a1 1 0 0 1 0-2h24a1 1 0 0 1 0 2z"
   fill="#b7bfcb"
   stroke-linecap="round"
   id="path2556" />
</g>
		<g
   transform="matrix(0 .8377 -2.8084 0 -19.633 -2e-4)"
   id="g2562">
<path
   transform="translate(-16,-16)"
   d="m28 17h-24a1 1 0 0 1 0-2h24a1 1 0 0 1 0 2z"
   fill="#b7bfcb"
   stroke-linecap="round"
   id="path2560" />
</g>
		<g
   transform="matrix(0 .8377 -2.8084 0 -39.292 -2e-4)"
   id="g2566">
<path
   transform="translate(-16,-23)"
   d="m28 24h-24a1 1 0 0 1 0-2h24a1 1 0 0 1 0 2z"
   fill="#b7bfcb"
   stroke-linecap="round"
   id="path2564" />
</g>
		<g
   transform="matrix(0 .8377 -2.8084 0 -58.988 -2e-4)"
   id="g2570">
<path
   transform="translate(-16,-16)"
   d="m28 17h-24a1 1 0 0 1 0-2h24a1 1 0 0 1 0 2z"
   fill="#b7bfcb"
   stroke-linecap="round"
   id="path2568" />
</g>

</g>
		<g
   transform="translate(-101.73 -.0023)"
   id="g2582">

		<g
   transform="matrix(.1557 0 0 .0922 -9.7851 -4e-4)"
   id="g2576">
<path
   transform="translate(-78.5 -78.5)"
   d="m78.5 0c-25.558 0-46.383 35.227-46.383 78.5 0 43.273 20.825 78.5 46.383 78.5 25.558 0 46.383-35.227 46.383-78.5 0-43.273-20.825-78.5-46.383-78.5z"
   fill="#09f"
   stroke-linecap="round"
   vector-effect="non-scaling-stroke"
   id="path2574" />
</g>
		<g
   transform="matrix(.1557 0 0 .0922 9.7872 -.0024)"
   id="g2580">
<path
   transform="translate(-78.5 -78.5)"
   d="m78.5 0c-25.558 0-46.383 35.227-46.383 78.5 0 43.273 20.825 78.5 46.383 78.5 25.558 0 46.383-35.227 46.383-78.5 0-43.273-20.825-78.5-46.383-78.5z"
   fill="#f7931e"
   stroke-linecap="round"
   vector-effect="non-scaling-stroke"
   id="path2578" />
</g>

</g>

</g><g
       transform="translate(668.67 516.05)"
       id="g2630">

		<g
   transform="scale(1.6953 .3332)"
   id="g2588">
<path
   transform="translate(-79 -79)"
   d="m154.68 2.5005h0.026l0.027-5.5e-4c0.412-0.00868 0.753 0.31859 0.762 0.73046v2.9e-4 0.03214l-1e-3 0.02603v151.4c0 0.449-0.364 0.814-0.814 0.814h-151.37c-0.4496 0-0.81409-0.365-0.81409-0.814v-151.37c0-0.45007 0.36465-0.81441 0.81409-0.81441z"
   fill="#fff"
   stroke="#b7bfcb"
   stroke-width="5"
   vector-effect="non-scaling-stroke"
   id="path2586" />
</g>
		<g
   transform="translate(-101.73 -.001)"
   id="g2598">

		<g
   transform="matrix(.1557 0 0 .0922 -9.7851 -4e-4)"
   id="g2592">
<path
   transform="translate(-78.5 -78.5)"
   d="m78.5 0c-25.558 0-46.383 35.227-46.383 78.5 0 43.273 20.825 78.5 46.383 78.5 25.558 0 46.383-35.227 46.383-78.5 0-43.273-20.825-78.5-46.383-78.5z"
   fill="#09f"
   stroke-linecap="round"
   vector-effect="non-scaling-stroke"
   id="path2590" />
</g>
		<g
   transform="matrix(.1557 0 0 .0922 9.7872 -.0024)"
   id="g2596">
<path
   transform="translate(-78.5 -78.5)"
   d="m78.5 0c-25.558 0-46.383 35.227-46.383 78.5 0 43.273 20.825 78.5 46.383 78.5 25.558 0 46.383-35.227 46.383-78.5 0-43.273-20.825-78.5-46.383-78.5z"
   fill="#f33"
   stroke-linecap="round"
   vector-effect="non-scaling-stroke"
   id="path2594" />
</g>

</g>
		<g
   transform="matrix(1.0612 0 0 1.0612 47.996 .0013)"
   id="g2628">

		<g
   transform="matrix(0 .8377 -2.8084 0 58.988 -2e-4)"
   id="g2602">
<path
   transform="translate(-16,-9)"
   d="m28 10h-24a1 1 0 0 1 0-2h24a1 1 0 0 1 0 2z"
   fill="#b7bfcb"
   stroke-linecap="round"
   id="path2600" />
</g>
		<g
   transform="matrix(0 .8377 -2.8084 0 39.329 -2e-4)"
   id="g2606">
<path
   transform="translate(-16,-16)"
   d="m28 17h-24a1 1 0 0 1 0-2h24a1 1 0 0 1 0 2z"
   fill="#b7bfcb"
   stroke-linecap="round"
   id="path2604" />
</g>
		<g
   transform="matrix(0 .8377 -2.8084 0 19.67 -2e-4)"
   id="g2610">
<path
   transform="translate(-16,-23)"
   d="m28 24h-24a1 1 0 0 1 0-2h24a1 1 0 0 1 0 2z"
   fill="#b7bfcb"
   stroke-linecap="round"
   id="path2608" />
</g>
		<g
   transform="matrix(0 .8377 -2.8084 0 .0257 -2e-4)"
   id="g2614">
<path
   transform="translate(-16,-9)"
   d="m28 10h-24a1 1 0 0 1 0-2h24a1 1 0 0 1 0 2z"
   fill="#b7bfcb"
   stroke-linecap="round"
   id="path2612" />
</g>
		<g
   transform="matrix(0 .8377 -2.8084 0 -19.633 -2e-4)"
   id="g2618">
<path
   transform="translate(-16,-16)"
   d="m28 17h-24a1 1 0 0 1 0-2h24a1 1 0 0 1 0 2z"
   fill="#b7bfcb"
   stroke-linecap="round"
   id="path2616" />
</g>
		<g
   transform="matrix(0 .8377 -2.8084 0 -39.292 -2e-4)"
   id="g2622">
<path
   transform="translate(-16,-23)"
   d="m28 24h-24a1 1 0 0 1 0-2h24a1 1 0 0 1 0 2z"
   fill="#b7bfcb"
   stroke-linecap="round"
   id="path2620" />
</g>
		<g
   transform="matrix(0 .8377 -2.8084 0 -58.988 -2e-4)"
   id="g2626">
<path
   transform="translate(-16,-16)"
   d="m28 17h-24a1 1 0 0 1 0-2h24a1 1 0 0 1 0 2z"
   fill="#b7bfcb"
   stroke-linecap="round"
   id="path2624" />
</g>

</g>

</g><g
       transform="translate(668.67 260.52)"
       id="g2676">

		<g
   transform="matrix(1.6953 0 0 .3332 .0025 -.0013)"
   id="g2634">
<path
   transform="translate(-79 -79)"
   d="m154.68 2.5005h0.026l0.027-5.5e-4c0.412-0.00868 0.753 0.31859 0.762 0.73046v2.9e-4 0.03214l-1e-3 0.02603v151.4c0 0.449-0.364 0.814-0.814 0.814h-151.37c-0.4496 0-0.81409-0.365-0.81409-0.814v-151.37c0-0.45007 0.36465-0.81441 0.81409-0.81441z"
   fill="#fff"
   stroke="#b7bfcb"
   stroke-width="5"
   vector-effect="non-scaling-stroke"
   id="path2632" />
</g>
		<g
   transform="translate(-101.73 -.0023)"
   id="g2644">

		<g
   transform="matrix(.1557 0 0 .0922 -9.7851 -4e-4)"
   id="g2638">
<path
   transform="translate(-78.5 -78.5)"
   d="m78.5 0c-25.558 0-46.383 35.227-46.383 78.5 0 43.273 20.825 78.5 46.383 78.5 25.558 0 46.383-35.227 46.383-78.5 0-43.273-20.825-78.5-46.383-78.5z"
   fill="#b7bfcb"
   stroke-linecap="round"
   vector-effect="non-scaling-stroke"
   id="path2636" />
</g>
		<g
   transform="matrix(.1557 0 0 .0922 9.7872 -.0024)"
   id="g2642">
<path
   transform="translate(-78.5 -78.5)"
   d="m78.5 0c-25.558 0-46.383 35.227-46.383 78.5 0 43.273 20.825 78.5 46.383 78.5 25.558 0 46.383-35.227 46.383-78.5 0-43.273-20.825-78.5-46.383-78.5z"
   fill="#b7bfcb"
   stroke-linecap="round"
   vector-effect="non-scaling-stroke"
   id="path2640" />
</g>

</g>
		<g
   transform="matrix(1.0612 0 0 1.0612 47.999 0)"
   id="g2674">

		<g
   transform="matrix(0 .8377 -2.8084 0 58.988 -2e-4)"
   id="g2648">
<path
   transform="translate(-16,-9)"
   d="m28 10h-24a1 1 0 0 1 0-2h24a1 1 0 0 1 0 2z"
   fill="#b7bfcb"
   stroke-linecap="round"
   id="path2646" />
</g>
		<g
   transform="matrix(0 .8377 -2.8084 0 39.329 -2e-4)"
   id="g2652">
<path
   transform="translate(-16,-16)"
   d="m28 17h-24a1 1 0 0 1 0-2h24a1 1 0 0 1 0 2z"
   fill="#b7bfcb"
   stroke-linecap="round"
   id="path2650" />
</g>
		<g
   transform="matrix(0 .8377 -2.8084 0 19.67 -2e-4)"
   id="g2656">
<path
   transform="translate(-16,-23)"
   d="m28 24h-24a1 1 0 0 1 0-2h24a1 1 0 0 1 0 2z"
   fill="#b7bfcb"
   stroke-linecap="round"
   id="path2654" />
</g>
		<g
   transform="matrix(0 .8377 -2.8084 0 .0257 -2e-4)"
   id="g2660">
<path
   transform="translate(-16,-9)"
   d="m28 10h-24a1 1 0 0 1 0-2h24a1 1 0 0 1 0 2z"
   fill="#b7bfcb"
   stroke-linecap="round"
   id="path2658" />
</g>
		<g
   transform="matrix(0 .8377 -2.8084 0 -19.633 -2e-4)"
   id="g2664">
<path
   transform="translate(-16,-16)"
   d="m28 17h-24a1 1 0 0 1 0-2h24a1 1 0 0 1 0 2z"
   fill="#b7bfcb"
   stroke-linecap="round"
   id="path2662" />
</g>
		<g
   transform="matrix(0 .8377 -2.8084 0 -39.292 -2e-4)"
   id="g2668">
<path
   transform="translate(-16,-23)"
   d="m28 24h-24a1 1 0 0 1 0-2h24a1 1 0 0 1 0 2z"
   fill="#b7bfcb"
   stroke-linecap="round"
   id="path2666" />
</g>
		<g
   transform="matrix(0 .8377 -2.8084 0 -58.988 -2e-4)"
   id="g2672">
<path
   transform="translate(-16,-16)"
   d="m28 17h-24a1 1 0 0 1 0-2h24a1 1 0 0 1 0 2z"
   fill="#b7bfcb"
   stroke-linecap="round"
   id="path2670" />
</g>

</g>

</g><g
       transform="matrix(4.9564 0 0 4.7241 342.81 413.81)"
       id="g2680">
<path
   transform="translate(-12,-12)"
   d="m5 8h14m-14 4h14m-14 4h6"
   fill="none"
   stroke="#5c83be"
   stroke-linecap="round"
   stroke-linejoin="round"
   stroke-width="5"
   vector-effect="non-scaling-stroke"
   id="path2678" />
</g><g
       transform="matrix(.3182 0 0 .3182 478.13 426.54)"
       id="g2704">
<g
   vector-effect="non-scaling-stroke"
   id="g2702">
		<g
   transform="translate(-96.115)"
   id="g2684">
<line
   x1="-47.885"
   x2="47.885"
   fill="none"
   stroke="#5c83be"
   stroke-linecap="round"
   stroke-linejoin="round"
   stroke-width="20"
   id="line2682" />
</g>
		<g
   transform="translate(96.115)"
   id="g2688">
<line
   x1="-47.885"
   x2="47.885"
   fill="none"
   stroke="#5c83be"
   stroke-linecap="round"
   stroke-linejoin="round"
   stroke-width="20"
   id="line2686" />
</g>
		
<line
   x1="23.6"
   x2="-23.6"
   y1="-23.6"
   y2="23.6"
   fill="none"
   stroke="#5c83be"
   stroke-linecap="round"
   stroke-linejoin="round"
   stroke-width="20"
   id="line2690" />

		
<line
   x1="23.6"
   x2="-23.6"
   y1="23.6"
   y2="-23.6"
   fill="none"
   stroke="#5c83be"
   stroke-linecap="round"
   stroke-linejoin="round"
   stroke-width="20"
   id="line2692" />

		<g
   transform="translate(0 68.189)"
   id="g2696">
<path
   transform="translate(-256 -324.19)"
   d="m168.86 296.33a96 96 0 0 0 174.28 0"
   fill="none"
   stroke="#5c83be"
   stroke-linecap="round"
   stroke-linejoin="round"
   stroke-width="20"
   id="path2694" />
</g>
		<g
   transform="translate(0 -68.189)"
   id="g2700">
<path
   transform="translate(-256 -187.81)"
   d="m168.86 215.67a96 96 0 0 1 174.28 0"
   fill="none"
   stroke="#5c83be"
   stroke-linecap="round"
   stroke-linejoin="round"
   stroke-width="20"
   id="path2698" />
</g>
</g>
</g><g
       transform="matrix(.0792 0 0 .0792 260.15 418.5)"
       id="g2708">
<path
   transform="translate(-423.33,-423.33)"
   d="m69.14 8.8h572.35c11.22 0 20.32 9.1 20.32 20.32v179.3c0 11.22-9.1 20.32-20.32 20.32h-572.35c-11.22 0-20.32-9.1-20.32-20.32v-179.3c0-11.22 9.1-20.32 20.32-20.32zm534.17 722.06c22.21 14.7-0.18 48.51-22.38 33.81l-49.26-32.55c-9.68-5.51-13.12-17.82-7.76-27.5l26.62-53.3c11.9-23.9 48.25-5.81 36.35 18.1l-10.3 20.63c104.09-24.9 129.44-143.85 39.46-198.21-22.83-13.76-1.88-48.53 20.95-34.77 118.24 71.44 89.48 229.82-40.15 269.51zm-69.26-218.76c-11.9 23.9-48.26 5.81-36.36-18.1l9.12-18.26c-101.96 24.39-131.16 142.81-39.46 198.21 9.6 5.79 12.69 18.26 6.91 27.86-5.79 9.6-18.26 12.69-27.86 6.91-119.21-72.04-89.2-232.57 43.44-270.49l-8.58-5.66c-22.21-14.71 0.18-48.52 22.39-33.81l49.49 32.7c9.15 5.35 12.7 16.95 7.91 26.57-9 18.02-18 36.04-27 54.07zm7.65 325.76c-71.44 0-139.03-29.49-187.64-81.78h-284.92c-11.22 0-20.32-9.1-20.32-20.32v-179.29c0-11.23 9.1-20.32 20.32-20.32h220.45c2.71-15.08 6.74-29.7 11.96-43.74h-232.41c-11.22 0-20.32-9.1-20.32-20.32v-179.3c0-11.22 9.1-20.32 20.32-20.32h572.35c11.22 0 20.32 9.1 20.32 20.32v62.63c83.56 44.44 136.03 131.17 136.03 226.29 0 141.47-114.68 256.15-256.14 256.15zm-218.51-122.42c-23.87-38.92-37.64-84.72-37.64-133.73 0-1.65 0.02-3.29 0.05-4.93h-196.14v138.66zm-2.28-263.67c46.04-78.09 129.69-126.21 220.79-126.21 27.74 0 54.45 4.41 79.47 12.57v-25.02h-531.71v138.66zm220.79 345.45c119.02 0 215.51-96.49 215.51-215.51 0-120.61-98.12-215.51-215.51-215.51-119.89 0-215.51 97.38-215.51 215.51 0 118.61 96.07 215.51 215.51 215.51zm-418.14-102.57c-26.72 0-26.72-40.64 0-40.64h81.01c26.73 0 26.73 40.64 0 40.64zm0-56.43c-26.72 0-26.72-40.64 0-40.64h81.01c26.73 0 26.73 40.64 0 40.64zm0-207.24c-26.72 0-26.72-40.64 0-40.64h81.01c26.73 0 26.73 40.64 0 40.64zm0-56.44c-26.72 0-26.72-40.64 0-40.64h81.01c26.73 0 26.73 40.64 0 40.64zm0-207.23c-26.72 0-26.72-40.64 0-40.64h81.01c26.73 0 26.73 40.64 0 40.64zm0-56.44c-26.72 0-26.72-40.64 0-40.64h81.01c26.73 0 26.73 40.64 0 40.64zm497.61-61.43h-531.71v138.66h531.71z"
   fill="#5c83be"
   stroke-linecap="round"
   vector-effect="non-scaling-stroke"
   id="path2706" />
</g></g></svg>
